<svg xmlns="http://www.w3.org/2000/svg" width="82.25mm" height="118.59mm" viewBox="0 0 233.15 336.16"><defs><style>.a,.c{fill:none;}.b{fill:#eae7dc;opacity:0.58;}.c{stroke:#000;stroke-linecap:round;stroke-linejoin:round;stroke-width:0;}</style></defs><title>alice_flamingo1</title><path class="a" d="M260.88,211.45a57,57,0,0,0,1-15.89c-.18-3.69-3-7.29-.83-10.89-.09-2.68-6.37-2.59-3.33.55,1.39,2.68,1.3,5.63,1.3,8.59-1.48-1.94-2.5-4.25-4.53-5.73-.55,1.11,3,6.47-.55,3-2.77-2.77-7.21-6.74-11.36-4.62-3,2.49-7.48,3.23-10.07,5.36,3.79,5.54,6.74,11.54,10.62,17,2.5,3.79,5.08,7.57,7.48,11.45-.09,3.05,4.16,4.43,4.07,8,1.2,2.68,1.94,6.92,4.06,8.4a4.69,4.69,0,0,0,.37-2.22c.28-2.4-2.77-3.23.46-4,.56-4.15.56-8.4,1.11-12.56C261.72,215.79,259.5,211.82,260.88,211.45Z" transform="translate(-83.43 -31.92)"/><path class="a" d="M239.55,158.34l-.09-.64-.09-.74c-.1-1.39-1.57-6.37-1.57-2.4.27,2.31-3.14,1.29-.74,4.06C238,160.65,240.66,161.3,239.55,158.34Z" transform="translate(-83.43 -31.92)"/><path class="a" d="M190.67,307.84c.47,1.86.85,3.75,1.19,5.64a48.64,48.64,0,0,0-1.08-5.21C190.74,308.12,190.7,308,190.67,307.84Z" transform="translate(-83.43 -31.92)"/><path class="a" d="M161.94,106.67c-.06-.76-.12-1.45-.17-2A2.56,2.56,0,0,0,161.94,106.67Z" transform="translate(-83.43 -31.92)"/><path class="b" d="M185.84,100.19h0Z" transform="translate(-83.43 -31.92)"/><path class="b" d="M162.11,109.46c0,.13,0,.25,0,.38C162.12,109.71,162.12,109.59,162.11,109.46Z" transform="translate(-83.43 -31.92)"/><path class="b" d="M176.66,100.81c-3.14,1.57-9.7-.83-10.35,3.6.37,3.88,4.81,4.34,5,7.57-1.66-.28-4.71-4.71-5.91-7.29-1-2.81-3.07-1.76-3.62,0,0,.57.11,1.26.17,2a2.73,2.73,0,0,0,.77.88,11.55,11.55,0,0,0,10.07,7.39c1-4,3.78,5.26,7.2,3.14,1.2.37,2.86,4.8,2.13,1.11-.56-2.78-5.18-.56-2.5-3.42-1-1.85,2.86-1,0-2.4,2.31-.19,0-6,2.5-5.82,1.84,2.77.27,7.66,3.32,9.42,2-.09.55-7.3,2.59-3.23.55,2.86.18,6.28,2.67,7.75-1.75,1.11-2.86,4-2.67,6.47-1.3-.92-3.24-7.39-.93-3.42.65-1.85.83-8.4-1.75-3.88-1.48,4.16-.09,8.68-1.3,12.84-2.12,1.94,4.62,2.49,3.51-.83,0-1.57.1-4.25,1-1.2,1.85-3.14,2.31-7.21,3.14-10.81-.28-1.66-2.86-1.66-1.48-4.15.56-4.16.37-8.13,2.31-11.55,1.66,2-2.31,7.48.93,9.7,1.29-1.2.73-3.69,1.1-5.45.1-1.85.1,1.76.19,2.49.64,3.51-1.85,6.28-1.76,9.79-.37,2-.37,5.08.28,1.3.09-1.76,1.66-6.19,2.31-2,0,2.95,3.23,3,2.4-.1-.09-2.31-1.2-5.45-1-7.2,1.76,4.8,1.76-8.13-.18-2.49.37-1.94.28-3.61-1.39-4,1.21-3.78-3.78-2.3-4.61-1.93,2-3-2.4-2-2.68-2.5,2.58-2.12-4.25-1.57-5.82-1.57-1.75.09.92,4.8-1.29,4,.65-2.07-2.62-3.65-2.8-4.69-.72,0-1.35,0-1.82,0l-.09.08A1.56,1.56,0,0,1,176.66,100.81Z" transform="translate(-83.43 -31.92)"/><path class="b" d="M166.41,117.34c3.69,1.48,2.4,6.83,6.18,8.13,1.94.92,4.07,1.1,6.19,1.57-4.25-5.27-8.4-10.9-14.5-14-4.25-1.68.2,5.74-.85,5.74a2.41,2.41,0,0,1,.42.85c0,.15.07.29.1.44a6.68,6.68,0,0,0,2.92-1.49C164.28,119.19,163.27,114.75,166.41,117.34Z" transform="translate(-83.43 -31.92)"/><path class="b" d="M176.47,131.19c-2.4-1.2-8.86-3.05-8.59,1.66-.25.24-.4.13-.49-.18a13.94,13.94,0,0,0,.4,2.06c1.55-.15,3.1-.24,4.62-.31C175.09,135.26,179.61,134.79,176.47,131.19Z" transform="translate(-83.43 -31.92)"/><path class="b" d="M166.88,129.23q.08.27.15.66a5.84,5.84,0,0,0-.62-2.07C166.57,128.29,166.73,128.76,166.88,129.23Z" transform="translate(-83.43 -31.92)"/><path class="b" d="M186.35,362.91c.93-2-2.31-5.26-2.21-1.85-.46.64-1,1.61-1.72,2.41a13.21,13.21,0,0,0,1.43.78C183.61,362.42,185.25,360.31,186.35,362.91Z" transform="translate(-83.43 -31.92)"/><path class="b" d="M190.78,308.27a48.64,48.64,0,0,1,1.08,5.21c.18,1,.34,2,.5,3,.64,2.4-1.57,8,2.86,5.17,1.85-1.85,3.6-2.87,5.45-.37,4.43,1.66,3.14-5.08,2-7.39-1.75-3.23-.46-5.91-.18-9.14.18-4-.1-8.13.73-12.1-2.21-2.22.74-3.05.47-5.27,1.66-1.94-2.22-1.38.27-3,.74-2-1.57-3.14-2.21-1.85-2.5-.37-7.48-1.11-8.31-2.4,2.49,0,5.81,1.48,7.57,1.2-1.11-1.48-1.66-3.14-4.53-2.59-2.31.74-1.66,0-2.4-.74-2.49.19-8.22-.92-8.77,1,3.32,2.22-.83,5.08.28,8.5-.22.54-.41.38-.58-.13,1.07,6.16,3.27,12.17,5,18.25.22.75.43,1.5.62,2.26C190.7,308,190.74,308.12,190.78,308.27Zm9.15,1.91c-.28,4.24-2.31-4.16,0,0Zm0-8.22c-2,3.23-2.22-1.85,0,0Zm0-1.2c-.09,2.77-2.68-2.68,0,0Zm1-1.57h-.28l-.37-.47a17.06,17.06,0,0,1-.49-1.9,3.58,3.58,0,0,1-.41.39c-.34.5-.58.53-.73.31-.46-.1-.4-1.08-.06-1.57.15-.58.49-.93,1-.28-.32-2-.47-4-.77-5.9C199.75,292.81,201.41,296,201,299.19Zm-1-12.38c-.09,2.86-2.68-2.68,0,0Zm0-3.79c3-.92,2,1.67,0,0Zm0,.1-.06.05c1.14.64,2.38,1.75-.22.68l-.35-.17,0,0c1.15.44,3.48,2.24.39,1l-.55-.28a2.45,2.45,0,0,1-.3-.45C197.36,284.41,197.42,281.52,199.93,283.12Z" transform="translate(-83.43 -31.92)"/><path class="b" d="M179.89,339.91c-1.85-.64-4.34-.83-1.94,1.3-.55,1.2-3.6.37-2.77,3-.92,1.48-3.05,2.78-1.11,4.25-2.68,4.34,1.66-.92,4-.55.93-.09,4.71-.28,4.34,0-2.12.74-4.62.92-6.19,2.58,1.39,2.41,7.49-3.41,4.9.28-2.22.65-2.12,6.37.09,3.14,1.94-4.15.74,1.66-.92,2.59,2-.19,2.49.92,2.68,2.31,2.58-.1,5.63-.56,6.74,1.57,1.38.37.74,8,1.94,3.32.09-2-.56-5.91,2.68-4.8-1.39-.28-1.76-2.49-.1-1.66-.46-2-4.06-7-.64-3,1,.83,1.75.18,2.58,1.38-.18-1.75-1.2-5,1.48-2.4a.74.74,0,0,1,.17-.18,3.46,3.46,0,0,1,.29-.46,1.25,1.25,0,0,0,.12.37c.88.23,1.82,2.56,1,.09-1.57-.28-3.79-3-.55-2.13-1.76-1.75-.37-4.89,1.75-3.51-1.85,3.05,3.6.37,4.07.84-3-.84,1.93-5.18-1.3-3-1.57,2.29-4.08,1.14-4.16-1l-.36-.14c-1-.75-.49-.79.43-.58a3.45,3.45,0,0,1,.12-.43c-1.29-.93-2.58-2.22-2.58-3.42-4.81-.37-9.42-2.4-14.23-2.86-.27-.93-2.58-3.24-2-.93a3.66,3.66,0,0,1-1.94.17,17.06,17.06,0,0,0-3.43,3.14l-.07.08C177.26,338.8,180.22,338.87,179.89,339.91Z" transform="translate(-83.43 -31.92)"/><path d="M199.41,46.23c-3.07-.42,1.28,1.74.53.1a5.44,5.44,0,0,0,1.84.08c.3-1.53-1.18-1.91-2.36-1.76-1.24-.2-1.28,0-.94.27C197.82,45.25,197.77,45.8,199.41,46.23Z" transform="translate(-83.43 -31.92)"/><path d="M199.38,49.09a16.41,16.41,0,0,0,1.94.74c3.69.46-1.21-2.68-3-1.76C195.68,47.79,198.45,48.63,199.38,49.09Z" transform="translate(-83.43 -31.92)"/><path d="M199.59,295.67c-.49-.65-.83-.3-1,.28-.34.49-.4,1.47.06,1.57.15.22.39.19.73-.31a3.58,3.58,0,0,0,.41-.39,17.06,17.06,0,0,0,.49,1.9l.37.47H201c.46-3.24-1.2-6.38-2.13-9.42C199.12,291.7,199.27,293.71,199.59,295.67Z" transform="translate(-83.43 -31.92)"/><path class="b" d="M241.58,65.9c1.85-.28,2.31,3.32,3.7-.19,1.29-2.86-4.25-2.77-4.71-5.63C239.64,61.09,243.24,64.6,241.58,65.9Z" transform="translate(-83.43 -31.92)"/><path class="b" d="M247.4,75.87c-1.11,1.2-3.14,6.19.09,3.33.93,3.41.46-1.85,1.57-2.31l.37.37c.56,1.38,1.3-.93,1.85-.83a63.8,63.8,0,0,0-4.71-10.63C245.83,69.13,250.73,73,247.4,75.87Z" transform="translate(-83.43 -31.92)"/><path class="b" d="M247.86,61.37c-1.11-.74.19-5.08-1.38-3.88,1.66,2.68-3.24.19-1.57,3.6C245,63.4,250.08,64.79,247.86,61.37Z" transform="translate(-83.43 -31.92)"/><path class="b" d="M249.06,113.09a7.06,7.06,0,0,0-.74-1.48C246.11,108.38,247.49,113.27,249.06,113.09Z" transform="translate(-83.43 -31.92)"/><path class="b" d="M217.48,46.41a9,9,0,0,0,3.14-.83C219.14,44.29,212.49,46.69,217.48,46.41Z" transform="translate(-83.43 -31.92)"/><path class="b" d="M200.3,117.15c-.91-.75-.77-.21-.4.4l0,0,0,.13c.5.8,1.32,1.64.71,0Z" transform="translate(-83.43 -31.92)"/><path class="b" d="M240.29,107.73c.46.93,3.51,3.42,4.16,1.57-.47-1.47-2.68-4.43-2-1.84-1.94-1.39-2.21-3.79.74-2.87-.09-1.84-3.05-5.54-1.48-1.29C240.84,104.32,238.44,105.42,240.29,107.73Z" transform="translate(-83.43 -31.92)"/><path class="b" d="M212,50.47A19.06,19.06,0,0,0,215,48C213.14,47.79,207.6,53,212,50.47Z" transform="translate(-83.43 -31.92)"/><path class="b" d="M240.2,110.78c-1.48-1.85-2.22-2.12-.83.19,1.38,1.94.18,4.34,3.32,3.6a2.35,2.35,0,0,1,2.49,2.58c1.48,0,3.42.19,1.11-1.38A7.75,7.75,0,0,0,240.2,110.78Z" transform="translate(-83.43 -31.92)"/><path class="b" d="M251.19,117.25l-.56-.56C247.49,113.64,253.13,121.12,251.19,117.25Z" transform="translate(-83.43 -31.92)"/><path class="b" d="M251.37,101.08c-.28-2.86-3.14,0-.46.56Z" transform="translate(-83.43 -31.92)"/><path class="b" d="M249.62,85.38c.18,3.88,2.21,5.18,3.78,8-.55,2.4-5.17-5-3.32,0-3.88-1.29,2.31,8.22,2.22,4.71-.28-1.29-4-5.45-.56-3.33,3.14,2.87,2.77-5,.92-6.18C251.46,87.23,250.45,80.3,249.62,85.38Z" transform="translate(-83.43 -31.92)"/><path class="b" d="M253.87,70.7a5.21,5.21,0,0,0-.47-3.88C251.93,63.4,254,72.92,253.87,70.7Z" transform="translate(-83.43 -31.92)"/><path class="b" d="M235.49,91.2c0,4-2.87,6.93-4.81,10-.92,2.21,3.14,8.22,1.85,3l-.09-.64c-1.2-4.71,4.52-6.84,5.45-11.09,1.85-3.41-.56,4.81-1.85,5.82-1.48,1.48-2.59,5.18-.18,1.85,1.47-4.16,6-6,6.55-10.53.47-1.66-.46,6.84,1.3,2.5,1.2-3.79,1.1-8.22-1.3-11.55-.46-1.2-.46,5.73-1,1.48-.09-2.13.46-6.74,2-5.63-1-1.3-.28-8.69-1.66-4-1.3,2.41-1.94,5.64-3,7.67C238.53,83.26,236,87.51,235.49,91.2Z" transform="translate(-83.43 -31.92)"/><path class="b" d="M241.4,69.31l.27-.55.28-.83C240.1,66.45,239.83,73,241.4,69.31Z" transform="translate(-83.43 -31.92)"/><path class="b" d="M236.59,106.53l-.18-.64C234.66,101.73,236.32,110,236.59,106.53Z" transform="translate(-83.43 -31.92)"/><path class="b" d="M246.66,97.57l-.09-.46-.19-.55C244.08,93.42,245.55,99.42,246.66,97.57Z" transform="translate(-83.43 -31.92)"/><path class="b" d="M238.44,105l-.27-.64-.28-.65C235.58,100.53,238.26,109.77,238.44,105Z" transform="translate(-83.43 -31.92)"/><path class="b" d="M245.55,148.92c1.85-.83,3.51-2.49,5.54-.83,2.31,2,4.25-1.11,6.47-1.66a38.32,38.32,0,0,0-11.64-2.77c-1.84-.09-6.19-.28-1.94-1.2,2-1.76,5.54-2.86,8.32-3.51,1.93.74,5.54-1.48,1.47-1a43.49,43.49,0,0,1-13.39-1.57c-2.58.19-8.68,1.3-4.89,4.81,2.68.46,2,2.49,4,4.06C239.37,148.92,244.63,145.32,245.55,148.92Z" transform="translate(-83.43 -31.92)"/><path class="b" d="M206.58,193.16l.65-.18.73-.28C211.66,190.58,202.33,193.16,206.58,193.16Z" transform="translate(-83.43 -31.92)"/><path class="b" d="M231.88,258.36l-.36-.36C228.84,256.33,232.81,261.6,231.88,258.36Z" transform="translate(-83.43 -31.92)"/><path class="b" d="M216.55,292v-.28C215.35,290,214.52,294,216.55,292Z" transform="translate(-83.43 -31.92)"/><path class="b" d="M227.73,219.67a3.5,3.5,0,0,0,1-1C230,216.16,223.85,218.47,227.73,219.67Z" transform="translate(-83.43 -31.92)"/><path class="b" d="M210.74,194l.55-.55C211.75,191,207.6,195.19,210.74,194Z" transform="translate(-83.43 -31.92)"/><path class="b" d="M208.43,195.66c-1.39-1.67-4.53-.37-1.2.27C207.41,195.84,208.33,196.21,208.43,195.66Z" transform="translate(-83.43 -31.92)"/><path class="b" d="M220.8,187.62c1.57-3.79-4.06-1.85-5.91-3.42-4.62-.55-10.07,1.2-12.47,5.36-.92,1.39,1.11,4.71,2.22,2,3.14-3.32,8.4-2.31,12.47-2.68C216.46,186.05,219.88,190.58,220.8,187.62Z" transform="translate(-83.43 -31.92)"/><path class="b" d="M233.27,131c-1.11,1.38-3.79,8.12.18,4.34a12.4,12.4,0,0,1,11.27-.09c3.6.83,7.48,1.93,11.18,1.1,0-2.12-6.28.19-2.68-2.4-3.14,1.3-5.54-1.66-8.77-1.2-2.41,0-1.57-.18.27-.55s3.88-1.11.65-1.11c1.75-1.57,6.65,2.68,10,1.75,2.87.65,4.53-1.57,2.13-2.12.64-3-4.34-5.17-6.93-6.1-2.31-.46-7.94,1.85-8.5.1,1.2-2.13,8.32-1,4.25-3.88-3.32-.83-6.28-3.14-3.14-5.08-3,2.21-7.2.55-10.06,3.6A8.66,8.66,0,0,0,230.5,131c3.14-.65,4.06-5.54,6.56-7.67.92.65,3-3.6,1.66-.46C236,124.91,235.58,128.24,233.27,131Z" transform="translate(-83.43 -31.92)"/><path class="b" d="M236.41,154.19l.18-.46C236.78,150.77,234.29,156.87,236.41,154.19Z" transform="translate(-83.43 -31.92)"/><path class="b" d="M231.15,115.68c1.1-.37.83-2.41,1-3.42-.09-2.77-1.57-5.17-2.86-7.57C228.74,108.38,229,112.44,231.15,115.68Z" transform="translate(-83.43 -31.92)"/><path class="b" d="M226,81.23a12.17,12.17,0,0,0,.37-2.59c.37-2.86-1.84-2.49-1.47.09C224.59,80.3,225,85.57,226,81.23Z" transform="translate(-83.43 -31.92)"/><path class="b" d="M199.11,134.44c0,.38.2.58.54.45a.29.29,0,0,0,0-.09c-.15-.12-.32-.26-.48-.41Z" transform="translate(-83.43 -31.92)"/><path class="b" d="M199.72,133.92l.16.1.18-.75-.27.12.14.3Z" transform="translate(-83.43 -31.92)"/><path class="b" d="M190.69,100.25c2.48,2.36,5.74,2.74,9,2.8a.88.88,0,0,1,.22-.21c0,.08,0,.14,0,.21,1.65,0,3.3,0,4.84.07,3.7.46,7.12-1.3,10.53-2.22-1,3-5.08,5.63-7,7.11,4.16,1.2-2.4,4.43,1.76,5.73.28,2.4,3.42,5.63,4,1.38.46.56,1.29,7.3-.83,8.41-1.39-2.31-3.88,5.91-4.8,4.71,2-1.76.83-3.79-.28-4.16,1.66.28,4.34-1.75,1.11-1.66-1.76-.37-4.44-2-3.23,1-3.24.93-3.14,6.84-4.16,7.85-.14-.39-.25-.69-.34-.92-.16.8-.28,1.61-.37,2.42a10.24,10.24,0,0,1-.19,1.8c-.11,1-.23,2-.41,3,1.55,2.55,6,4.33,8.24,2.75.18,4.16,5.63,4.07,8.49,5.64,1.3.55,2.77,1,4,0,1.94-.74,3.42-5,.56-1.94-2.22.55,1.57-3.42-1.2-4.53-1.11-2.31-.93-.18-.93,1.2.19,1.3-.09,7.58-1.2,3.24-.18-3.61-.37-7.11-.55-10.72-1,3.33-1.39,6.93-3.14,9.89-1.11-3.05-.37-6.65-.19-9.89-.55-1.94,2.59-6.65,1.21-2.4-.56,1.57-1.48,8.41.18,3.79,1.2-7.76.83-15.61.74-23.37.28-3.51-1.11-.37-1.76-.27.84-4.62,2.68-9.15,3.79-13.77-.18,6.38,1.66,12.57,2.77,18.75.28,1.39-.28,5.73.83,2,.46-3.69.93-7.48.09-11.17-1.38-2.22.37-6.74.28-9.33,1.48,1.48,0,6.93.83,6.47a64.09,64.09,0,0,0,1.67-15.15c-.65-1.2-2,2.22-2.5.46-2.77,4.53-.92,10.16-2.21,15.06-1.57-2,.83-6.93-.56-8.41-1.57.37.46-5.08-2.68-5-1.29-3.6-.09-2.21.83-.92.1-2.58.47-1.29,1.76-.55.92-1.39-.74-4.44,1.48-1.85.09-2.12.83-5.17.64-6.83-2.49,3.14.93-4-.64-5.55-.93-2.49.09-4.52,2.4-5.26-1.3-.92-5.91-3-1.66-3.23,1.57,0,7.2,1.11,5.81,1.94-1.66-.28-8.31-2.31-4.15.27,4.43,2.87,3.69,8.78,3.41,13.3-.09,4.44-.64,9.05,0,13.49,2,1.38,1.85-7.67,3.24-4.07-.93,4.53-4.53,8-6.1,12.29,2.5-1.85,4.07-6.1,5.64-9.15,2-4.06.92-8.86,2.86-12.93,1.11-.37-2.77-1.84-.09-1.94,2.49-3.78-.1-7.85-1.85-11.26,2.58-.93,5.72,5.08,7.3,3.14-.1-1.85-4.44-6.65-.84-5.64-.64-1.94-2.4-3.23-3.69-4.8,2,1.85,5.73,2.59,4.89-1.48-.64-2.4,4,.28.93-2-1.94-1.66-5.27-6.83-.65-5.54-2.58-3.32-7.48-4.53-11.64-4.71-2.49-.18,3-1.29-.18-1.57-3.32-.83-6.65.92-9.24,2.68-3.5,0-1.93,2.77-4.61,4.25-1.67,1.38,2.49-.56,3.23.09,3.69,1.29.65.65.09.92,2.5,2.22,3.14,5.54,6.84,6.19,2.77.92,3.69,4.53,4,5.36-.74-1.76-7.39-3.42-3.79-.74-2.49.18-8.68-1.85-6.65-5-2.4.92.19-4.06-2.86-2.68-3-1.57,3.69-.74,0-2.21-1.85,0-4.44,3.51-2.4-.19.74-1.29,4.61-6.09.92-3.51-1.48,2.87-6,5-4.8,1-1.75,1.87-4.21,3.07-6.27,4.76.3.16.08.56-1.11,1A10.36,10.36,0,0,0,199,59.66c1.17.62,4,2.71.94,1.16l-.55-.46c-.23-.2-.4-.35-.52-.47-.08.12-.15.24-.22.37-1.69,2.5-1.11,5.7-1.43,8.55a15.51,15.51,0,0,1,4.2,2.81c1.57,1.11,5.35,5.36,3.51,6-.93-2.13-4.16-4.25-2.4-.37-.47,2.21,5.54,5.72,1.29,5.54a3.15,3.15,0,0,1-1.57-1c-1.76-2.31-3.79-.55-5.27-.09-2.12-2.06-2.29-5.15-2.38-8.11-3,2-8,5.47-2.6,7.92,2.58,2.22.64,2.78-1.11,3,1.29,2,2,4.9,3.79,6.37-1,3.42-5-4-3.79-.09C191.9,93.79,185.61,97.57,190.69,100.25Zm9.24-38.32c.83,1.66-4.06-.84,0,0Z" transform="translate(-83.43 -31.92)"/><path class="b" d="M255.53,117.25a5.25,5.25,0,0,0-.65-2C253,111.61,253.5,117.06,255.53,117.25Z" transform="translate(-83.43 -31.92)"/><path class="b" d="M219.42,127.87l-.1-.65C217.75,122.23,218.31,132.76,219.42,127.87Z" transform="translate(-83.43 -31.92)"/><path class="b" d="M220.62,119.46c-.28-3.41,0-7.48-2.13-10.34-1.66,2.86-.83,7-.55,10.34,2,.83,1.57,2.87.46,4.71C221.26,125.56,220.34,120.85,220.62,119.46Z" transform="translate(-83.43 -31.92)"/><path class="b" d="M221.73,133.13c-1.48-1.11-1.39-5.26-1.57-1.11C219.69,133.69,223.76,135.16,221.73,133.13Z" transform="translate(-83.43 -31.92)"/><path class="b" d="M227,119.37c-2,.65-.74,5.91.28,1.66C227.45,119.65,229.76,118.82,227,119.37Z" transform="translate(-83.43 -31.92)"/><path class="b" d="M226.71,111.89c-1.2-5.36-1.84,7.48.37,2.49l.09.28C228.38,117.62,229.67,111.61,226.71,111.89Z" transform="translate(-83.43 -31.92)"/><path class="b" d="M228,131.19a2.32,2.32,0,0,0-.28-1.38C225.33,128.61,228.1,135.72,228,131.19Z" transform="translate(-83.43 -31.92)"/><path class="b" d="M237.52,147.35l.28-.37.09-.37C236.32,144.49,234.38,150.12,237.52,147.35Z" transform="translate(-83.43 -31.92)"/><path class="b" d="M177.86,129.9c.83-1.57-.37-3.79-1.76-1.85C175.83,128.51,178.5,131.65,177.86,129.9Z" transform="translate(-83.43 -31.92)"/><path class="b" d="M215.35,164c-3-.09.47,5.08,0,2.49C215.17,165.55,218,164.44,215.35,164Z" transform="translate(-83.43 -31.92)"/><path class="b" d="M182.57,126.3l-.46-.56c-3.42-2.86-4.71-7.29-8.59-9.88-3.24-2.59.46,3.69,1.29,4.8,1.48,3.24,6.19,5.08,8,6.1Z" transform="translate(-83.43 -31.92)"/><path class="b" d="M150.7,149.11l-.18-.65C148.67,144.31,150.34,152.43,150.7,149.11Z" transform="translate(-83.43 -31.92)"/><path class="b" d="M253.68,119.92c.28,2.13,4.06,5.82,2.31,1.39C255.62,119.28,251.46,115.58,253.68,119.92Z" transform="translate(-83.43 -31.92)"/><path class="b" d="M270.4,147.26c1.57-4.15-6.28-2.58-4.53-1C269.29,144.49,270.86,154.47,270.4,147.26Z" transform="translate(-83.43 -31.92)"/><path class="b" d="M188.76,135.35c.73-.19,1.29-1,1.66-1.66C192.91,128.79,186,134.15,188.76,135.35Z" transform="translate(-83.43 -31.92)"/><path class="b" d="M194.2,130.82c-.37,2.31,1.94,4.07,1.76.56v-.65C196.88,127.77,194,128.14,194.2,130.82Z" transform="translate(-83.43 -31.92)"/><path class="b" d="M194,135.9a3.58,3.58,0,0,0-.09-1.38C192.36,131.1,190.51,137.29,194,135.9Z" transform="translate(-83.43 -31.92)"/><path class="b" d="M194.3,125.74l-.1-.46C193,125.47,194.57,129.53,194.3,125.74Z" transform="translate(-83.43 -31.92)"/><path class="b" d="M167.14,121.59c-3.87-.28,1.39,2.86.1,5.08,1.29,1.38,4.06,0,5.17,2,.64,0,1.94-.28,1.57-1.11C170.93,126.57,168.9,123.9,167.14,121.59Z" transform="translate(-83.43 -31.92)"/><path class="b" d="M271.69,127.13l-.18-.46c-.74-3.24-1,1.38-2.13-1.76C267.53,125.65,273.44,132.48,271.69,127.13Z" transform="translate(-83.43 -31.92)"/><path class="b" d="M276.77,136.92c-1.85-1.2-2-.65-.74.74C274.83,139.5,277.6,137.84,276.77,136.92Z" transform="translate(-83.43 -31.92)"/><path class="b" d="M281.2,142.83l-.09-.65-.09-.46C279.91,141.81,281.11,146.71,281.2,142.83Z" transform="translate(-83.43 -31.92)"/><path class="b" d="M155.23,171.74c.74,2.21,5.91,1.47,2.31,3.41-.83,2.13,6.28-2.77,1.57-2.86-2.59,2.4-3.42-4.62-2.86-4.53,2.95-.09,0,4.25,3,3.24,1.48,1.38,5.55,4.52,3.51.37.74,1.47,3.24,2.12,3-1.2.37-2,.65-2.22.83,0a12.54,12.54,0,0,1-.55,6.28c-2.31.55-2.41,4.43-.1,6.28,1.39-.56.28-4.34,2.22-1.3.09-1.38-.92-4.71,1.57-2.4,1.94-3.14-.74,2-.18,3.23,1.2,2.59.09,5.91,2.49,6.84-.19,2.4,3.23-2.4,4.34-3.14,3.14-1.76-1.76,2.95-2.31,3.78-1,3.33,5.08-2.4,6.47-3.32a43.15,43.15,0,0,1,7.66-4.34c-1.38,3.79-5.17,6.28-6.28,10.25-3.32,1.48,3.05-4.16-1.38-3.88-2.31,1.2-3.88,3.33-.84,3.51.37,4.16,5.36,1.76,5.92-1.29,1.47-2.22,7.11-8.22,7.85-2.68-.19,2-5.45,8.31-.37,5.91a93.18,93.18,0,0,1,8.12-9.05c3.14-1.39.56-8.77,4.62-6.37,8,.83,16.07.46,24,.64,2.77-.64,5.17-.27,3.88,1.39,4.34-2.4,9.51-1.66,14.22-2.12,2.31.09,9.7,0,7.12-2.59-1.57,1.66-2.77,2.12-1.11-.28,2.86-3,2.86-7.11,2.21-11-.64-3.23-1.84-6.92-2.4-9.88-2.49-1-5.72-1.39-7.11-3.05-2.49-.64-7.39-3.78-6.83,1.3.18,3.32.55,7,2.58,9.78.37,1.39-5.54,2-7.48,2.87A60.58,60.58,0,0,1,211.2,168c-3.45-.55-6.77,1-10.18,1,.59.91.65,1.45-.73,0a10.5,10.5,0,0,1-1.1-.11,44.85,44.85,0,0,0-18.84-.46c-.37,3.14,7.3,0,8.59,3.6-.65,3.33-6.93,2.31-9.79,3.79-1.75,1.11-5.45,2.59-5.45,4.52,4.43-1,9.05-3.6,13.58-1.93-1.67,2.49-5.45,3.23-7.85,5.17-2.13,1.38-.93.37.37-.74l3-2.77c-3.51.27-7,1.38-10.43.92-.65-2.95,4.25-4.34,6.37-5.73,1.76-1.47,8.31-1,6.19-3.78-2.31-.28-8.41-.28-6.37-4.07,2.58-1.38,8.31.56,9.23-1.57-4-2.49-8.59-3.78-13.11-4.71-3.6-1.84-6.1-5.35-9.52-7.48a7.37,7.37,0,0,1-4.06-6.83c0-1.29,1.2,2.95,2,3.51a7.52,7.52,0,0,0,5.73,3.42c-.37,3.88,6.09,1.94,8.13,4.15.92,4.16,6.74.74,9.14,3-4.43,1.75,3.6,3.6,5.54,4.15,2.75.1,6.33,1.1,8.37,1.38l-.15-.11c-.26.11-.4.06-.24-.29l-.31-.51c-.11-.21-.19-.37-.26-.52-.77-.91-1.22-1.49-.21-.56-.08-.48.58.17,1.16.91l.13.11A7.61,7.61,0,0,1,201,165c1.91-1.52,5.74-.08,7.95.3.28-3.32,6-2.4,7.48-4.8,2.22-2.13,5.73,3.6,1.57,2.77-1,2.86,1.94,3.42,2,1.48,2.87,1.47,2.68-1.39,1.57-2.68-.64-2.22,2.68-4.34,1.94-4.8-1.66-1.2-4.15-.74-2.12,1.38.46,4-3.14-1.57-5.27-.92-1.75-1.76-4.8.46-4.06-2.4.56.55,6,.92,4.16-1.3-3.51,1.48-5.36-4.34-7.39-3.14,3.69-1.66-1.29-2.86-3.14-2.12-4,.55-.93-4.9-5-4.16a13.18,13.18,0,0,0-1.6-.29c-.39.26-.62.18-.74,0-.63.07-1.12,0-1.33-.25-1.85-.33-3.32-.88-1.88-2.26h-.08c-.31,0-.34-.06-.25-.1-1.49-.33-.95-4.05-2-.73-1.2,1.57-1.2-4-3.51-1.48-1.29-.65-1.94-2.49-1.75-.28-1.39-.46-1.76-1.84-3.79-1.29-2.4-2.49-4.71,2.13-7.11-.65-4.25-.55-8.87-.92-13,.28-1.67,2.22-7.67,1.11-6.93,4.9-4.16-4.16,1,5.45-2.22,2.21-4.24-2.86,3.7,6.65-1.2,4.16-1.75,1.38,3.33,4.62-.74,2.86-1,.74.28,2.87-.92,3.79.46,1.48,3.05,4.15-.28,2.77.37,2.59-2.95-4-4.34-1.39-1.38,0,1.48,4.81-1.57,1.76-1.75,1.38-5.17,3.51-8.31,3.51-4.16.18-8.13-1.48-12.28-1.94-3.7-1.2-7.67-2.4-10.81-4.34-1.38.55-.37,3.14-2.49,1.2,2.31-3.14-5-3.33-5.73-6.1-2-.74-2.86-1.75-5.17-.27-4.25-.93-.55-3,.09-3.05-2.21.55-7.39-3.14-4.61-4.71-1-1.39-3,.37-1.85-2.4-2.5-.56-1.11-3.88-2.5-5.73-.46-2-1.2-6.09-1.57-9.23-2.77-1.57,2.13-3.14-.46-5.08-.46-1.76-1.57-3.33-.18-5.36-2.5-.92,3.23-3.88-.09-3.6-.1-4,1.84-7.76,1.66-11.82-.74-2,3-5.64,2-5.91-3.05,1.66,0-1.67-.46-2.78,2.12-1.29.83-5.26,3.32-7.11-2.86-.37,2.22-1.94-.92-2.21,1.94-1.39,4.8-4.71,2.12-5.64.56-2.95,3.14-6,3.61-8.31,1.29-.83,1.57-.55.09-1.85,2.21-.73,1.48-3.23,3.41-4.24-1.1-1.11,2-3.79,2.87-5,2.4.18-.46-1.76,2.31-2.59,3.23-2.31,7.57-4.71,11.54-2.58,3,.92,8.5,2.21,10.34,1.2-2-1.76,4.07-2.4,4.35-4.62,1.75-.09,6.46-3,4.06-4.06a4.43,4.43,0,0,1-6.47.83,68.93,68.93,0,0,1-6.55-4.62c-3.6-3.05,5.35.74,5.72-1.76-1.75-1.57-7.66-.92-7.57-2.77,5.17-.46,9.79,2.31,13.85,5.08,2.59,1.67,8.5,2.22,4.25,6.1-2.86,3.51,1.29-2.49-1.48-2.22,0,3.7-5.91,5.27-5.63,9,4.71,3.88,11.27,4.16,16.53,6.84,2.5.83,4,5.72,6.28,4,1.94-2-.83-7,1.11-9.15,2.31,1.67-.55,7.48,2,7.3-.55-3.33,3.33-7.11.19-10.44-3.33-4.06-8.68-5.45-12.75-8.59-3.32-2.12-6.37-5-10.25-6.18-5.54-2.77-12.28-4.53-18.38-2.59-3.32,1.2-3.42,3.33,0,2.77.28,3.88-6.83,4.43-7.11,4.9,1.11,1.66-3.6,2.58-4.34,4.61C105,51.86,100,56.85,98.25,63.4A1.82,1.82,0,0,1,96.88,66c-1.47,7.56-5.62,16.35-8.33,23.4-.18,3.7-1.75,7-2.4,10.63-2,9.51-1.39,19.21.55,28.63,1.67,7.94,3.79,16.16,8.87,22.62,3.23,1.85,5.72,4.71,8.5,7.21,3.14,2.77,7.85,2.58,11.17,5.08,1.11.55,2.4.09,3.14,1.47,1.94-.46,2.59,1.85,4.06-.37.28,4.53,6.47-1.66,4.71,2.5,1.85,1.29,4.71-4.44,3.33.09-1.11,1.85-4.16,8.22.46,6.65,2.31-2.77.09-8.13,1.48-10.07,1.85,1.3.92,6,4.25,3.42-.65,2.86-2.22,6.74.74,9.14,1.1,1.48,1.66,1.85,1-.27.37-3.33,2.86-8.22,0-10.9-3.42-1.57,2.86-2.4,3.05.46,3.51.55,2.12,5.91,6.09,5.73,1,1.66,3.33,3.51,3.61.27C151.91,168.6,154.77,169.06,155.23,171.74Zm44.7,11.91c1.48-3.33,2.68,3.14,0,0Zm1.41-19.3c-.13.41-.58.68-1.41.09.06-.11.12-.18.17-.27l-.17-.1C200.66,161.88,201.81,163.78,201.34,164.35Zm-4.83-2.22c1.94-.74,5.82-1,6.93.28C201.22,162.87,198.36,163.15,196.51,162.13Zm3.88-11c.85-.19,1.28,0,1.39.16,1,.28,1.17.86-.91,1.37.39.33.54.59.07.57a2.69,2.69,0,0,1,.74.61c-.73-.09-5,3.42-3,1.11.1-1.14.61-1.82,1.29-2l-.13-.07a2.59,2.59,0,0,1-2.36-.29C197.73,151.52,199.14,151.12,200.39,151.11Zm-.18,5c-.56.27-2.5,2-1.67.18C199.19,154.28,203.9,155.11,200.21,156.13Zm-.69,2.72-.12-.13c-1.3,1.17-1.51-.47-.78-.9a0,0,0,0,1,0,0c-.39-.49-.48-.66.16-.08h0c2-.62,3.85.68,1.06.42,0,0,0,0,.05,0a3.32,3.32,0,0,1-.25.27l.21.15c2.08-.12,6.73.66,2.35,1.52q-.42.14-.84.24c.11.24,0,.31-.31.07a4.76,4.76,0,0,1-4.48-1C193.64,156.84,200,161.59,199.52,158.85Z" transform="translate(-83.43 -31.92)"/><path d="M196.51,162.13c1.85,1,4.71.74,6.93.28C202.33,161.11,198.45,161.39,196.51,162.13Z" transform="translate(-83.43 -31.92)"/><path d="M199.8,152.91l.13.07c-.68.13-1.19.81-1.29,2-1.94,2.31,2.31-1.2,3-1.11a2.69,2.69,0,0,0-.74-.61c.47,0,.32-.24-.07-.57,2.08-.51,1.88-1.09.91-1.37-.11-.2-.54-.35-1.39-.16-1.25,0-2.66.41-2.95,1.51A2.59,2.59,0,0,0,199.8,152.91Z" transform="translate(-83.43 -31.92)"/><path d="M196.61,159.45a4.76,4.76,0,0,0,4.48,1c.35.24.42.17.31-.07q.42-.1.84-.24c4.38-.86-.27-1.64-2.35-1.52l-.21-.15a3.32,3.32,0,0,0,.25-.27s0,0-.05,0c2.79.26,1-1-1.06-.42h0c-.64-.58-.55-.41-.16.08a0,0,0,0,0,0,0c-.73.43-.52,2.07.78.9l.12.13C200,161.59,193.64,156.84,196.61,159.45Z" transform="translate(-83.43 -31.92)"/><path d="M198.54,156.31c-.83,1.85,1.11.09,1.67-.18C203.9,155.11,199.19,154.28,198.54,156.31Z" transform="translate(-83.43 -31.92)"/><path class="b" d="M270.58,154.47l.09-.37C269.38,152.43,268.55,156.5,270.58,154.47Z" transform="translate(-83.43 -31.92)"/><path class="b" d="M276.49,161.58l.19-.47C276.86,158.16,274.46,164.16,276.49,161.58Z" transform="translate(-83.43 -31.92)"/><path class="b" d="M271.14,121.12l.18-.46.09-.55C270.3,117.15,268.92,124.17,271.14,121.12Z" transform="translate(-83.43 -31.92)"/><path class="b" d="M271.6,135.62c.92.74,2.21,3.24,3.14,2.68C274.37,137.75,270.3,134.15,271.6,135.62Z" transform="translate(-83.43 -31.92)"/><path class="b" d="M274.55,145l-.27-.55C271.87,142.09,272.71,145.32,274.55,145Z" transform="translate(-83.43 -31.92)"/><path class="b" d="M273.54,152.16l.18-.56v-.55C272.24,146.71,270.12,155.85,273.54,152.16Z" transform="translate(-83.43 -31.92)"/><path class="b" d="M267.07,160.1c-1-4.06,0-8.5-1.48-12.38-2,2.13-.18,6.84-.27,10C265.13,158.71,266.15,162.5,267.07,160.1Z" transform="translate(-83.43 -31.92)"/><path class="b" d="M258.58,140c-1.94-.93-5.08-.37-1.48.64-1,1.11-7.11-.92-6.93,1.2,2.31.56,4.43-1.11,6,1.66,1.48.56,3.61.93,5-.18-.37,0-2.86-1.94-3.6-.09C253.22,142.92,262.73,141.07,258.58,140Z" transform="translate(-83.43 -31.92)"/><path class="b" d="M256.27,135.9c.55.56,1.57,1.57,2.4.56C258.21,134.42,252.11,132.67,256.27,135.9Z" transform="translate(-83.43 -31.92)"/><path class="b" d="M258.67,150.4c1.38.09,4,.65,4.62-.92C262.27,147.08,253.5,149.11,258.67,150.4Z" transform="translate(-83.43 -31.92)"/><path class="b" d="M201.78,353.58c.27.56,1.2.37.92-.27C201.78,351.27,199.1,351.74,201.78,353.58Z" transform="translate(-83.43 -31.92)"/><path class="b" d="M264.76,260.12l.1-.37C263.65,258,262.82,262.15,264.76,260.12Z" transform="translate(-83.43 -31.92)"/><path class="b" d="M226.9,347.67c1.66-3.05-.37,3.51,2.49.93-.46-1.67,2.77-3.7-.92-3.05C225.88,345.18,223.76,351.37,226.9,347.67Z" transform="translate(-83.43 -31.92)"/><path class="b" d="M141.38,169c.46,2.59-1.11,7.49,1.38,8.5a5.12,5.12,0,0,0,1.39-4.43C143.69,171.64,141.38,164.16,141.38,169Z" transform="translate(-83.43 -31.92)"/><path class="b" d="M257.93,85.2l-.19-.65C255.9,80.4,257.65,88.62,257.93,85.2Z" transform="translate(-83.43 -31.92)"/><path class="b" d="M259,123c-.37,1.57,3.69,3,1.84,1.11C260.7,123.34,258.48,120.29,259,123Z" transform="translate(-83.43 -31.92)"/><path class="b" d="M261.62,137c.65,0,.74-.74.56-1.2C263.19,132.3,259.5,135.72,261.62,137Z" transform="translate(-83.43 -31.92)"/><path class="b" d="M258.58,92.77c.18.28,2.21,3.88,2.21,1.76C260.51,92.77,256.27,88.34,258.58,92.77Z" transform="translate(-83.43 -31.92)"/><path class="b" d="M198.91,322.37c-4.15.27-9.79,1.75-10.8,6.37,3.51,1,7.48,1.29,11.08,2.22.56-.1,1.57.18,1.94-.56C201.78,327.45,204.46,321.54,198.91,322.37Z" transform="translate(-83.43 -31.92)"/><path class="b" d="M187,330.31c-.74-1.76-3.05,1.38-4.16,2.22,2.87,1.2,6,3.23,9.24,2.12l.37-.37C191.16,332.8,182.84,334,187,330.31Z" transform="translate(-83.43 -31.92)"/><path class="b" d="M148.4,176.26c.09-2-1.48-6.28-2.13-2-1.11,1.75,1.2,6.74,2.31,3.23l-.09-.55Z" transform="translate(-83.43 -31.92)"/><path class="b" d="M203.25,341.67c.37-.65,1-1.48.74-2.31C201.22,338.44,200.67,345.18,203.25,341.67Z" transform="translate(-83.43 -31.92)"/><path class="b" d="M191.06,336.59c.19.18,1-.28.28-.37C189.4,335.48,188.2,337.05,191.06,336.59Z" transform="translate(-83.43 -31.92)"/><path class="b" d="M174.44,353.12c0-.92,2.31-1.75-.37-1.2C172.22,352.38,175.46,355.34,174.44,353.12Z" transform="translate(-83.43 -31.92)"/><path class="b" d="M177.76,353.58a.77.77,0,0,0,.56-1.11C177,350.44,174.07,355.24,177.76,353.58Z" transform="translate(-83.43 -31.92)"/><path class="b" d="M179.52,359.59l-.19-.47-.27-.46C177.3,357.83,180,363.1,179.52,359.59Z" transform="translate(-83.43 -31.92)"/><path class="b" d="M173.05,344.72l.56-.56C173.52,342.5,169.73,345.92,173.05,344.72Z" transform="translate(-83.43 -31.92)"/><path class="b" d="M201,350.63a1.91,1.91,0,0,0,1.29-.74C203.07,347.58,197.07,351.55,201,350.63Z" transform="translate(-83.43 -31.92)"/><path class="b" d="M243,99.61c1,2.31,2.4,6.37,3.69,7.66a20.47,20.47,0,0,0-.09-3.32C247.4,101.64,244.35,96.28,243,99.61Z" transform="translate(-83.43 -31.92)"/><path class="b" d="M245.37,218.65c-2.68-1.57,1.29,3.7.37.37Z" transform="translate(-83.43 -31.92)"/><path class="b" d="M245.28,223.73c-1.85,4.43,3.32.65,2.58-1.57C246.85,221,246.48,224.1,245.28,223.73Z" transform="translate(-83.43 -31.92)"/><path class="b" d="M243.89,242.39l.37-.28.09-.37c.19-.74,3.42-.28,1.2-1.29C243.24,239.62,239.64,243.68,243.89,242.39Z" transform="translate(-83.43 -31.92)"/><path class="b" d="M247.22,262.15c-.93,1.94,2.3,7,3.78,4.16C250.54,264.37,248.42,257.07,247.22,262.15Z" transform="translate(-83.43 -31.92)"/><path class="b" d="M249.52,256.79c.1.28,1.39,3.51,1.48,1.57C250.73,256.89,247.77,253.47,249.52,256.79Z" transform="translate(-83.43 -31.92)"/><path class="b" d="M237.61,264.09l-.37-.37C234.56,262.06,238.53,267.32,237.61,264.09Z" transform="translate(-83.43 -31.92)"/><path class="b" d="M243.15,233.71l-.37-.56C239.64,230.1,242.78,236.38,243.15,233.71Z" transform="translate(-83.43 -31.92)"/><path class="b" d="M251.09,231.12l.19-.46C251.56,227.8,249.06,233.8,251.09,231.12Z" transform="translate(-83.43 -31.92)"/><path class="b" d="M239.55,245.43c-1.29-2.49-3.32,2.41-.37.37Z" transform="translate(-83.43 -31.92)"/><path class="b" d="M240.47,236.66c1.3,1.94,1.57.37,1-.92C240.29,232.6,237,237.77,240.47,236.66Z" transform="translate(-83.43 -31.92)"/><path class="b" d="M236,267.42c.28.92,1.94,4.61,2.68,2.21C237.43,268.89,235.3,263.26,236,267.42Z" transform="translate(-83.43 -31.92)"/><path class="b" d="M253,257.44l-.27-.65C250.45,253.56,253.77,261.5,253,257.44Z" transform="translate(-83.43 -31.92)"/><path class="b" d="M229.3,276.93c1,2,.92-.09.65-.93-.74-2.21,0-1.66,1.1-.18.93,1.75,3.88,2.31,1.67-.09C231.15,272.77,226.07,273.42,229.3,276.93Z" transform="translate(-83.43 -31.92)"/><path class="b" d="M229.48,270.92l.19-.36.09-.37c-.92-2,1.39-4.71,1.66-1.3-.74,3.6,2.13,1.85.83-.74-1.38-1.47-.64-6.18-2.49-2.67C229.3,266.86,226.62,271.2,229.48,270.92Z" transform="translate(-83.43 -31.92)"/><path class="b" d="M228.38,231.86c-1.48-2.4,4.24-.19,1.2-2.77-1.39-.19-2.77,1.57-4,.92C225.79,230.75,230,236.11,228.38,231.86Z" transform="translate(-83.43 -31.92)"/><path class="b" d="M229.76,260.86c-.09-2.59-3.42-3.33-1.57-.19C228.93,261.78,231.15,265.29,229.76,260.86Z" transform="translate(-83.43 -31.92)"/><path class="b" d="M235.67,244l.83-.19c2.77-1.66-.46-2.49-1.66-.64C232.72,242.57,234.19,246.36,235.67,244Z" transform="translate(-83.43 -31.92)"/><path class="b" d="M253.5,232.6c-1.2-1.48.09,1.38-1.39,1.57C252.76,236.29,255.25,233.52,253.5,232.6Z" transform="translate(-83.43 -31.92)"/><path class="b" d="M224.13,277.2c.18.37,1.47,1.21,1.47.28C224.87,275.91,222.19,274.71,224.13,277.2Z" transform="translate(-83.43 -31.92)"/><path class="b" d="M252.3,242l-.37-.46C249.8,239.89,253.4,245.16,252.3,242Z" transform="translate(-83.43 -31.92)"/><path class="b" d="M251.46,260.3c-.37,1.3.1,9.33,3,4.53-.28-1.29,2.12,0,.46-2.22C254.14,260.3,252.48,262.61,251.46,260.3Z" transform="translate(-83.43 -31.92)"/><path class="b" d="M257.28,251.16c-2.95,0-2.12,4.71-.18,2.12l-.19-.55C256,250.88,259.87,253.19,257.28,251.16Z" transform="translate(-83.43 -31.92)"/><path class="b" d="M237.15,231.67c.46.37,2.22,1.94,2.31.56C238.72,230,233.45,228.35,237.15,231.67Z" transform="translate(-83.43 -31.92)"/><path class="b" d="M289,258.55c-.92-.83-3.14-2.4-3.42-3.14-1.57.28-2.86-4.9-2.31-1.11,1.94,3,4.16,6.1,7.3,7.94.65,0,.09-.83-.09-1.1C289.05,259.57,291.08,254.58,289,258.55Z" transform="translate(-83.43 -31.92)"/><path class="b" d="M264,218c-.18,2.21,1.48,3.87,1.67.46C266.15,216.16,263.65,215.05,264,218Z" transform="translate(-83.43 -31.92)"/><path class="b" d="M276.49,231.49a8,8,0,0,0,0-2.59c0-2.49-2.68-3.32-1.94-.09C274.18,230.38,275.66,235.74,276.49,231.49Z" transform="translate(-83.43 -31.92)"/><path class="b" d="M298.2,261.23c-1.11.09.09,5,.18,1.11l-.09-.65Z" transform="translate(-83.43 -31.92)"/><path class="b" d="M262.82,257.44l-.27-.65C260.24,253.56,263.65,261.5,262.82,257.44Z" transform="translate(-83.43 -31.92)"/><path class="b" d="M300,265.29a12.5,12.5,0,0,0,.46-1.85C301.24,258.09,297.92,268.62,300,265.29Z" transform="translate(-83.43 -31.92)"/><path class="b" d="M238.07,221.42c-1-1.11-1.94-4.06-3.41-1.84C234.93,220.78,242.32,224.65,238.07,221.42Z" transform="translate(-83.43 -31.92)"/><path class="b" d="M303.09,264.55c-1.2.09.37,4.16.09.46Z" transform="translate(-83.43 -31.92)"/><path class="b" d="M305.4,266.12l-.19-.64C303.46,261.32,305.12,269.54,305.4,266.12Z" transform="translate(-83.43 -31.92)"/><path class="b" d="M244.26,273.05l.09-.37-.09-.28C242.51,272.86,243,275.91,244.26,273.05Z" transform="translate(-83.43 -31.92)"/><path class="b" d="M238.72,276a1.48,1.48,0,0,0,1.2-1.47C238.72,270.92,235,275.73,238.72,276Z" transform="translate(-83.43 -31.92)"/><path class="b" d="M243.8,257.44c.18-4.34,2.58,4.53,2.86.37-.83-3.88-5.08-4-6.28-.28,1,.37,3-3.41,1.94.1C241.12,261,244.26,259.75,243.8,257.44Z" transform="translate(-83.43 -31.92)"/><path class="b" d="M236.59,276.37v-.46l-.09-.55C234.66,270.46,234,279,236.59,276.37Z" transform="translate(-83.43 -31.92)"/><path class="b" d="M235.49,227.89c.37.18,1.47,1.38,1.57.46C235.76,226.87,232.25,225.67,235.49,227.89Z" transform="translate(-83.43 -31.92)"/><path class="b" d="M259.59,259l-.09-.46C258.11,255,257.37,262.06,259.59,259Z" transform="translate(-83.43 -31.92)"/><path class="b" d="M245,261.78c-.83-1.2-.92,3.51-1.48,4.16-1.11,4.06.74.37,1.48-1.3a15.93,15.93,0,0,1,.92,1.85C247.77,269.54,246.29,263,245,261.78Z" transform="translate(-83.43 -31.92)"/><path class="b" d="M256.45,268.89c-.74.56-4.43-3.78-3.88.56.28,4.15-1.29-4.44-2.86.18-.55,1.2-.74,4.25-1.2,1.39-.92-4.53-5.17-.37-2.4,2.12,2.68,1.2-.09,1.11.09,2.59a1.82,1.82,0,0,0,2.77-.93c.65-3.14,1.11-.64,1.94.47,2.4-.19,2.31-4.44,5.63-4.25C260.88,270.46,254,263.44,256.45,268.89Z" transform="translate(-83.43 -31.92)"/><path class="b" d="M257.65,255.78l.37-.19.37-.37C256.45,253.47,254.79,257.16,257.65,255.78Z" transform="translate(-83.43 -31.92)"/><path class="b" d="M255,274.25l.56-.55C256,271.2,251.83,275.45,255,274.25Z" transform="translate(-83.43 -31.92)"/><path class="b" d="M198.54,210a11.93,11.93,0,0,0,.13,1.41.79.79,0,0,0,1.1-.14l-.12-.16c-1.57-1.48-2.58-5-.18-1.66a8,8,0,0,1,.49.63,13,13,0,0,0-.48-3.38c-.58,0-1.48-1.57-1.2-1.89a4.75,4.75,0,0,0-2-1,9,9,0,0,0-.35,5.16c.14-1.1.58-1.48,1.36.48a.93.93,0,0,1,.05.1C197.21,208.42,197.61,208,198.54,210Z" transform="translate(-83.43 -31.92)"/><path class="b" d="M199.85,214.41l-.32,0,.16.26Z" transform="translate(-83.43 -31.92)"/><path class="b" d="M199.88,214.35l.17-.28a3.74,3.74,0,0,0-1.23-1.85,9.77,9.77,0,0,0,.41,1.53A3.2,3.2,0,0,1,199.88,214.35Z" transform="translate(-83.43 -31.92)"/><path class="b" d="M159.2,185.59l.09-.37C158,183.56,157.17,187.62,159.2,185.59Z" transform="translate(-83.43 -31.92)"/><path class="b" d="M141.1,275.63c-1.66-.55-3.32-2.58-.37-1.29,1.2-2.86-3.42-7.11-6.56-7.39-1.66.47-.46-2.77-2.95-3-8-4.25-14.5-10.81-21-17.09-3-2.77-5.82-5.63-8.68-8.4-1.75,2.12-3.88,5-2.12,7.75,1.66,2.5,5.45,6.19,8,5.73-.37-2.59,2.13,4,3,5.17,4.43,7,12.19,10.71,19.58,13.67,4.06,1.66,7.2,5.17,11.54,6.19C143.87,277.11,141.65,276.1,141.1,275.63Z" transform="translate(-83.43 -31.92)"/><path class="b" d="M190.51,189.19c-3.79-2.86-.92,6.65.37,1.57A1.43,1.43,0,0,0,190.51,189.19Z" transform="translate(-83.43 -31.92)"/><path class="b" d="M166.77,187.53c1,.28,1.85-.56,2.41-1.2,1.47-1.48-1.2-2.4-.47-4.25C164.74,182.82,170.47,186.33,166.77,187.53Z" transform="translate(-83.43 -31.92)"/><path class="b" d="M185.71,197c1.29,1.11,1.84,4.06,4.52,3.6l.19-.55C188.94,199,188.39,195.93,185.71,197Z" transform="translate(-83.43 -31.92)"/><path class="b" d="M104.43,239.15a50.94,50.94,0,0,0,10.16,9.24c-.27-.74-3-3.51-1.94-2.59,1.94,1.57,3.7,3.42,3.79,6,2.49,3.05,5.82,5.35,8.77,7.94,2.22,1.94.47-4.25.74-5.17.47-4.07-2.58-6.56-4.15-9.61-2.5-2.4,2.21,3.6-1.39,1.2-2-1.66-4.89-2.58-4.34-5.63-3.14-.46-5.17-4-7.66-5.91C106.19,230.2,101,236.94,104.43,239.15Z" transform="translate(-83.43 -31.92)"/><path class="b" d="M169.73,261c.18-3-1.11-6.74-4.62-4.15-1.94,1.11-2.4,3.51-3.23,5.45a7.36,7.36,0,0,0,6.83,1.2C169.08,262.06,167.51,258.73,169.73,261Z" transform="translate(-83.43 -31.92)"/><path class="b" d="M194.66,235.86a7.05,7.05,0,0,0-2,1.26c-.55,1.48-2.67.19-3.32,2-3.79.65,2.68,2.41,4.06,2.13.89.13,1.79.2,2.7.27a4.21,4.21,0,0,1-1.67-3.78h0A9.74,9.74,0,0,1,194.66,235.86Z" transform="translate(-83.43 -31.92)"/><path class="b" d="M199,229.07a11.23,11.23,0,0,0,.47-1.74v-.06c-.4.52-.78.88-.89.08l-.22.21c-.15.65-.32,1.3-.5,1.95Z" transform="translate(-83.43 -31.92)"/><path class="b" d="M201.2,228.23a41.85,41.85,0,0,1,6.54-2,28.28,28.28,0,0,1-4.32-5.21,2.79,2.79,0,0,1-.66,1.12,12.22,12.22,0,0,1-1,1.5,2.74,2.74,0,0,0,0,1.49c-.16.65-.31,1.31-.47,2C201.28,227.48,201.24,227.87,201.2,228.23Z" transform="translate(-83.43 -31.92)"/><path class="b" d="M205.08,233.47c1.61.19,3.22.44,4.82.7-1.38-1.3-.37-4.44,1.48-3.51a16.64,16.64,0,0,0-1.65-2.27,80.87,80.87,0,0,0-9.18,1.78l-.24.88c0,1.23-.11,2.47-.29,1l-.21.73a2.66,2.66,0,0,1,.59.36h.5A8.87,8.87,0,0,1,205.08,233.47Z" transform="translate(-83.43 -31.92)"/><path class="b" d="M199.8,261a1.94,1.94,0,0,0-.05-.2l-.08.09a1.09,1.09,0,0,1,.08.15Z" transform="translate(-83.43 -31.92)"/><path class="b" d="M203.45,263.61c-.52-.5-1-1.05-1.53-1.58a3,3,0,0,1,.15,1.3C202.53,263.41,203,263.51,203.45,263.61Z" transform="translate(-83.43 -31.92)"/><path class="b" d="M200.52,234.9c.2,0,.16-.12,0-.32A1.51,1.51,0,0,1,200.52,234.9Z" transform="translate(-83.43 -31.92)"/><path class="b" d="M195.31,238.88a8,8,0,0,0,.59.58,9.72,9.72,0,0,1,.91-1l-1.33-.37C195.42,238.33,195.36,238.6,195.31,238.88Z" transform="translate(-83.43 -31.92)"/><path class="b" d="M199.28,234.54c.38.14.65.23.86.29a1.85,1.85,0,0,1,.17-.43c-.2-.19-.47-.4-.77-.63l-.06,0-.24.72Z" transform="translate(-83.43 -31.92)"/><path class="b" d="M196.51,237.93a5.77,5.77,0,0,1,.15-2.87l-.5.19c-.24.87-.46,1.74-.64,2.61Z" transform="translate(-83.43 -31.92)"/><path class="b" d="M202.15,238.23l-.53-.61c-.24.22-.48.43-.73.62.55.06,1.09.13,1.64.22Z" transform="translate(-83.43 -31.92)"/><path class="b" d="M198.51,237l-.13-.18s0,0,0,.06a.78.78,0,0,0,0,.21Z" transform="translate(-83.43 -31.92)"/><path class="b" d="M198.63,236.9c.16-.12.32-.22.48-.33a1.51,1.51,0,0,1-.26-1c-.14.37-.29.74-.44,1.11A1.75,1.75,0,0,1,198.63,236.9Z" transform="translate(-83.43 -31.92)"/><path class="b" d="M197.28,233.27c.12-.31.26-.63.4-1-.45-.37-.56-.56.13-.32l.51-1.17c-.3.1-.59.18-.88.29l-.06,0c-.21.73-.44,1.45-.66,2.18Z" transform="translate(-83.43 -31.92)"/><path class="b" d="M159.2,272.86c0-4.15-.28-8.49.92-11.36a3.52,3.52,0,0,0,1.21,1.67c.18-2,.92-4.07.36-6-3.87-.92-6.46,3.14-6.74,6.56-.64,3-3.32,1.66-1.75-.74,1.48-2.12.37-6.19-2.22-3.05-1.29.93-4.15,3.33-3.78,0-.93,4.81-3.7-1.84-1.76-2.86.83-1.48-.46-8.86-1.29-4.52.37,1.47-1,5.35-1.2,1.75,1.2-4.25-2.4-5.36-5.54-6.65-3-2.86,3.32.28,4.52.37,3,2.22,1.76-4.34,3.51-.74.65-.37.19-3.51,1.94-1.11,3,3.05-1-4.89,3.05-2.49a21.21,21.21,0,0,0,13.94-.46c3.7-1.57,7.76-1.85,11.46-3.42a51.2,51.2,0,0,1,19.72-6.39.25.25,0,0,0,0-.07c.22-.52.45-1.14.68-1.8-3.91,1.5-7.67,4-12,3.37l-.19-.19v-.09c2.59-2.49,6.56-.19,8.59-3.42a41.87,41.87,0,0,0,4.21-1.32c.18-.52.37-1,.56-1.5a.93.93,0,0,1-.24.14l.37-.55.09-.1a5.26,5.26,0,0,1,.92-1.47,3.74,3.74,0,0,1,.36-1.76c-.14-.56,0-1.24.46-.82.47-.65,1-1.05,1.44-.89.51-1.64,1.11-3.12,2-3.13-.07-.17-.15-.34-.21-.51a3,3,0,0,0-.55-2.36l-.37.61c0,.2.09.43.18.73-.15-.1-.29-.21-.43-.32-.43.72-.87,1.43-1.31,2.13.66,1.21,1.45,2.12-.33,1.9-.12.23-.32.16-.51,0a.43.43,0,0,1-.24-.21,37.28,37.28,0,0,1-5.49,6.69l-.46-.09-.1-.28c.81-3.46,3.44-5.66,5.75-8.06l.16-.43c-.06-.55-.1-1.13-.13-1.74a.64.64,0,0,1,0-.47l0-.75c.21-.11.41-.22.6-.34l-.06-.07-.17,0a1.52,1.52,0,0,1,0-.21,3.18,3.18,0,0,1-.26-.44,34.61,34.61,0,0,1-2.44-3.17,1.44,1.44,0,0,0,0,.59,3.58,3.58,0,0,1-.4-1.18,40.14,40.14,0,0,0-4.68-6c-3.05-.92-4.52-4.24-6.56-5.91-.92-1.66-.09-4.34-2.67-2.21-1.85.83-3.05.74-1.76-1-3.32-1.75-9-2.95-11.91-.28-1.3,2.5,3.78-2.95,3,.65-1.38,2.77-8.95-2-7.85,1.85,3.7-1.3-.64,4.52-.64,6.37-1.29,3.14-2,7.85-3.88,10.07-.83-5.54,3.23-10,4.25-15.15-.93-1.11-3.51-1.66-3.14-3.42-.93,3.14,1.11,6.75-1.94,9.61-1.94,3.42-2.4,7.66-4.07,11.08.28-5,2.41-9.7,3-14.68.28-2.4,2.68,1.84,1.57-1.67-.18-2.58-2-4.24-4.43-3.41.37-3.88-1.48,1.29.18,2.58a47.74,47.74,0,0,1-4,12.29c-.46-2.77.65-6.93,1.76-9.89,3.14-2.58-3.14-5.17-1.57-1.1-.56,2.3-1.94,4.61-3.79,5,3.05.65-.92,6.19-.46,1.85-1.2-3.42,4.62-5.82,1.29-9.33.93,1.85-.28,4.53-1.66,1.85-.09,1.48.28,5.26-1.66,2.22.92,2.4-4.07,5.54-2,6.65,1-1.39,3.78-2.77,1.47-.19.56,2.59-2,3.7-3.51,1.29-2.49.37-1.57,1.3.37,1.3-2.21,2.31-2.49,5.63-2.49,8.77-.09,2.12-.09,2.12-.28,0-.18-1.75-.27-3.6-.46-5.36-1,1.67-1.66,3.61-3,4.9-.47-2.59,2.12-4.25,1.29-7.11-.28.37-1.57,5.63-1.48,1.2-.65-1.29-3.32.28-1.11-1.85,2.87-2.31,3-6.19,4.9-9.05.83-1.57,1.47-2.77.83-.37-1.39,5,2.12-1.38,2.4-3.14.18-3.23.65-6.37,4.16-6.83.46-1.57,5-6.19,3.41-2.22-1.29,2.31,4.9-1.94,1.48-3.42,1.48-1,2.4-3,.09-1.29-2.86,3.32-6.74,5.26-10,8.13-6.37,5.72-10.9,13.11-17.18,18.93-1,1.39-5.54,4.8-2.4,1.2,6-6.46,12-13,17.36-20,2.31-2.58,5.54-4.25,8.22-6.65,2.13-.83,6.1-5.45,7.39-3.32,4.62.27.18-5-2.22-2.13-2.12,1.2,3.6-3.14-.27-2-3,.83-2.77,3.7-5.91,3.23-2.41,1.39-3.61,3.33-6.47,4.44a50.76,50.76,0,0,0-10.07,13.39c.47,1.94,5.27-5.08,5-3.79-1.66,2.4-4.16,6.19-5.91,6.47-2.12,4.71-6.74,7.75-8.77,12.46-.83,3.24-7.21,5-3.79,8.78,1.2,3.88,6.93,3.14,9,3.78-.28-1.1-5.08-1.84-3-2.67,1.39-.65,4-2.13,2,.55,3,2.4-1.11,7.2,3.51,9,1.94,1.29,4.25,2,4-.64,3.14,3-1.84,5.91-3.88,2.77-1.1,1.75-.83,4.15-1.29,6.28-.09,0-.09-2.77-.18-3.79-.47-3.79-1.39-8.22-4.62-10.53-4.16-.28,3.88,4.9-.46,2.4-3-1-3.51-4.43-5.64-6.46-.83-.74-1.66-3.42-2.58-1.57-1.48,1.94-3.6,3.78-3.79,6.28a18.2,18.2,0,0,0,7.48,7.2c1.11.74,3.88,4.53,6.19,5.91,1.94,1.11,4.06,3,5.54,3.33.74-2-.46-5.64.09-6.84.93,1.94,4-1,5,2,1.57,2.77-3.79-2.86-3.51,1.39-.28,1.29-1.11,6.83,1.11,4,.46.83,0,5,.74,2.12,1.38-5.17.55,3.05,3.05,4.16,1,1,2.58,2.59.37,1.11-1.94-1-4.81-4.06-3.51.18,0,3.42-2.13-4.71-3.79-5.26-.83,3.14-.65,8.22.92,11.27,3.88,1.2,6.56,5.17,10.72,5.45,2.3-1.11.27,4.61,2.12,3.78-1.2-1.66.55-4.89,1.2-1.48,1.11,2.13-1.38,4.81,1.76,5,1.2,1,4.34,4.53.55,3.42-5.45-1,.92,4.25,2,1.66,3.6-1.48,7.67-.09,11.45-.28C163.08,279.79,158.28,275.54,159.2,272.86Z" transform="translate(-83.43 -31.92)"/><path class="b" d="M199.87,217.23,200,217l0-.14a.71.71,0,0,1,0-.17l-.24-.23a.8.8,0,0,0-.21.89C199.52,217,199.62,216.85,199.87,217.23Z" transform="translate(-83.43 -31.92)"/><path class="b" d="M198.54,226.81v-.07a.52.52,0,0,1,0,.11Z" transform="translate(-83.43 -31.92)"/><path class="b" d="M206,274.06c4.24-.09,4.8-8.68,1.47-9.23-2.52,1.58-5,1.08-7.57.58l-.06.1a.34.34,0,0,0,.06.06c0,.09,0,.15,0,.23,1.4.72,2.81,1.68.58,1,.83.73,1.29,1.36-.38.49l-.73-.55c-.57-.67-.76-1-.74-1.11h0c-.54-.44-.55-.56-.27-.5v0a15.33,15.33,0,0,0-2-.21c-4.07-.28-8.31.19-12.19-1.2-.83-2.68,6.19-1.29,8.12-.55a31.16,31.16,0,0,1,7-.21c0-.21-.26-.43-1.07-.72-.89-1.4-.4-2,.28-2.06.19-.48.56-.82,1-.35a1.46,1.46,0,0,0-.07-.19c-.39.09-.62-.76-.54-1.23l-.14-.18c-.23,0-.34-.21-.37-.49-1.16-1.56-2.25-3.2-3.28-4.86-2.14-.5-5,1.24-5.48,2.34-3.14-3.14-.28,1.67-.19,2.22-1.2-1.57-3.51-3.42-2.21-5.63.55-1.94,0-7.67-2.5-6.38.46,3,3,8.32-2.4,6.75-.65,0-4.34,0-2.22-.19,2.31-.18,6.38-.28,4.07-3.6-.19-2.22-1.85-5.91-4.34-5.63,2.49,2.77-5.36,2.49-5.64,5.81-2,3.14-.09,5.92,3,3.33,2.86,1-2.4,4.53-1.94,6.93-1.39,2.49-1.57,6.37,2.12,4.24,1.57-.83,8.22-1.75,3.79.65-3,2.22-7.85,1.29-9.88,4.62-.09,1.75-4.16,6.46-1.94,2.22,1.66-1.85,1.48-6.28-1.29-2.87-1.67-.09-1.39-4.15-4.53-2.12-3.42,1.29-2.4,5.45-2.59,8.4.28,1.11,2.5.28,3.51.56,4.07-.1,7.58,2.67,11.55.46C186,272.86,196.24,275.27,206,274.06Zm-6.1-2.3c-4.16,1.2-2.22-2.59,0,0ZM198.08,268l.23.12c1-1.88,2.42,1.29,4.76.8a2.37,2.37,0,0,1-1.35,1c1,.65,1.86,1.35,1.9,2.08-1.27-.64-2.41-1.34-3.59-2-.15.2-.42,0-.55-.3h0l-.05,0c-.71-.08-1.35.12-1.89,1.5-1.76,2.22.37-1.48.37-1.85,0-.16.08-.29.12-.43C196.39,267.8,195,266.55,198.08,268Z" transform="translate(-83.43 -31.92)"/><path class="b" d="M200.67,246.91l-.25-.08-.14.1.27.32a1.56,1.56,0,0,1,.25-.31Z" transform="translate(-83.43 -31.92)"/><path class="b" d="M210.37,235.37c-1.63-.58-3.46-1.4-5.29-1.9a41.77,41.77,0,0,0-4.18-.32l-.39.1a3.89,3.89,0,0,1,1,1.88c.87-.46,1.74-.87,2.56-1.24A9,9,0,0,1,202,237.2a4.81,4.81,0,0,0,.54,1.27,18.14,18.14,0,0,1,2.8.68c-.58.9-2.3.74-4,.39.29.49.17.66-.79-.17l-.77-.18c-.11.18-.27.15-.43,0a6.28,6.28,0,0,1-2.89.7,9.5,9.5,0,0,0,2.44,1.18l.12,0a22.88,22.88,0,0,0,3.32.75,28.11,28.11,0,0,1,4.78.7c-2,.8-4.74,1.49-6.36.83a6.55,6.55,0,0,1,.55,1c1.38.74,4.8,5.72,1.57,2.58l-.37-.36-.37-.37c-.65-2.31-3.51-.37-3.05-1.2a2.07,2.07,0,0,0-.56-1.61c-2.28.87-5.64-1.26-8-1.72a5.67,5.67,0,0,0-6.47.19c-2.58,1.1,3.42,2.95,3.79,4.89,1,1.57,1.76,3.23,2.59,4.8,3.1-.06,6.24-.32,9.4-.35,0-.14,0-.29-.07-.48.32-2.26.45-.56.4.47,1.43,0,2.87,0,4.31.18-.42,1.93-2.84,1.23-5,1.16-.66.76-1,.5-1.12.05a2.41,2.41,0,0,0-1.85,1.1,2.6,2.6,0,0,0-1.43-.87c1,1.46,2.17,2.85,3.33,4.22.21-.73.84-1.29,1.52.25a3.87,3.87,0,0,1-.71.68c.17.21.35.41.52.61l.08-.07c.15-.9.26-.78.31-.32,1.24-1.3,2.09-2.31,1.19.48a4.26,4.26,0,0,0,.2,2c.79.93,1.57,1.86,2.33,2.81,3.52-1.34,3.06-5.41,4.76-8-.65-3.05.56-6.28,3.23-7.29.84-2.5-.64-3.42-1.75-4.71C212.21,241.65,214.06,237.22,210.37,235.37ZM201,248.76l-.19-.18c-.23.56-.57.81-.83-.19l.21-.43-.27-.28c-.23,1.51-.84.08-1-.94a5.77,5.77,0,0,1-1-1.35.23.23,0,0,1-.07-.13c-.25-.57-.1-.79.86.1.4.13.87.31,1.35.51.47-.46.91-.61.76.34,1.33.63,2.19,1.22.28.79a2,2,0,0,1,0,.8C202.2,249.31,203,250.74,201,248.76Z" transform="translate(-83.43 -31.92)"/><path d="M198,268.83c0,.14-.08.27-.12.43,0,.37-2.13,4.07-.37,1.85.54-1.38,1.18-1.58,1.89-1.5l.05,0h0c.13.32.4.5.55.3,1.18.66,2.32,1.36,3.59,2,0-.73-.86-1.43-1.9-2.08a2.37,2.37,0,0,0,1.35-1c-2.34.49-3.76-2.68-4.76-.8l-.23-.12C195,266.55,196.39,267.8,198,268.83Z" transform="translate(-83.43 -31.92)"/><path class="b" d="M202.61,211.45c0-.11,0-.22,0-.33-.95-1.57-2.07-2.68-1.48.53a2.1,2.1,0,0,0,.06.24,1.87,1.87,0,0,0,.07.22c.2.38.37.71.47,1C202.1,213.5,202.49,213.23,202.61,211.45Z" transform="translate(-83.43 -31.92)"/><path class="b" d="M164.1,245.34l.09-.37C162.9,243.31,162.06,247.37,164.1,245.34Z" transform="translate(-83.43 -31.92)"/><path class="b" d="M209.07,222.35l.1-.37-.1-.28C207.32,222.16,207.78,225.12,209.07,222.35Z" transform="translate(-83.43 -31.92)"/><path class="b" d="M221.54,242.29l.37-.18.55-.09C222,239.62,218.4,244.05,221.54,242.29Z" transform="translate(-83.43 -31.92)"/><path class="b" d="M208.33,219.76l.1-.46C208.15,215.6,206.12,222.62,208.33,219.76Z" transform="translate(-83.43 -31.92)"/><path class="b" d="M192.36,203.23c1.38,1.2,3.51-.56,4.25-1.76.64-1-2.31,1.39-3-.64-.83-1.94-3.79-2.5-1.66.09C194.85,202.12,192.73,203,192.36,203.23Z" transform="translate(-83.43 -31.92)"/><path class="b" d="M203.59,212.8l-.09,0q0,.12,0,.27Z" transform="translate(-83.43 -31.92)"/><path class="b" d="M203.93,212.08l0-.07-.05,0Z" transform="translate(-83.43 -31.92)"/><path class="b" d="M205,215.6a7.38,7.38,0,0,0-.39-3.17c-.38.67-.75,1.32-1.08,2C203.87,216.64,205.07,219.17,205,215.6Z" transform="translate(-83.43 -31.92)"/><path class="b" d="M208.7,291.24l-.37-.37C204.36,289.12,210.55,295.68,208.7,291.24Z" transform="translate(-83.43 -31.92)"/><path class="b" d="M209.17,288.47l-.1-.37-.18-.27C206.39,286.72,209.17,292.44,209.17,288.47Z" transform="translate(-83.43 -31.92)"/><path class="b" d="M206.39,354.6l.28-.28.09-.28C205.93,351.46,203.16,356.08,206.39,354.6Z" transform="translate(-83.43 -31.92)"/><path class="b" d="M207,296.23c.65.28,1.94.46,2.31-.46C208.52,292.91,204,293.74,207,296.23Z" transform="translate(-83.43 -31.92)"/><path class="b" d="M208.89,301.68l-.37-.65-.46-.46c-1.2-.92-1.85-4.89-2.4-1.2C206,301.22,209.81,306.76,208.89,301.68Z" transform="translate(-83.43 -31.92)"/><path class="b" d="M209.26,298.72c-.83-3.69-3,2.31-.28.83l.19-.36Z" transform="translate(-83.43 -31.92)"/><path class="b" d="M209.9,332.53c-.64-3.88,1.2-7.12,1.67-10.53,1.2-3.42-.19-5.27-1.11-8.41-.93-1.66-1.94-3.23-3-4.89,1.67,1.48,3.05,3.88,5.27,4.34-.56-3.23-3.24-5.91-5-8.59-.65-2-4.43-4.16-3.05-.37.65,1.85,4.34,5.45.93,2.49-1.48-2-.93.65-1,1.76.09,8.31-.28,16.71.46,25,.83,2.31.74,6.09,4.16,5.82-.28,2.58,4-.37,1.66,2.86.37,4.43,6.1,5.54,8.87,2.31,2.12-.65,6.09-4.62,1.38-3.79-2.95-.92-3.88-3.42-7.2-4,2.77-3.14-3.79.46-5.36.46C205.93,336.59,211.29,334.56,209.9,332.53Z" transform="translate(-83.43 -31.92)"/><path class="b" d="M220.25,266.49c-2.4.09-.56,9.24,1.48,4C222.1,268.52,219.6,268.62,220.25,266.49Z" transform="translate(-83.43 -31.92)"/><path class="b" d="M218.12,193.9l.1-.83C217.39,190.3,216.09,195.29,218.12,193.9Z" transform="translate(-83.43 -31.92)"/><path class="b" d="M214.06,304a3.48,3.48,0,0,0-.18-1.39C211.29,301.4,214,308.51,214.06,304Z" transform="translate(-83.43 -31.92)"/><path class="b" d="M170.1,245.43c.55,2-2.22,3.33-2.4,4-.46-2.31-3.7-4-2.31-.47-.55,2.59-1.48,7.3,2.31,6a6,6,0,0,0,2.4-1.2c.83-2.5.28-5.08,2.22-3.51C170.65,248.94,172.13,245.8,170.1,245.43Z" transform="translate(-83.43 -31.92)"/><path class="b" d="M217.29,304.91c-1.66-.09-4.43,2.22-1,3,1.11.27,1.2-1.2,1.47-1.94C218.59,304.36,217.39,302,217.29,304.91Z" transform="translate(-83.43 -31.92)"/><path class="b" d="M139.25,208.22c0-.56,3.7-.19,1-1.57C137,205.08,138.14,211.08,139.25,208.22Z" transform="translate(-83.43 -31.92)"/><path class="b" d="M150.15,258.46l.09-.37C149,256.43,148.21,260.49,150.15,258.46Z" transform="translate(-83.43 -31.92)"/><path class="b" d="M212.31,309.16c1,1.2,1-.09,1-.92C213,305.19,209.17,307.68,212.31,309.16Z" transform="translate(-83.43 -31.92)"/><path class="b" d="M172.69,263l.36-.64.28-.65c1.11-1.57,2.31-8-1.11-4.71-.46,2.68-1.29,1.2-1.84.74C170.47,259.66,169.64,267.6,172.69,263Z" transform="translate(-83.43 -31.92)"/><path class="b" d="M144.7,195.93l.19-.46C145.07,192.61,142.58,198.61,144.7,195.93Z" transform="translate(-83.43 -31.92)"/><path class="b" d="M211.38,294.66c-.46-4.16-2.68.83-.28,1.11A1.22,1.22,0,0,0,211.38,294.66Z" transform="translate(-83.43 -31.92)"/><path class="b" d="M211.38,299.65l.19-.46.09-.47C211.1,294.11,208.89,302.42,211.38,299.65Z" transform="translate(-83.43 -31.92)"/><path class="b" d="M136.3,211.82l.09-.37C135.1,209.69,134.27,213.76,136.3,211.82Z" transform="translate(-83.43 -31.92)"/><path d="M316.39,267.88h.18a7.35,7.35,0,0,1-.18-1.39c-2.4,0-4.8,0-7.2-.18-5-.19-.37-4,2-4.34,4.06-1,2.49-4-1-3.14-7.66.27-15.88-.74-22.44-5.18-3-2.67,2.4-6.37.92-8.4-4.8,1.48-4-4.53-5.35-7.48a4.93,4.93,0,0,1-.37-1.57,48.28,48.28,0,0,1-2.22-17.92l-.28-.83c-1.2-1.2-1.75-4.25-1.47-6.46a20.08,20.08,0,0,1-.1-2.4c-1.47-3.61-1.75-7.58-2.4-11.36a30.87,30.87,0,0,1-.46-5.82c-.09-1.2-.09-2.4-.09-3.6a19.4,19.4,0,0,0-.19-2.31c-1.1-3.61-.46-8.78-3.78-11-4.25-.37-8.5.83-12.75,1.2a107.1,107.1,0,0,0,0-10.9c-.46-3.7-.09-7.76-2.21-10.9-.65-5,7.66-1.2,6.65,2.77.09.93,1.1,3.88-.19,1.85-.74-.83-1.85-2.49-2.49-2.77.09,1.38-.37,7,1.1,3.14.1.55,2.41,2.68,1.39,4.25,2.4-1.48-.28,2.95,1.85,1.47,1.75-3.41,5.35-3.87,7.57-6.55-1.66,1.11-1.85-4.71-.46-3,1,2.77,1.85-.37,2.31,1.76,1.11,2-.83,8.59,3.05,5.08a37.1,37.1,0,0,0,2.12-14.5c1.57-3.33.55,2,1.94,1,1.29-5.45-.92-11-3.33-15.79-1.47-3.6-4.15-7.11-4.34-11.18,1.11,2,2.59,5.27,4.62,7.21,2.13.74,2.13,6.56,4.25,4.71-.46-4.53-5-7-6.28-11.27-1.76-6-5.73-10.8-9.61-15.42-.09-3-.09-6.19-.18-9.24.28-4.71-2.31-8.77-4.34-12.84-1.94-3.32-1.29-7.11-1.94-10.71-.65-4.71-4.53-7.57-6.83-11.45-2-5.45-6.28-9.51-10.72-13.11-5.17-4.44-11.82-7.21-18.65-6.84-4.44.19-9.05-.65-13.21.83-4,2.07-6.47,5.62-8.72,9.34a17.33,17.33,0,0,0-2.06-2.26c0-.35-.11-.51-.24-.22a8,8,0,0,0-2.09-1.41c-4.35-.74,0,2.49,1.66,2.86-1.31,0-1.71.18-1.64.39-.65.17-.29.25.29.3.31.21.79.46,1.26.75a5.88,5.88,0,0,0,.21,1c.21,1.07.38.86.48.31.21.2.65.13,1.05.06-.53.9-1.07,1.8-1.61,2.68a4.82,4.82,0,0,0-.78.4c-1.44.42-.74.78.06.75l-.06.09c-1.94,3.6-5.91,6.74-5.45,11.17,1.94,4.62-4.06,5.82-5.17,9.33a51.4,51.4,0,0,1,0,18c0,2.49-1.13,3.21-2.64,3.26h-.54c-1.65-.11-3.62-.81-5.13-.94-1.57.24-2,.59-2,1,.18,1,3.45,2.62,2.8,4.69,2.21.83-.46-3.88,1.29-4,1.57,0,8.4-.55,5.82,1.57.28.46,4.71-.55,2.68,2.5.83-.37,5.82-1.85,4.61,1.93,1.67.37,1.76,2,1.39,4,1.94-5.64,1.94,7.29.18,2.49-.18,1.75.93,4.89,1,7.2.83,3.14-2.4,3-2.4.1-.65-4.16-2.22.27-2.31,2-.65,3.78-.65.74-.28-1.3-.09-3.51,2.4-6.28,1.76-9.79-.09-.73-.09-4.34-.19-2.49-.37,1.76.19,4.25-1.1,5.45-3.24-2.22.73-7.67-.93-9.7-1.94,3.42-1.75,7.39-2.31,11.55-1.38,2.49,1.2,2.49,1.48,4.15-.83,3.6-1.29,7.67-3.14,10.81-.92-3.05-1-.37-1,1.2,1.11,3.32-5.63,2.77-3.51.83,1.21-4.16-.18-8.68,1.3-12.84,2.58-4.52,2.4,2,1.75,3.88-2.31-4-.37,2.5.93,3.42-.19-2.49.92-5.36,2.67-6.47-2.49-1.47-2.12-4.89-2.67-7.75-2-4.07-.56,3.14-2.59,3.23-3.05-1.76-1.48-6.65-3.32-9.42-2.5-.19-.19,5.63-2.5,5.82,2.86,1.38-1,.55,0,2.4-2.68,2.86,1.94.64,2.5,3.42.73,3.69-.93-.74-2.13-1.11-3.42,2.12-6.19-7.11-7.2-3.14a11.55,11.55,0,0,1-10.07-7.39,2.73,2.73,0,0,1-.77-.88,2.56,2.56,0,0,1-.17-2c.55-1.72,2.66-2.77,3.62,0,1.2,2.58,4.25,7,5.91,7.29-.18-3.23-4.62-3.69-5-7.57.65-4.43,7.21-2,10.35-3.6a1.56,1.56,0,0,0-.37-.46c-1.57-1.35-5.86.71-8.22.46-3.6-.1-9.42,1.11-6.74,6a5.65,5.65,0,0,1,.78,2.65c0,.13,0,.25,0,.38,0,2.79-1.28,5.65.41,8.42.46.4.74.57.9.57,1,0-3.4-7.42.85-5.74,6.1,3,10.25,8.68,14.5,14-2.12-.47-4.25-.65-6.19-1.57-3.78-1.3-2.49-6.65-6.18-8.13-3.14-2.59-2.13,1.85.46,1.29a6.68,6.68,0,0,1-2.92,1.49,9.12,9.12,0,0,1-3.92.27c-2.77,1.66,2.4,6,4.71,6.55a1.61,1.61,0,0,1,1.67.88,5.84,5.84,0,0,1,.62,2.07c.16,1.13.19,2.26.36,2.78.09.31.24.42.49.18-.27-4.71,6.19-2.86,8.59-1.66,3.14,3.6-1.38,4.07-4.06,3.23-1.52.07-3.07.16-4.62.31-4.57.44-9.11,1.41-12.84,4-6.18,4.44-7,12.93-12.28,18-3.6,2.31-8.22,2.77-12.47,2.22-7.29-1.75-14.68-3.79-21.15-7.76-6.28-3.69-10-10.43-12.1-17.18a51.08,51.08,0,0,1-4.15-21c.64-14.13,5.35-27.71,10.06-40.91,2.5-5.91,4.44-12.75,9.89-16.63,5.17-3.14,10.89,0,16.16.74,6.74.28,13.21,2.4,19.49,4.62,3.69,1.2,8.4,3.05,7.94,7.76.37,2.31-.93,11.17,3.23,6.65,4.62-6.47,5.36-14.6,6-22.26a66,66,0,0,0-14.4-10.81c-3.88-1.75-6-5.54-9.42-7.66-4.81-1.85-10.07-2.13-15.24-2.59-5.64-.74-10,3.51-13.76,7-2.59,2.86-4.07,6.56-6.93,9.24A40.54,40.54,0,0,0,96.4,63.59c-.64,1.15-.55,1.84-.19,2.16-1,1.31-2.18,5.75-2.77,6.7-5.17,13.76-11,28.08-9.88,43.13.83,10.16,2.4,20.51,6.65,29.83,4.07,9,12.47,14.78,20.87,19.31,4.53,3.51,10,5.26,15.43,6.74a12.75,12.75,0,0,0,8.59,7.48c5.17,1.2,10.71,1.94,15.79.37-.28,1.48-4.8,2.95-6.74,4.15-6.37,2.59-9.88,8.87-13.58,14.32-3.79,6.19-7.57,12.56-12.28,18.1a181.51,181.51,0,0,0-18.38,24.48c-3.33,3.41-1.94,7.94,1.85,10.25a24.17,24.17,0,0,1,8.12,8c2.22,4.16,6.38,6.56,10,9.42a4.3,4.3,0,0,1,.92.83c.28.19.46.37.74.56l.55.27c3.51.56,6,2.87,9.52,3.7,1.11.64,6.28,2.95,5.26,3.69a2.79,2.79,0,0,1,.46.93c.19.09.37.27.56.37A2.09,2.09,0,0,1,139,279a2.23,2.23,0,0,1,.73.55c.19,0,.47.1.65.1a12.4,12.4,0,0,1,3.6,1.66l.19.18a.31.31,0,0,1,.18.1.85.85,0,0,1,.46.37c.47.09.93.09,1.39.18a3.16,3.16,0,0,1,.92.09,1.25,1.25,0,0,1,.56.19l2,.55h.09c.09,0,.09,0,.19-.09.46-1.76,6-2,7.29-.28l.28.56h1.57a.09.09,0,0,0,.09-.1c.46-1.2,6-1,5.91-3.6,0-5.17,6.65-1.48,9.61-1.2-.56-1.66,1.2-1.85,2.95-1.29,2.22-.09,4.16-1.66,6.47-1.94.09,2.21.09,4.52.18,6.74a36.12,36.12,0,0,0,.72,5.6c.17.51.36.67.58.13-1.11-3.42,3-6.28-.28-8.5.55-1.94,6.28-.83,8.77-1,.74.74.09,1.48,2.4.74,2.87-.55,3.42,1.11,4.53,2.59-1.76.28-5.08-1.2-7.57-1.2.83,1.29,5.81,2,8.31,2.4.64-1.29,2.95-.19,2.21,1.85-2.49,1.66,1.39,1.1-.27,3,.27,2.22-2.68,3.05-.47,5.27-.83,4-.55,8.13-.73,12.1-.28,3.23-1.57,5.91.18,9.14,1.11,2.31,2.4,9.05-2,7.39-1.85-2.5-3.6-1.48-5.45.37-4.43,2.86-2.22-2.77-2.86-5.17-.16-1-.32-2-.5-3-.34-1.89-.72-3.78-1.19-5.64-.19-.76-.4-1.51-.62-2.26a42.85,42.85,0,0,0-1.76-4.92c.28,5,2.4,9.79,3,14.78.65,4.16-1.11,8.68-3.6,11.91-3.42,1.48-5.36,5.55-9.05,6.38-2.2,1-1.55,2.11-.19,2.38a3.66,3.66,0,0,0,1.94-.17c-.55-2.31,1.76,0,2,.93,4.81.46,9.42,2.49,14.23,2.86,0,1.2,1.29,2.49,2.58,3.42a3.45,3.45,0,0,0-.12.43c-.92-.21-1.48-.17-.43.58l.36.14c.08,2.11,2.59,3.26,4.16,1,3.23-2.22-1.66,2.12,1.3,3-.47-.47-5.92,2.21-4.07-.84-2.12-1.38-3.51,1.76-1.75,3.51-3.24-.92-1,1.85.55,2.13.83,2.47-.11.14-1-.09a1.25,1.25,0,0,1-.12-.37,3.46,3.46,0,0,0-.29.46.74.74,0,0,0-.17.18c-2.68-2.58-1.66.65-1.48,2.4-.83-1.2-1.57-.55-2.58-1.38-3.42-4,.18,1,.64,3-1.66-.83-1.29,1.38.1,1.66-3.24-1.11-2.59,2.77-2.68,4.8-1.2,4.71-.56-2.95-1.94-3.32-1.11-2.13-4.16-1.67-6.74-1.57-.19-1.39-.65-2.5-2.68-2.31,1.66-.93,2.86-6.74.92-2.59-2.21,3.23-2.31-2.49-.09-3.14,2.59-3.69-3.51,2.13-4.9-.28,1.57-1.66,4.07-1.84,6.19-2.58.37-.28-3.41-.09-4.34,0-2.31-.37-6.65,4.89-4,.55-1.94-1.47.19-2.77,1.11-4.25-.83-2.67,2.22-1.84,2.77-3-2.4-2.13.09-1.94,1.94-1.3.33-1-2.63-1.11-5-.58a6.16,6.16,0,0,0-2.32.95c1,1.94-1.75,3.05-3.41,4.44,1.2,1,1.94,1.94.37,3.51,2.49.55,1,3.41,3,3.87,0,1.57-5.08,2.31-3.88,2.68,2-.18,6.75.37,3,2.59-3.69,2.49,1,2.4,3,1.75-1.76,1.85-1.39,3.51,1.66,2.41-1,2.12,2.22.92,2.4,2.4,1.31,1.64,2.58.81,3.64-.46.67-.8,1.26-1.77,1.72-2.41-.1-3.41,3.14-.18,2.21,1.85-1.1-2.6-2.74-.49-2.5,1.34a2.29,2.29,0,0,0,.29.88c-2.87-.19-.37,1.75,1.94,1.57,1.2,2.49,2.86.46,4.43.18,2,2.13,3.79-1.38,5.17,1.2.83-2.86,4,1.39,4.8-1.29-.37-3.23,1-.46,2.31-.19a9,9,0,0,0,1.11-.92c0-.09.09-.09.09-.18-.27-1.2.83-1.67,2.31-1.94a31.9,31.9,0,0,0,6.38-10.25l.27-.56a2.15,2.15,0,0,1-.37-1.57c-2.68-.28.93-2-1.11-3.23-3-1.39-.09-2.77.84-.65,3.87,2.22,8.4,3,12.83,3.42a3.64,3.64,0,0,1,3.7.92,4.06,4.06,0,0,1,4.34-.27c-1.66-.93-.74-.28.55-.37l2.13-.28c.92-2.12.92-3.51.09-4.8-.83-.46-1.66-1-2.5-1.48a6,6,0,0,1-1.1-.92h-.28c-1.76.09-7.76-2.87-5.08-3.88-.09-.1-.28-.19-.37-.28a16.67,16.67,0,0,1-7.3-5.91c-3.41,1.94-7.2-1.76-5.35-5.54,2.21-11.73,7-22.72,10.34-34.17,1.76-3.7,1.48-8.59,3.7-11.73,4.34-1.11,9.05-.65,13.2-2.59,3.51-2.49,7.85-1.85,11.82-2.95,3.33-.84,9.24-2,6.56-6.65-1.66-2.13-1.2-5.45,1.94-3.42,3.42,2.68,5.36,6.83,8.68,9.7,3,3.14,0-1.39,1.94-2,4.07.84,7.85,3.51,12.19,2.78,3.14-1.39-.55-2.87-2.4-2.5-2.22-.83-7.29-6.28-3.14-6.92.83-.19,4.71-.37,3.6-.47-2-.27-4.71.47-6.18-1.2.55-2.58,3.23-4.15,4.89-6.18-3.6.18-7.3-.37-10.25-2.41-3.79-1.57-4.16-5.54-6.19-8.4-5-2.86,4.06-5.73.19-8-1.76,4.07-3-2.21-2.59-4.15.18-3.42-.46-7.39,1.39-10.35.55,2.13,2,1.94,3.78,4.07,1-1.94-5.45-4.53-3.6-7.67,2.59-2.77,1.85,2.87,4.34,2.4.46,2.5,4.53,3,1.48.37-2.68-1.1-4.53-8.68-.28-5.17,3.79,1.94,4.9,6.19,4,10.07-1.66-1.66-2.68-2.31-2.21,1.11.55,3.14-2.22-.65-2.41.83.74,2.58,6,6,3.7,8.22-.28-3.33-3.51,2.21-4.53-1.48,1.48-.37,2.31-.37.83-2.22-.83-1.38-6.09-8.12-4.89-3.78,3.79.74,2.49,5.54,3.51,7.94a45.42,45.42,0,0,0,11.73.74,9.65,9.65,0,0,1-6.74-6.47c-2.22-3,2.12-4.8,2-.83-.37,3.7,2.95-1,3.14,2,1.85,4.53,1.48-2.95,1.29-4.43.65-4.25-4.43-6.28-4.34-10.44-.09-3.69-.18.28-1.75,0-3-2.3-5.55-5.26-8.22-7.85.64-6.18,1-12.46,2.12-18.65,1.48-4.16,1.48-8.68,1.57-13,.55,1.47.83,6.28,2.49,8.59,3.05,4,3.33,9.14,4.34,13.85-1.84,2.4,1,4.16,1.3,6.83-.83,2.77,3.51,7.21.09,8.22-.09-1.75-4.8-6.28-2.68-2.21a27.17,27.17,0,0,1,6.28,13c2,8.5,1.94,17.36,3.33,26,3.23,5.45,8.31,9.61,12.37,14.41,2.31,3.14,6.37,6.19,6.19,10.34,2.68,1.11,3.14-1.75,2.31-4,1.48-.74,6.28,4.25,4.16,5.54a2.06,2.06,0,0,0,1.1.47c.19,0,.37-.1.56-.1a10.89,10.89,0,0,1,3.05-.18,4.47,4.47,0,0,0,2.21-1.29,9.47,9.47,0,0,1,.65-.84,5.22,5.22,0,0,1-1.11-.46c-1.11.37-2.68.74-3.05-.64-1.57-3.24-4.8-8-2.77-11.27C310.94,267.51,313.71,267.69,316.39,267.88ZM281,141.72l.09.46.09.65C281.11,146.71,279.91,141.81,281,141.72Zm-4.34,19.39-.19.47C274.46,164.16,276.86,158.16,276.68,161.11Zm.09-24.19c.83.92-1.94,2.58-.74.74C274.74,136.27,274.92,135.72,276.77,136.92Zm-6.19,17.55c-2,2-1.2-2,.09-.37Zm3.14-2.87-.18.56c-3.42,3.69-1.3-5.45.18-1.11Zm.56-7.2.27.55C272.71,145.32,271.87,142.09,274.28,144.4Zm.46-6.1c-.93.56-2.22-1.94-3.14-2.68C270.3,134.15,274.37,137.75,274.74,138.3Zm-3.33-18.19-.09.55-.18.46C268.92,124.17,270.3,117.15,271.41,120.11Zm-2,4.8c1.11,3.14,1.39-1.48,2.13,1.76l.18.46C273.44,132.48,267.53,125.65,269.38,124.91Zm1,22.35c.46,7.21-1.11-2.77-4.53-1C264.12,144.68,272,143.11,270.4,147.26Zm-4.81.46c1.48,3.88.47,8.32,1.48,12.38-.92,2.4-1.94-1.39-1.75-2.4C265.41,154.56,263.56,149.85,265.59,147.72ZM191.06,336.59c-2.86.46-1.66-1.11.28-.37C192.08,336.31,191.25,336.77,191.06,336.59Zm1-1.94c-3.23,1.11-6.37-.92-9.24-2.12,1.11-.84,3.42-4,4.16-2.22-4.16,3.69,4.16,2.49,5.45,4Zm9-4.25c-.37.74-1.38.46-1.94.56-3.6-.93-7.57-1.2-11.08-2.22,1-4.62,6.65-6.1,10.8-6.37C204.46,321.54,201.78,327.45,201.13,330.4Zm2.12,11.27c-2.58,3.51-2-3.23.74-2.31C204.27,340.19,203.62,341,203.25,341.67Zm-24.93,10.8a.77.77,0,0,1-.56,1.11C174.07,355.24,177,350.44,178.32,352.47Zm-4.71-8.31-.56.56C169.73,345.92,173.52,342.5,173.61,344.16Zm.46,7.76c2.68-.55.37.28.37,1.2C175.46,355.34,172.22,352.38,174.07,351.92Zm5,6.74.27.46.19.47C180,363.1,177.3,357.83,179.06,358.66Zm49.41-13.11c3.69-.65.46,1.38.92,3.05-2.86,2.58-.83-4-2.49-.93C223.76,351.37,225.88,345.18,228.47,345.55Zm36.39-85.8-.1.37C262.82,262.15,263.65,258,264.86,259.75Zm-28.27-106-.18.46C234.29,156.87,236.78,150.77,236.59,153.73Zm1.3-7.12-.09.37-.28.37C234.38,150.12,236.32,144.49,237.89,146.61Zm-.09,7.95c0-4,1.47,1,1.57,2.4l.09.74.09.64c1.11,3-1.57,2.31-2.49.28C234.66,155.85,238.07,156.87,237.8,154.56Zm1.66-9.33c-1.94-1.57-1.29-3.6-4-4.06-3.79-3.51,2.31-4.62,4.89-4.81a43.49,43.49,0,0,0,13.39,1.57c4.07-.46.46,1.76-1.47,1-2.78.65-6.28,1.75-8.32,3.51-4.25.92.1,1.11,1.94,1.2a38.32,38.32,0,0,1,11.64,2.77c-2.22.55-4.16,3.69-6.47,1.66-2-1.66-3.69,0-5.54.83C244.63,145.32,239.37,148.92,239.46,145.23Zm-2.4-21.89c-2.5,2.13-3.42,7-6.56,7.67a8.66,8.66,0,0,1,2.59-11.64c2.86-3.05,7.11-1.39,10.06-3.6-3.14,1.94-.18,4.25,3.14,5.08,4.07,2.86-3,1.75-4.25,3.88.56,1.75,6.19-.56,8.5-.1,2.59.93,7.57,3.14,6.93,6.1,2.4.55.74,2.77-2.13,2.12-3.32.93-8.22-3.32-10-1.75,3.23,0,1.29.83-.65,1.11s-2.68.55-.27.55c3.23-.46,5.63,2.5,8.77,1.2-3.6,2.59,2.68.28,2.68,2.4-3.7.83-7.58-.27-11.18-1.1a12.4,12.4,0,0,0-11.27.09c-4,3.78-1.29-3-.18-4.34,2.31-2.77,2.68-6.1,5.45-8.13C240.1,119.74,238,124,237.06,123.34Zm4.71-50.89c1.38-4.71.64,2.68,1.66,4-1.57-1.11-2.12,3.5-2,5.63.55,4.25.55-2.68,1-1.48,2.4,3.33,2.5,7.76,1.3,11.55-1.76,4.34-.83-4.16-1.3-2.5-.55,4.53-5.08,6.37-6.55,10.53-2.41,3.33-1.3-.37.18-1.85,1.29-1,3.7-9.23,1.85-5.82-.93,4.25-6.65,6.38-5.45,11.09l.09.64c1.29,5.18-2.77-.83-1.85-3,1.94-3.05,4.81-6,4.81-10,.46-3.69,3-7.94,3.32-11.08C239.83,78.09,240.47,74.86,241.77,72.45Zm.18-4.52-.28.83-.27.55C239.83,73,240.1,66.45,242,67.93Zm4.62,36a20.47,20.47,0,0,1,.09,3.32c-1.29-1.29-2.68-5.35-3.69-7.66C244.35,96.28,247.4,101.64,246.57,104Zm-.19-7.39.19.55.09.46C245.55,99.42,244.08,93.42,246.38,96.56Zm-1.2,20.59a2.35,2.35,0,0,0-2.49-2.58c-3.14.74-1.94-1.66-3.32-3.6-1.39-2.31-.65-2,.83-.19a7.75,7.75,0,0,1,6.09,5C248.6,117.34,246.66,117.15,245.18,117.15Zm3.14-5.54a7.06,7.06,0,0,1,.74,1.48C247.49,113.27,246.11,108.38,248.32,111.61Zm-5.17-7c-3-.92-2.68,1.48-.74,2.87-.64-2.59,1.57.37,2,1.84-.65,1.85-3.7-.64-4.16-1.57-1.85-2.31.55-3.41,1.38-4.43C240.1,99.05,243.06,102.75,243.15,104.59Zm-4.71.37c-.18,4.81-2.86-4.43-.55-1.29l.28.65Zm-1.85,1.57c-.27,3.42-1.93-4.8-.18-.64Zm-4.43,5.73c-.18,1,.09,3-1,3.42-2.13-3.24-2.41-7.3-1.85-11C230.59,107.09,232.07,109.49,232.16,112.26Zm18.47,4.43.56.56C253.13,121.12,247.49,113.64,250.63,116.69Zm.74-15.61-.46.56C248.23,101.08,251.09,98.22,251.37,101.08Zm6.19,42.12c.74-1.85,3.23.09,3.6.09-1.38,1.11-3.51.74-5,.18-1.57-2.77-3.69-1.1-6-1.66-.18-2.12,5.91-.09,6.93-1.2-3.6-1-.46-1.57,1.48-.64C262.73,141.07,253.22,142.92,257.56,143.2Zm-1.29-7.3c-4.16-3.23,1.94-1.48,2.4.56C257.84,137.47,256.82,136.46,256.27,135.9Zm7,13.58c-.65,1.57-3.24,1-4.62.92C253.5,149.11,262.27,147.08,263.29,149.48Zm-1.11-13.67c.18.46.09,1.2-.56,1.2C259.5,135.72,263.19,132.3,262.18,135.81ZM259,123c-.56-2.68,1.66.37,1.84,1.11C262.73,125.93,258.67,124.54,259,123Zm1.75-28.44c0,2.12-2-1.48-2.21-1.76C256.27,88.34,260.51,92.77,260.79,94.53Zm-3.05-10,.19.65C257.65,88.62,255.9,80.4,257.74,84.55Zm-4.06,35.37c-2.22-4.34,1.94-.64,2.31,1.39C257.74,125.74,254,122.05,253.68,119.92Zm1.2-4.71a5.25,5.25,0,0,1,.65,2C253.5,117.06,253,111.61,254.88,115.21ZM253.4,66.82a5.21,5.21,0,0,1,.47,3.88C254,72.92,251.93,63.4,253.4,66.82Zm-1.66,28c-3.42-2.12.28,2,.56,3.33.09,3.51-6.1-6-2.22-4.71-1.85-5,2.77,2.4,3.32,0-1.57-2.86-3.6-4.16-3.78-8,.83-5.08,1.84,1.85,3,3.24C254.51,89.82,254.88,97.67,251.74,94.8Zm-2.31-17.54-.37-.37c-1.11.46-.64,5.72-1.57,2.31-3.23,2.86-1.2-2.13-.09-3.33,3.33-2.86-1.57-6.74-.83-10.07a63.8,63.8,0,0,1,4.71,10.63C250.73,76.33,250,78.64,249.43,77.26Zm-3-19.77c1.57-1.2.27,3.14,1.38,3.88,2.22,3.42-2.86,2-3-.28C243.24,57.68,248.14,60.17,246.48,57.49Zm-1.2,8.22c-1.39,3.51-1.85-.09-3.7.19,1.66-1.3-1.94-4.81-1-5.82C241,62.94,246.57,62.85,245.28,65.71ZM220.62,45.58a9,9,0,0,1-3.14.83C212.49,46.69,219.14,44.29,220.62,45.58ZM215,48A19.06,19.06,0,0,1,212,50.47C207.6,53,213.14,47.79,215,48Zm-24.1,42.85c-1.2-3.88,2.77,3.51,3.79.09-1.76-1.47-2.5-4.34-3.79-6.37,1.75-.27,3.69-.83,1.11-3-5.36-2.45-.36-5.91,2.6-7.92.09,3,.26,6,2.38,8.11,1.48-.46,3.51-2.22,5.27.09a3.15,3.15,0,0,0,1.57,1c4.25.18-1.76-3.33-1.29-5.54-1.76-3.88,1.47-1.76,2.4.37,1.84-.65-1.94-4.9-3.51-6a15.51,15.51,0,0,0-4.2-2.81c.32-2.85-.26-6.05,1.43-8.55.07-.13.14-.25.22-.37.12.12.29.27.52.47l.55.46c3.11,1.55.23-.54-.94-1.16A10.36,10.36,0,0,1,200.31,58c1.19-.45,1.41-.85,1.11-1,2.06-1.69,4.52-2.89,6.27-4.76-1.2,4,3.32,1.85,4.8-1,3.69-2.58-.18,2.22-.92,3.51-2,3.7.55.19,2.4.19,3.69,1.47-3,.64,0,2.21,3.05-1.38.46,3.6,2.86,2.68-2,3.14,4.16,5.17,6.65,5-3.6-2.68,3.05-1,3.79.74-.28-.83-1.2-4.44-4-5.36-3.7-.65-4.34-4-6.84-6.19.56-.27,3.6.37-.09-.92-.74-.65-4.9,1.29-3.23-.09,2.68-1.48,1.11-4.25,4.61-4.25C220.34,47,223.67,45.21,227,46c3.14.28-2.31,1.39.18,1.57,4.16.18,9.06,1.39,11.64,4.71-4.62-1.29-1.29,3.88.65,5.54,3,2.31-1.57-.37-.93,2,.84,4.07-2.86,3.33-4.89,1.48,1.29,1.57,3.05,2.86,3.69,4.8-3.6-1,.74,3.79.84,5.64-1.58,1.94-4.72-4.07-7.3-3.14,1.75,3.41,4.34,7.48,1.85,11.26-2.68.1,1.2,1.57.09,1.94-1.94,4.07-.83,8.87-2.86,12.93-1.57,3-3.14,7.3-5.64,9.15,1.57-4.34,5.17-7.76,6.1-12.29-1.39-3.6-1.2,5.45-3.24,4.07-.64-4.44-.09-9,0-13.49.28-4.52,1-10.43-3.41-13.3-4.16-2.58,2.49-.55,4.15-.27,1.39-.83-4.24-1.94-5.81-1.94-4.25.27.36,2.31,1.66,3.23-2.31.74-3.33,2.77-2.4,5.26,1.57,1.57-1.85,8.69.64,5.55.19,1.66-.55,4.71-.64,6.83-2.22-2.59-.56.46-1.48,1.85-1.29-.74-1.66-2-1.76.55-.92-1.29-2.12-2.68-.83.92,3.14-.09,1.11,5.36,2.68,5,1.39,1.48-1,6.37.56,8.41,1.29-4.9-.56-10.53,2.21-15.06.46,1.76,1.85-1.66,2.5-.46A64.09,64.09,0,0,1,223.57,104c-.83.46.65-5-.83-6.47.09,2.59-1.66,7.11-.28,9.33.84,3.69.37,7.48-.09,11.17-1.11,3.7-.55-.64-.83-2-1.11-6.18-2.95-12.37-2.77-18.75-1.11,4.62-3,9.15-3.79,13.77.65-.1,2-3.24,1.76.27.09,7.76.46,15.61-.74,23.37-1.66,4.62-.74-2.22-.18-3.79,1.38-4.25-1.76.46-1.21,2.4-.18,3.24-.92,6.84.19,9.89,1.75-3,2.12-6.56,3.14-9.89.18,3.61.37,7.11.55,10.72,1.11,4.34,1.39-1.94,1.2-3.24,0-1.38-.18-3.51.93-1.2,2.77,1.11-1,5.08,1.2,4.53,2.86-3.05,1.38,1.2-.56,1.94-1.2,1-2.67.55-4,0-2.86-1.57-8.31-1.48-8.49-5.64-2.28,1.58-6.69-.2-8.24-2.75.18-1,.3-2,.41-3a10.24,10.24,0,0,0,.19-1.8c.09-.81.21-1.62.37-2.42.09.23.2.53.34.92,1-1,.92-6.92,4.16-7.85-1.21-3,1.47-1.38,3.23-1,3.23-.09.55,1.94-1.11,1.66,1.11.37,2.31,2.4.28,4.16.92,1.2,3.41-7,4.8-4.71,2.12-1.11,1.29-7.85.83-8.41-.55,4.25-3.69,1-4-1.38-4.16-1.3,2.4-4.53-1.76-5.73,1.94-1.48,6-4.06,7-7.11-3.41.92-6.83,2.68-10.53,2.22-1.54-.1-3.19-.05-4.84-.07,0-.07,0-.13,0-.21a.88.88,0,0,0-.22.21c-3.28-.06-6.54-.44-9-2.8C185.61,97.57,191.9,93.79,190.88,90.83ZM227.27,121c-1,4.25-2.31-1-.28-1.66C229.76,118.82,227.45,119.65,227.27,121Zm.46,8.78a2.32,2.32,0,0,1,.28,1.38C228.1,135.72,225.33,128.61,227.73,129.81Zm-.56-15.15-.09-.28c-2.21,5-1.57-7.85-.37-2.49C229.67,111.61,228.38,117.62,227.17,114.66Zm-.83-36a12.17,12.17,0,0,1-.37,2.59c-1,4.34-1.38-.93-1.1-2.5C224.5,76.15,226.71,75.78,226.34,78.64Zm-7.94,45.53c1.11-1.84,1.57-3.88-.46-4.71-.28-3.32-1.11-7.48.55-10.34,2.13,2.86,1.85,6.93,2.13,10.34C220.34,120.85,221.26,125.56,218.4,124.17Zm1,3.7c-1.11,4.89-1.67-5.64-.1-.65Zm.74,4.15c.18-4.15.09,0,1.57,1.11C223.76,135.16,219.69,133.69,220.16,132ZM200,117.65l0-.13,0,0c-.37-.61-.51-1.15.4-.4l.37.47C201.28,119.29,200.46,118.45,200,117.65Zm.1,15.62-.18.75-.16-.1.21-.23-.14-.3Zm-.41,1.62c-.34.13-.5-.07-.54-.45l.08-.05c.16.15.33.29.48.41A.29.29,0,0,1,199.65,134.89ZM196,130.73v.65c.18,3.51-2.13,1.75-1.76-.56C194,128.14,196.88,127.77,196,130.73Zm-1.76-5.45.1.46C194.57,129.53,193,125.47,194.2,125.28Zm-.27,9.24a3.58,3.58,0,0,1,.09,1.38C190.51,137.29,192.36,131.1,193.93,134.52Zm-3.51-.83c-.37.64-.93,1.47-1.66,1.66C186,134.15,192.91,128.79,190.42,133.69Zm-15.61-13c-.83-1.11-4.53-7.39-1.29-4.8,3.88,2.59,5.17,7,8.59,9.88l.46.56.27.46C181,125.74,176.29,123.9,174.81,120.66Zm-2.4,8c-1.11-2-3.88-.65-5.17-2,1.29-2.22-4-5.36-.1-5.08,1.76,2.31,3.79,5,6.84,6C174.35,128.42,173.05,128.7,172.41,128.7Zm3.69-.65c1.39-1.94,2.59.28,1.76,1.85C178.5,131.65,175.83,128.51,176.1,128.05Zm-25.58,20.41.18.65C150.34,152.43,148.67,144.31,150.52,148.46Zm-7.76,29c-2.49-1-.92-5.91-1.38-8.5,0-4.8,2.31,2.68,2.77,4.07A5.12,5.12,0,0,1,142.76,177.46Zm3.51-3.23c.65-4.25,2.22,0,2.13,2l.09.65.09.55C147.47,181,145.16,176,146.27,174.23Zm1.29-2.86c-4,.18-2.58-5.18-6.09-5.73-.19-2.86-6.47-2-3.05-.46,2.86,2.68.37,7.57,0,10.9.65,2.12.09,1.75-1,.27-3-2.4-1.39-6.28-.74-9.14-3.33,2.59-2.4-2.12-4.25-3.42-1.39,1.94.83,7.3-1.48,10.07-4.62,1.57-1.57-4.8-.46-6.65,1.38-4.53-1.48,1.2-3.33-.09,1.76-4.16-4.43,2-4.71-2.5-1.47,2.22-2.12-.09-4.06.37-.74-1.38-2-.92-3.14-1.47-3.32-2.5-8-2.31-11.17-5.08-2.78-2.5-5.27-5.36-8.5-7.21-5.08-6.46-7.2-14.68-8.87-22.62-1.94-9.42-2.58-19.12-.55-28.63.65-3.61,2.22-6.93,2.4-10.63,2.71-7,6.86-15.84,8.33-23.4a1.82,1.82,0,0,0,1.37-2.55C100,56.85,105,51.86,109.33,47c.74-2,5.45-3,4.34-4.61.28-.47,7.39-1,7.11-4.9-3.42.56-3.32-1.57,0-2.77,6.1-1.94,12.84-.18,18.38,2.59,3.88,1.2,6.93,4.06,10.25,6.18,4.07,3.14,9.42,4.53,12.75,8.59,3.14,3.33-.74,7.11-.19,10.44-2.58.18.28-5.63-2-7.3-1.94,2.13.83,7.11-1.11,9.15-2.31,1.75-3.78-3.14-6.28-4-5.26-2.68-11.82-3-16.53-6.84-.28-3.69,5.63-5.26,5.63-9,2.77-.27-1.38,5.73,1.48,2.22,4.25-3.88-1.66-4.43-4.25-6.1-4.06-2.77-8.68-5.54-13.85-5.08-.09,1.85,5.82,1.2,7.57,2.77-.37,2.5-9.32-1.29-5.72,1.76a68.93,68.93,0,0,0,6.55,4.62,4.43,4.43,0,0,0,6.47-.83c2.4,1-2.31,4-4.06,4.06-.28,2.22-6.38,2.86-4.35,4.62-1.84,1-7.29-.28-10.34-1.2-4-2.13-8.31.27-11.54,2.58-2.77.83.09,2.77-2.31,2.59-.83,1.2-4,3.88-2.87,5-1.93,1-1.2,3.51-3.41,4.24,1.48,1.3,1.2,1-.09,1.85C100.46,70,97.88,73,97.32,76c2.68.93-.18,4.25-2.12,5.64,3.14.27-1.94,1.84.92,2.21-2.49,1.85-1.2,5.82-3.32,7.11.46,1.11-2.59,4.44.46,2.78,1,.27-2.77,3.87-2,5.91.18,4.06-1.76,7.85-1.66,11.82,3.32-.28-2.41,2.68.09,3.6-1.39,2-.28,3.6.18,5.36,2.59,1.94-2.31,3.51.46,5.08.37,3.14,1.11,7.2,1.57,9.23,1.39,1.85,0,5.17,2.5,5.73-1.11,2.77.83,1,1.85,2.4-2.78,1.57,2.4,5.26,4.61,4.71-.64.09-4.34,2.12-.09,3.05,2.31-1.48,3.14-.47,5.17.27.74,2.77,8,3,5.73,6.1,2.12,1.94,1.11-.65,2.49-1.2,3.14,1.94,7.11,3.14,10.81,4.34,4.15.46,8.12,2.12,12.28,1.94,3.14,0,6.56-2.13,8.31-3.51,3.05,3.05.19-1.76,1.57-1.76,1.39-2.58,4.71,4,4.34,1.39,3.33,1.38.74-1.29.28-2.77,1.2-.92-.09-3,.92-3.79,4.07,1.76-1-1.48.74-2.86,4.9,2.49-3-7,1.2-4.16,3.24,3.24-1.94-6.37,2.22-2.21-.74-3.79,5.26-2.68,6.93-4.9,4.15-1.2,8.77-.83,13-.28,2.4,2.78,4.71-1.84,7.11.65,2-.55,2.4.83,3.79,1.29-.19-2.21.46-.37,1.75.28,2.31-2.49,2.31,3.05,3.51,1.48,1-3.32.48.4,2,.73-.09,0-.06.07.25.1h.08c-1.44,1.38,0,1.93,1.88,2.26.21.26.7.32,1.33.25.12.23.35.31.74,0a13.18,13.18,0,0,1,1.6.29c4.06-.74,1,4.71,5,4.16,1.85-.74,6.83.46,3.14,2.12,2-1.2,3.88,4.62,7.39,3.14,1.84,2.22-3.6,1.85-4.16,1.3-.74,2.86,2.31.64,4.06,2.4,2.13-.65,5.73,4.89,5.27.92-2-2.12.46-2.58,2.12-1.38.74.46-2.58,2.58-1.94,4.8,1.11,1.29,1.3,4.15-1.57,2.68-.09,1.94-3,1.38-2-1.48,4.16.83.65-4.9-1.57-2.77-1.48,2.4-7.2,1.48-7.48,4.8-2.21-.38-6-1.82-7.95-.3a7.61,7.61,0,0,0-.83.43l-.13-.11c-.58-.74-1.24-1.39-1.16-.91-1-.93-.56-.35.21.56.07.15.15.31.26.52l.31.51c-.16.35,0,.4.24.29l.15.11c-2-.28-5.62-1.28-8.37-1.38-1.94-.55-10-2.4-5.54-4.15-2.4-2.22-8.22,1.2-9.14-3-2-2.21-8.5-.27-8.13-4.15a7.52,7.52,0,0,1-5.73-3.42c-.83-.56-2-4.8-2-3.51a7.37,7.37,0,0,0,4.06,6.83c3.42,2.13,5.92,5.64,9.52,7.48,4.52.93,9.14,2.22,13.11,4.71-.92,2.13-6.65.19-9.23,1.57-2,3.79,4.06,3.79,6.37,4.07,2.12,2.77-4.43,2.31-6.19,3.78-2.12,1.39-7,2.78-6.37,5.73,3.42.46,6.92-.65,10.43-.92l-3,2.77c-1.3,1.11-2.5,2.12-.37.74,2.4-1.94,6.18-2.68,7.85-5.17-4.53-1.67-9.15.92-13.58,1.93,0-1.93,3.7-3.41,5.45-4.52,2.86-1.48,9.14-.46,9.79-3.79-1.29-3.6-9-.46-8.59-3.6a44.85,44.85,0,0,1,18.84.46,10.5,10.5,0,0,0,1.1.11c1.38,1.45,1.32.91.73,0,3.41-.07,6.73-1.58,10.18-1a60.58,60.58,0,0,0,23.73-2.4c1.94-.83,7.85-1.48,7.48-2.87-2-2.77-2.4-6.46-2.58-9.78-.56-5.08,4.34-1.94,6.83-1.3,1.39,1.66,4.62,2,7.11,3.05.56,3,1.76,6.65,2.4,9.88.65,3.88.65,8-2.21,11-1.66,2.4-.46,1.94,1.11.28,2.58,2.59-4.81,2.68-7.12,2.59-4.71.46-9.88-.28-14.22,2.12,1.29-1.66-1.11-2-3.88-1.39-7.94-.18-16,.19-24-.64-4.06-2.4-1.48,5-4.62,6.37a93.18,93.18,0,0,0-8.12,9.05c-5.08,2.4.18-3.88.37-5.91-.74-5.54-6.38.46-7.85,2.68-.56,3.05-5.55,5.45-5.92,1.29-3-.18-1.47-2.31.84-3.51,4.43-.28-1.94,5.36,1.38,3.88,1.11-4,4.9-6.46,6.28-10.25a43.15,43.15,0,0,0-7.66,4.34c-1.39.92-7.49,6.65-6.47,3.32.55-.83,5.45-5.54,2.31-3.78-1.11.74-4.53,5.54-4.34,3.14-2.4-.93-1.29-4.25-2.49-6.84-.56-1.2,2.12-6.37.18-3.23-2.49-2.31-1.48,1-1.57,2.4-1.94-3-.83.74-2.22,1.3-2.31-1.85-2.21-5.73.1-6.28a12.54,12.54,0,0,0,.55-6.28c-.18-2.22-.46-2-.83,0,.28,3.32-2.22,2.67-3,1.2,2,4.15-2,1-3.51-.37-3,1-.09-3.33-3-3.24-.56-.09.27,6.93,2.86,4.53,4.71.09-2.4,5-1.57,2.86,3.6-1.94-1.57-1.2-2.31-3.41-.46-2.68-3.32-3.14-4.06-.1C150.89,174.88,148.58,173,147.56,171.37Zm67.79-4.9c.47,2.59-3-2.58,0-2.49C218,164.44,215.17,165.55,215.35,166.47ZM231.52,258l.36.36C232.81,261.6,228.84,256.33,231.52,258Zm-2.78-39.35a3.5,3.5,0,0,1-1,1C223.85,218.47,230,216.16,228.74,218.65Zm-11.63-29.74c-4.07.37-9.33-.64-12.47,2.68-1.11,2.68-3.14-.64-2.22-2,2.4-4.16,7.85-5.91,12.47-5.36,1.85,1.57,7.48-.37,5.91,3.42C219.88,190.58,216.46,186.05,217.11,188.91Zm-.56,102.79V292C214.52,294,215.35,290,216.55,291.7Zm-4.89,7-.09.47-.19.46C208.89,302.42,211.1,294.11,211.66,298.72Zm-.28-4.06a1.22,1.22,0,0,1-.28,1.11C208.7,295.49,210.92,290.5,211.38,294.66Zm1.94,13.58c0,.83,0,2.12-1,.92C209.17,307.68,213,305.19,213.32,308.24Zm-1.48-60c-2.67,1-3.88,4.24-3.23,7.29-1.7,2.6-1.24,6.67-4.76,8-.76-.95-1.54-1.88-2.33-2.81a4.26,4.26,0,0,1-.2-2c.9-2.79.05-1.78-1.19-.48,0-.46-.16-.58-.31.32l-.08.07c-.17-.2-.35-.4-.52-.61a3.87,3.87,0,0,0,.71-.68c-.68-1.54-1.31-1-1.52-.25-1.16-1.37-2.29-2.76-3.33-4.22a2.6,2.6,0,0,1,1.43.87,2.41,2.41,0,0,1,1.85-1.1c.08.45.46.71,1.12-.05,2.14.07,4.56.77,5-1.16-1.44-.14-2.88-.18-4.31-.18,0-1-.08-2.73-.4-.47,0,.19.05.34.07.48-3.16,0-6.3.29-9.4.35-.83-1.57-1.57-3.23-2.59-4.8-.37-1.94-6.37-3.79-3.79-4.89a5.67,5.67,0,0,1,6.47-.19c2.39.46,5.75,2.59,8,1.72a2.07,2.07,0,0,1,.56,1.61c-.46.83,2.4-1.11,3.05,1.2l.37.37.37.36c3.23,3.14-.19-1.84-1.57-2.58a6.55,6.55,0,0,0-.55-1c1.62.66,4.39,0,6.36-.83a28.11,28.11,0,0,0-4.78-.7,22.88,22.88,0,0,1-3.32-.75l-.12,0a9.5,9.5,0,0,1-2.44-1.18,6.28,6.28,0,0,0,2.89-.7c.16.14.32.17.43,0l.77.18c1,.83,1.08.66.79.17,1.73.35,3.45.51,4-.39a18.14,18.14,0,0,0-2.8-.68,4.81,4.81,0,0,1-.54-1.27,9,9,0,0,0,2.05-3.31c-.82.37-1.69.78-2.56,1.24a3.89,3.89,0,0,0-1-1.88l.39-.1h-.5a2.66,2.66,0,0,0-.59-.36l.21-.73c.18,1.47.28.23.29-1l.24-.88a80.87,80.87,0,0,1,9.18-1.78,16.64,16.64,0,0,1,1.65,2.27c-1.85-.93-2.86,2.21-1.48,3.51-1.6-.26-3.21-.51-4.82-.7,1.83.5,3.66,1.32,5.29,1.9,3.69,1.85,1.84,6.28-.28,8.13C211.2,244.79,212.68,245.71,211.84,248.21Zm-12.09,12.57a1.94,1.94,0,0,1,.05.2l-.05,0a1.09,1.09,0,0,0-.08-.15Zm2.17,1.25c.51.53,1,1.08,1.53,1.58-.46-.1-.92-.2-1.38-.28A3,3,0,0,0,201.92,262Zm-2.38-28.26c.3.23.57.44.77.63a1.85,1.85,0,0,0-.17.43c-.21-.06-.48-.15-.86-.29l0,0,.24-.72Zm-.43,2.8c-.16.11-.32.21-.48.33a1.75,1.75,0,0,0-.22-.18c.15-.37.3-.74.44-1.11A1.51,1.51,0,0,0,199.11,236.57Zm-.73.22.13.18-.11.09a.78.78,0,0,1,0-.21S198.37,236.81,198.38,236.79Zm2.14-1.89a1.51,1.51,0,0,0,0-.32C200.68,234.78,200.72,234.9,200.52,234.9Zm-2-8.09,0,0a.52.52,0,0,0,0-.11Zm0,.54c.11.8.49.44.89-.08v.06a11.23,11.23,0,0,1-.47,1.74l-1.14.44c.18-.65.35-1.3.5-1.95Zm-1.14,3.77c.29-.11.58-.19.88-.29l-.51,1.17c-.69-.24-.58-.05-.13.32-.14.32-.28.64-.4,1l-.56,0c.22-.73.45-1.45.66-2.18Zm-.78,3.94a5.77,5.77,0,0,0-.15,2.87l-1-.07c.18-.87.4-1.74.64-2.61Zm.15,3.37a9.72,9.72,0,0,0-.91,1,8,8,0,0,1-.59-.58c.05-.28.11-.55.17-.82Zm-2.41-.66a4.21,4.21,0,0,0,1.67,3.78c-.91-.07-1.81-.14-2.7-.27-1.38.28-7.85-1.48-4.06-2.13.65-1.84,2.77-.55,3.32-2a7.05,7.05,0,0,1,2-1.26,9.74,9.74,0,0,0-.26,1.91h0Zm4.49,4.09c0-.06,0-.11-.07-.17S198.87,241.8,198.89,241.86Zm.72.78.09,0Zm-.48-.38a1.25,1.25,0,0,0,.09.12A1.25,1.25,0,0,1,199.13,242.26Zm.12.16.09.09Zm.11.11.11.07Zm.14.08s.05,0,.08,0S199.52,242.63,199.5,242.61Zm.25,0a.35.35,0,0,0,.06-.09.35.35,0,0,1-.06.09,2,2,0,0,0,.37.44A2,2,0,0,1,199.75,242.57Zm.18-.74a2.13,2.13,0,0,1,0,.27A2.13,2.13,0,0,0,199.93,241.83Zm0,.31c0,.07,0,.12,0,.17S199.89,242.21,199.9,242.14Zm-.08.33s0-.08,0-.13S199.83,242.43,199.82,242.47Zm-.81-.39a.86.86,0,0,0,.1.16A.86.86,0,0,1,199,242.08Zm-.09-.17.06.13Zm2-3.67c.25-.19.49-.4.73-.62l.53.61.38.23C202,238.37,201.44,238.3,200.89,238.24Zm.91-14.61a12.22,12.22,0,0,0,1-1.5,2.79,2.79,0,0,0,.66-1.12,28.28,28.28,0,0,0,4.32,5.21,41.85,41.85,0,0,0-6.54,2c0-.36.08-.75.11-1.14.16-.66.31-1.32.47-2A2.74,2.74,0,0,1,201.8,223.63Zm2.82-11.2a7.38,7.38,0,0,1,.39,3.17c.06,3.57-1.14,1-1.47-1.21C203.87,213.75,204.24,213.1,204.62,212.43Zm-.69-.35,0-.05.05,0Zm-.34.72-.12.24q0-.15,0-.27Zm7.7-19.36-.55.55C207.6,195.19,211.75,191,211.29,193.44Zm-2.22,28.91c-1.29,2.77-1.75-.19,0-.65l.1.28Zm-.64-3-.1.46C206.12,222.62,208.15,215.6,208.43,219.3Zm-1.2-23.37c-3.33-.64-.19-1.94,1.2-.27C208.33,196.21,207.41,195.84,207.23,195.93Zm.73-3.23-.73.28-.65.18C202.33,193.16,211.66,190.58,208,192.7Zm-6.24,20.37c-.1-.25-.27-.58-.47-1a1.87,1.87,0,0,1-.07-.22,2.1,2.1,0,0,1-.06-.24c-.59-3.21.53-2.1,1.48-.53,0,.11,0,.22,0,.33C202.49,213.23,202.1,213.5,201.72,213.07Zm-4.42-3.55a.93.93,0,0,0-.05-.1c-.78-2-1.22-1.58-1.36-.48a9,9,0,0,1,.35-5.16,4.75,4.75,0,0,1,2,1c-.28.32.62,1.86,1.2,1.89a13,13,0,0,1,.48,3.38,8,8,0,0,0-.49-.63c-2.4-3.33-1.39.18.18,1.66l.12.16a.79.79,0,0,1-1.1.14,11.93,11.93,0,0,1-.13-1.41C197.61,208,197.21,208.42,197.3,209.52Zm-5.31-8.6c-2.13-2.59.83-2,1.66-.09.65,2,3.6-.37,3,.64-.74,1.2-2.87,3-4.25,1.76C192.73,203,194.85,202.12,192,200.92Zm6.83,11.3a3.74,3.74,0,0,1,1.23,1.85l-.17.28a3.2,3.2,0,0,0-.65-.6A9.77,9.77,0,0,1,198.82,212.22Zm1,2.19-.16.29-.16-.26Zm-.12,2.09.24.23a.71.71,0,0,0,0,.17l0,.14-.09.19c-.25-.38-.35-.22-.35.16A.8.8,0,0,1,199.73,216.5Zm-9.22-27.31a1.43,1.43,0,0,1,.37,1.57C189.59,195.84,186.72,186.33,190.51,189.19ZM190.42,200l-.19.55c-2.68.46-3.23-2.49-4.52-3.6C188.39,195.93,188.94,199,190.42,200Zm-21.71-17.92c-.73,1.85,1.94,2.77.47,4.25-.56.64-1.39,1.48-2.41,1.2C170.47,186.33,164.74,182.82,168.71,182.08Zm-9.42,3.14-.09.37C157.17,187.62,158,183.56,159.29,185.22Zm-50.88,49.41c2.49,1.94,4.52,5.45,7.66,5.91-.55,3.05,2.31,4,4.34,5.63,3.6,2.4-1.11-3.6,1.39-1.2,1.57,3.05,4.62,5.54,4.15,9.61-.27.92,1.48,7.11-.74,5.17-2.95-2.59-6.28-4.89-8.77-7.94-.09-2.59-1.85-4.44-3.79-6-1.1-.92,1.67,1.85,1.94,2.59a50.94,50.94,0,0,1-10.16-9.24C101,236.94,106.19,230.2,108.41,234.63Zm33.24,42.3c-4.34-1-7.48-4.53-11.54-6.19-7.39-3-15.15-6.65-19.58-13.67-.92-1.2-3.42-7.76-3-5.17-2.58.46-6.37-3.23-8-5.73-1.76-2.77.37-5.63,2.12-7.75,2.86,2.77,5.73,5.63,8.68,8.4,6.47,6.28,12.93,12.84,21,17.09,2.49.27,1.29,3.51,2.95,3,3.14.28,7.76,4.53,6.56,7.39-2.95-1.29-1.29.74.37,1.29C141.65,276.1,143.87,277.11,141.65,276.93Zm16.44,2.21c-3.78.19-7.85-1.2-11.45.28-1.11,2.59-7.48-2.68-2-1.66,3.79,1.11.65-2.4-.55-3.42-3.14-.18-.65-2.86-1.76-5-.65-3.41-2.4-.18-1.2,1.48-1.85.83.18-4.89-2.12-3.78-4.16-.28-6.84-4.25-10.72-5.45-1.57-3.05-1.75-8.13-.92-11.27,1.66.55,3.79,8.68,3.79,5.26-1.3-4.24,1.57-1.2,3.51-.18,2.21,1.48.64-.09-.37-1.11-2.5-1.11-1.67-9.33-3.05-4.16-.74,2.87-.28-1.29-.74-2.12-2.22,2.86-1.39-2.68-1.11-4-.28-4.25,5.08,1.38,3.51-1.39-1-3-4.06-.09-5-2-.55,1.2.65,4.8-.09,6.84-1.48-.37-3.6-2.22-5.54-3.33-2.31-1.38-5.08-5.17-6.19-5.91a18.2,18.2,0,0,1-7.48-7.2c.19-2.5,2.31-4.34,3.79-6.28.92-1.85,1.75.83,2.58,1.57,2.13,2,2.59,5.45,5.64,6.46,4.34,2.5-3.7-2.68.46-2.4,3.23,2.31,4.15,6.74,4.62,10.53.09,1,.09,3.79.18,3.79.46-2.13.19-4.53,1.29-6.28,2,3.14,7,.27,3.88-2.77.28,2.67-2,1.93-4,.64-4.62-1.85-.46-6.65-3.51-9,1.94-2.68-.64-1.2-2-.55-2,.83,2.77,1.57,3,2.67-2-.64-7.76.1-9-3.78-3.42-3.79,3-5.54,3.79-8.78,2-4.71,6.65-7.75,8.77-12.46,1.75-.28,4.25-4.07,5.91-6.47.28-1.29-4.52,5.73-5,3.79a50.76,50.76,0,0,1,10.07-13.39c2.86-1.11,4.06-3.05,6.47-4.44,3.14.47,2.86-2.4,5.91-3.23,3.87-1.11-1.85,3.23.27,2,2.4-2.86,6.84,2.4,2.22,2.13-1.29-2.13-5.26,2.49-7.39,3.32-2.68,2.4-5.91,4.07-8.22,6.65-5.36,6.93-11.36,13.49-17.36,20-3.14,3.6,1.38.19,2.4-1.2,6.28-5.82,10.81-13.21,17.18-18.93,3.23-2.87,7.11-4.81,10-8.13,2.31-1.75,1.39.28-.09,1.29,3.42,1.48-2.77,5.73-1.48,3.42,1.57-4-2.95.65-3.41,2.22-3.51.46-4,3.6-4.16,6.83-.28,1.76-3.79,8.13-2.4,3.14.64-2.4,0-1.2-.83.37-1.94,2.86-2,6.74-4.9,9.05-2.21,2.13.46.56,1.11,1.85-.09,4.43,1.2-.83,1.48-1.2.83,2.86-1.76,4.52-1.29,7.11,1.29-1.29,1.93-3.23,3-4.9.19,1.76.28,3.61.46,5.36.19,2.12.19,2.12.28,0,0-3.14.28-6.46,2.49-8.77-1.94,0-2.86-.93-.37-1.3,1.48,2.41,4.07,1.3,3.51-1.29,2.31-2.58-.46-1.2-1.47.19-2-1.11,2.95-4.25,2-6.65,1.94,3,1.57-.74,1.66-2.22,1.38,2.68,2.59,0,1.66-1.85,3.33,3.51-2.49,5.91-1.29,9.33-.46,4.34,3.51-1.2.46-1.85,1.85-.37,3.23-2.68,3.79-5-1.57-4.07,4.71-1.48,1.57,1.1-1.11,3-2.22,7.12-1.76,9.89a47.74,47.74,0,0,0,4-12.29c-1.66-1.29.19-6.46-.18-2.58,2.4-.83,4.25.83,4.43,3.41,1.11,3.51-1.29-.73-1.57,1.67-.64,5-2.77,9.69-3,14.68,1.67-3.42,2.13-7.66,4.07-11.08,3.05-2.86,1-6.47,1.94-9.61-.37,1.76,2.21,2.31,3.14,3.42-1,5.17-5.08,9.61-4.25,15.15,1.85-2.22,2.59-6.93,3.88-10.07,0-1.85,4.34-7.67.64-6.37-1.1-3.88,6.47.92,7.85-1.85.74-3.6-4.34,1.85-3-.65,2.95-2.67,8.59-1.47,11.91.28-1.29,1.76-.09,1.85,1.76,1,2.58-2.13,1.75.55,2.67,2.21,2,1.67,3.51,5,6.56,5.91a40.14,40.14,0,0,1,4.68,6,3.58,3.58,0,0,0,.4,1.18,1.44,1.44,0,0,1,0-.59,34.61,34.61,0,0,0,2.44,3.17,3.18,3.18,0,0,0,.26.44,1.52,1.52,0,0,0,0,.21l.17,0,.06.07c-.19.12-.39.23-.6.34l0,.75a.64.64,0,0,0,0,.47c0,.61.07,1.19.13,1.74l-.16.43c-2.31,2.4-4.94,4.6-5.75,8.06l.1.28.46.09a37.28,37.28,0,0,0,5.49-6.69.43.43,0,0,0,.24.21c.19.19.39.26.51,0,1.78.22,1-.69.33-1.9.44-.7.88-1.41,1.31-2.13.14.11.28.22.43.32-.09-.3-.14-.53-.18-.73l.37-.61a3,3,0,0,1,.55,2.36c.06.17.14.34.21.51-.91,0-1.51,1.49-2,3.13-.42-.16-1,.24-1.44.89-.49-.42-.6.26-.46.82a3.74,3.74,0,0,0-.36,1.76,5.26,5.26,0,0,0-.92,1.47l-.09.1-.37.55a.93.93,0,0,0,.24-.14c-.19.47-.38,1-.56,1.5a41.87,41.87,0,0,1-4.21,1.32c-2,3.23-6,.93-8.59,3.42v.09l.19.19c4.37.67,8.13-1.87,12-3.37-.23.66-.46,1.28-.68,1.8a.25.25,0,0,1,0,.07,51.2,51.2,0,0,0-19.72,6.39c-3.7,1.57-7.76,1.85-11.46,3.42a21.21,21.21,0,0,1-13.94.46c-4.07-2.4-.09,5.54-3.05,2.49-1.75-2.4-1.29.74-1.94,1.11-1.75-3.6-.46,3-3.51.74-1.2-.09-7.48-3.23-4.52-.37,3.14,1.29,6.74,2.4,5.54,6.65.18,3.6,1.57-.28,1.2-1.75.83-4.34,2.12,3,1.29,4.52-1.94,1,.83,7.67,1.76,2.86-.37,3.33,2.49.93,3.78,0,2.59-3.14,3.7.93,2.22,3.05-1.57,2.4,1.11,3.79,1.75.74.28-3.42,2.87-7.48,6.74-6.56.56,1.94-.18,4-.36,6a3.52,3.52,0,0,1-1.21-1.67c-1.2,2.87-.92,7.21-.92,11.36C158.28,275.54,163.08,279.79,158.09,279.14Zm-13.2-83.67-.19.46C142.58,198.61,145.07,192.61,144.89,195.47Zm-5.64,12.75c-1.11,2.86-2.21-3.14,1-1.57C143,208,139.25,207.66,139.25,208.22Zm-2.86,3.23-.09.37C134.27,213.76,135.1,209.69,136.39,211.45Zm34,46.27c.55.46,1.38,1.94,1.84-.74,3.42-3.33,2.22,3.14,1.11,4.71l-.28.65-.36.64C169.64,267.6,170.47,259.66,170.38,257.72Zm-.28-4a6,6,0,0,1-2.4,1.2c-3.79,1.29-2.86-3.42-2.31-6-1.39-3.51,1.85-1.84,2.31.47.18-.65,3-1.94,2.4-4,2,.37.55,3.51,2.22,4.81C170.38,248.67,170.93,251.25,170.1,253.75Zm-1.39,9.79a7.36,7.36,0,0,1-6.83-1.2c.83-1.94,1.29-4.34,3.23-5.45,3.51-2.59,4.8,1.11,4.62,4.15C167.51,258.73,169.08,262.06,168.71,263.54ZM164.19,245l-.09.37C162.06,247.37,162.9,243.31,164.19,245Zm-13.95,13.12-.09.37C148.21,260.49,149,256.43,150.24,258.09ZM175.92,275c-4,2.21-7.48-.56-11.55-.46-1-.28-3.23.55-3.51-.56.19-3-.83-7.11,2.59-8.4,3.14-2,2.86,2,4.53,2.12,2.77-3.41,3,1,1.29,2.87-2.22,4.24,1.85-.47,1.94-2.22,2-3.33,6.92-2.4,9.88-4.62,4.43-2.4-2.22-1.48-3.79-.65-3.69,2.13-3.51-1.75-2.12-4.24-.46-2.4,4.8-5.91,1.94-6.93-3.05,2.59-5-.19-3-3.33.28-3.32,8.13-3,5.64-5.81,2.49-.28,4.15,3.41,4.34,5.63,2.31,3.32-1.76,3.42-4.07,3.6-2.12.19,1.57.19,2.22.19,5.36,1.57,2.86-3.79,2.4-6.75,2.5-1.29,3.05,4.44,2.5,6.38-1.3,2.21,1,4.06,2.21,5.63-.09-.55-3-5.36.19-2.22.44-1.1,3.34-2.84,5.48-2.34,1,1.66,2.12,3.3,3.28,4.86,0,.28.14.48.37.49l.14.18c-.08.47.15,1.32.54,1.23a1.46,1.46,0,0,1,.07.19c-.45-.47-.82-.13-1,.35-.68,0-1.17.66-.28,2.06.81.29,1.08.51,1.07.72a31.16,31.16,0,0,0-7,.21c-1.93-.74-8.95-2.13-8.12.55,3.88,1.39,8.12.92,12.19,1.2a15.33,15.33,0,0,1,2,.21v0c-.28-.06-.27.06.27.5h0c0,.11.17.44.74,1.11l.73.55c1.67.87,1.21.24.38-.49,2.23.65.82-.31-.58-1,0-.08,0-.14,0-.23a.34.34,0,0,1-.06-.06l.06-.1c2.56.5,5,1,7.57-.58,3.33.55,2.77,9.14-1.47,9.23C196.24,275.27,186,272.86,175.92,275Zm33,12.84.18.27.1.37C209.17,292.44,206.39,286.72,208.89,287.83Zm-.56,3,.37.37C210.55,295.68,204.36,289.12,208.33,290.87Zm-.27,9.7.46.46.37.65c.92,5.08-2.86-.46-3.23-2.31C206.21,295.68,206.86,299.65,208.06,300.57Zm.92-1c-2.68,1.48-.55-4.52.28-.83l-.09.47Zm-2-3.32c-3-2.49,1.57-3.32,2.31-.46C208.89,296.69,207.6,296.51,207,296.23ZM206.76,354l-.09.28-.28.28C203.16,356.08,205.93,351.46,206.76,354Zm-5-.46c-2.68-1.84,0-2.31.92-.27C203,354,202.05,354.14,201.78,353.58Zm.46-3.69a1.91,1.91,0,0,1-1.29.74C197.07,351.55,203.07,347.58,202.24,349.89ZM214,336.59c3.32.55,4.25,3.05,7.2,4,4.71-.83.74,3.14-1.38,3.79-2.77,3.23-8.5,2.12-8.87-2.31,2.31-3.23-1.94-.28-1.66-2.86-3.42.27-3.33-3.51-4.16-5.82-.74-8.32-.37-16.72-.46-25,.09-1.11-.46-3.79,1-1.76,3.41,3-.28-.64-.93-2.49-1.38-3.79,2.4-1.66,3.05.37,1.75,2.68,4.43,5.36,5,8.59-2.22-.46-3.6-2.86-5.27-4.34,1,1.66,2,3.23,3,4.89.92,3.14,2.31,5,1.11,8.41-.47,3.41-2.31,6.65-1.67,10.53,1.39,2-4,4.06-1.29,4.52C210.18,337.05,216.74,333.45,214,336.59Zm-.09-34a3.48,3.48,0,0,1,.18,1.39C214,308.51,211.29,301.4,213.88,302.6Zm3.87,3.33c-.27.74-.36,2.21-1.47,1.94-3.42-.74-.65-3.05,1-3C217.39,302,218.59,304.36,217.75,305.93Zm.37-112c-2,1.39-.73-3.6.1-.83Zm3.61,76.56c-2,5.27-3.88-3.88-1.48-4C219.6,268.62,222.1,268.52,221.73,270.46Zm.18-28.35-.37.18c-3.14,1.76.46-2.67.92-.27Zm2.22,35.09c-1.94-2.49.74-1.29,1.47.28C225.6,278.41,224.31,277.57,224.13,277.2Zm5.45-48.11c3,2.58-2.68.37-1.2,2.77,1.57,4.25-2.59-1.11-2.78-1.85C226.81,230.66,228.19,228.9,229.58,229.09Zm.18,31.77c1.39,4.43-.83.92-1.57-.19C226.34,257.53,229.67,258.27,229.76,260.86Zm0,4.62c1.85-3.51,1.11,1.2,2.49,2.67,1.3,2.59-1.57,4.34-.83.74-.27-3.41-2.58-.74-1.66,1.3l-.09.37-.19.36C226.62,271.2,229.3,266.86,229.76,265.48Zm1.29,10.34c-1.1-1.48-1.84-2-1.1.18.27.84.36,3-.65.93-3.23-3.51,1.85-4.16,3.42-1.2C234.93,278.13,232,277.57,231.05,275.82Zm3.79-32.69c1.2-1.85,4.43-1,1.66.64l-.83.19C234.19,246.36,232.72,242.57,234.84,243.13Zm22.07,9.6.19.55c-1.94,2.59-2.77-2.12.18-2.12C259.87,253.19,256,250.88,256.91,252.73Zm-2.49,12.1c-2.86,4.8-3.33-3.23-3-4.53,1,2.31,2.68,0,3.42,2.31C256.54,264.83,254.14,263.54,254.42,264.83Zm-1.66-8,.27.65C253.77,261.5,250.45,253.56,252.76,256.79Zm-.65-22.62c1.48-.19.19-3,1.39-1.57C255.25,233.52,252.76,236.29,252.11,234.17Zm.19,7.85c1.1,3.14-2.5-2.13-.37-.46Zm-1-11.36-.19.46C249.06,233.8,251.56,227.8,251.28,230.66Zm-.28,27.7c-.09,1.94-1.38-1.29-1.48-1.57C247.77,253.47,250.73,256.89,251,258.36Zm0,7.95c-1.48,2.86-4.71-2.22-3.78-4.16C248.42,257.07,250.54,264.37,251,266.31Zm-5.72-42.58c1.2.37,1.57-2.77,2.58-1.57C248.6,224.38,243.43,228.16,245.28,223.73Zm.09-5.08.37.37C246.66,222.35,242.69,217.08,245.37,218.65Zm.18,21.8c2.22,1-1,.55-1.2,1.29l-.09.37-.37.28C239.64,243.68,243.24,239.62,245.55,240.45Zm-2.77-7.3.37.56C242.78,236.38,239.64,230.1,242.78,233.15Zm-1.29,2.59c.55,1.29.28,2.86-1,.92C237,237.77,240.29,232.6,241.49,235.74Zm-2.77,33.89c-.74,2.4-2.4-1.29-2.68-2.21C235.3,263.26,237.43,268.89,238.72,269.63Zm-1.48-5.91.37.37C238.53,267.32,234.56,262.06,237.24,263.72Zm2.31-18.29-.37.37C236.23,247.84,238.26,242.94,239.55,245.43Zm-2.4-13.76c-3.7-3.32,1.57-1.66,2.31.56C239.37,233.61,237.61,232,237.15,231.67Zm-2.49-12.09c1.47-2.22,2.4.73,3.41,1.84C242.32,224.65,234.93,220.78,234.66,219.58Zm2.4,8.77c-.1.92-1.2-.28-1.57-.46C232.25,225.67,235.76,226.87,237.06,228.35Zm-.47,48c-2.58,2.59-1.93-5.91-.09-1l.09.55Zm2.13-.37c-3.7-.27,0-5.08,1.2-1.47A1.48,1.48,0,0,1,238.72,276Zm3.6-18.37c1-3.51-.92.27-1.94-.1,1.2-3.69,5.45-3.6,6.28.28-.28,4.16-2.68-4.71-2.86-.37C244.26,259.75,241.12,261,242.32,257.63Zm1.94,15.42c-1.29,2.86-1.75-.19,0-.65l.09.28Zm-.74-7.11c.56-.65.65-5.36,1.48-4.16,1.29,1.2,2.77,7.76.92,4.71a15.93,15.93,0,0,0-.92-1.85C244.26,266.31,242.41,270,243.52,265.94Zm12,7.76-.56.55C251.83,275.45,256,271.2,255.53,273.7Zm1-2.68c-3.32-.19-3.23,4.06-5.63,4.25-.83-1.11-1.29-3.61-1.94-.47a1.82,1.82,0,0,1-2.77.93c-.18-1.48,2.59-1.39-.09-2.59-2.77-2.49,1.48-6.65,2.4-2.12.46,2.86.65-.19,1.2-1.39,1.57-4.62,3.14,4,2.86-.18-.55-4.34,3.14,0,3.88-.56C254,263.44,260.88,270.46,256.54,271Zm1.11-15.24c-2.86,1.38-1.2-2.31.74-.56l-.37.37Zm1.85,2.77.09.46C257.37,262.06,258.11,255,259.5,258.55Zm1.2-40.64c-.55,4.16-.55,8.41-1.11,12.56-3.23.74-.18,1.57-.46,4a4.69,4.69,0,0,1-.37,2.22c-2.12-1.48-2.86-5.72-4.06-8.4.09-3.61-4.16-5-4.07-8-2.4-3.88-5-7.66-7.48-11.45-3.88-5.45-6.83-11.45-10.62-17,2.59-2.13,7.11-2.87,10.07-5.36,4.15-2.12,8.59,1.85,11.36,4.62,3.51,3.51,0-1.85.55-3,2,1.48,3.05,3.79,4.53,5.73,0-3,.09-5.91-1.3-8.59-3-3.14,3.24-3.23,3.33-.55-2.13,3.6.65,7.2.83,10.89a57,57,0,0,1-1,15.89C259.5,211.82,261.72,215.79,260.7,217.91Zm1.85,38.88.27.65C263.65,261.5,260.24,253.56,262.55,256.79Zm13.94-27.89a8,8,0,0,1,0,2.59c-.83,4.25-2.31-1.11-1.94-2.68C273.81,225.58,276.49,226.41,276.49,228.9Zm-10.8-10.43c-.19,3.41-1.85,1.75-1.67-.46C263.65,215.05,266.15,216.16,265.69,218.47Zm24.84,43.77c-3.14-1.84-5.36-5-7.3-7.94-.55-3.79.74,1.39,2.31,1.11.28.74,2.5,2.31,3.42,3.14,2.12-4,.09,1,1.48,2.59C290.62,261.41,291.18,262.24,290.53,262.24Zm7.67-1,.09.46.09.65C298.29,266.21,297.09,261.32,298.2,261.23Zm2.21,2.21a12.5,12.5,0,0,1-.46,1.85C297.92,268.62,301.24,258.09,300.41,263.44Zm2.68,1.11.09.46C303.46,268.71,301.89,264.64,303.09,264.55Zm2.12.93.19.64C305.12,269.54,303.46,261.32,305.21,265.48Z" transform="translate(-83.43 -31.92)"/><path class="c" d="M200.12,243a2,2,0,0,1-.37-.44" transform="translate(-83.43 -31.92)"/><path d="M200.9,233.15a41.77,41.77,0,0,1,4.18.32A8.87,8.87,0,0,0,200.9,233.15Z" transform="translate(-83.43 -31.92)"/><path d="M199.93,310.18c-2.31-4.16-.28,4.24,0,0Z" transform="translate(-83.43 -31.92)"/><path d="M199.93,302c-2.22-1.85-2,3.23,0,0Z" transform="translate(-83.43 -31.92)"/><path d="M199.93,300.76c-2.68-2.68-.09,2.77,0,0Z" transform="translate(-83.43 -31.92)"/><path d="M199.93,286.81c-2.68-2.68-.09,2.86,0,0Z" transform="translate(-83.43 -31.92)"/><path d="M198.8,284a2.45,2.45,0,0,0,.3.45l.55.28c3.09,1.26.76-.54-.39-1l0,0,.35.17c2.6,1.07,1.36,0,.22-.68l.06-.05C197.42,281.52,197.36,284.41,198.8,284Z" transform="translate(-83.43 -31.92)"/><path d="M201,247c1.91.43,1.05-.16-.28-.79.15-1-.29-.8-.76-.34-.48-.2-1-.38-1.35-.51-1-.89-1.11-.67-.86-.1a.23.23,0,0,0,.07.13,5.77,5.77,0,0,0,1,1.35c.15,1,.76,2.45,1,.94l.27.28-.21.43c.26,1,.6.75.83.19l.19.18c2.09,2,1.25.55.05-1A2,2,0,0,0,201,247Zm-.48.25-.27-.32.14-.1.25.08.13,0A1.56,1.56,0,0,0,200.55,247.25Z" transform="translate(-83.43 -31.92)"/><path d="M199.93,271.76c-2.22-2.59-4.16,1.2,0,0Z" transform="translate(-83.43 -31.92)"/><path class="c" d="M199,242l-.06-.13" transform="translate(-83.43 -31.92)"/><path class="c" d="M199.58,242.64s-.06,0-.08,0" transform="translate(-83.43 -31.92)"/><path class="c" d="M199.47,242.6l-.11-.07" transform="translate(-83.43 -31.92)"/><path class="c" d="M199.34,242.51l-.09-.09" transform="translate(-83.43 -31.92)"/><path class="c" d="M199.61,242.64l.09,0" transform="translate(-83.43 -31.92)"/><path class="c" d="M198.82,241.69c0,.06.05.11.07.17" transform="translate(-83.43 -31.92)"/><path class="c" d="M199.22,242.38a1.25,1.25,0,0,1-.09-.12" transform="translate(-83.43 -31.92)"/><path class="c" d="M199.11,242.24a.86.86,0,0,1-.1-.16" transform="translate(-83.43 -31.92)"/><path class="c" d="M199.93,241.83a2.13,2.13,0,0,1,0,.27" transform="translate(-83.43 -31.92)"/><path class="c" d="M199.9,242.14c0,.07,0,.12,0,.17" transform="translate(-83.43 -31.92)"/><path class="c" d="M199.86,242.34s0,.09,0,.13" transform="translate(-83.43 -31.92)"/><path class="c" d="M199.81,242.48a.35.35,0,0,1-.06.09" transform="translate(-83.43 -31.92)"/><path d="M199.93,61.93c-4.06-.84.83,1.66,0,0Z" transform="translate(-83.43 -31.92)"/><path d="M199.93,283c2,1.67,3-.92,0,0Z" transform="translate(-83.43 -31.92)"/><path d="M199.93,183.65c2.68,3.14,1.48-3.33,0,0Z" transform="translate(-83.43 -31.92)"/><path d="M199.93,164.07l.17.1c0,.09-.11.16-.17.27.83.59,1.28.32,1.41-.09C201.81,163.78,200.66,161.88,199.93,164.07Z" transform="translate(-83.43 -31.92)"/></svg>