<?xml version="1.0" encoding="utf-8"?>
<!-- Generator: Adobe Illustrator 23.0.2, SVG Export Plug-In . SVG Version: 6.00 Build 0)  -->
<svg version="1.1" xmlns="http://www.w3.org/2000/svg" xmlns:xlink="http://www.w3.org/1999/xlink" x="0px" y="0px"
	 viewBox="0 0 400 400" style="enable-background:new 0 0 400 400;" xml:space="preserve">
<g id="Ebene_2">
</g>
<g id="svg2" xmlns:svg="http://www.w3.org/2000/svg">
	<g>
		<path d="M196.7,348.6c1.9,1.1,4.5,0.8,6.6,0.7C204.2,348.6,197.8,347.5,196.7,348.6z"/>
		<path d="M198.6,356.5l0.8,0.3l0.8,0.2C206.1,358,195.4,354.2,198.6,356.5z"/>
		<path d="M203.8,214.2c2,1-1.1-4-2.3-5.3c-1.1-2-1.6-1.8-1.3,0.4c0.7,3.3-1.2,5.5-3.1,1.3c-1.8-4.5-1.9,2.4-0.9,3.9
			c-0.4-2.4,3.4-1.9,4.1,1.8c0.8,2.8,1.3-2.6,1-3.2C200.4,208.3,202.9,212.1,203.8,214.2z"/>
		<path d="M199,250.5c0.6,0.3,1.2,0.5,1.8,0.7C206.8,252.7,193.6,247,199,250.5z"/>
		<path d="M199.8,203.5l0.4,0.5l0.4,0.4c2.9,3.3,0.5-1.5-0.9-2.5C197,199,198.2,202.2,199.8,203.5z"/>
		<path d="M203.8,159.7c-1.2-1.4-5.4-1.1-7.5-0.3C198.3,160.5,201.4,160.2,203.8,159.7z"/>
		<path d="M197.8,138.8l-0.6,0.4l-0.4,0.3c0.2,1.4,4.7-0.2,6.5-0.7C203.5,138.1,198.9,137.1,197.8,138.8z"/>
		<path d="M199.3,149.1l0.7,0.4C204.7,150.9,195.9,145.6,199.3,149.1z"/>
		<path d="M199.8,166l0.3,0.5c3,3.3,0.9-0.6-0.8-1.7C197.3,162.7,198.9,164.8,199.8,166z"/>
		<path d="M200,156.3l0.3,0.4c2.8,2.7,0.6-0.8-0.9-1.5c-2-1.9-1-0.7,0.2,0.7L200,156.3z"/>
		<path d="M200.3,101c0.3,0.9,0.7,1.8,1,2.7c0.9-1.8,2.6-3.5,2.7-5.6c-0.8-3.6-4.4,0.8-6.2-2C192.5,95.9,200.2,98.6,200.3,101z"/>
		<path d="M200,163.4l0.3,0.4c2.8,2.7,0.6-0.8-0.9-1.5c-2-1.9-1-0.7,0.2,0.7L200,163.4z"/>
		<path d="M199.9,163.8c3.6,2.8-2.8-5.2-0.5-0.8L199.9,163.8z"/>
		<path d="M197.3,149.1c0.9,0.8,2.3,0.4,3.4,0.1C206.6,147.9,198.1,146.1,197.3,149.1z"/>
		<path d="M202,34.1c0.7-3.6-7.6-1.3-2.2-0.1C200.5,34,201.3,34.3,202,34.1z"/>
		<path d="M198.8,154.6c-0.8,0.2,0.7,0.5,0.6,0.4C203.2,155.5,201.1,153.9,198.8,154.6z"/>
		<path d="M198.2,35.9c-2.8-0.3,0.2,0.6,1.2,1.1c0.7,0.3,1.4,0.6,2.1,0.8C205.5,38.3,200.2,34.9,198.2,35.9z"/>
		<path d="M196.4,156.5c1.7,1.6,4,1.4,6.1,0.7c5.1-1-1.1-1.9-3-1.6C200.5,159.1,193.1,153.6,196.4,156.5z"/>
		<path d="M198.5,153.1c-0.9,2,1.2,0.1,1.8-0.2C204.3,151.8,199.2,150.9,198.5,153.1z"/>
		<path d="M198.6,151.6c-2.1,2.5,2.5-1.3,3.3-1.2C200.4,148.7,198.8,149.4,198.6,151.6z"/>
		<path d="M200.3,239.8c-2.8-2.4,0,0.1-0.4,1.8C199.1,243.3,202.4,240.7,200.3,239.8z"/>
		<path d="M205.5,137.4c-2.2-4-6.6-1.6-9.7-0.5c0,0.1-2.1,0.3-1,0.4C198.5,137.8,202.3,135.2,205.5,137.4z"/>
		<path d="M198,274c-4.3-2-0.5,0.9,1.5,1.8c1.5,0.8,2.9,1.7,4.5,2.5C203.9,276.6,199.9,275,198,274z"/>
		<path d="M199,235.6c-6.2-2.8,5.8,4.3,0.3,2.2c-5.1-1.9,1.5,1.7,2.5,3.3l0.6,0.7l0.5,0.3C201.5,240,202.4,236.3,199,235.6z"/>
		<path d="M199.4,241.1c-2-1.9-1-0.7,0.2,0.7l0.3,0.4l0.3,0.4C203.2,245.4,201,241.9,199.4,241.1z"/>
		<path d="M198.5,229.1c-0.1,4.4,2.5-3.2,2.3,1.1l0.2,1.9c0.2,1.4,0.7-3.8,0.6-4.7C201.7,222.7,198.2,226.6,198.5,229.1z"/>
		<path d="M199,249.9c-2.6-2.6-1.2,0.4,0.3,1.5c0.6,0.6,1.2,1.2,1.8,1.8C204.7,256.6,200.3,250.7,199,249.9z"/>
		<path d="M199,271.8l0.7,0.5l0.7,0.4C205.6,274.3,195.1,268.9,199,271.8z"/>
		<path d="M199.1,249.2c-0.5,0.9,2.6-1.2,3.3,1.3l0.4,0.4l0.4,0.4c3.5,3.4-0.2-2-1.7-2.8c-1.1-2.7-3.5-3.8-6.3-3.7
			C195.7,245.7,199.4,247,199.1,249.2z"/>
		<path d="M199.7,216.4c-0.2,0.5-0.6,1-0.6,1.6C200.9,217.8,201.9,212.2,199.7,216.4z"/>
		<path d="M195.5,243.3l0.4,0.3c3.6,0.3,7.5-3.1,8.6-6.5C201.4,238.5,197.5,240.5,195.5,243.3z"/>
		<path d="M199.4,205.3l0.5,0.3l0.5,0.2C205.8,208.1,194.6,201.6,199.4,205.3z"/>
		<path d="M182.8,238l0.2,0.2c5.2,0.8,9.6-2.6,14.3-4.1c6.4-2.3,13.2-2.8,19.9-4c0.7-1.7-6.2,1.1-6.1-1.7c-6.7,0.6-12.6,4.2-19,5.8
			c-2.2,3.5-6.5,1-9.3,3.7L182.8,238z"/>
		<path d="M197.4,230.7l-0.4,0.6c0.7-0.2,5.1-4.8,6.2-7.2C200.9,225,199.4,228.8,197.4,230.7z"/>
		<path d="M200.3,204.2c4.6-1-2.4-3.8-2.2-0.8C198.5,204.3,199.5,204.4,200.3,204.2z"/>
		<path d="M198.3,197.9c1,0.4,6.4,1.8,2.4-0.6C206.7,196.2,194.6,194.6,198.3,197.9z"/>
		<path d="M200.2,213.1l0.5,0.6c3.2,3.9-0.1-1.9-1.2-3.1c-2.6-3.6-1.5,0.2,0.2,1.8L200.2,213.1z"/>
		<path d="M198.9,222c0,1.8,1.3-1.4,1.5-1.6C202.6,216.6,199.2,220,198.9,222z"/>
		<path d="M199.1,46.2c-2.1,0.6,0,1.1,0.9,0.6C203.3,45.7,201.3,44.8,199.1,46.2z"/>
		<path d="M200.3,84.6c1.7-3.3-1.3-0.8-1.2,1C199.3,86.5,200.2,84.8,200.3,84.6z"/>
		<path d="M200.6,122.9c-1.4,0.7-2.2,7.8-3,4.6c-0.7-4.5-1,0.4-0.8,2.1c0.1,0.4-0.5,6.9,0.9,3.5c1.1-4.2,1.4,2.6,2.9,0.2
			c0.8-3.9,0.5-8.1,2.2-11.8C204.5,116.9,201.3,121,200.6,122.9z M200.4,126.9c-0.2,1-0.4,2-0.7,3
			C197.7,130.7,201.4,120.8,200.4,126.9z"/>
		<path d="M199.5,120.5c2.3,3.8,0.1-5.8-0.1-0.7L199.5,120.5z"/>
		<path d="M205.4,67.9c2-0.7-2.1-5.3-3.8-6.5c-1.9-1.8-8-6.2-7.5-0.7c0.3,3.9-0.3,8.7,2.7,11.6c1.6-0.5,3.8-2.4,5.7,0.1
			c0.4,0.5,1,0.9,1.7,1.1c4.6,0.2-1.9-3.6-1.4-6C200.9,63.3,204.4,65.6,205.4,67.9z"/>
		<path d="M199,105.8l0.5,0.6l0.6,0.5C204.8,109,196.2,102.7,199,105.8z"/>
		<path d="M200.2,40.6c4.7,0.1,0-1-2-0.4C196.5,40.6,200.1,40.6,200.2,40.6z"/>
		<path d="M200.8,217.1c0-0.1-0.1-0.2-0.1-0.3c-0.5,0.7-1.2,1.2-2,1.6c0.1,2.5,0.2,5.1,1,5.8c3.4,0.5-0.8-2.3,0-4.5
			C198.6,216.9,202.7,218.9,200.8,217.1z"/>
		<path d="M198.5,134.6c-4,1.1,2,1.1,3,2l0.5,0.7C204.6,136.2,200.2,133.9,198.5,134.6z"/>
		<path d="M199.4,122.2c3.8,0.4,1.7-1.2-0.6-0.4C198,122.1,199.5,122.3,199.4,122.2z"/>
		<path d="M199.5,229.5l0,0.8l0,0.7c-0.1,4.5,1.6,0.1,1-1.9C200.4,225.9,199.1,227.1,199.5,229.5z"/>
		<path d="M200.1,69c0.1,0.3,0,2.3,0.8,1.9c0.5-3.6,0.2-7.7-1.4-10.9C197.8,61.4,200.7,66.1,200.1,69z"/>
		<path d="M202.6,43.4l-0.2,0.4c4.4,0.8-1.8-6.2-4.3-7.1c-4.7-0.8,0,2.7,1.8,3.1c-3.6,0.1-0.9,0.9,0.6,2
			C199.8,44.2,203,41.8,202.6,43.4z"/>
		<path d="M199.4,49.2l0.6,0.5C205,52.2,195.7,46,199.4,49.2z"/>
		<path d="M199.3,66.5c-0.2,3.8,1.1-0.5,1.2-1.7C201.5,60.5,198.9,64.5,199.3,66.5z"/>
		<path d="M201.8,267.2c1.1,1.1,2.1,2.4,3.4,3.2c-3.3-4.4-7.3-8.3-10.5-12.8C196.8,261,199.1,264.3,201.8,267.2z"/>
		<path d="M199.1,290.9l0.6,0.3C204.6,293.2,196.9,288.1,199.1,290.9z"/>
		<path d="M199.1,291.8l0.6,0.3C204.6,294.1,196.9,289,199.1,291.8z"/>
		<path d="M201.1,307.8c0.5-3.5-1.3-6.9-2.3-10.2c0.5,3.2,0.6,6.6,1.6,9.7l0.4,0.5L201.1,307.8z"/>
		<path d="M198,365.6c-2.5,3.4,2.7,3.6,4.1,4.4c0.8,1.9,1-3.1-0.7-2.8C200.5,370.4,198,366.2,198,365.6z"/>
		<path d="M197.7,269.8c-1.7,0.5,3,0.3,3.4,0.4C205.7,270.1,199.2,269.3,197.7,269.8z"/>
		<path d="M201.5,264c1.1-3.4-0.2-1.6-1.8,0c-2.1-3.2,0.1,1.4,0.2,2.7c-0.5-1.7-3.5-1.6-1.8,1.1c2.9,1-0.6,1.3,0.1,2.8
			c0.7,2.5,2.3,0.8,2.1-0.9C204.4,270.2,201,266.4,201.5,264z"/>
		<path d="M199.4,272.7l0.8,0.6C204.4,275.5,196.1,268.8,199.4,272.7z"/>
		<path d="M196.3,241.5c1.1,0.3,2.2,0.4,3.3,0.4c3.6-0.2-1.3,0-1.3-1.6c1.7-4.1,2.7-8.4,3.7-12.7c-0.7-3,2.5-3.2,1.7-5.6
			c-2.3-1.3-3,5.4-4.1,7.3C199.2,233.5,195.4,237.9,196.3,241.5z"/>
		<path d="M197.8,242.4c2.1,0.3,7,2.1,8.1,0.4c-3.8-1.3-7.9-1.1-11.9-1.5C194.3,241.4,196.8,242,197.8,242.4z"/>
		<path d="M199.1,274.9l0.6,0.3C204.6,277.3,196.9,272.2,199.1,274.9z"/>
		<path d="M197.9,246.2c2.4,0.9,5.9,2.1,8.1,0.2c-2.6-0.8-8.2-0.7-11-3.9c0.8-4.6,2.7-9,3.6-13.6c-1.3,1.1-2.3,5.3-3.3,7.6
			C193.6,239.9,192.8,245.3,197.9,246.2z"/>
		<path d="M202,215.8c-1.5,1.2-3.1,5.7-4,8.3C199.7,223,201.1,218.5,202,215.8z"/>
		<path d="M197.8,275.4c0,0.4-2.3,4.4-0.4,2c1.5-3.8,3.7,0.6,6-2.4C200.5,275.6,198.9,271,197.8,275.4z"/>
		<path d="M199.4,352c-2-1.9-1-0.7,0.2,0.7l0.3,0.4l0.3,0.4C203.2,356.2,201,352.7,199.4,352z"/>
		<path d="M193.1,231.2c4.4-4.1,7.4-9.5,10.5-14.6c1.7-3.6,5.3-7.8,2.9-11.8c-1,0.3-1.4,5-2.9,6.5c-1.8,3.6,0.6,0,1.8-0.9
			c-0.9,3.9-3.4,7.2-5.6,10.5c-2.7,3.1-6.3,5.6-7.3,9.9l0.1,0.3L193.1,231.2z"/>
		<path d="M326.1,273.9c0.1,0,0.1,0,0.2,0c-0.1-0.5-0.2-1-0.2-1.5c-2.6,0-5.2,0-7.8-0.2c-5.4-0.2-0.4-4.3,2.2-4.7
			c4.4-1.1,2.7-4.3-1.1-3.4c-8.3,0.3-17.2-0.8-24.3-5.6c-3.2-2.9,2.6-6.9,1-9.1c-5.2,1.6-4.3-4.9-5.8-8.1c-0.3-0.8-0.4-1.4-0.4-1.7
			c-2-5.8-2.8-13-2.4-19.4c-0.1-0.3-0.2-0.6-0.3-0.9c-1.3-1.3-1.9-4.6-1.6-7c-0.1-0.9-0.1-1.8-0.1-2.6c-1.6-3.9-1.9-8.2-2.6-12.3
			c-0.4-2.1-0.5-4.2-0.5-6.3c-0.1-1.3-0.1-2.6-0.1-3.9c0-0.8-0.1-1.6-0.2-2.5c-1.2-3.9-0.5-9.5-4.1-11.9c-4.6-0.4-9.2,0.9-13.8,1.3
			c0.1-3.9,0.3-7.8,0-11.8c-0.5-4-0.1-8.4-2.4-11.8c-0.7-5.4,8.3-1.3,7.2,3c0.1,1,1.2,4.2-0.2,2c-0.8-0.9-2-2.7-2.7-3
			c0.1,1.5-0.4,7.6,1.2,3.4c0.1,0.6,2.6,2.9,1.5,4.6c2.6-1.6-0.3,3.2,2,1.6c1.9-3.7,5.8-4.2,8.2-7.1c-1.8,1.2-2-5.1-0.5-3.2
			c1.1,3,2-0.4,2.5,1.9c1.2,2.2-0.9,9.3,3.3,5.5c1.9-5,2.5-10.4,2.3-15.7c1.7-3.6,0.6,2.2,2.1,1.1c1.4-5.9-1-11.9-3.6-17.1
			c-1.6-3.9-4.5-7.7-4.7-12.1c1.2,2.2,2.8,5.7,5,7.8c2.3,0.8,2.3,7.1,4.6,5.1c-0.5-4.9-5.4-7.6-6.8-12.2
			c-1.9-6.5-6.2-11.7-10.4-16.7c-0.1-3.3-0.1-6.7-0.2-10c0.3-5.1-2.5-9.5-4.7-13.9c-2.1-3.6-1.4-7.7-2.1-11.6
			c-0.7-5.1-4.9-8.2-7.4-12.4c-2.2-5.9-6.8-10.3-11.6-14.2c-5.6-4.8-12.8-7.8-20.2-7.4c-4.8,0.2-9.8-0.7-14.3,0.9
			c-6.5,3.4-9.4,10.5-13.2,16.3c-2.1,3.9-6.4,7.3-5.9,12.1c2.1,5-4.4,6.3-5.6,10.1c1.2,6.4,1.1,13.1,0,19.5c0,5.8-5.6,2.8-9,2.5
			c-5.7,0.9,1.9,3,0.9,6.2c2.4,0.9-0.5-4.2,1.4-4.3c1.7,0,9.1-0.6,6.3,1.7c0.3,0.5,5.1-0.6,2.9,2.7c0.9-0.4,6.3-2,5,2.1
			c1.8,0.4,1.9,2.2,1.5,4.3c2.1-6.1,2.1,7.9,0.2,2.7c-0.2,1.9,1,5.3,1.1,7.8c0.9,3.4-2.6,3.3-2.6,0.1c-0.7-4.5-2.4,0.3-2.5,2.2
			c-0.7,4.1-0.7,0.8-0.3-1.4c-0.1-3.8,2.6-6.8,1.9-10.6c-0.1-0.8-0.1-4.7-0.2-2.7c-0.4,1.9,0.2,4.6-1.2,5.9c-3.5-2.4,0.8-8.3-1-10.5
			c-2.1,3.7-1.9,8-2.5,12.5c-1.5,2.7,1.3,2.7,1.6,4.5c-0.9,3.9-1.4,8.3-3.4,11.7c-1-3.3-1.1-0.4-1.1,1.3c1.2,3.6-6.1,3-3.8,0.9
			c1.3-4.5-0.2-9.4,1.4-13.9c2.8-4.9,2.6,2.2,1.9,4.2c-2.5-4.3-0.4,2.7,1,3.7c-0.2-2.7,1-5.8,2.9-7c-2.7-1.6-2.3-5.3-2.9-8.4
			c-2.2-4.4-0.6,3.4-2.8,3.5c-3.3-1.9-1.6-7.2-3.6-10.2c-2.7-0.2-0.2,6.1-2.7,6.3c3.1,1.5-1.1,0.6,0,2.6c-2.9,3.1,2.1,0.7,2.7,3.7
			c0.8,4-1-0.8-2.3-1.2c-3.7,2.3-6.7-7.7-7.8-3.4c-4.8-0.2-9.2-3.5-10.9-8c-3.3-2.5,1.3-7.8,2.9-3.1c1.3,2.8,4.6,7.6,6.4,7.9
			c-0.2-3.5-5-4-5.4-8.2c0.7-4.8,7.8-2.2,11.2-3.9c-1.2-2.4-6.5,0.3-9.3,0c-3.9-0.1-10.2,1.2-7.3,6.5c2.4,4-1.2,8.3,1.3,12.4
			c3.8,3.3-3.4-7.7,1.9-5.6c6.6,3.3,11.1,9.4,15.7,15.1c-2.3-0.5-4.6-0.7-6.7-1.7c-4.1-1.4-2.7-7.2-6.7-8.8c-3.4-2.8-2.3,2,0.5,1.4
			c-1.2,1.3-4.9,2.4-7.4,1.9c-3,1.8,2.6,6.5,5.1,7.1c3.6-0.4,2,7.7,3.4,6.4c-0.3-5.1,6.7-3.1,9.3-1.8c3.4,3.9-1.5,4.4-4.4,3.5
			c-6.5,0.3-13.5,0.9-18.9,4.7c-6.7,4.8-7.6,14-13.3,19.5c-3.9,2.5-8.9,3-13.5,2.4c-7.9-1.9-15.9-4.1-22.9-8.4
			c-6.8-4-10.8-11.3-13.1-18.6c-3-7.2-4.7-14.9-4.5-22.7c0.7-15.3,5.8-30,10.9-44.3c2.7-6.4,4.8-13.8,10.7-18
			c5.6-3.4,11.8,0,17.5,0.8c7.3,0.3,14.3,2.6,21.1,5c4,1.3,9.1,3.3,8.6,8.4c0.4,2.5-1,12.1,3.5,7.2c5-7,5.8-15.8,6.5-24.1
			c-4.6-4.7-9.9-8.4-15.6-11.7c-4.2-1.9-6.5-6-10.2-8.3c-5.2-2-10.9-2.3-16.5-2.8c-6.1-0.8-10.8,3.8-14.9,7.6
			c-2.8,3.1-4.4,7.1-7.5,10c-4.6,4.7-8.1,10.4-10.2,16.6c-2.1,3.8,3,3.1,2-0.2c1.9-7.1,7.3-12.5,12-17.8c0.8-2.2,5.9-3.2,4.7-5
			c0.3-0.5,8-1.1,7.7-5.3c-3.7,0.6-3.6-1.7,0-3c6.6-2.1,13.9-0.2,19.9,2.8c4.2,1.3,7.5,4.4,11.1,6.7c4.4,3.4,10.2,4.9,13.8,9.3
			c3.4,3.6-0.8,7.7-0.2,11.3c-2.8,0.2,0.3-6.1-2.2-7.9c-2.1,2.3,0.9,7.7-1.2,9.9c-2.5,1.9-4.1-3.4-6.8-4.3
			c-5.7-2.9-12.8-3.2-17.9-7.4c-0.3-4,6.1-5.7,6.1-9.7c3-0.3-1.5,6.2,1.6,2.4c4.6-4.2-1.8-4.8-4.6-6.6c-4.4-3-9.4-6-15-5.5
			c-0.1,2,6.3,1.3,8.2,3c-0.4,2.7-10.1-1.4-6.2,1.9c2.2,1.9,5.3,3.8,7.1,5c1.6,1.6,5,1.7,7-0.9c2.6,1.1-2.5,4.3-4.4,4.4
			c-0.3,2.4-6.9,3.1-4.7,5c-2,1.1-7.9-0.3-11.2-1.3c-4.3-2.3-9,0.3-12.5,2.8c-3,0.9,0.1,3-2.5,2.8c-0.9,1.3-4.3,4.2-3.1,5.4
			c-2.1,1.1-1.3,3.8-3.7,4.6c1.6,1.4,1.3,1.1-0.1,2c-0.5,2.5-3.3,5.8-3.9,9c2.9,1-0.2,4.6-2.3,6.1c3.4,0.3-2.1,2,1,2.4
			c-2.7,2-1.3,6.3-3.6,7.7c0.5,1.2-2.8,4.8,0.5,3c1.1,0.3-3,4.2-2.2,6.4c0.2,4.4-1.9,8.5-1.8,12.8c3.6-0.3-2.6,2.9,0.1,3.9
			c-1.5,2.2-0.3,3.9,0.2,5.8c2.8,2.1-2.5,3.8,0.5,5.5c0.4,3.4,1.2,7.8,1.7,10c1.5,2,0,5.6,2.7,6.2c-1.2,3,0.9,1.1,2,2.6
			c-3,1.7,2.6,5.7,5,5.1c-0.7,0.1-4.7,2.3-0.1,3.3c2.5-1.6,3.4-0.5,5.6,0.3c0.8,3,8.7,3.2,6.2,6.6c2.3,2.1,1.2-0.7,2.7-1.3
			c3.4,2.1,7.7,3.4,11.7,4.7c4.5,0.5,8.8,2.3,13.3,2.1c3.4,0,7.1-2.3,9-3.8c3.3,3.3,0.2-1.9,1.7-1.9c1.5-2.8,5.1,4.3,4.7,1.5
			c3.6,1.5,0.8-1.4,0.3-3c1.3-1-0.1-3.3,1-4.1c4.4,1.9-1.1-1.6,0.8-3.1c5.3,2.7-3.3-7.6,1.3-4.5c3.5,3.5-2.1-6.9,2.4-2.4
			c-0.8-4.1,5.7-2.9,7.5-5.3c4.5-1.3,9.5-0.9,14.1-0.3c2.6,3,5.1-2,7.7,0.7c2.2-0.6,2.6,0.9,4.1,1.4c-0.2-2.4,0.5-0.4,1.9,0.3
			c2.5-2.7,2.5,3.3,3.8,1.6c1.2-3.9,0.4,1.2,2.6,0.8c-3,2.7,3.9,2.6,5.9,3.2c4.4-0.8,1.1,5.1,5.4,4.5c2-0.8,7.4,0.5,3.4,2.3
			c2.2-1.3,4.2,5,8,3.4c2,2.4-3.9,2-4.5,1.4c-0.8,3.1,2.5,0.7,4.4,2.6c2.3-0.7,6.2,5.3,5.7,1c-2.2-2.3,0.5-2.8,2.3-1.5
			c0.8,0.5-2.8,2.8-2.1,5.2c1.2,1.4,1.4,4.5-1.7,2.9c-0.1,2.1-3.3,1.5-2.2-1.6c4.5,0.9,0.7-5.3-1.7-3c-1.6,2.6-7.8,1.6-8.1,5.2
			c-2.9-0.5-8.4-2.7-9.6,1.2c-2.2-0.3-6.1-1.4-9.1-1.5c-2.1-0.6-10.8-2.6-6-4.5c-2.6-2.4-8.9,1.3-9.9-3.2c-2.2-2.4-9.2-0.3-8.8-4.5
			c-2,0-4.9-1.5-6.2-3.7c-0.9-0.6-2.2-5.2-2.2-3.8c-0.2,3.2,1.7,5.9,4.4,7.4c3.7,2.3,6.4,6.1,10.3,8.1c4.9,1,9.9,2.4,14.2,5.1
			c-1,2.3-7.2,0.2-10,1.7c-2.2,4.1,4.4,4.1,6.9,4.4c2.3,3-4.8,2.5-6.7,4.1c-2.3,1.5-7.6,3-6.9,6.2c3.7,0.5,7.5-0.7,11.3-1
			c-1.1,1-2.2,2-3.3,3c-1.4,1.2-2.7,2.3-0.4,0.8c2.6-2.1,6.7-2.9,8.5-5.6c-4.9-1.8-9.9,1-14.7,2.1c0-2.1,4-3.7,5.9-4.9
			c3.1-1.6,9.9-0.5,10.6-4.1c-1.4-3.9-9.7-0.5-9.3-3.9c6.7-1.4,13.7-1,20.4,0.5c4.4,0.7,8.6-1.7,13-1c8.7,0.9,17.4-0.1,25.7-2.6
			c2.1-0.9,8.5-1.6,8.1-3.1c-2.2-3-2.6-7-2.8-10.6c-0.6-5.5,4.7-2.1,7.4-1.4c1.5,1.8,5,2.2,7.7,3.3c0.6,3.2,1.9,7.2,2.6,10.7
			c0.7,4.2,0.7,8.7-2.4,11.9c-1.8,2.6-0.5,2.1,1.2,0.3c2.8,2.8-5.2,2.9-7.7,2.8c-5.1,0.5-10.7-0.3-15.4,2.3c1.4-1.8-1.2-2.2-4.2-1.5
			c-8.6-0.2-17.3,0.2-26-0.7c-4.4-2.6-1.6,5.4-5,6.9c-3.3,3-6,6.5-8.8,9.8c-5.5,2.6,0.2-4.2,0.4-6.4c-0.8-6-6.9,0.5-8.5,2.9
			c-0.6,3.3-6,5.9-6.4,1.4c-3.3-0.2-1.6-2.5,0.9-3.8c4.8-0.3-2.1,5.8,1.5,4.2c1.2-4.3,5.3-7,6.8-11.1c-2.5,1-5.7,2.9-8.3,4.7
			c-1.5,1-8.1,7.2-7,3.6c0.6-0.9,5.9-6,2.5-4.1c-1.2,0.8-4.9,6-4.7,3.4c-2.6-1-1.4-4.6-2.7-7.4c-0.6-1.3,2.3-6.9,0.2-3.5
			c-2.7-2.5-1.6,1.1-1.7,2.6c-2.1-3.3-0.9,0.8-2.4,1.4c-2.5-2-2.4-6.2,0.1-6.8c0.4-0.6,1.2-4.6,0.6-6.8c-0.2-2.4-0.5-2.2-0.9,0
			c0.3,3.6-2.4,2.9-3.2,1.3c2.2,4.5-2.2,1.1-3.8-0.4c-3.3,1.1-0.1-3.6-3.3-3.5c-0.6-0.1,0.3,7.5,3.1,4.9c5.1,0.1-2.6,5.4-1.7,3.1
			c3.9-2.1-1.7-1.3-2.5-3.7c-0.5-2.9-3.6-3.4-4.4-0.1c-0.3,3.5-2.8,1.5-3.9-0.3c-4.3,0.2-2.8-5.6-6.6-6.2c-0.2-3.1-7-2.2-3.3-0.5
			c3.1,2.9,0.4,8.2,0,11.8c0.7,2.3,0.1,1.9-1.1,0.3c-3.2-2.6-1.5-6.8-0.8-9.9c-3.6,2.8-2.6-2.3-4.6-3.7c-1.5,2.1,0.9,7.9-1.6,10.9
			c-5,1.7-1.7-5.2-0.5-7.2c1.5-4.9-1.6,1.3-3.6-0.1c1.9-4.5-4.8,2.2-5.1-2.7c-1.6,2.4-2.3-0.1-4.4,0.4c-0.8-1.5-2.2-1-3.4-1.6
			c-3.6-2.7-8.7-2.5-12.1-5.5c-3-2.7-5.7-5.8-9.2-7.8c-5.5-7-7.8-15.9-9.6-24.5c-2.1-10.2-2.8-20.7-0.6-31c0.7-3.9,2.4-7.5,2.6-11.5
			c3-7.8,6.9-15.4,8.4-23.7c-1.3-1-2.3,4.1-3.1,5.4c-5.6,14.9-11.9,30.4-10.7,46.7c0.9,11,2.6,22.2,7.2,32.3
			c4.4,9.7,13.5,16,22.6,20.9c4.9,3.8,10.8,5.7,16.7,7.3c1.5,3.9,5,6.9,9.3,8.1c5.6,1.3,11.6,2.1,17.1,0.4c-0.3,1.6-5.2,3.2-7.3,4.5
			c-6.9,2.8-10.7,9.6-14.7,15.5c-4.1,6.7-8.2,13.6-13.3,19.6c-7.4,8.2-14,17.2-19.9,26.5c-3.6,3.7-2.1,8.6,2,11.1
			c3.6,2.2,6.6,5.1,8.8,8.7c2.4,4.5,6.9,7.1,10.8,10.2c0.4,0.2,0.7,0.6,1,0.9c0.3,0.2,0.5,0.4,0.8,0.6c0.2,0.1,0.4,0.2,0.6,0.3
			c3.8,0.6,6.5,3.1,10.3,4c1.2,0.7,6.8,3.2,5.7,4c0.2,0.3,0.4,0.6,0.5,1c0.2,0.1,0.4,0.3,0.6,0.4c0.5,0.1,0.9,0.3,1.2,0.6
			c0.3,0.2,0.6,0.3,0.8,0.6c0.2,0,0.5,0.1,0.7,0.1c0.3-0.1,2.9,1.1,3.9,1.8c0.1,0.1,0.1,0.1,0.2,0.2c0.1,0,0.2,0.1,0.2,0.1
			c0.2,0.1,0.4,0.2,0.5,0.4c0.5,0.1,1,0.1,1.5,0.2c0.3,0,0.7,0,1,0.1c0.2,0,0.4,0.1,0.6,0.2c0.7,0.2,1.5,0.4,2.2,0.6
			c0,0,0.1,0,0.1,0c0.1,0,0.1,0,0.2-0.1c0.5-1.9,6.5-2.2,7.9-0.3c0.1,0.2,0.2,0.4,0.3,0.6c0.5,0,1.1,0,1.7,0c0,0,0.1,0,0.1-0.1
			c0.5-1.3,6.5-1.1,6.4-3.9c0-5.6,7.2-1.6,10.4-1.3c-0.6-1.8,1.3-2,3.2-1.4c2.4-0.1,4.5-1.8,7-2.1c0.1,2.4,0.1,4.9,0.2,7.3
			c0.1,1.5,0.6,8.2,1.4,6.2c-1.2-3.7,3.3-6.8-0.3-9.2c0.6-2.1,6.8-0.9,9.5-1.1c0.8,0.8,0.1,1.6,2.6,0.8c3.1-0.6,3.7,1.2,4.9,2.8
			c-1.9,0.3-5.5-1.3-8.2-1.3c0.9,1.4,6.3,2.2,9,2.6c0.7-1.4,3.2-0.2,2.4,2c-2.7,1.8,1.5,1.2-0.3,3.3c0.3,2.4-2.9,3.3-0.5,5.7
			c-0.9,4.3-0.6,8.8-0.8,13.1c-0.3,3.5-1.7,6.4,0.2,9.9c1.2,2.5,2.6,9.8-2.2,8c-2-2.7-3.9-1.6-5.9,0.4c-4.8,3.1-2.4-3-3.1-5.6
			c-0.9-5.8-2.1-11.8-4.4-17.1c0.3,5.4,2.6,10.6,3.2,16c0.7,4.5-1.2,9.4-3.9,12.9c-3.7,1.6-5.8,6-9.8,6.9c-3.4,1.6-0.5,3.3,1.9,2.4
			c-0.6-2.5,1.9,0,2.2,1c5.2,0.5,10.2,2.7,15.4,3.1c0,1.3,1.4,2.7,2.8,3.7c-1.1,3,2.3,5.2,4.3,2.3c3.5-2.4-1.8,2.3,1.4,3.2
			c-0.5-0.5-6.4,2.4-4.4-0.9c-2.3-1.5-3.8,1.9-1.9,3.8c-3.5-1-1.1,2,0.6,2.3c1.1,3.3-0.7-1.3-1.7,0.2c-2.9-2.8-1.8,0.7-1.6,2.6
			c-0.9-1.3-1.7-0.6-2.8-1.5c-3.7-4.3,0.2,1.1,0.7,3.3c-1.8-0.9-1.4,1.5,0.1,1.8c-3.5-1.2-2.8,3-2.9,5.2c-1.3,5.1-0.6-3.2-2.1-3.6
			c-1.2-2.3-4.5-1.8-7.3-1.7c-0.2-1.5-0.7-2.7-2.9-2.5c1.8-1,3.1-7.3,1-2.8c-2.4,3.5-2.5-2.7-0.1-3.4c2.8-4-3.8,2.3-5.3-0.3
			c1.7-1.8,4.4-2,6.7-2.8c0.4-0.3-3.7-0.1-4.7,0c-2.5-0.4-7.2,5.3-4.3,0.6c-2.1-1.6,0.2-3,1.2-4.6c-0.9-2.9,2.4-2,3-3.3
			c-2.6-2.3,0.1-2.1,2.1-1.4c0.5-1.6-6.1-1.1-7.9,0.4c1.1,2.1-1.9,3.3-3.7,4.8c1.3,1.1,2.1,2.1,0.4,3.8c2.7,0.6,1.1,3.7,3.3,4.2
			c0,1.7-5.5,2.5-4.2,2.9c2.2-0.2,7.3,0.4,3.3,2.8c-4,2.7,1.1,2.6,3.2,1.9c-1.9,2-1.5,3.8,1.8,2.6c-1.1,2.3,2.4,1,2.6,2.6
			c2.3,2.9,4.5-1.3,5.8-3.1c-0.1-3.7,3.4-0.2,2.4,2c-1.4-3.3-3.6,0.4-2.4,2.4c-3.1-0.2-0.4,1.9,2.1,1.7c1.3,2.7,3.1,0.5,4.8,0.2
			c2.2,2.3,4.1-1.5,5.6,1.3c0.9-3.1,4.3,1.5,5.2-1.4c-0.4-3.5,1.1-0.5,2.5-0.2c0.4-0.3,0.8-0.6,1.2-1c0-0.1,0.1-0.1,0.1-0.2
			c-0.3-1.3,0.9-1.8,2.5-2.1c3.1-3.2,5.2-7,6.9-11.1c0.1-0.2,0.2-0.4,0.3-0.6c-0.3-0.4-0.5-1-0.4-1.7c-2.9-0.3,1-2.2-1.2-3.5
			c-3.3-1.5-0.1-3,0.9-0.7c4.2,2.4,9.1,3.2,13.9,3.7c2-0.4,3.1,0.1,4,1c1.3-0.9,3.1-1.2,4.7-0.3c-1.8-1-0.8-0.3,0.6-0.4
			c0.8-0.1,1.5-0.2,2.3-0.3c1-2.3,1-3.8,0.1-5.2c-0.9-0.5-1.8-1.1-2.7-1.6c-0.5-0.3-0.9-0.7-1.2-1c-0.1,0-0.2,0-0.3,0
			c-1.9,0.1-8.4-3.1-5.5-4.2c-0.1-0.1-0.3-0.2-0.4-0.3c-3.1-1.4-5.8-3.3-7.9-6.4c-3.7,2.1-7.8-1.9-5.8-6c2.4-12.7,7.6-24.6,11.2-37
			c1.9-4,1.6-9.3,4-12.7c4.7-1.2,9.8-0.7,14.3-2.8c3.8-2.7,8.5-2,12.8-3.2c3.6-0.9,10-2.2,7.1-7.2c-1.8-2.3-1.3-5.9,2.1-3.7
			c3.7,2.9,5.8,7.4,9.4,10.5c3.2,3.4,0-1.5,2.1-2.2c4.4,0.9,8.5,3.8,13.2,3c3.4-1.5-0.6-3.1-2.6-2.7c-2.4-0.9-7.9-6.8-3.4-7.5
			c0.9-0.2,5.1-0.4,3.9-0.5c-2.2-0.3-5.1,0.5-6.7-1.3c0.6-2.8,3.5-4.5,5.3-6.7c-3.9,0.2-7.9-0.4-11.1-2.6c-4.1-1.7-4.5-6-6.7-9.1
			c-5.4-3.1,4.4-6.2,0.2-8.7c-1.9,4.4-3.2-2.4-2.8-4.5c0.2-3.7-0.5-8,1.5-11.2c0.6,2.3,2.2,2.1,4.1,4.4c1.1-2.1-5.9-4.9-3.9-8.3
			c2.8-3,2,3.1,4.7,2.6c0.5,2.7,4.9,3.3,1.6,0.4c-2.9-1.2-4.9-9.4-0.3-5.6c4.1,2.1,5.3,6.7,4.3,10.9c-1.8-1.8-2.9-2.5-2.4,1.2
			c0.6,3.4-2.4-0.7-2.6,0.9c0.8,2.8,6.5,6.5,4,8.9c-0.3-3.6-3.8,2.4-4.9-1.6c1.6-0.4,2.5-0.4,0.9-2.4c-0.9-1.5-6.6-8.8-5.3-4.1
			c4.1,0.8,2.7,6,3.8,8.6c4.2,0.8,8.5,1.1,12.7,0.8c-3.4-0.8-6.1-3.5-7.3-7c-2.4-3.2,2.3-5.2,2.2-0.9c-0.4,4,3.2-1.1,3.4,2.2
			c2,4.9,1.6-3.2,1.4-4.8c0.7-4.6-4.8-6.8-4.7-11.3c-0.1-4-0.2,0.3-1.9,0c-3.2-2.5-6-5.7-8.9-8.5c0.7-6.7,1.1-13.5,2.3-20.2
			c1.6-4.5,1.6-9.4,1.7-14.1c0.6,1.6,0.9,6.8,2.7,9.3c3.3,4.3,3.6,9.9,4.7,15c-2,2.6,1.1,4.5,1.4,7.4c-0.9,3,3.8,7.8,0.1,8.9
			c-0.1-1.9-5.2-6.8-2.9-2.4c3.6,3.9,5.7,8.9,6.8,14.1c2.2,9.2,2.1,18.8,3.6,28.2c3.5,5.9,9,10.4,13.4,15.6
			c2.5,3.4,6.9,6.7,6.7,11.2c2.9,1.2,3.4-1.9,2.5-4.3c1.6-0.8,6.8,4.6,4.5,6c0.2,0.2,0.6,0.4,1.2,0.5c0.2,0,0.4-0.1,0.6-0.1
			c0.9-0.2,2.1-0.3,3.3-0.2c1-0.3,1.8-0.7,2.4-1.4c0.3-0.4,0.5-0.7,0.7-0.9c-0.4-0.1-0.8-0.3-1.2-0.5c-1.2,0.4-2.9,0.8-3.3-0.7
			c-1.7-3.5-5.2-8.7-3-12.2C320.2,273.5,323.2,273.7,326.1,273.9z M287.8,137.3l0.1,0.5l0.1,0.7
			C287.9,142.7,286.6,137.4,287.8,137.3z M276.5,151.1c-2.2,2.2-1.3-2.2,0.1-0.4L276.5,151.1z M279.9,148l-0.2,0.6
			c-3.7,4-1.4-5.9,0.2-1.2L279.9,148z M280.5,140.2l0.3,0.6C278.8,141.2,277.9,137.7,280.5,140.2z M283.1,158.3l-0.2,0.5
			C280.7,161.6,283.3,155.1,283.1,158.3z M283.2,132.1c0.9,1-2.1,2.8-0.8,0.8C281,131.4,281.2,130.8,283.2,132.1z M281,133.6
			c-1,0.6-2.4-2.1-3.4-2.9C276.2,129.1,280.6,133,281,133.6z M277.4,113.9l-0.1,0.6l-0.2,0.5C274.7,118.3,276.2,110.7,277.4,113.9z
			 M275.2,119.1c1.2,3.4,1.5-1.6,2.3,1.9l0.2,0.5C279.6,127.3,273.2,119.9,275.2,119.1z M276.3,143.3c0.5,7.8-1.2-3-4.9-1.1
			C269.5,140.5,278,138.8,276.3,143.3z M271.1,143.8c1.6,4.2,0.5,9,1.6,13.4c-1,2.6-2.1-1.5-1.9-2.6
			C270.9,151.2,268.9,146.1,271.1,143.8z M170.2,123.2c-1.2-2.2-4.2-0.7-5.6-2.2c1.4-2.4-4.3-5.8-0.1-5.5c1.9,2.5,4.1,5.4,7.4,6.5
			C172.3,122.9,170.9,123.2,170.2,123.2z M146.5,144.6l0.2,0.7C146.3,148.9,144.5,140.1,146.5,144.6z M174.2,122.5
			c1.5-2.1,2.8,0.3,1.9,2C176.8,126.4,173.9,123,174.2,122.5z M172.8,114.5c-0.9-1.2-4.9-8-1.4-5.2c4.2,2.8,5.6,7.6,9.3,10.7
			l0.5,0.6l0.3,0.5C179.5,120,174.4,118,172.8,114.5z M189.7,128.6c-0.4,0.7-1,1.6-1.8,1.8C184.9,129.1,192.4,123.3,189.7,128.6z
			 M193.6,131c-3.8,1.5-1.8-5.2-0.1-1.5C193.6,130,193.7,130.5,193.6,131z M193.8,119.5l0.1,0.5
			C194.2,124.1,192.5,119.7,193.8,119.5z M195.7,125.4l0,0.7c0.2,3.8-2.3,1.9-1.9-0.6C193.6,122.6,196.7,122.2,195.7,125.4z
			 M216.7,161.4c2.9,0.5-0.2,1.7,0,2.7C217.2,166.9,213.4,161.3,216.7,161.4z M138.1,176c-2.7-1.1-1-6.4-1.5-9.2
			c0-5.2,2.5,2.9,3,4.4C139.9,172.9,139.3,174.9,138.1,176z M141.9,172.5c0.7-4.6,2.4,0,2.3,2.2l0.1,0.7l0.1,0.6
			C143.2,179.8,140.7,174.4,141.9,172.5z M171.5,356.5l-0.6,0.6C167.3,358.4,171.4,354.7,171.5,356.5z M172.4,366.2
			c1.1,2.4-2.4-0.8-0.4-1.3C174.9,364.3,172.4,365.2,172.4,366.2z M176,366.7c-4,1.8-0.8-3.4,0.6-1.2
			C176.9,366,176.5,366.6,176,366.7z M177.4,372.2l0.3,0.5l0.2,0.5C178.4,377,175.5,371.3,177.4,372.2z M202.5,362.7
			c-0.3,0.5-0.9,0.7-1.4,0.8C196.9,364.5,203.4,360.2,202.5,362.7z M202,366.7c-2.9-2,0-2.5,1-0.3
			C203.3,367.1,202.3,367.3,202,366.7z M230.9,358c4-0.7,0.5,1.5,1,3.3c-3.1,2.8-0.9-4.3-2.7-1C225.8,364.3,228.1,357.6,230.9,358z
			 M270.3,265.1l-0.1,0.4C268.1,267.7,269,263.2,270.3,265.1z M267.8,261.9l0.3,0.7C269,267,265.3,258.4,267.8,261.9z M268.6,145.7
			c-0.7,1.7-3.5,1.1-5,1C258,145.3,267.5,143.1,268.6,145.7z M263.5,135.4c4.5,1.2-5.8,3.2-1.1,3.5c0.8-2,3.5,0.1,3.9,0.1
			c-1.5,1.2-3.8,0.8-5.4,0.2c-1.7-3-4-1.2-6.5-1.8c-0.2-2.3,6.4-0.1,7.5-1.3C258,135,261.4,134.4,263.5,135.4z M261,131
			c-4.5-3.5,2.1-1.6,2.6,0.6C262.7,132.7,261.6,131.6,261,131z M267.4,130.9c0.2,0.5,0.1,1.3-0.6,1.3
			C264.5,130.8,268.5,127.1,267.4,130.9z M264,117c-0.6-2.9,1.8,0.4,2,1.2C268,120.2,263.6,118.7,264,117z M265.9,86.2
			c0,2.3-2.2-1.6-2.4-1.9C261,79.5,265.6,84.3,265.9,86.2z M262.6,75.4l0.2,0.7C262.5,79.8,260.6,70.9,262.6,75.4z M258.2,113.7
			c-2.4-4.7,2.1-0.7,2.5,1.5C262.6,120,258.5,116,258.2,113.7z M259.5,108.6c0.3,0.7,0.7,1.4,0.7,2.2
			C258,110.6,257.5,104.7,259.5,108.6z M257.9,56.2c0.7,1.3,0.9,2.8,0.5,4.2C258.5,62.8,256.3,52.5,257.9,56.2z M256.1,86.5
			c-3.7-2.3,0.3,2.2,0.6,3.6c0.1,3.8-6.6-6.5-2.4-5.1c-2-5.4,3,2.6,3.6,0c-1.7-3.1-3.9-4.5-4.1-8.7c0.9-5.5,2,2,3.3,3.5
			C259.1,81.1,259.5,89.6,256.1,86.5z M254.9,110.2l0.6,0.6C257.6,115,251.5,106.9,254.9,110.2z M255.7,93.3l-0.5,0.6
			C252.3,93.3,255.4,90.2,255.7,93.3z M246.3,107.9c-3.4,0.8-2.1-1.8-3.6-3.9c-1.5-2.5-0.7-2.2,0.9-0.2c3.3,0.7,5.4,2.4,6.6,5.4
			c2.5,1.7,0.4,1.5-1.2,1.5C249.2,109.9,248.6,108,246.3,107.9z M238.9,92.3c-2.6,3.6-1.4-0.4,0.2-2c1.4-1.1,4-10,2-6.3
			c-1,4.6-7.2,6.9-5.9,12l0.1,0.7c1.4,5.6-3-0.9-2-3.3c2.1-3.3,5.2-6.5,5.2-10.8c0.5-4,3.3-8.6,3.6-12c1.1-2.2,1.8-5.7,3.2-8.3
			c1.5-5.1,0.7,2.9,1.8,4.3c-1.7-1.2-2.3,3.8-2.2,6.1c0.6,4.6,0.6-2.9,1.1-1.6c2.6,3.6,2.7,8.4,1.4,12.5c-1.9,4.7-0.9-4.5-1.4-2.7
			C245.4,85.8,240.5,87.8,238.9,92.3z M241.7,97.5c-0.2,5.2-3.1-4.8-0.6-1.4l0.3,0.7L241.7,97.5z M239.7,99.2
			c-0.3,3.7-2.1-5.2-0.2-0.7L239.7,99.2z M245.5,57.4l-0.3,0.9l-0.3,0.6C243.2,62.9,243.5,55.8,245.5,57.4z M250.5,96.4
			c0.1,1.2,0.2,2.4,0.1,3.6c-1.4-1.4-2.9-5.8-4-8.3C248.1,88.1,251.4,93.9,250.5,96.4z M250.3,88.4l0.2,0.6l0.1,0.5
			C249.4,91.5,247.8,85,250.3,88.4z M246.8,97.1c-3.2-1-2.9,1.6-0.8,3.1c-0.7-2.8,1.7,0.4,2.2,2c-0.7,2-4-0.7-4.5-1.7
			c-2-2.5,0.6-3.7,1.5-4.8C243.5,91.1,246.7,95.1,246.8,97.1z M252.4,104.7c0.3,0.5,0.6,1,0.8,1.6
			C251.5,106.5,250,101.2,252.4,104.7z M253.6,67.5l-0.4-0.4c-1.2,0.5-0.7,6.2-1.7,2.5c-3.5,3.1-1.3-2.3-0.1-3.6
			c3.6-3.1-1.7-7.3-0.9-10.9c2.1,3.6,3.7,7.6,5.1,11.5C255,66.5,254.2,69,253.6,67.5z M250.4,46.1c1.7-1.3,0.3,3.4,1.5,4.2
			c2.4,3.7-3.1,2.2-3.2-0.3C246.9,46.3,252.2,49,250.4,46.1z M249.1,55c-1.5,3.8-2-0.1-4,0.2c1.8-1.4-2.1-5.2-1.1-6.3
			C244.5,52,250.5,51.9,249.1,55z M222.4,33.2c-1,0.6-2.2,0.7-3.4,0.9C213.6,34.4,220.8,31.8,222.4,33.2z M216.3,35.8
			c-0.9,1.1-2.1,1.8-3.2,2.7C208.3,41.2,214.3,35.6,216.3,35.8z M198.7,131.5c-1.8-2.4,3.5-5.1,2-2.1
			C199.9,129.2,198.9,132.8,198.7,131.5z M200.4,110.7l0.4,0.5C202,114.5,198.1,108.8,200.4,110.7z M228.6,69c0,0.9-0.2,1.9-0.4,2.8
			c-1.1,4.7-1.5-1-1.2-2.7C226.6,66.3,229,65.9,228.6,69z M233,83.1c-1.5-3.9-1.3,5.9-3.5,4.4c-0.7-4.8-0.1-9.8,0-14.6
			c0.3-4.9,1.1-11.3-3.7-14.4c-4.5-2.8,2.7-0.6,4.5-0.3c1.5-0.9-4.6-2.1-6.3-2.1c-4.6,0.3,0.4,2.5,1.8,3.5c-2.5,0.8-3.6,3-2.6,5.7
			c1.7,1.7-2,9.4,0.7,6c0.2,1.8-0.6,5.1-0.7,7.4c-2.4-2.8-0.6,0.5-1.6,2c-1.4-0.8-1.8-2.2-1.9,0.6c-1-1.4-2.3-2.9-0.9,1
			c3.4-0.1,1.2,5.8,2.9,5.4c1.5,1.6-1.1,6.9,0.6,9.1c1.4-5.3-0.6-11.4,2.4-16.3c0.5,1.9,2-1.8,2.7-0.5c-0.1,5.5-0.4,11.1-1.8,16.4
			c-0.9,0.5,0.7-5.4-0.9-7c0.1,2.8-1.8,7.7-0.3,10.1c0.9,4,0.4,8.1-0.1,12.1c-1.2,4-0.6-0.7-0.9-2.2c-1.2-6.7-3.2-13.4-3-20.3
			c-1.2,5-3.2,9.9-4.1,14.9c0.7-0.1,2.2-3.5,1.9,0.3c0.1,8.4,0.5,16.9-0.8,25.3c-1.8,5-0.8-2.4-0.2-4.1c1.5-4.6-1.9,0.5-1.3,2.6
			c-0.2,3.5-1,7.4,0.2,10.7c1.9-3.2,2.3-7.1,3.4-10.7c0.2,3.9,0.4,7.7,0.6,11.6c1.2,4.7,1.5-2.1,1.3-3.5c0-1.5-0.2-3.8,1-1.3
			c3,1.2-1.1,5.5,1.3,4.9c3.1-3.3,1.5,1.3-0.6,2.1c-1.3,1.1-2.9,0.6-4.3,0c-3.1-1.7-9-1.6-9.2-6.1c-2.9,2-9-1-9.5-4.5
			c2.5-1.3,0.1-10.7,2-5.3c1.1-1.1,1-7.5,4.5-8.5c-1.3-3.3,1.6-1.5,3.5-1.1c3.5-0.1,0.6,2.1-1.2,1.8c1.2,0.4,2.5,2.6,0.3,4.5
			c1,1.3,3.7-7.6,5.2-5.1c2.3-1.2,1.4-8.5,0.9-9.1c-0.6,4.6-4,1.1-4.3-1.5c-4.5-1.4,2.6-4.9-1.9-6.2c2.1-1.6,6.5-4.4,7.6-7.7
			c-3.7,1-7.4,2.9-11.4,2.4c-5.1-0.3-11.2,0.8-15.3-3.1c-5.5-2.9,1.3-7,0.2-10.2c-1.3-4.2,3,3.8,4.1,0.1c-1.9-1.6-2.7-4.7-4.1-6.9
			c1.9-0.3,4-0.9,1.2-3.3c-6.1-2.8,0.2-6.8,3.3-8.9c4.3-3.6,1-9.8,3.9-14.1c2.2-4.2,6.9-5.6,9.8-8.7c-1.3,4.3,3.6,2,5.2-1.1
			c4-2.8-0.2,2.4-1,3.8c-2.2,4,0.6,0.2,2.6,0.2c4,1.6-3.2,0.7,0,2.4c3.3-1.5,0.5,3.9,3.1,2.9c-2.2,3.4,4.5,5.6,7.2,5.4
			c-3.9-2.9,3.3-1.1,4.1,0.8c-0.3-0.9-1.3-4.8-4.3-5.8c-4-0.7-4.7-4.3-7.4-6.7c0.6-0.3,3.9,0.4-0.1-1c-0.8-0.7-5.3,1.4-3.5-0.1
			c2.9-1.6,1.2-4.6,5-4.6c2.8-1.9,6.4-3.8,10-2.9c3.4,0.3-2.5,1.5,0.2,1.7c4.5,0.2,9.8,1.5,12.6,5.1c-5-1.4-1.4,4.2,0.7,6
			c3.3,2.5-1.7-0.4-1,2.2c0.9,4.4-3.1,3.6-5.3,1.6c1.4,1.7,3.3,3.1,4,5.2c-3.9-1.1,0.8,4.1,0.9,6.1c-1.7,2.1-5.1-4.4-7.9-3.4
			c1.9,3.7,4.7,8.1,2,12.2c-2.9,0.1,1.3,1.7,0.1,2.1c-2.1,4.4-0.9,9.6-3.1,14c-1.7,3.3-3.4,7.9-6.1,9.9C228.1,91.7,232,88,233,83.1z
			 M220,118.3c1.2-2,1.7-4.2-0.5-5.1c-0.3-3.6-1.2-8.1,0.6-11.2c2.3,3.1,2,7.5,2.3,11.2C222.1,114.7,223.1,119.8,220,118.3z
			 M221.1,122.3c-1.2,5.3-1.8-6.1-0.1-0.7L221.1,122.3z M221.9,126.8c0.2-4.5,0.1,0,1.7,1.2C225.8,130.2,221.4,128.6,221.9,126.8z
			 M230.4,125.9c0.1,4.9-2.9-2.8-0.3-1.5C230.4,124.8,230.4,125.4,230.4,125.9z M229.6,114.9c-1.1,4.6-2.5-1.1-0.3-1.8
			C232.3,112.5,229.8,113.4,229.6,114.9z M229.5,108l-0.1-0.3c-2.4,5.4-1.7-8.5-0.4-2.7C232.2,104.7,230.8,111.2,229.5,108z
			 M231.8,97.2c1.4,2.6,3,5.2,3.1,8.2c-0.2,1.1,0.1,3.3-1.1,3.7C231.5,105.6,231.2,101.2,231.8,97.2z M236.1,125.7
			c2.5-3,2.9-6.6,5.9-8.8c1.5-3.4-0.8,1.2-1.8,0.5c-2.7,2.3-3.7,7.6-7.1,8.3c-2.5-4.1-1.4-10,2.8-12.6c3.1-3.3,7.7-1.5,10.9-3.9
			c-3.4,2.1-0.2,4.6,3.4,5.5c4.4,3.1-3.3,1.9-4.6,4.2c0.6,1.9,6.7-0.6,9.2-0.1c2.8,1,8.2,3.4,7.5,6.6c2.6,0.6,0.8,3-2.3,2.3
			c-3.6,1-8.9-3.6-10.8-1.9c3.5,0,1.4,0.9-0.7,1.2c-2,0.4-2.9,0.6-0.3,0.6c3.5-0.5,6.1,2.7,9.5,1.3c-3.9,2.8,2.9,0.3,2.9,2.6
			c-4,0.9-8.2-0.3-12.1-1.2c-4-1.9-8.3-1.9-12.2,0.1C232,134.5,234.9,127.2,236.1,125.7z M239.7,150.3l-0.2,0.5
			C237.2,153.7,239.9,147.1,239.7,150.3z M241.1,142.6L241,143l-0.3,0.4C237.3,146.4,239.4,140.3,241.1,142.6z M240.2,155.6
			c-2.6-3,1.1-1.9,0.8-4.4c0-4.3,1.6,1.1,1.7,2.6l0.1,0.8l0.1,0.7C244.1,158.5,241.2,157.8,240.2,155.6z M255.4,144.2
			c-2.2-1.8-4,0-6,0.9c-1-3.9-6.7,0-6.6-4c-2.1-1.7-1.4-3.9-4.3-4.4c-4.1-3.8,2.5-5,5.3-5.2c4.7,1.3,9.6,1.9,14.5,1.7
			c4.4-0.5,0.5,1.9-1.6,1.1c-3,0.7-6.8,1.9-9,3.8c-4.6,1,0.1,1.2,2.1,1.3c4.3,0.5,8.7,1.2,12.6,3C260,143,257.9,146.4,255.4,144.2z
			 M234.2,263.2l0.4,0.4C235.6,267.1,231.3,261.4,234.2,263.2z M231.2,220.6c-0.3,0.4-0.6,0.8-1.1,1.1
			C225.9,220.4,232.5,217.9,231.2,220.6z M202.7,189.1c2.6-4.5,8.5-6.4,13.5-5.8c2,1.7,8.1-0.4,6.4,3.7c-1,3.2-4.7-1.7-4,1.4
			c-4.4,0.4-10.1-0.7-13.5,2.9C203.9,194.2,201.7,190.6,202.7,189.1z M218,299.7L218,300C215.8,302.2,216.7,297.8,218,299.7z
			 M212.3,193.3l-0.6,0.6C208.3,195.2,212.8,190.7,212.3,193.3z M209.2,195.7c-0.1,0.6-1.1,0.2-1.3,0.3
			C204.3,195.3,207.7,193.9,209.2,195.7z M208.7,192.5l-0.8,0.3l-0.7,0.2C202.6,193,212.7,190.2,208.7,192.5z M209.2,221.3l-0.1,0.5
			C206.7,224.9,208.9,217.3,209.2,221.3z M209.9,223.9l0.1,0.3l-0.1,0.4C208.5,227.6,208,224.4,209.9,223.9z M204.8,213.4
			c0.8,1.1,0.7,2.6,0.7,3.9C205.6,223.5,202.2,212.7,204.8,213.4z M202.2,209.9c0.6,0.8,0.7,1.9,0.7,2.9
			C202.5,218.6,199.5,209.6,202.2,209.9z M200.6,215.4l0.3,0.4l0.2,0.4c-1.7,2.2-2.6-3.5-2.6-5c-1.4-2.9-1.7-1-1,1.1
			c-2.3,0-2.6-5.4-1.5-7.8C201.4,205.8,199.3,211.6,200.6,215.4z M193.2,201.3c0.7,2.2,3.9-0.4,3.2,0.7c-0.8,1.3-3.1,3.2-4.6,1.9
			c0.4-0.3,2.7-1.2-0.4-2.5C189.1,198.6,192.3,199.2,193.2,201.3z M189.8,188.7c0.5,0.4,0.6,1.1,0.4,1.7
			C188.8,195.9,185.7,185.6,189.8,188.7z M189.7,200.4l-0.2,0.6c-2.9,0.5-3.5-2.7-4.9-3.9C187.5,196,188.1,199.3,189.7,200.4z
			 M166.2,181c-0.8,2,2.1,3,0.5,4.6c-0.6,0.7-1.5,1.6-2.6,1.3C168.1,185.6,161.9,181.8,166.2,181z M156,184.4l-0.1,0.4
			C153.7,187,154.6,182.6,156,184.4z M100.9,237.9c2.7,2.1,4.9,5.9,8.3,6.4c-0.6,3.3,2.5,4.3,4.7,6.1c3.9,2.6-1.2-3.9,1.5-1.3
			c1.7,3.3,5,6,4.5,10.4c-0.3,1,1.6,7.7-0.8,5.6c-3.2-2.8-6.8-5.3-9.5-8.6c-0.1-2.8-2-4.8-4.1-6.5c-1.2-1,1.8,2,2.1,2.8
			c-4.1-2.7-7.8-6.3-11-10C92.9,240.4,98.5,233.1,100.9,237.9z M136.9,283.7c-4.7-1.1-8.1-4.9-12.5-6.7c-8-3.2-16.4-7.2-21.2-14.8
			c-1-1.3-3.7-8.4-3.3-5.6c-2.8,0.5-6.9-3.5-8.7-6.2c-1.9-3,0.4-6.1,2.3-8.4c3.1,3,6.2,6.1,9.4,9.1c7,6.8,14,13.9,22.7,18.5
			c2.7,0.3,1.4,3.8,3.2,3.3c3.4,0.3,8.4,4.9,7.1,8c-3.2-1.4-1.4,0.8,0.4,1.4C136.9,282.8,139.3,283.9,136.9,283.7z M155.9,279.3
			c-1,2.9,4.2,7.5-1.2,6.8c-4.1,0.2-8.5-1.3-12.4,0.3c-1.2,2.8-8.1-2.9-2.2-1.8c4.1,1.2,0.7-2.6-0.6-3.7c-3.4-0.2-0.7-3.1-1.9-5.4
			c-0.7-3.7-2.6-0.2-1.3,1.6c-2,0.9,0.2-5.3-2.3-4.1c-4.5-0.3-7.4-4.6-11.6-5.9c-1.7-3.3-1.9-8.8-1-12.2c1.8,0.6,4.1,9.4,4.1,5.7
			c-1.4-4.6,1.7-1.3,3.8-0.2c2.4,1.6,0.7-0.1-0.4-1.2c-2.7-1.2-1.8-10.1-3.3-4.5c-0.8,3.1-0.3-1.4-0.8-2.3c-2.4,3.1-1.5-2.9-1.2-4.3
			c-0.3-4.6,5.5,1.5,3.8-1.5c-1.1-3.3-4.4-0.1-5.4-2.2c-0.6,1.3,0.7,5.2-0.1,7.4c-1.6-0.4-3.9-2.4-6-3.6c-2.5-1.5-5.5-5.6-6.7-6.4
			c-3.4-1.6-6.2-4.6-8.1-7.8c0.2-2.7,2.5-4.7,4.1-6.8c1-2,1.9,0.9,2.8,1.7c2.3,2.2,2.8,5.9,6.1,7c4.7,2.7-4-2.9,0.5-2.6
			c3.5,2.5,4.5,7.3,5,11.4c0.1,1.1,0.1,4.1,0.2,4.1c0.5-2.3,0.2-4.9,1.4-6.8c2.2,3.4,7.6,0.3,4.2-3c0.3,2.9-2.2,2.1-4.3,0.7
			c-5-2-0.5-7.2-3.8-9.8c2.1-2.9-0.7-1.3-2.2-0.6c-2.2,0.9,3,1.7,3.3,2.9c-2.2-0.7-8.4,0.1-9.7-4.1c-3.7-4.1,3.2-6,4.1-9.5
			c2.2-5.1,7.2-8.4,9.5-13.5c1.9-0.3,4.6-4.4,6.4-7c0.3-1.4-4.9,6.2-5.4,4.1c2.9-5.3,6.4-10.4,10.9-14.5c3.1-1.2,4.4-3.3,7-4.8
			c3.4,0.5,3.1-2.6,6.4-3.5c4.2-1.2-2,3.5,0.3,2.2c2.6-3.1,7.4,2.6,2.4,2.3c-1.4-2.3-5.7,2.7-8,3.6c-2.9,2.6-6.4,4.4-8.9,7.2
			c-5.8,7.5-12.3,14.6-18.8,21.6c-3.4,3.9,1.5,0.2,2.6-1.3c6.8-6.3,11.7-14.3,18.6-20.5c3.5-3.1,7.7-5.2,10.8-8.8
			c2.5-1.9,1.5,0.3-0.1,1.4c3.7,1.6-3,6.2-1.6,3.7c1.7-4.3-3.2,0.7-3.7,2.4c-3.8,0.5-4.3,3.9-4.5,7.4c-0.3,1.9-4.1,8.8-2.6,3.4
			c0.7-2.6,0-1.3-0.9,0.4c-2.1,3.1-2.2,7.3-5.3,9.8c-2.4,2.3,0.5,0.6,1.2,2c-0.1,4.8,1.3-0.9,1.6-1.3c0.9,3.1-1.9,4.9-1.4,7.7
			c1.4-1.4,2.1-3.5,3.2-5.3c0.2,1.9,0.3,3.9,0.5,5.8c0.2,2.3,0.2,2.3,0.3,0c0-3.4,0.3-7,2.7-9.5c-2.1,0-3.1-1-0.4-1.4
			c1.6,2.6,4.4,1.4,3.8-1.4c2.5-2.8-0.5-1.3-1.6,0.2c-2.2-1.2,3.2-4.6,2.2-7.2c2.1,3.3,1.7-0.8,1.8-2.4c1.5,2.9,2.8,0,1.8-2
			c3.6,3.8-2.7,6.4-1.4,10.1c-0.5,4.7,3.8-1.3,0.5-2c2-0.4,3.5-2.9,4.1-5.4c-1.7-4.4,5.1-1.6,1.7,1.2c-1.2,3.2-2.4,7.7-1.9,10.7
			c2-4.2,3.5-8.7,4.3-13.3c-1.8-1.4,0.2-7-0.2-2.8c2.6-0.9,4.6,0.9,4.8,3.7c1.2,3.8-1.4-0.8-1.7,1.8c-0.7,5.4-3,10.5-3.3,15.9
			c1.8-3.7,2.3-8.3,4.4-12c3.3-3.1,1.1-7,2.1-10.4c-0.4,1.9,2.4,2.5,3.4,3.7c-1.1,5.6-5.5,10.4-4.6,16.4c2-2.4,2.8-7.5,4.2-10.9
			c0-2,4.7-8.3,0.7-6.9c-1.2-4.2,7,1,8.5-2c0.8-3.9-4.7,2-3.3-0.7c3.2-2.9,9.3-1.6,12.9,0.3c-1.4,1.9-0.1,2,1.9,1.1
			c2.8-2.3,1.9,0.6,2.9,2.4c2.2,1.8,3.8,5.4,7.1,6.4c4.2,4.1,6.4,10.1,11.4,13.5c-1-3.4,1.3-0.8,0.8,1.1c1.8,4.9,6.8,7.8,9.5,12.3
			c-2-1-3.1,2.4-1.6,3.8c-4.4-0.7-8.8-1.4-13.3-1c-8.3,0.4-16.4,3.1-23.6,7.1c-4,1.7-8.4,2-12.4,3.7c-4.8,1.9-10.1,2-15.1,0.5
			c-4.4-2.6-0.1,6-3.3,2.7c-1.9-2.6-1.4,0.8-2.1,1.2c-1.9-3.9-0.5,3.2-3.8,0.8c-1.3-0.1-8.1-3.5-4.9-0.4c3.4,1.4,7.3,2.6,6,7.2
			c0.2,3.9,1.7-0.3,1.3-1.9c0.9-4.7,2.3,3.3,1.4,4.9c-2.1,1.1,0.9,8.3,1.9,3.1c-0.4,3.6,2.7,1,4.1,0c2.8-3.4,4,1,2.4,3.3
			c-1.7,2.6,1.2,4.1,1.9,0.8c0.3-3.7,3.1-8.1,7.3-7.1c0.6,2.1-0.2,4.3-0.4,6.5c-0.6-0.5-1.1-1.1-1.3-1.8
			C155.6,270.1,155.9,274.8,155.9,279.3z M140.4,195.5l-0.2,0.5C137.9,198.9,140.6,192.4,140.4,195.5z M134.3,209.3
			c-1.2,3.1-2.4-3.4,1.1-1.7C138.3,209.1,134.3,208.7,134.3,209.3z M131.2,212.8l-0.1,0.4C128.9,215.3,129.8,210.9,131.2,212.8z
			 M168,262.9c0.6,0.5,1.5,2.1,2-0.8c3.7-3.6,2.4,3.4,1.2,5.1l-0.3,0.7l-0.4,0.7C167.2,273.6,168.1,265,168,262.9z M167.7,258.6
			c-0.7,0.7-1.7,1-2.6,1.3c-4.1,1.4-3.1-3.7-2.5-6.5c-1.5-3.8,2-2,2.5,0.5c0.2-0.7,3.2-2.1,2.6-4.3c2.2,0.4,0.6,3.8,2.4,5.2
			C168,253.1,168.6,255.9,167.7,258.6z M166.2,269.2c-2.2,0.9-5.5,0.3-7.4-1.3c0.9-2.1,1.4-4.7,3.5-5.9c3.8-2.8,5.2,1.2,5,4.5
			C164.9,264,166.6,267.6,166.2,269.2z M161.3,249.1l-0.1,0.4C159,251.7,159.9,247.3,161.3,249.1z M146.2,263.3l-0.1,0.4
			C144,265.9,144.9,261.5,146.2,263.3z M190.4,348.3c-3.1,0.5-1.8-1.2,0.3-0.4C191.5,348,190.6,348.5,190.4,348.3z M191.5,346.2
			c-3.5,1.2-6.9-1-10-2.3c1.2-0.9,3.7-4.3,4.5-2.4c-4.5,4,4.5,2.7,5.9,4.3L191.5,346.2z M199.2,342.2c-3.9-1-8.2-1.3-12-2.4
			c1.1-5,7.2-6.6,11.7-6.9c6-0.9,3.1,5.5,2.4,8.7C200.9,342.4,199.8,342.1,199.2,342.2z M203.6,353.8c-2.8,3.8-2.2-3.5,0.8-2.5
			C204.7,352.2,204,353.1,203.6,353.8z M174,281.6c-4.3,2.4-8.1-0.6-12.5-0.5c-1.1-0.3-3.5,0.6-3.8-0.6c0.2-3.2-0.9-7.7,2.8-9.1
			c3.4-2.2,3.1,2.2,4.9,2.3c3-3.7,3.2,1.1,1.4,3.1c-2.4,4.6,2-0.5,2.1-2.4c2.2-3.6,7.5-2.6,10.7-5c4.8-2.6-2.4-1.6-4.1-0.7
			c-4,2.3-3.8-1.9-2.3-4.6c-0.5-2.6,5.2-6.4,2.1-7.5c-3.3,2.8-5.4-0.2-3.2-3.6c0.3-3.6,8.8-3.3,6.1-6.3c2.7-0.3,4.5,3.7,4.7,6.1
			c2.5,3.6-1.9,3.7-4.4,3.9c-2.3,0.2,1.7,0.2,2.4,0.2c5.8,1.7,3.1-4.1,2.6-7.3c2.7-1.4,3.3,4.8,2.7,6.9c-1.4,2.4,1.1,4.4,2.4,6.1
			c-0.1-0.6-3.2-5.8,0.2-2.4c0.6-1.5,5.4-4.1,7.5-1.6c1.8-3,7.9,0.8,8.6-2.5c-5.1-0.5-10.2,0.1-15.2,0.2c-0.9-1.7-1.7-3.5-2.8-5.2
			c-0.4-2.1-6.9-4.1-4.1-5.3c2.1-1.3,4.4-1.8,7-0.2c3.1,0.6,7.7,3.8,10,0.9c1.2,2,5.3,1.1,8,0c-4.8-1.2-10-0.7-14.9-1.4
			c-1.5,0.3-8.5-1.6-4.4-2.3c0.7-2,3-0.6,3.6-2.2c1.7-1.7,5.9-2.4,8.2-4.1c3.4-1.2,7.6,1,11,2.2c4,2,2,6.8-0.3,8.8
			c1.2,1.4,2.8,2.4,1.9,5.1c-2.9,1.1-4.2,4.6-3.5,7.9c-1.9,2.9-1.3,7.5-5.5,8.8c-3.9-0.9-7.9-1.1-12.2-0.5c-2.1-0.8-9.7-2.3-8.8,0.6
			c4.2,1.5,8.8,1,13.2,1.3c4.2,0.1,8.1,2.4,12.1-0.1c3.6,0.6,3,9.9-1.6,10C196,281.9,184.9,279.3,174,281.6z M212.7,307.3l-0.1,0.5
			l-0.2,0.5C209.7,311.3,212.1,302.3,212.7,307.3z M212.4,302.9c0.1,0.4,0,0.9-0.3,1.2C209.5,303.8,211.9,298.4,212.4,302.9z
			 M209.8,308.2c-2.9,1.6-0.6-4.9,0.3-0.9l-0.1,0.5L209.8,308.2z M206.2,308c0.6-4,1.3,0.3,2.6,1.3l0.5,0.5l0.4,0.7
			C210.7,316,206.6,310,206.2,308z M207.6,304.6c-3.2-2.7,1.7-3.6,2.5-0.5C209.7,305.1,208.3,304.9,207.6,304.6z M209.1,298.8
			l0.4,0.4C211.5,304,204.8,296.9,209.1,298.8z M209.7,295.5l0.2,0.3l0.1,0.4C210,300.5,207,294.3,209.7,295.5z M207.3,367.5
			l-0.3,0.3c-3.5,1.6-0.5-3.4,0.4-0.6L207.3,367.5z M215.2,348.3c3.6,0.6,4.6,3.3,7.8,4.3c5.1-0.9,0.8,3.4-1.5,4.1
			c-3,3.5-9.2,2.3-9.6-2.5c2.5-3.5-2.1-0.3-1.8-3.1c-3.7,0.3-3.6-3.8-4.5-6.3c-0.8-9-0.4-18.1-0.5-27.1c0.1-1.2-0.5-4.1,1.1-1.9
			c3.7,3.2-0.3-0.7-1-2.7c-1.5-4.1,2.6-1.8,3.3,0.4c1.9,2.9,4.8,5.8,5.4,9.3c-2.4-0.5-3.9-3.1-5.7-4.7c1.1,1.8,2.2,3.5,3.2,5.3
			c1,3.4,2.5,5.4,1.2,9.1c-0.5,3.7-2.5,7.2-1.8,11.4c1.5,2.2-4.3,4.4-1.4,4.9C211.1,348.8,218.2,344.9,215.2,348.3z M213.4,318.6
			c-3.4-1.6,0.7-4.3,1.1-1C214.5,318.5,214.5,319.9,213.4,318.6z M215.3,313c-0.1,4.9-3-2.8-0.2-1.5
			C215.3,311.9,215.3,312.5,215.3,313z M219.3,315.1c-0.3,0.8-0.4,2.4-1.6,2.1c-3.7-0.8-0.7-3.3,1.1-3.2
			C218.9,310.8,220.2,313.4,219.3,315.1z M219.7,193.8c-2.2,1.5-0.8-3.9,0.1-0.9L219.7,193.8z M223.6,276.7
			c-2.2,5.7-4.2-4.2-1.6-4.3C221.3,274.7,224,274.6,223.6,276.7z M223.8,246l-0.4,0.2c-3.4,1.9,0.5-2.9,1-0.3L223.8,246z M226.2,284
			c-2.1-2.7,0.8-1.4,1.6,0.3C227.8,285.3,226.4,284.4,226.2,284z M232.1,231.9c3.3,2.8-2.9,0.4-1.3,3c1.7,4.6-2.8-1.2-3-2
			C229.1,233.6,230.6,231.7,232.1,231.9z M232.3,266.3c1.5,4.8-0.9,1-1.7-0.2C228.6,262.7,232.2,263.5,232.3,266.3z M232.3,271.3
			c2-3.8,1.2,1.3,2.7,2.9c1.4,2.8-1.7,4.7-0.9,0.8c-0.3-3.7-2.8-0.8-1.8,1.4l-0.1,0.4l-0.2,0.4C228.9,277.5,231.8,272.8,232.3,271.3
			z M233.7,282.5c-1.2-1.6-2-2.2-1.2,0.2c0.3,0.9,0.4,3.2-0.7,1c-3.5-3.8,2-4.5,3.7-1.3C237.9,285,234.7,284.4,233.7,282.5z
			 M237.8,247.1c1.3-2,4.8-1.1,1.8,0.7l-0.9,0.2C237.1,250.6,235.5,246.5,237.8,247.1z M261.7,257.5l0.2,0.6c-2.1,2.8-3-2.3,0.2-2.3
			C264.9,258,260.7,255.5,261.7,257.5z M263.3,260.2l-0.4,0.4l-0.4,0.2C259.4,262.3,261.2,258.3,263.3,260.2z M259,270.6
			c-3.1,5.2-3.6-3.5-3.2-4.9c1.1,2.5,2.9,0,3.7,2.5C261.3,270.6,258.7,269.2,259,270.6z M257.2,261.9l0.3,0.7
			C258.3,267,254.7,258.4,257.2,261.9z M256.5,237.4c1.6-0.2,0.2-3.3,1.5-1.7C259.9,236.7,257.2,239.7,256.5,237.4z M256.7,245.9
			c1.2,3.4-2.7-2.3-0.4-0.5L256.7,245.9z M255.6,233.6l-0.2,0.5C253.2,237,255.9,230.5,255.6,233.6z M255.3,263.6
			c-0.1,2.1-1.5-1.4-1.6-1.7C251.8,258.3,255,262,255.3,263.6z M255.3,272.2c-1.6,3.1-5.1-2.4-4.1-4.5
			C252.5,262.2,254.8,270.1,255.3,272.2z M249.1,226.1c1.3,0.4,1.7-3,2.8-1.7C252.7,226.8,247.1,230.9,249.1,226.1z M249.2,220.6
			l0.4,0.4C250.6,224.6,246.3,218.9,249.2,220.6z M249.4,244.2c2.4,1.1-1.1,0.6-1.3,1.4L248,246l-0.4,0.3
			C243,247.7,246.9,243.3,249.4,244.2z M246.4,236.3l0.4,0.6C246.4,239.8,243,233,246.4,236.3z M245,239.1c0.6,1.4,0.3,3.1-1.1,1
			C240.1,241.3,243.7,235.7,245,239.1z M242,275.8c-0.8,2.6-2.6-1.4-2.9-2.4C238.3,268.9,240.6,275,242,275.8z M240.4,269.4l0.4,0.4
			C241.8,273.3,237.5,267.6,240.4,269.4z M242.9,249.6l-0.4,0.4C239.3,252.2,241.5,246.9,242.9,249.6z M240.3,234.7
			c-4-3.6,1.7-1.8,2.5,0.6C242.7,236.8,240.8,235.1,240.3,234.7z M237.6,221.6c1.6-2.4,2.6,0.8,3.7,2
			C245.9,227.1,237.9,222.9,237.6,221.6z M240.2,231.1c-0.1,1-1.3-0.3-1.7-0.5C235,228.2,238.8,229.5,240.2,231.1z M239.6,282
			l0.1,0.6l0,0.5C236.9,285.9,237.6,276.7,239.6,282z M242,282.7c-4-0.3,0-5.5,1.3-1.6C243.3,281.9,242.7,282.6,242,282.7z
			 M245.9,262.8c1.1-3.8-1,0.3-2.1-0.1c1.3-4,5.9-3.9,6.8,0.3c-0.3,4.5-2.9-5.1-3.1-0.4C248,265.1,244.6,266.4,245.9,262.8z
			 M248,279.5c-1.4,3.1-1.9-0.2,0-0.7l0.1,0.3L248,279.5z M247.2,271.8c0.6-0.7,0.7-5.8,1.6-4.5c1.4,1.3,3,8.4,1,5.1
			c-0.3-0.6-0.7-1.6-1-2C248,272.2,246,276.2,247.2,271.8z M260.2,280.2l-0.6,0.6C256.2,282.1,260.7,277.5,260.2,280.2z
			 M261.3,277.3c-3.6-0.2-3.5,4.4-6.1,4.6c-0.9-1.2-1.4-3.9-2.1-0.5c-0.2,1.2-2.1,1.8-3,1c-0.2-1.6,2.8-1.5-0.1-2.8
			c-3-2.7,1.6-7.2,2.6-2.3c0.5,3.1,0.7-0.2,1.3-1.5c1.7-5,3.4,4.3,3.1-0.2c-0.6-4.7,3.4,0,4.2-0.6
			C258.5,269.1,266,276.7,261.3,277.3z M264.5,263.8l0.1,0.5C262.2,267.6,263,260,264.5,263.8z M266,212.8c-1.5,0.4,0.9,4.7-0.2,7
			c-0.6,4.5-0.6,9.1-1.2,13.6c-3.5,0.8-0.2,1.7-0.5,4.3c0,0.8,0,1.6-0.4,2.4c-2.3-1.6-3.1-6.2-4.4-9.1c0.1-3.9-4.5-5.4-4.4-8.7
			c-2.6-4.2-5.4-8.3-8.1-12.4c-4.2-5.9-7.4-12.4-11.5-18.4c2.8-2.3,7.7-3.1,10.9-5.8c4.5-2.3,9.3,2,12.3,5c3.8,3.8,0-2,0.6-3.2
			c2.2,1.6,3.3,4.1,4.9,6.2c0-3.2,0.1-6.4-1.4-9.3c-3.3-3.4,3.5-3.5,3.6-0.6c-2.3,3.9,0.7,7.8,0.9,11.8
			C267.4,201.4,267.3,207.2,266,212.8z M282.9,231.7c0.2,0.9,0.1,1.9,0,2.8c-0.9,4.6-2.5-1.2-2.1-2.9
			C280,228.1,282.9,229,282.9,231.7z M271.2,220.4c-0.2,3.7-2,1.9-1.8-0.5C269,216.7,271.7,217.9,271.2,220.4z M298.1,267.8
			c-3.4-2-5.8-5.4-7.9-8.6c-0.6-4.1,0.8,1.5,2.5,1.2c0.3,0.8,2.7,2.5,3.7,3.4c2.3-4.3,0.1,1.1,1.6,2.8
			C298.2,266.9,298.8,267.8,298.1,267.8z M306.4,266.7l0.1,0.5l0.1,0.7C306.5,272.1,305.2,266.8,306.4,266.7z M308.8,269.1
			c-0.1,0.7-0.3,1.3-0.5,2C306.1,274.7,309.7,263.3,308.8,269.1z M311.7,270.3l0.1,0.5C312.1,274.8,310.4,270.4,311.7,270.3z
			 M314,271.3l0.2,0.7C313.9,275.7,312.1,266.8,314,271.3z"/>
		<path d="M200,319.7C197.5,315.2,199.7,324.3,200,319.7z"/>
		<path d="M200,310.8C197.6,308.8,197.8,314.3,200,310.8z"/>
		<path d="M200,309.5C197.1,306.6,199.9,312.5,200,309.5z"/>
		<path d="M200,304.6C198.1,300.8,197.8,309.5,200,304.6z"/>
		<path d="M200,305.1C198.4,301.4,197.1,308.4,200,305.1z"/>
		<path d="M200,294.4C197.1,291.5,199.9,297.5,200,294.4z"/>
		<path d="M200,290.4C196.7,288.3,197.3,293.4,200,290.4z"/>
		<path d="M199.8,255.4C200.4,251.2,200.4,259.6,199.8,255.4L199.8,255.4z"/>
		<path d="M200,239.1C201,234.2,200.7,242.9,200,239.1z"/>
		<path d="M200,234.1C200.6,227.8,200.5,240.2,200,234.1z"/>
		<path d="M200,227.6C201,222.7,200.7,231.4,200,227.6z"/>
		<path d="M199.8,220.8C200.4,216.6,200.4,225,199.8,220.8L199.8,220.8z"/>
		<path d="M200,218.7C201,213.8,200.7,222.5,200,218.7z"/>
		<path d="M200.4,284.2C198.1,280.9,201.1,288.2,200.4,284.2L200.4,284.2z"/>
		<path d="M199.8,264.3C200.4,260.1,200.4,268.5,199.8,264.3L199.8,264.3z"/>
		<path d="M200,252.8C202.3,247.9,200.8,255.9,200,252.8z"/>
		<path d="M200,282C197.1,279.1,199.9,285,200,282z"/>
		<path d="M200,278.1C197.6,275.3,195.5,279.4,200,278.1z"/>
		<path d="M200,274.3C198.3,275.6,201,277.9,200,274.3z"/>
		<path d="M200,274.9C197.1,272,199.9,277.9,200,274.9z"/>
		<path d="M200,271.4C197.1,268.5,199.9,274.4,200,271.4z"/>
		<path d="M200,270.9C197.5,266,199.5,275.3,200,270.9z"/>
		<path d="M200,266.3C198.3,267.6,201,269.9,200,266.3z"/>
		<path d="M200.5,267.5C196.7,264.3,202.2,271.2,200.5,267.5L200.5,267.5z"/>
		<path d="M200,266C198.4,262.4,197.1,269.4,200,266z"/>
		<path d="M200,264.3C198.1,261.2,198.8,266.9,200,264.3z"/>
		<path d="M200,262.5C198.4,258.9,197.1,265.9,200,262.5z"/>
		<path d="M200,256.7C197.6,254.7,197.8,260.2,200,256.7z"/>
		<path d="M200,251.4C197.5,247,199.7,256,200,251.4z"/>
		<path d="M200.8,250.9C201.8,246.9,196.5,254.3,200.8,250.9L200.8,250.9z"/>
		<path d="M200,245.7C197.1,242.8,199.9,248.7,200,245.7z"/>
		<path d="M200,240.6C198.3,241.9,201,244.2,200,240.6z"/>
		<path d="M200.4,241.6C198.1,238.3,201.1,245.6,200.4,241.6L200.4,241.6z"/>
		<path d="M200,242.1C197.1,239.2,199.9,245.1,200,242.1z"/>
		<path d="M200.4,239.9C198.1,236.5,201.1,243.8,200.4,239.9L200.4,239.9z"/>
		<path d="M200,239.4C198.1,236.3,198.8,242.1,200,239.4z"/>
		<path d="M200,227C198.1,223.9,198.8,229.7,200,227z"/>
		<path d="M200,223.5C198.1,220.4,198.8,226.1,200,223.5z"/>
		<path d="M200,223.5C197.1,220.6,199.9,226.5,200,223.5z"/>
		<path d="M200.4,220C198.6,215.7,200.2,224.9,200.4,220L200.4,220z"/>
		<path d="M200,219.9C197.1,217.1,199.9,223,200,219.9z"/>
		<path d="M200,217.3C197.1,214.4,199.9,220.3,200,217.3z"/>
		<path d="M200,216C198,213.5,195.9,216.5,200,216z"/>
		<path d="M200.4,207.1C198.1,203.7,201.1,211,200.4,207.1L200.4,207.1z"/>
		<path d="M200,206.6C195.9,202.9,199.9,210.2,200,206.6z"/>
		<path d="M200,201.7C197.6,199.7,197.8,205.2,200,201.7z"/>
		<path d="M200,199.1C198.1,195.3,197.8,204,200,199.1z"/>
		<path d="M200,191.9C195.6,191,200.9,193.7,200,191.9z"/>
		<path d="M200,164.4C195.6,163.5,200.9,166.2,200,164.4z"/>
		<path d="M200,155.1C197.6,153.1,197.4,158.3,200,155.1z"/>
		<path d="M200,76.8C201,72,200.7,80.7,200,76.8z"/>
		<path d="M200,139.3C198.4,135.7,197.1,142.7,200,139.3z"/>
		<path d="M200,137.5C198.4,133.9,197.1,140.9,200,137.5z"/>
		<path d="M200,131.3C198.1,128.2,198.8,133.9,200,131.3z"/>
		<path d="M200,129.8C198.3,131.1,201,133.4,200,129.8z"/>
		<path d="M200,123.7C203.2,122.7,202.2,125.4,200,123.7z"/>
		<path d="M200,129C195,125.7,202.6,133,200,129z"/>
		<path d="M200,128.6C198.4,125,197.1,132,200,128.6z"/>
		<path d="M200,121.8C198.3,123.1,201,125.4,200,121.8z"/>
		<path d="M200,120.9C198.3,122.2,201,124.5,200,120.9z"/>
		<path d="M200,119.3C197.5,114.3,199.5,123.7,200,119.3z"/>
		<path d="M200,118.9C195.9,115.2,199.9,122.4,200,118.9z"/>
		<path d="M200,111.1C198.3,112.4,201,114.7,200,111.1z"/>
		<path d="M200,106.7C198.3,108,201,110.3,200,106.7z"/>
		<path d="M200,103.2C198.3,104.5,201,106.8,200,103.2z"/>
		<path d="M200.4,103.3C198.1,100,201.1,107.3,200.4,103.3L200.4,103.3z"/>
		<path d="M200,101.4C198.3,102.7,201,105,200,101.4z"/>
		<path d="M200,80.4C201,75.5,200.7,84.2,200,80.4z"/>
		<path d="M199.8,78.1C200.4,73.9,200.4,82.3,199.8,78.1L199.8,78.1z"/>
		<path d="M199.8,77.2C200.4,73,200.4,81.4,199.8,77.2L199.8,77.2z"/>
		<path d="M200,95.2C198.3,96.5,201,98.8,200,95.2z"/>
		<path d="M200,85.1C197.7,81.9,197.9,89.8,200,85.1z"/>
		<path d="M200,72.1C198.3,73.4,201,75.7,200,72.1z"/>
		<path d="M200,60.6C198.3,61.9,201,64.2,200,60.6z"/>
		<path d="M200,50.9C195.6,50,200.9,52.7,200,50.9z"/>
		<path d="M200,34C195.6,33.2,200.9,35.9,200,34z"/>
		<path d="M200,32.3C195.6,31.4,200.9,34.1,200,32.3z"/>
		<path d="M200,290.3C203.2,289.3,202.2,292.1,200,290.3z"/>
		<path d="M199.8,204.9C200.4,200.7,200.4,209.1,199.8,204.9L199.8,204.9z"/>
		<path d="M199.8,196.4C200.3,191.1,200.5,201.1,199.8,196.4L199.8,196.4z"/>
		<path d="M200,182.7C201.6,179.1,202.9,186.1,200,182.7z"/>
		<path d="M200,163.1C204.5,160.5,198.2,165.9,200,163.1z"/>
		<path d="M200,161.5C201.1,158.2,203.1,163.5,200,161.5z"/>
		<path d="M200,161.9C201.8,158.7,202.4,163.6,200,161.9z"/>
		<path d="M200,147.6C203.2,146.6,202.2,149.3,200,147.6z"/>
		<path d="M199.8,104.7C200.4,100.5,200.4,108.9,199.8,104.7L199.8,104.7z"/>
		<path d="M200,99.4C195.9,95.7,199.9,102.9,200,99.4z"/>
		<path d="M199.8,41.3C200.3,36,200.5,46,199.8,41.3L199.8,41.3z"/>
		<path d="M200,42.3C201,37.4,200.7,46.1,200,42.3z"/>
		<path d="M200,39.6C201,34.7,200.7,43.4,200,39.6z"/>
	</g>
</g>
</svg>
