<?xml version="1.0" standalone="no"?>
<!DOCTYPE svg PUBLIC "-//W3C//DTD SVG 20010904//EN"
 "http://www.w3.org/TR/2001/REC-SVG-20010904/DTD/svg10.dtd">
<svg version="1.0" xmlns="http://www.w3.org/2000/svg"
 width="400.000000pt" height="400.000000pt" viewBox="0 0 400.000000 400.000000"
 preserveAspectRatio="xMidYMid meet">

<g transform="translate(0.000000,400.000000) scale(0.100000,-0.100000)"
fill="#000000" stroke="none">
<path d="M2514 3808 c-4 -7 -16 -64 -25 -127 -12 -72 -25 -125 -37 -141 -10
-14 -51 -41 -91 -60 -79 -38 -105 -70 -99 -118 l4 -27 22 37 c24 39 86 68 144
68 34 0 46 -23 24 -45 -9 -9 -16 -20 -16 -24 0 -11 -50 -32 -60 -26 -11 6 -57
-31 -48 -40 3 -3 27 1 52 9 64 22 119 21 140 -3 30 -33 46 -109 46 -216 0
-237 -98 -370 -269 -365 -31 1 -73 2 -93 3 -24 1 -48 -7 -68 -21 -25 -19 -28
-20 -23 -5 3 10 9 23 13 28 14 20 19 72 7 84 -8 8 -8 11 0 11 19 0 7 80 -21
148 -14 34 -25 65 -24 69 0 5 -2 16 -7 26 -4 11 -3 23 4 30 6 6 11 18 11 26 0
8 10 26 23 39 14 16 17 23 7 20 -8 -2 -25 -24 -37 -49 -12 -24 -27 -43 -32
-42 -6 2 -11 -2 -11 -7 0 -6 5 -10 10 -10 6 0 10 -7 10 -15 0 -9 11 -43 25
-76 20 -46 25 -73 23 -123 -2 -35 -6 -62 -10 -60 -4 3 -14 -10 -22 -28 -10
-23 -15 -27 -15 -14 -1 26 -33 96 -44 96 -4 0 -7 -3 -5 -7 35 -73 51 -137 43
-164 -8 -25 -43 -69 -56 -69 -3 0 -10 28 -13 63 -4 34 -11 69 -15 76 -11 17
-34 4 -27 -15 3 -7 -3 -18 -14 -24 -17 -9 -18 -7 -10 20 15 51 -6 42 -35 -15
-15 -31 -25 -64 -22 -75 8 -30 -11 -35 -25 -5 -9 19 -9 40 0 87 14 74 9 86 -9
23 -16 -53 -26 -57 -40 -15 -6 17 -14 30 -18 30 -4 0 -7 8 -8 18 -9 119 -9
142 -1 142 5 0 8 5 6 12 -3 7 6 28 20 48 13 19 26 47 29 62 3 17 10 25 17 21
6 -4 5 0 -2 9 -7 9 -12 22 -11 30 3 25 -1 48 -9 48 -4 0 -6 -18 -4 -40 4 -43
-6 -76 -47 -149 -13 -24 -26 -60 -27 -80 -3 -35 12 -167 23 -205 5 -18 4 -18
-24 2 -29 20 -30 21 -60 3 -43 -27 -102 -103 -143 -184 -38 -76 -60 -95 -60
-53 0 14 -4 26 -10 26 -5 0 -10 7 -10 15 0 8 -23 36 -51 62 -66 63 -136 160
-161 225 -11 30 -21 89 -25 147 l-6 96 21 -25 c17 -21 19 -28 9 -45 -17 -27
-10 -78 9 -71 19 7 18 -8 -1 -24 -11 -9 -12 -16 -5 -25 5 -6 7 -15 3 -19 -4
-4 0 -4 10 0 10 3 17 1 17 -6 0 -6 4 -9 8 -6 12 7 38 -12 29 -21 -5 -4 -13 -1
-18 7 -8 12 -10 10 -6 -7 4 -16 0 -23 -10 -23 -8 0 -11 -5 -8 -10 4 -6 10 -8
15 -5 5 3 15 -3 22 -15 15 -24 28 -26 28 -5 0 8 -7 15 -15 15 -19 0 -19 16 0
24 18 6 30 -32 20 -62 -7 -23 13 -41 25 -23 5 8 18 2 43 -20 41 -36 46 -49 20
-44 -11 1 -17 9 -15 20 2 9 -1 14 -6 11 -5 -3 -9 -17 -9 -31 0 -19 4 -25 14
-20 11 3 13 1 10 -10 -4 -8 -2 -17 4 -20 5 -4 12 1 15 9 9 22 23 20 21 -3 0
-11 -6 -17 -12 -13 -5 3 -2 -5 8 -18 10 -14 24 -38 32 -55 13 -28 19 -22 16
18 -1 9 2 17 7 17 6 0 20 29 33 65 12 36 27 65 32 65 5 0 6 7 3 16 -3 9 -2 12
5 9 6 -4 18 0 27 8 9 9 29 19 45 22 15 4 27 11 27 16 0 15 -22 10 -75 -14 -39
-19 -56 -22 -77 -15 -16 6 -28 15 -28 21 0 8 -3 8 -8 -1 -10 -15 -91 67 -134
135 -30 47 -88 228 -88 273 0 35 26 99 52 127 23 25 111 58 133 49 23 -8 26 9
4 27 -15 14 -24 15 -37 7 -16 -11 -16 -11 1 -6 9 3 17 2 17 -3 0 -9 -99 -31
-142 -31 -15 0 -28 -5 -28 -11 0 -6 -7 -8 -16 -5 -13 5 -15 1 -12 -19 3 -13 1
-22 -3 -19 -5 3 -9 -1 -10 -8 0 -7 -2 -22 -4 -33 -2 -11 0 -22 5 -25 4 -3 6
-17 3 -32 -3 -15 -9 -25 -14 -23 -4 3 -6 12 -2 20 3 9 -1 15 -8 15 -9 0 -10 3
-4 8 14 10 14 65 1 74 -8 5 -7 8 2 8 6 0 12 6 12 13 0 22 39 57 64 57 16 0 27
10 39 35 20 42 51 63 97 66 36 2 120 -33 120 -51 0 -6 5 -10 10 -10 15 0 12
43 -5 67 -32 46 -91 71 -172 72 -68 2 -156 126 -170 241 -5 45 -23 64 -23 24
0 -16 4 -47 9 -69 36 -162 34 -266 -8 -475 -13 -63 -5 -281 13 -368 21 -99 57
-161 154 -263 45 -48 82 -88 82 -90 0 -2 -33 -2 -72 1 -40 3 -89 5 -108 4 -49
-2 -151 -23 -174 -36 -16 -9 -18 -7 -13 12 5 18 3 19 -11 8 -14 -11 -15 -10
-9 6 5 12 2 25 -8 36 -9 10 -17 32 -17 49 -1 25 -4 29 -15 20 -7 -6 -13 -18
-13 -27 0 -13 -3 -12 -20 3 -11 10 -20 26 -20 35 0 9 -4 20 -9 26 -15 16 -40
104 -34 119 3 10 -1 15 -11 15 -25 0 -30 -25 -10 -55 9 -14 17 -33 18 -43 1
-9 10 -35 19 -56 10 -22 18 -50 20 -64 1 -21 5 -23 31 -18 22 5 27 3 19 -5 -6
-6 -26 -12 -44 -15 -19 -2 -43 -6 -54 -9 -12 -4 -28 1 -40 12 -34 32 -114 84
-146 95 -22 7 -32 18 -36 41 -5 26 -8 28 -18 14 -9 -12 -14 -14 -23 -5 -9 9
-12 7 -13 -7 0 -17 -1 -17 -10 3 -5 15 -5 30 1 42 14 27 12 34 -5 20 -8 -7
-15 -19 -15 -27 0 -8 -5 -11 -10 -8 -10 6 -8 21 8 65 5 13 3 13 -11 1 -9 -7
-17 -27 -17 -43 0 -17 -4 -27 -10 -23 -14 9 -12 35 4 68 12 22 12 27 1 27 -16
0 -26 -24 -30 -76 -3 -39 -2 -41 43 -62 26 -12 51 -22 55 -22 5 0 33 -11 63
-25 30 -14 57 -25 60 -25 11 0 101 -66 143 -105 41 -38 87 -53 102 -32 3 4 22
-4 43 -18 20 -14 40 -25 44 -25 4 0 13 -9 20 -20 11 -18 10 -21 -12 -30 -30
-11 -43 -30 -16 -23 39 10 65 -5 92 -56 27 -48 27 -49 7 -66 -21 -20 -26 -41
-6 -28 22 14 42 8 69 -18 44 -45 63 -78 49 -92 -17 -17 -13 -31 6 -16 19 17
19 17 46 -14 12 -13 30 -27 41 -31 13 -4 17 -13 13 -31 -4 -24 -2 -25 33 -21
21 2 58 -3 84 -11 42 -14 46 -18 46 -47 0 -17 3 -41 6 -53 7 -27 67 -57 101
-50 24 4 25 3 19 -37 -4 -22 -11 -45 -16 -50 -6 -6 -39 -10 -75 -10 -60 -1
-67 -3 -100 -37 -20 -19 -37 -45 -38 -57 -1 -12 -4 -22 -8 -22 -4 0 -10 -17
-14 -39 l-6 -38 -42 8 c-23 4 -45 5 -49 3 -4 -2 -9 0 -13 6 -3 5 -13 10 -21
10 -8 0 -12 -4 -9 -10 3 -5 2 -10 -2 -10 -5 0 -14 -14 -21 -32 -6 -17 -15 -29
-18 -25 -4 4 -1 14 7 24 8 10 -1 6 -18 -9 -18 -15 -42 -30 -53 -33 -15 -5 -18
-10 -11 -19 15 -17 -23 -78 -44 -70 -8 4 -15 1 -15 -5 0 -6 5 -11 11 -11 6 0
9 -7 6 -15 -4 -8 -3 -16 1 -19 4 -3 9 4 9 15 1 10 8 25 15 32 7 8 22 30 33 50
10 20 25 39 33 42 8 3 5 -6 -7 -21 -12 -15 -21 -31 -21 -36 0 -5 -7 -16 -16
-25 -8 -9 -13 -22 -10 -29 3 -8 1 -14 -4 -14 -6 0 -10 -7 -10 -16 0 -15 -22
-44 -34 -44 -3 0 -3 7 0 15 7 17 -9 19 -41 5 -18 -8 -17 -10 13 -21 37 -15 42
-27 10 -27 -13 0 -41 -6 -62 -15 -35 -13 -37 -15 -18 -21 12 -4 22 -15 22 -24
0 -19 -63 -92 -79 -92 -6 0 -11 -7 -11 -15 0 -9 6 -12 15 -9 19 8 19 -4 0 -36
-8 -14 -14 -19 -15 -12 0 7 -5 10 -10 7 -6 -4 -8 -10 -5 -15 3 -5 1 -11 -5
-15 -5 -3 -10 3 -10 14 0 12 -5 21 -10 21 -6 0 -10 -6 -9 -12 0 -7 -2 -24 -6
-36 -6 -18 -10 -20 -16 -10 -7 10 -9 11 -9 0 0 -7 -4 -10 -10 -7 -5 3 -10 1
-10 -4 0 -6 -6 -11 -13 -11 -7 0 -23 -9 -35 -20 -12 -11 -26 -20 -32 -20 -5 0
-10 -7 -10 -15 0 -8 -3 -14 -7 -13 -18 3 -129 -59 -121 -68 3 -2 26 7 51 21
l47 24 0 -66 c0 -90 17 -72 19 20 1 30 8 45 37 72 19 19 49 37 65 40 16 4 29
11 29 16 0 5 8 9 19 9 10 0 30 11 45 25 15 14 32 25 37 25 6 0 7 4 4 10 -3 5
3 15 15 22 24 16 26 28 3 28 -9 0 -14 3 -10 6 14 15 47 -9 48 -34 l1 -27 13
30 c8 17 14 40 15 53 0 12 5 22 10 22 6 0 10 7 10 15 0 8 5 15 11 15 5 0 8 4
5 9 -3 5 1 14 9 21 8 6 19 27 25 46 6 19 16 34 21 34 6 0 8 4 4 9 -3 6 3 14
12 20 10 6 14 11 10 11 -5 0 1 12 12 26 12 15 21 31 21 36 0 5 16 34 35 64 29
44 39 53 49 44 9 -6 33 -9 62 -5 l49 5 -1 -107 c0 -60 5 -164 11 -233 11 -126
10 -164 -6 -154 -5 3 -6 -1 -3 -9 3 -9 -6 -19 -25 -27 -17 -7 -31 -16 -31 -20
0 -11 -51 -43 -57 -36 -3 3 8 16 23 30 l29 26 -41 -17 c-36 -15 -40 -21 -40
-49 1 -18 4 -30 9 -27 4 2 7 -1 7 -6 0 -6 -4 -11 -9 -11 -4 0 -7 -11 -6 -25 3
-20 -1 -24 -18 -22 -24 2 -31 -23 -8 -31 9 -3 11 0 6 8 -5 9 -4 11 4 6 6 -4 8
-12 5 -18 -4 -6 -7 -27 -7 -47 0 -20 -2 -28 -4 -19 -5 22 -11 22 -43 2 -14 -8
-17 -13 -7 -10 20 6 52 -18 43 -33 -4 -5 0 -11 6 -13 7 -3 -5 -13 -27 -24 -29
-13 -35 -20 -22 -22 13 -3 16 -9 12 -23 -4 -10 -2 -19 3 -19 5 0 8 -17 6 -37
-2 -21 -3 -43 -3 -50 -1 -6 -8 -19 -17 -27 -8 -9 -11 -16 -5 -16 6 0 11 -4 11
-10 0 -5 -6 -10 -13 -10 -7 0 -22 -7 -33 -15 -18 -14 -17 -15 10 -9 25 6 28 4
23 -10 -4 -10 -7 -23 -7 -28 0 -6 -3 -8 -6 -5 -4 4 -19 -3 -35 -13 -17 -13
-30 -17 -34 -10 -4 6 -12 7 -23 1 -10 -6 -22 -5 -34 3 -12 7 -21 8 -26 1 -4
-5 -38 -10 -77 -10 -38 0 -81 -1 -95 -4 -22 -4 -22 -5 -5 -11 10 -4 38 -3 60
2 23 5 51 5 64 0 24 -8 23 -9 -14 -45 -48 -47 -37 -47 26 -1 34 25 55 34 69
29 12 -4 20 -2 20 5 0 8 8 10 22 7 28 -8 83 16 100 42 14 23 37 28 39 9 3 -26
32 196 43 329 11 119 16 138 50 165 38 30 104 60 110 50 2 -4 11 -36 20 -72
43 -167 204 -341 400 -432 21 -10 50 -18 64 -18 52 0 337 183 409 264 30 34
46 64 63 124 l23 79 41 -16 c23 -8 42 -19 44 -23 2 -4 9 -5 16 -2 12 5 25 -12
31 -41 2 -5 8 -28 13 -50 6 -22 12 -67 12 -100 2 -118 5 -155 14 -155 5 0 7
-3 3 -6 -3 -3 3 -15 13 -27 11 -11 17 -24 14 -28 -3 -5 0 -17 5 -26 10 -17 10
-16 11 2 0 15 6 10 22 -18 13 -21 28 -35 35 -33 7 3 15 1 18 -3 7 -12 106 -43
113 -36 9 9 -17 24 -63 36 -53 14 -81 38 -90 79 -7 31 -6 33 19 28 14 -3 26
-1 26 3 0 5 -7 9 -15 9 -9 0 -18 7 -21 15 -4 8 -10 15 -16 15 -5 0 -7 -4 -3
-9 3 -5 1 -12 -5 -16 -5 -3 -10 1 -10 9 0 9 -8 25 -17 36 -35 40 -17 140 24
140 21 0 15 16 -7 18 -49 4 -50 5 -39 19 9 10 8 13 -1 13 -7 0 -10 6 -7 14 3
7 0 19 -6 25 -9 10 -9 12 2 9 22 -5 24 19 4 40 -11 10 -17 24 -15 31 2 7 -2
17 -9 22 -11 7 -9 13 11 30 22 18 22 20 5 15 -15 -5 -31 5 -59 33 -33 34 -41
38 -57 28 -14 -9 -21 -8 -31 2 -11 12 -10 13 5 8 21 -8 23 9 1 17 -11 4 -14
12 -9 24 9 22 11 34 20 107 4 32 9 68 12 80 9 38 18 255 11 255 -5 0 -8 7 -8
16 0 9 5 12 11 8 8 -5 10 0 6 17 -6 23 -4 24 33 21 22 -2 53 1 70 6 16 6 30 7
30 3 0 -7 10 -21 49 -67 5 -7 7 -15 4 -18 -4 -3 -1 -6 6 -6 8 0 11 -7 7 -15
-3 -8 -1 -15 5 -15 6 0 8 -4 5 -9 -3 -5 4 -21 17 -37 12 -16 21 -30 19 -31 -1
-2 11 -29 26 -61 16 -31 27 -63 25 -69 -3 -7 0 -13 6 -13 6 0 10 -3 9 -7 0 -5
2 -17 6 -28 4 -11 12 -31 17 -45 5 -14 9 -43 9 -65 1 -70 5 -105 12 -105 7 0
12 32 11 67 -1 20 20 15 49 -12 15 -14 31 -25 35 -25 4 0 22 -14 40 -30 18
-17 37 -30 42 -30 6 0 11 -4 11 -10 0 -5 6 -10 14 -10 7 0 34 -18 60 -41 37
-33 45 -45 40 -64 -5 -20 -3 -23 14 -18 14 3 22 -1 25 -14 2 -10 3 -2 1 17 -2
23 -12 42 -30 56 -14 12 -22 24 -16 28 16 10 95 10 117 1 17 -8 18 -7 5 6 -10
11 -35 16 -81 16 -37 1 -77 7 -90 14 -13 7 -27 12 -31 11 -4 -1 -11 10 -14 24
-4 17 -19 30 -46 41 -24 10 -37 21 -34 28 5 13 -20 30 -37 26 -4 -1 -15 6 -24
14 -17 18 -10 30 22 37 l20 5 -20 8 c-36 15 -45 41 -17 48 13 4 12 5 -5 6 -12
0 -27 9 -32 18 -16 28 -13 -2 4 -33 8 -16 15 -36 14 -44 0 -8 -9 5 -20 29 -10
24 -26 59 -35 78 -9 18 -14 37 -10 40 3 3 6 1 6 -5 0 -7 14 -11 33 -11 24 1
26 3 9 6 -14 3 -29 18 -39 39 -15 31 -15 35 1 53 16 18 16 18 -23 11 -30 -5
-41 -4 -45 7 -7 19 11 63 26 64 7 0 3 5 -10 12 -19 8 -25 8 -32 -3 -5 -8 -13
-11 -17 -6 -4 5 -2 11 5 13 6 3 12 9 12 15 0 6 -6 8 -14 5 -14 -6 -26 12 -26
39 0 8 10 19 23 24 12 5 16 9 9 9 -8 1 -28 16 -45 34 -17 17 -28 24 -24 15 10
-28 -7 -21 -26 11 -21 35 -22 53 -2 27 8 -11 17 -17 20 -14 3 3 -5 18 -18 34
-13 16 -22 35 -19 42 3 10 -5 9 -29 -4 -30 -15 -32 -18 -14 -24 17 -6 17 -7
-6 -13 -13 -4 -37 -6 -54 -6 -29 1 -30 1 -5 9 l25 8 -25 1 c-39 2 -48 13 -60
66 -6 28 -14 56 -19 64 -12 18 -104 42 -112 29 -4 -6 -9 -5 -12 3 -5 12 -7 12
-15 0 -7 -9 -11 -10 -13 -2 -3 7 -30 13 -66 14 -33 1 -58 6 -55 11 3 5 5 26 4
46 -2 36 -1 37 51 53 63 20 97 49 97 83 0 30 30 44 103 45 87 2 107 8 107 33
0 12 11 32 24 43 13 11 32 39 42 62 11 26 23 40 31 37 7 -3 13 -1 13 4 0 6 -4
10 -10 10 -17 0 -11 43 10 78 11 17 17 32 14 32 -4 0 -1 7 6 15 7 9 10 18 7
21 -7 7 42 54 57 54 6 0 3 7 -7 14 -17 13 -17 15 6 40 13 14 29 26 36 26 13 0
15 17 1 22 -5 2 -6 9 -2 16 6 9 19 7 53 -10 53 -26 61 -25 113 16 46 37 211
126 232 126 8 0 14 5 14 11 0 5 4 8 8 5 5 -3 28 1 53 8 32 10 46 20 53 39 12
32 -3 98 -22 105 -11 3 -12 0 -3 -16 16 -29 14 -77 -4 -92 -13 -11 -14 -8 -9
18 6 30 -9 72 -25 72 -5 0 -4 -13 2 -29 8 -22 8 -36 0 -53 l-12 -23 0 25 c-1
14 -6 32 -12 40 -7 11 -8 5 -3 -21 3 -22 2 -39 -5 -43 -7 -4 -11 1 -11 13 0
11 -5 23 -11 27 -8 4 -9 -1 -4 -16 5 -15 4 -20 -4 -16 -7 4 -11 -1 -11 -12 0
-24 -14 -36 -61 -51 -20 -6 -45 -20 -56 -31 -12 -10 -24 -16 -27 -13 -3 4 -16
-2 -29 -13 -12 -11 -39 -29 -59 -39 -21 -11 -38 -25 -38 -31 0 -9 -9 -10 -37
-2 -50 14 -58 19 -42 29 12 8 12 11 -1 18 -19 13 -7 24 28 26 15 1 38 7 51 12
l25 10 -25 8 c-13 4 -33 8 -44 9 -15 1 -20 8 -20 31 0 17 5 33 10 37 6 4 11
45 11 90 3 115 29 278 45 278 4 0 16 23 29 51 24 56 22 99 -7 134 l-16 20 8
-20 c12 -32 14 -115 2 -108 -6 4 -8 0 -4 -10 9 -23 -23 -31 -39 -10 -18 24
-27 68 -19 93 4 11 2 20 -4 20 -17 0 -13 -58 8 -127 11 -35 16 -65 11 -68 -4
-3 -11 -22 -14 -42 -3 -21 -8 -49 -11 -63 -3 -14 -7 -49 -10 -78 -3 -30 -7
-58 -10 -63 -4 -5 -2 -9 4 -9 7 0 7 -8 1 -26 -6 -14 -10 -40 -10 -59 0 -45
-14 -51 -46 -20 -19 19 -25 22 -19 8 20 -51 22 -71 8 -104 -10 -24 -16 -30
-22 -20 -5 7 -10 9 -12 4 -3 -6 -33 -7 -84 -1 -44 5 -115 7 -157 4 l-77 -4 26
41 c14 23 46 62 71 87 64 64 120 136 148 192 38 75 50 223 30 368 -30 217 -42
257 -102 335 -52 69 -82 237 -54 309 10 27 -2 37 -16 14z m1 -298 c-3 -5 -16
-10 -28 -9 -20 1 -20 2 3 9 14 4 26 8 28 9 2 1 0 -3 -3 -9z m23 -22 c-2 -14 2
-22 10 -20 19 3 14 -11 -15 -38 l-26 -25 37 -6 c58 -9 85 -29 96 -68 15 -52
31 -171 25 -181 -3 -5 -1 -11 5 -15 6 -4 7 -13 1 -23 -4 -9 -6 -24 -4 -32 4
-12 3 -12 -5 -1 -7 10 -11 10 -17 1 -9 -15 3 -62 14 -56 5 3 11 -8 13 -25 3
-16 1 -32 -4 -35 -4 -3 -8 6 -8 20 0 18 -5 26 -18 26 -14 0 -18 8 -18 35 0 19
5 35 10 35 6 0 5 5 -2 12 -15 15 -16 58 -1 58 7 0 9 -10 7 -25 -4 -17 -1 -25
9 -25 13 0 13 26 -3 115 -3 17 -8 50 -11 75 -4 38 -33 102 -33 75 0 -6 -4 -4
-9 4 -9 14 -82 17 -126 5 -18 -5 -18 -4 -3 8 9 7 25 19 36 27 28 20 36 50 11
44 -10 -3 -16 -10 -12 -17 3 -6 0 -5 -8 3 -11 10 -11 15 -1 18 6 3 12 12 12
20 0 9 6 13 15 9 9 -3 15 0 15 9 0 8 3 15 6 15 3 0 4 -10 2 -22z m-73 -8 c-3
-5 -11 -10 -16 -10 -6 0 -7 5 -4 10 3 6 11 10 16 10 6 0 7 -4 4 -10z m-1150
-30 c4 0 4 8 1 18 -4 11 1 8 15 -8 17 -21 20 -22 14 -5 -5 15 -3 17 5 9 14
-14 -4 -55 -22 -51 -7 1 -12 -3 -13 -10 0 -22 -15 -26 -15 -4 0 12 -4 19 -10
16 -5 -3 -10 0 -10 7 0 10 -2 10 -9 -1 -6 -9 -11 -10 -15 -2 -4 6 4 13 18 17
22 5 24 9 15 28 -9 19 -9 19 4 4 8 -10 18 -18 22 -18z m-25 -71 c0 -4 -7 -6
-15 -3 -8 4 -15 10 -15 15 0 4 7 6 15 3 8 -4 15 -10 15 -15z m1311 -49 c10 -6
19 -18 19 -28 -1 -16 -1 -16 -11 1 -6 9 -15 14 -21 11 -6 -4 -8 -3 -4 4 3 5 0
13 -6 15 -7 3 -9 6 -5 6 5 1 17 -4 28 -9z m13 -71 c-3 -5 0 -9 5 -9 6 0 11 -5
11 -10 0 -21 -36 8 -37 30 -2 18 1 19 12 10 8 -7 12 -16 9 -21z m18 -69 c3
-16 1 -30 -4 -30 -4 0 -8 6 -8 14 0 8 -3 21 -6 30 -3 9 -2 16 4 16 5 0 12 -13
14 -30z m43 -140 c3 -5 1 -10 -4 -10 -6 0 -11 5 -11 10 0 6 2 10 4 10 3 0 8
-4 11 -10z m-1425 -16 c0 -8 -5 -12 -10 -9 -6 4 -8 11 -5 16 9 14 15 11 15 -7z
m1390 -78 c0 -13 -39 -30 -49 -21 -2 3 1 5 7 5 7 0 12 7 12 15 0 8 7 15 15 15
8 0 15 -6 15 -14z m24 -43 c-3 -21 -10 -45 -16 -53 -6 -11 -8 -5 -4 19 3 18 6
42 6 52 0 11 4 19 10 19 6 0 7 -15 4 -37z m-1389 -3 c3 -5 1 -10 -4 -10 -6 0
-11 5 -11 10 0 6 2 10 4 10 3 0 8 -4 11 -10z m1351 -27 c-2 -21 -9 -37 -15
-36 -5 2 -8 -4 -5 -12 4 -9 0 -15 -10 -15 -20 0 -20 19 -1 44 10 13 11 24 4
37 -8 16 -6 19 11 19 18 0 20 -5 16 -37z m-1303 -63 c9 -12 9 -13 -3 -2 -8 6
-24 12 -37 12 -13 0 -23 5 -23 11 0 6 7 9 15 6 8 -4 18 -1 22 5 5 9 8 8 11 -2
3 -8 9 -22 15 -30z m1308 -14 c-11 -27 -24 -37 -16 -11 3 8 7 22 10 31 3 9 8
15 11 12 2 -3 0 -17 -5 -32z m-66 14 c-3 -5 1 -10 9 -10 31 0 22 -18 -51 -96
-25 -27 -69 -34 -59 -9 3 10 -1 15 -11 15 -22 0 -8 13 16 15 13 1 17 -4 14
-16 -5 -16 -2 -17 19 -7 23 11 37 48 17 48 -5 0 -9 5 -9 11 0 6 9 8 23 4 12
-3 18 -3 12 2 -5 4 -11 15 -13 23 -3 12 -1 13 9 3 7 -7 18 -13 23 -13 6 0 5 5
-2 12 -15 15 -15 28 -1 28 5 0 7 -4 4 -10z m-1210 -30 c3 -5 2 -10 -4 -10 -5
0 -13 5 -16 10 -3 6 -2 10 4 10 5 0 13 -4 16 -10z m1226 -72 c-6 -7 -28 -33
-50 -58 -64 -74 -122 -150 -115 -150 4 0 -1 -9 -11 -20 -10 -11 -24 -20 -32
-20 -7 0 -13 -5 -13 -11 0 -8 -5 -7 -15 1 -9 8 -13 21 -10 34 5 16 4 18 -4 6
-8 -12 -12 -9 -21 15 -14 37 -101 165 -112 165 -4 0 -8 5 -8 10 0 20 47 10 70
-15 16 -17 19 -25 9 -25 -9 0 -10 -3 -3 -8 6 -4 10 -15 9 -24 -4 -21 20 -44
30 -28 3 5 -1 10 -9 10 -10 0 -13 6 -9 15 5 14 7 13 17 -2 7 -10 20 -38 31
-63 31 -75 27 -75 98 13 12 15 31 38 42 50 11 12 33 40 49 62 31 43 57 67 64
61 2 -3 -1 -11 -7 -18z m-621 -18 c0 -5 -7 -10 -15 -10 -8 0 -15 -5 -15 -10 0
-6 7 -10 16 -8 10 2 19 -3 21 -9 3 -8 -4 -13 -16 -13 -12 0 -21 -4 -21 -9 0
-5 10 -7 22 -3 13 3 19 1 15 -5 -4 -6 -17 -10 -29 -9 -18 1 -22 7 -23 38 -2
35 3 42 38 47 4 0 7 -3 7 -9z m-140 -10 c0 -5 -2 -10 -4 -10 -3 0 -8 5 -11 10
-3 6 -1 10 4 10 6 0 11 -4 11 -10z m465 -8 c-3 -3 -11 0 -18 7 -9 10 -8 11 6
5 10 -3 15 -9 12 -12z m-191 -16 c-3 -9 -10 -16 -15 -16 -6 0 -5 9 1 21 13 24
24 20 14 -5z m235 -20 c0 -6 -3 -5 -6 2 -2 6 -8 10 -12 8 -4 -3 -7 4 -7 15 0
19 1 19 13 3 7 -10 13 -23 12 -28z m-476 -36 c26 -31 106 -31 171 1 22 10 41
19 43 19 2 0 3 -14 3 -30 0 -34 24 -77 55 -100 24 -18 99 -40 141 -40 17 0 38
-7 45 -17 13 -15 9 -16 -52 -11 -90 7 -151 36 -183 87 -14 22 -26 50 -26 61 0
24 1 24 -39 4 -42 -21 -142 -15 -169 9 -19 17 -20 16 -35 -16 -16 -34 -42 -61
-76 -81 -70 -41 -93 -51 -148 -66 -35 -10 -63 -14 -63 -10 0 5 14 12 32 15 18
4 39 11 48 15 8 4 35 16 60 26 51 21 111 73 141 121 24 39 29 40 52 13z m-126
-32 c-3 -7 -5 -2 -5 12 0 14 2 19 5 13 2 -7 2 -19 0 -25z m435 7 c-5 -29 -19
-34 -19 -7 0 13 12 30 23 32 1 0 -1 -11 -4 -25z m-492 -26 c-12 -16 -18 -33
-15 -39 3 -5 2 -10 -4 -10 -5 0 -13 5 -17 11 -4 8 -9 7 -15 -2 -5 -8 -9 -9 -9
-4 0 14 15 36 26 38 5 1 8 6 6 11 -4 11 30 36 41 29 4 -2 -2 -18 -13 -34z
m695 31 c3 -5 -1 -10 -10 -10 -9 0 -13 5 -10 10 3 6 8 10 10 10 2 0 7 -4 10
-10z m-668 -33 c-13 -30 -30 -38 -20 -9 7 18 26 42 30 38 2 -1 -3 -14 -10 -29z
m513 4 c0 -9 -28 -41 -35 -41 -3 0 1 11 7 25 11 25 28 34 28 16z m24 -16 c-7
-16 -24 -21 -24 -6 0 8 7 13 27 20 1 1 0 -6 -3 -14z m-219 -15 c-3 -5 6 -17
20 -26 14 -9 25 -21 25 -26 0 -6 -6 -5 -15 2 -8 6 -19 9 -24 5 -6 -3 -13 6
-17 20 -3 13 -10 22 -15 19 -5 -3 -2 -15 6 -27 20 -29 19 -37 -5 -37 -11 0
-20 -7 -20 -15 0 -14 3 -13 25 1 14 9 25 21 25 26 0 5 5 6 10 3 6 -4 8 -10 5
-14 -2 -5 2 -17 10 -27 13 -17 14 -17 15 -2 0 9 -6 19 -12 21 -7 3 -3 6 10 6
12 1 22 -3 22 -9 0 -5 3 -9 8 -9 4 1 15 1 25 0 15 -1 16 -4 6 -23 -10 -20 -10
-21 2 -12 10 8 21 8 42 0 15 -7 24 -15 21 -19 -4 -4 -2 -7 4 -7 7 0 12 5 12
10 0 6 9 10 20 10 14 0 18 -5 14 -17 -5 -16 -4 -16 6 0 9 14 15 16 26 6 23
-19 17 -24 -34 -27 -26 -2 -49 -7 -50 -13 -2 -5 -8 -7 -12 -4 -5 3 -33 8 -62
10 -29 3 -71 8 -93 11 -54 9 -142 9 -185 0 -43 -9 -117 -7 -209 6 -32 4 -39
25 -9 25 70 1 83 3 68 13 -13 9 -7 14 12 11 5 0 7 5 5 12 -1 6 5 12 13 12 8 0
18 5 23 10 4 6 11 4 17 -5 8 -13 10 -13 10 1 0 18 41 49 65 49 8 0 15 -7 15
-17 0 -9 3 -13 8 -9 7 8 8 13 11 42 0 9 7 14 14 11 6 -2 19 -1 28 4 11 5 16 3
16 -7 0 -11 -7 -14 -23 -11 -19 3 -23 0 -19 -17 2 -12 4 -25 4 -29 1 -5 5 -6
11 -2 5 3 6 13 3 22 -4 10 -2 14 5 9 6 -3 17 3 26 15 9 14 21 19 31 15 9 -3
23 1 32 9 15 15 38 11 28 -5z m241 -17 c-11 -11 -17 4 -9 23 7 18 8 18 11 1 2
-10 1 -21 -2 -24z m-406 12 c0 -8 -4 -15 -10 -15 -5 0 -10 7 -10 15 0 8 5 15
10 15 6 0 10 -7 10 -15z m-832 -60 c3 -3 -12 -12 -32 -20 -35 -15 -39 -15 -52
2 -7 10 -14 21 -14 24 0 7 91 1 98 -6z m341 -1 c77 -19 97 -28 130 -61 43 -42
52 -73 43 -139 -1 -6 -11 -21 -22 -34 -11 -13 -20 -28 -20 -33 0 -6 23 -32 52
-59 28 -26 49 -48 45 -48 -9 0 41 -48 62 -59 27 -15 147 -4 176 15 14 9 25 13
25 9 0 -4 6 -3 13 3 23 19 87 23 115 8 37 -20 122 -37 122 -24 0 7 4 7 13 0
12 -10 65 -4 150 17 37 9 52 -1 20 -14 -87 -35 -200 -46 -275 -27 -37 10 -48
7 -48 -11 0 -5 7 -6 16 -3 12 4 14 1 9 -14 -5 -15 -2 -20 10 -20 13 0 16 6 12
21 -3 13 -1 19 6 16 7 -3 11 -10 9 -17 -1 -7 1 -17 6 -24 6 -6 13 -25 16 -42
6 -25 3 -32 -15 -41 -16 -6 -19 -12 -11 -17 7 -4 12 -2 12 3 0 21 28 11 50
-16 15 -20 18 -22 11 -6 -6 12 -11 30 -10 40 0 14 2 14 6 3 6 -17 32 -40 47
-40 5 0 -1 11 -14 25 -13 14 -18 25 -12 25 7 0 12 -5 12 -11 0 -6 6 -9 14 -6
7 3 18 1 22 -3 6 -6 18 3 29 20 20 30 35 39 35 20 0 -5 7 -10 15 -10 13 0 13
-3 3 -20 -16 -24 -1 -41 16 -17 7 9 17 17 22 17 4 0 3 -5 -4 -12 -8 -8 -8 -15
-1 -24 16 -19 -9 -28 -37 -13 -25 13 -31 33 -14 44 11 7 4 25 -9 25 -16 0 -20
-44 -6 -60 8 -9 15 -23 15 -31 -1 -10 -5 -8 -16 6 -15 20 -16 19 -12 -5 3 -25
2 -25 -66 -22 -71 2 -89 8 -70 20 6 4 8 15 5 25 -6 16 -8 16 -29 2 -12 -9 -22
-23 -22 -31 0 -16 -34 -14 -52 4 -13 13 -16 27 -21 96 -2 30 1 53 10 61 10 11
10 14 0 18 -9 4 -9 7 1 18 20 22 14 29 -25 25 -58 -6 -67 -10 -75 -28 -8 -19
-38 -25 -38 -8 0 5 7 6 17 3 11 -4 14 -3 9 6 -5 7 -15 10 -23 7 -65 -25 -171
-13 -211 24 -25 23 -32 25 -32 7 0 -7 -7 -22 -16 -33 -8 -10 -12 -13 -8 -5 5
10 3 12 -7 5 -17 -10 -79 -12 -72 -1 4 7 2 8 -52 10 -35 2 -58 15 -50 28 4 5
0 9 -8 9 -20 0 -50 37 -44 54 4 9 1 13 -6 10 -12 -4 -62 60 -62 80 0 13 -35
64 -35 52 0 -5 -7 -3 -15 4 -9 7 -14 19 -11 27 3 7 1 13 -5 13 -6 0 -8 4 -5 9
3 5 -4 11 -15 14 -16 4 -19 10 -14 28 5 14 4 19 -4 15 -13 -8 -52 52 -49 74 2
9 25 18 68 25 106 17 130 17 199 -1z m-324 -24 c3 -5 1 -10 -4 -10 -6 0 -11 5
-11 10 0 6 2 10 4 10 3 0 8 -4 11 -10z m1704 -4 c-5 -30 -13 -44 -24 -40 -13
5 -29 -22 -20 -36 8 -13 -14 -62 -25 -55 -9 6 -12 2 -14 -27 -1 -7 -8 -19 -16
-26 -13 -10 -13 -11 3 -6 16 6 16 4 6 -19 -7 -15 -15 -24 -20 -22 -4 3 -10 1
-14 -5 -3 -5 2 -10 12 -10 17 -1 17 -1 1 -11 -11 -6 -15 -16 -11 -26 4 -11 3
-14 -5 -9 -7 4 -12 5 -12 2 0 -2 -3 -13 -6 -23 -5 -15 -4 -15 5 -3 19 27 11
-4 -9 -35 -11 -16 -20 -25 -20 -20 0 6 -5 3 -10 -5 -5 -8 -7 -25 -4 -37 5 -18
2 -22 -15 -18 -12 2 -26 7 -33 11 -8 5 -9 2 -5 -10 6 -14 3 -16 -16 -10 -12 4
-25 12 -29 18 -5 6 -8 2 -8 -11 0 -26 -17 -33 -53 -20 -15 5 -34 7 -42 4 -13
-6 -21 7 -29 50 -2 10 -7 30 -11 46 -7 28 7 59 46 98 19 19 19 20 -5 62 -19
32 -24 52 -20 82 8 66 43 92 159 119 28 6 245 0 244 -8z m-970 -117 c-11 -7
-10 -9 4 -9 9 0 17 4 17 9 0 5 18 2 39 -7 22 -9 37 -21 33 -27 -3 -5 3 -3 14
6 10 9 25 14 32 12 14 -5 17 -73 2 -73 -5 0 -2 -9 7 -20 10 -11 24 -20 31 -20
8 0 12 -6 9 -12 -2 -8 -19 -13 -40 -12 -21 0 -37 -3 -37 -8 0 -4 -11 -8 -25
-8 -16 0 -25 -6 -25 -16 0 -8 -4 -13 -9 -9 -5 3 -13 0 -17 -6 -3 -6 0 -15 7
-20 11 -7 11 -9 1 -9 -9 0 -11 -7 -7 -20 3 -11 2 -20 -4 -20 -5 0 -13 9 -16
20 -3 11 -11 20 -16 20 -12 0 -11 -14 2 -27 7 -7 3 -10 -16 -10 -19 0 -23 3
-16 10 16 16 13 27 -4 21 -8 -4 -15 -1 -15 6 0 6 -5 8 -11 5 -6 -4 -8 -13 -5
-21 4 -11 1 -12 -13 -5 -10 6 -22 7 -26 3 -5 -4 -5 1 -2 11 6 15 3 17 -13 12
-11 -4 -20 -2 -20 4 0 6 -7 11 -15 11 -8 0 -15 5 -15 11 0 6 -7 9 -15 5 -10
-4 -15 1 -15 15 0 11 -4 17 -10 14 -5 -3 -10 -1 -10 5 0 7 -6 10 -14 7 -22 -9
-27 19 -6 38 13 12 20 13 25 5 4 -7 18 -9 31 -6 13 4 24 3 24 -2 0 -12 73 -43
82 -34 11 11 -3 52 -18 52 -8 0 -14 5 -14 11 0 5 6 7 13 4 6 -4 4 0 -7 9 -10
8 -15 19 -12 24 3 5 -5 7 -18 5 -13 -3 -26 0 -30 5 -4 6 2 8 14 5 25 -7 26 5
3 24 -16 13 -16 14 -1 9 9 -3 19 0 22 7 2 7 5 4 5 -5 1 -12 6 -15 17 -11 12 4
13 7 3 14 -10 6 -9 10 6 15 12 5 20 3 23 -5 4 -11 6 -11 13 0 8 12 11 11 19
-1 8 -13 10 -12 10 3 0 15 3 16 21 6 17 -9 19 -13 8 -20z m439 -3 c6 -4 16 -5
21 -2 5 3 9 -5 9 -18 0 -15 -6 -23 -17 -22 -11 1 -15 -6 -13 -24 2 -23 2 -24
-12 -7 -8 10 -18 18 -23 18 -4 0 -6 11 -5 26 3 16 0 23 -7 18 -6 -3 -9 -10 -6
-15 3 -5 1 -19 -5 -30 -6 -11 -7 -20 -3 -19 41 7 43 -15 3 -30 -16 -5 -30 -14
-30 -20 0 -15 23 -26 28 -13 2 7 7 10 11 7 5 -2 23 0 42 6 35 10 90 20 124 23
14 1 20 -5 20 -19 0 -15 -7 -20 -27 -20 -15 -1 -30 -4 -34 -8 -4 -4 -3 -7 3
-7 6 0 14 -7 17 -16 5 -14 4 -15 -9 -4 -13 11 -18 10 -31 -6 -10 -12 -14 -14
-11 -4 6 21 -41 22 -61 2 -10 -10 -17 -26 -17 -36 0 -27 -21 -31 -28 -6 -3 11
-10 20 -16 20 -8 0 -7 -6 1 -20 15 -24 4 -37 -17 -20 -12 10 -15 10 -15 -4 0
-18 -35 -22 -45 -6 -3 6 0 10 7 10 18 0 41 37 28 45 -6 3 -10 1 -10 -6 0 -8
-6 -6 -18 4 -10 10 -24 17 -30 17 -7 0 -12 6 -12 14 0 9 -7 12 -20 9 -11 -3
-20 0 -20 6 0 6 7 11 15 11 31 0 13 18 -23 24 -38 6 -39 7 -40 51 -2 43 -1 45
27 45 17 0 31 6 35 16 6 15 8 15 24 1 17 -15 19 -15 32 4 13 17 24 19 80 17
36 -2 71 -7 78 -12z m-581 -62 c-3 -3 -12 -4 -19 -1 -8 3 -5 6 6 6 11 1 17 -2
13 -5z m-392 -43 c-6 -5 -25 10 -25 20 0 5 6 4 14 -3 8 -7 12 -15 11 -17z
m725 -81 c0 -5 -5 -10 -11 -10 -5 0 -7 5 -4 10 3 6 8 10 11 10 2 0 4 -4 4 -10z
m268 -21 c-1 -17 -4 -25 -8 -18 -5 8 -11 6 -19 -7 -15 -26 -14 -4 2 29 16 35
26 34 25 -4z m32 -3 c0 -3 -4 -8 -10 -11 -5 -3 -10 -1 -10 4 0 6 5 11 10 11 6
0 10 -2 10 -4z m-353 -118 c0 -15 -4 -28 -9 -28 -5 0 -6 -5 -3 -10 11 -18 14
-69 5 -75 -5 -3 -7 -12 -3 -20 3 -8 1 -15 -5 -15 -5 0 -9 -8 -8 -17 1 -14 -12
-17 -97 -19 -95 -3 -98 -2 -91 18 4 14 2 18 -5 14 -6 -4 -11 -3 -11 3 0 6 -6
9 -12 7 -7 -1 -10 -1 -6 1 5 3 6 14 3 26 -4 14 1 30 14 44 11 11 17 24 13 29
-4 4 1 4 12 0 10 -3 25 -1 32 5 10 8 14 8 14 0 0 -6 -4 -11 -10 -11 -5 0 -10
-9 -10 -20 0 -11 5 -20 10 -20 6 0 10 8 10 18 0 14 2 14 9 3 5 -8 16 -11 24
-8 10 4 17 0 19 -11 2 -10 12 4 26 36 12 28 27 52 33 52 6 0 7 -4 4 -10 -3 -5
-2 -10 3 -10 15 0 22 26 10 38 -8 8 -5 11 8 10 14 -1 20 -10 21 -30z m-92 -26
c-3 -3 -11 0 -18 7 -9 10 -8 11 6 5 10 -3 15 -9 12 -12z m295 8 c0 -5 -4 -10
-10 -10 -5 0 -10 5 -10 10 0 6 5 10 10 10 6 0 10 -4 10 -10z m-465 -10 c3 -5
1 -10 -4 -10 -6 0 -11 5 -11 10 0 6 2 10 4 10 3 0 8 -4 11 -10z m421 -28 c-14
-14 -16 -14 -16 -1 0 20 23 44 29 28 2 -6 -4 -18 -13 -27z m-258 0 c2 -6 -5
-8 -18 -5 -29 8 -36 24 -9 20 13 -2 25 -9 27 -15z m329 6 c-2 -7 -10 -12 -16
-10 -6 1 -11 -3 -11 -9 0 -5 -5 -7 -10 -4 -8 5 -7 11 1 21 14 17 42 19 36 2z
m-486 -27 c-7 -5 -11 -13 -8 -19 5 -7 -19 -10 -43 -3 -3 1 9 9 25 20 17 10 32
16 35 14 2 -2 -2 -8 -9 -12z m386 -98 c-15 -16 -17 -16 -17 -1 0 9 6 18 13 21
20 7 22 -2 4 -20z m0 -81 c-15 -17 -15 -20 1 -37 9 -11 5 -9 -10 4 -16 14 -28
19 -28 12 0 -7 -5 -9 -11 -6 -5 4 -21 8 -35 10 -20 2 -22 0 -13 -12 10 -11 8
-12 -16 -3 -15 6 -30 8 -33 5 -3 -3 -15 3 -26 12 -20 17 -20 17 -6 -1 14 -18
13 -19 -10 -12 -14 4 -31 8 -37 8 -15 1 -16 8 -5 25 9 14 72 13 72 -1 0 -5 6
-3 14 3 11 10 20 10 37 1 14 -8 19 -8 15 -1 -9 14 7 14 21 0 7 -7 19 -8 30 -4
10 5 24 7 31 6 6 -1 12 4 12 10 0 7 3 9 7 6 3 -4 -1 -15 -10 -25z m26 -7 c-3
-9 -8 -14 -10 -11 -3 3 -2 9 2 15 9 16 15 13 8 -4z m-473 -69 c0 -3 -6 -11
-13 -18 -7 -7 -23 -28 -37 -47 -13 -20 -26 -29 -28 -22 -2 7 4 21 14 32 9 10
13 19 8 19 -5 0 5 9 21 20 32 21 35 22 35 16z m100 -32 c0 -8 -4 -12 -10 -9
-5 3 -10 10 -10 16 0 5 5 9 10 9 6 0 10 -7 10 -16z m690 -12 c0 -15 2 -15 10
-2 7 12 12 7 25 -22 8 -21 15 -42 15 -47 0 -5 8 -12 17 -15 13 -6 14 -9 4 -15
-17 -11 -9 -76 9 -76 7 0 15 -6 18 -14 3 -10 -1 -12 -16 -9 -12 3 -23 1 -26
-6 -2 -6 -5 7 -5 28 -1 22 -4 36 -8 32 -4 -3 -12 8 -18 26 -9 27 -9 35 4 46
11 9 11 12 2 12 -7 0 -11 6 -8 14 3 8 -1 13 -11 12 -10 -1 -18 10 -23 31 -3
18 -2 30 2 27 5 -3 9 -13 9 -22z m-722 1 c-2 -13 3 -17 19 -15 15 2 23 -4 28
-18 7 -22 7 -21 38 7 20 19 28 22 24 11 -4 -12 5 -30 31 -55 20 -21 36 -40 35
-44 -1 -4 7 -5 17 -2 15 4 20 0 20 -16 0 -13 5 -19 14 -15 9 3 16 -5 21 -23
11 -44 15 -89 7 -78 -4 6 -15 16 -24 24 -16 12 -18 11 -18 -3 0 -10 4 -15 9
-11 5 3 16 -8 25 -25 8 -17 10 -28 5 -25 -5 4 -9 1 -9 -5 0 -6 -6 -8 -12 -4
-8 4 -10 3 -5 -2 5 -5 13 -10 18 -10 5 -1 11 -2 14 -3 3 0 -3 -13 -12 -28 -10
-15 -12 -24 -5 -20 6 5 12 4 12 -2 0 -18 -5 -26 -12 -23 -15 4 -8 -17 8 -26
15 -8 14 -11 -6 -25 l-22 -15 21 -7 c23 -7 27 -20 9 -31 -6 -4 -14 -2 -16 5
-4 11 -6 11 -13 0 -5 -9 -1 -18 14 -26 16 -9 18 -12 6 -13 -20 0 -20 -31 1
-46 10 -9 11 -15 3 -25 -6 -8 -9 -29 -7 -47 2 -18 -1 -42 -6 -53 -6 -11 -7
-19 -2 -19 14 0 21 -37 10 -48 -5 -5 -13 -26 -18 -45 -6 -27 -4 -37 7 -41 8
-3 12 -10 8 -15 -3 -6 3 -14 12 -20 17 -10 17 -10 0 -11 -15 0 -16 -3 -7 -20
6 -11 7 -20 2 -20 -4 0 -17 -7 -28 -16 -10 -8 -13 -12 -5 -8 9 4 12 2 9 -7 -3
-8 2 -23 11 -33 16 -19 15 -19 -11 -1 -19 12 -28 13 -28 5 0 -7 -7 -10 -15 -7
-8 4 -17 1 -21 -5 -5 -7 -2 -8 6 -3 10 6 12 3 8 -12 -4 -16 -1 -19 13 -16 11
3 15 11 12 21 -4 9 -2 13 5 9 6 -4 9 -26 7 -51 -3 -39 -2 -43 16 -39 25 7 17
-17 -13 -36 -18 -11 -20 -11 -15 2 3 9 -1 21 -9 27 -8 7 -14 9 -14 6 0 -4 -5
-4 -11 0 -8 5 -6 10 5 16 23 13 20 23 -6 25 -18 2 -20 0 -8 -7 10 -7 11 -10 3
-10 -7 0 -13 -7 -13 -16 0 -8 -5 -12 -11 -9 -6 4 -8 12 -6 19 3 6 -1 20 -9 31
-13 18 -14 18 -14 1 0 -14 -3 -16 -13 -7 -8 6 -17 8 -20 4 -4 -3 -7 2 -7 11 0
13 5 16 17 12 23 -9 10 4 -19 19 -13 6 -22 17 -21 23 2 6 -3 9 -11 6 -7 -3
-18 2 -25 9 -9 12 -8 15 6 13 20 -1 20 31 1 49 -8 7 -9 6 -3 -3 4 -8 -1 -21
-14 -33 -12 -11 -21 -27 -21 -35 0 -8 -4 -12 -10 -9 -5 3 -10 1 -10 -5 0 -7 8
-9 20 -5 11 4 20 2 20 -4 0 -6 7 -8 15 -5 10 4 15 0 15 -11 0 -9 -4 -14 -9
-10 -5 3 -13 0 -17 -6 -4 -7 -3 -9 3 -6 6 4 16 0 23 -8 7 -8 25 -15 40 -15 27
0 59 -25 47 -37 -10 -9 34 -44 46 -36 6 3 7 1 3 -5 -7 -12 4 -16 37 -12 11 1
21 -7 24 -19 4 -14 12 -20 28 -19 13 1 22 5 19 9 -2 4 0 10 6 14 12 7 12 -1 4
-43 -3 -17 -12 -33 -19 -35 -8 -4 -10 3 -7 19 3 19 1 23 -12 18 -9 -3 -16 -10
-16 -15 0 -5 -4 -9 -10 -9 -5 0 -10 7 -10 15 0 18 -11 19 -29 2 -11 -9 -13 -9
-7 1 11 19 -3 35 -19 22 -10 -9 -16 -6 -25 10 -6 11 -8 26 -4 33 5 9 4 9 -7 0
-18 -18 -29 -16 -29 4 0 9 -3 14 -6 10 -8 -7 -34 17 -34 32 0 6 -5 11 -11 11
-5 0 -7 -4 -4 -10 3 -5 1 -10 -4 -10 -6 0 -11 7 -11 15 0 8 -4 15 -9 15 -5 0
-11 10 -14 22 -5 19 -8 20 -23 7 -15 -12 -16 -12 -9 10 5 16 4 21 -4 17 -6 -4
-11 -2 -11 4 0 6 -9 20 -20 32 -11 12 -20 30 -20 40 0 12 -4 16 -12 12 -8 -5
-9 -2 -5 9 3 9 2 19 -4 23 -6 3 -8 12 -5 20 3 8 -1 17 -9 20 -8 4 -13 10 -10
14 3 4 -2 11 -11 14 -13 5 -14 9 -5 20 9 11 9 16 1 21 -7 4 -10 16 -7 26 3 11
1 16 -5 13 -5 -4 -9 4 -8 17 1 13 1 26 0 29 -2 7 -10 77 -13 118 -1 17 -4 32
-7 32 -3 0 -5 10 -6 23 -1 12 -4 56 -8 97 -6 77 -8 281 -3 313 2 9 8 22 15 29
8 8 10 4 7 -18 -2 -16 -4 -31 -5 -34 -7 -17 -3 -38 9 -58 12 -20 12 -22 -3
-16 -15 6 -17 2 -11 -27 3 -19 7 -66 9 -106 2 -43 9 -79 17 -89 11 -13 11 -18
2 -21 -7 -3 -13 -9 -13 -14 0 -4 7 -6 15 -3 10 4 15 0 15 -11 0 -9 -4 -13 -10
-10 -14 8 0 -58 14 -67 8 -6 6 -11 -4 -18 -13 -9 -12 -12 4 -25 17 -13 21 -13
34 6 8 11 11 23 8 26 -3 4 -6 1 -6 -6 0 -7 -5 -9 -10 -6 -8 5 -7 11 1 21 6 7
16 11 23 7 8 -5 8 -3 0 8 -7 8 -14 23 -17 34 -5 19 -5 19 -12 -2 -4 -13 -11
-23 -17 -23 -5 0 -4 8 1 19 6 10 7 21 4 25 -3 3 1 6 9 6 11 0 14 6 11 19 -3
13 1 21 14 24 14 4 13 5 -6 6 -16 1 -21 5 -17 16 3 9 -1 18 -9 21 -8 4 -15 10
-15 15 0 6 9 5 20 -1 14 -7 20 -7 20 0 0 5 -4 10 -10 10 -5 0 -14 10 -21 21
-9 18 -8 24 5 31 9 5 16 14 16 20 0 6 -6 5 -16 -3 -15 -12 -16 -10 -9 21 5 19
9 43 9 53 0 9 7 17 16 18 8 1 4 5 -10 9 -14 4 -20 8 -13 9 7 1 10 8 6 18 -4 9
-2 14 3 10 6 -3 11 4 11 15 2 16 -1 18 -10 9 -16 -16 -32 -13 -17 4 7 8 19 15
26 15 8 0 11 6 8 15 -4 8 -1 15 5 15 6 0 11 7 11 16 0 13 3 14 14 5 11 -9 15
-7 19 8 3 14 1 18 -9 14 -11 -4 -10 2 2 26 16 32 28 43 18 16 -4 -8 -1 -15 5
-15 6 0 11 8 11 17 0 13 3 14 12 5 19 -19 30 -14 17 9 -8 15 -8 19 0 15 6 -4
11 -2 11 3 0 6 2 11 5 11 3 0 5 -8 3 -17z m538 1 c-4 -12 -2 -15 9 -10 8 3 15
1 15 -5 0 -5 12 -7 28 -4 22 5 24 4 10 -5 -15 -9 -16 -14 -6 -30 7 -10 16 -16
21 -13 5 3 3 9 -4 14 -11 6 -10 11 6 23 11 8 22 12 25 10 2 -3 0 -8 -6 -12
-15 -11 -11 -62 5 -62 9 0 11 8 7 24 -3 14 -1 28 4 31 6 4 10 3 9 -2 -4 -21 2
-66 7 -60 3 3 12 1 18 -6 10 -9 9 -15 -6 -31 -12 -14 -15 -22 -7 -27 6 -4 8
-12 5 -18 -4 -6 -2 -11 5 -11 6 0 9 8 6 20 -3 12 -1 17 5 14 5 -3 16 2 24 12
13 17 13 16 1 -11 -19 -40 -30 -92 -22 -105 4 -7 13 -7 27 1 15 8 23 8 32 -1
8 -8 6 -9 -9 -4 -18 7 -19 6 -5 -12 14 -17 14 -18 -2 -6 -9 8 -19 9 -22 4 -7
-11 22 -26 44 -23 11 1 11 -1 -2 -9 -10 -6 -18 -18 -18 -25 0 -8 -7 -15 -15
-15 -10 0 -14 -9 -13 -26 2 -19 7 -24 20 -21 11 3 18 0 18 -9 0 -8 -4 -14 -10
-14 -5 0 -10 -7 -10 -16 0 -9 5 -13 13 -9 6 4 0 -5 -15 -19 -26 -24 -27 -25
-8 -31 11 -4 18 -11 14 -16 -4 -6 -11 -6 -20 2 -8 6 -14 7 -14 2 0 -5 10 -14
23 -20 17 -8 28 -7 42 3 10 8 15 14 9 14 -5 0 -3 4 5 9 12 8 12 12 2 25 -11
14 -11 16 4 16 14 0 16 6 12 30 -5 20 -3 30 6 30 8 0 7 4 -3 10 -9 6 -17 5
-22 -3 -5 -8 -8 -6 -8 6 0 10 8 17 20 17 11 0 20 7 20 15 0 8 -4 15 -10 15 -5
0 -10 5 -10 10 0 6 9 10 20 10 20 0 21 -19 5 -135 -2 -16 -7 -52 -10 -80 -8
-66 -23 -123 -36 -130 -6 -5 -5 -12 3 -23 7 -9 8 -13 2 -9 -8 4 -13 -5 -16
-28 -2 -19 0 -35 5 -35 4 0 5 -5 1 -11 -4 -7 -14 -4 -27 10 -21 20 -21 21 -2
35 18 13 18 14 -3 25 -13 7 -20 16 -17 22 4 5 11 7 16 4 5 -4 9 1 9 9 0 9 4
16 9 16 5 0 12 7 15 16 3 8 2 12 -4 9 -13 -8 -13 0 0 25 30 59 30 57 7 56 -15
-1 -22 -8 -22 -20 0 -11 -7 -22 -15 -24 -12 -4 -13 -3 -3 10 7 8 10 18 6 21
-12 12 -32 -27 -21 -40 6 -7 13 -11 17 -8 12 7 6 -34 -7 -47 -9 -9 -12 -6 -12
15 0 17 -5 27 -15 27 -8 0 -15 -5 -15 -11 0 -5 5 -7 10 -4 20 13 9 -14 -12
-29 -12 -9 -18 -16 -12 -16 5 0 15 5 21 11 8 8 13 7 18 -1 4 -7 3 -15 -3 -19
-7 -4 -7 -12 -2 -20 5 -9 1 -21 -11 -34 -10 -12 -19 -26 -19 -33 0 -7 -8 -17
-17 -23 -22 -12 -15 -19 26 -27 25 -5 32 -3 31 7 -5 33 0 48 15 43 18 -7 19
-27 3 -55 -10 -17 -10 -23 0 -26 6 -3 12 -9 12 -15 0 -5 -15 0 -33 11 -32 20
-47 19 -47 -1 0 -5 8 -7 19 -3 12 3 21 0 25 -10 7 -20 -3 -65 -15 -65 -5 0 -9
-7 -9 -16 0 -8 -4 -12 -10 -9 -6 3 -10 -4 -10 -16 0 -21 1 -22 20 -4 25 23 26
15 1 -13 -10 -12 -21 -19 -25 -15 -7 8 -46 -31 -46 -47 0 -5 -9 -10 -20 -10
-14 0 -20 -7 -20 -22 0 -17 -3 -19 -9 -10 -6 11 -13 8 -29 -13 -12 -15 -26
-24 -32 -20 -5 3 -10 -1 -10 -9 0 -17 -29 -11 -42 8 -9 13 26 38 45 30 8 -3
18 0 23 7 5 9 2 10 -9 6 -10 -3 -17 -2 -17 2 0 12 30 22 42 15 5 -3 12 3 15
15 3 12 12 21 19 21 17 0 18 17 2 22 -7 3 -2 7 10 10 12 4 20 2 17 -2 -3 -5
-1 -11 4 -14 6 -4 8 9 5 30 -4 33 -3 35 18 28 20 -6 21 -5 10 9 -10 11 -10 17
-1 22 6 4 15 2 19 -5 5 -8 9 -7 13 4 4 10 1 16 -8 16 -11 0 -12 5 -5 25 7 18
6 25 -2 25 -9 0 -9 3 0 12 15 15 16 32 2 23 -5 -3 -10 -2 -10 3 0 6 -7 12 -15
16 -19 7 -19 1 1 -18 19 -19 9 -42 -10 -23 -8 6 -12 15 -9 20 2 4 -1 7 -7 7
-7 0 -9 -8 -5 -20 4 -12 2 -20 -5 -20 -6 0 -8 -4 -5 -10 3 -5 11 -10 16 -10 6
0 8 4 4 9 -3 6 4 9 15 8 12 -1 20 -8 20 -20 0 -14 -5 -17 -22 -13 -13 3 -17 3
-10 0 23 -11 12 -24 -13 -14 -16 6 -27 6 -31 -2 -4 -7 -3 -8 4 -4 7 4 12 2 12
-3 0 -6 8 -11 17 -11 15 0 14 -2 -2 -14 -11 -8 -23 -12 -27 -10 -4 2 -10 -1
-14 -7 -3 -6 0 -15 7 -20 15 -10 4 -13 -36 -10 -18 1 -19 1 -2 -9 9 -6 17 -16
17 -21 0 -6 -5 -7 -11 -3 -6 3 -15 0 -20 -7 -7 -11 -9 -11 -9 -1 0 7 -5 10
-11 7 -15 -10 -61 4 -54 15 3 6 -1 7 -9 4 -25 -9 -19 -20 17 -32 21 -8 24 -10
7 -7 -21 3 -26 0 -27 -16 -2 -29 -10 -34 -27 -20 -11 9 -15 7 -19 -9 -6 -23
-37 -28 -37 -5 0 8 6 12 14 9 8 -3 16 3 19 15 3 14 10 19 21 15 20 -8 21 6 1
32 -9 11 -13 13 -10 4 4 -10 -2 -15 -20 -16 l-24 -2 25 33 c14 19 21 36 15 39
-5 4 -12 -2 -16 -13 -6 -19 -33 -36 -43 -26 -3 3 0 5 6 5 6 0 9 6 6 14 -3 8 2
16 13 19 10 3 4 4 -14 2 -24 -2 -30 0 -26 11 3 8 9 12 13 9 5 -3 12 -1 15 5 4
6 3 10 -2 9 -30 -5 -40 2 -35 26 2 14 9 25 14 25 6 0 8 -8 5 -19 -3 -14 1 -19
17 -18 15 0 22 6 23 19 2 15 -1 17 -11 9 -9 -8 -17 -2 -30 26 -12 25 -14 39
-7 41 6 2 11 8 11 13 0 6 -5 7 -12 3 -7 -4 -8 -3 -4 4 4 6 13 9 20 6 7 -3 16
2 20 11 4 11 2 14 -6 8 -7 -4 -21 -8 -32 -8 -17 -2 -17 -1 -2 10 21 16 21 26
-1 18 -11 -5 -14 -3 -9 6 5 7 16 11 26 8 12 -3 17 0 14 8 -3 7 -16 12 -30 10
-32 -3 -30 3 4 16 15 7 22 13 15 16 -19 7 -16 50 5 63 14 9 11 10 -17 7 -29
-3 -31 -2 -18 8 20 14 22 36 5 53 -7 7 -8 12 -2 12 5 0 14 -4 19 -9 6 -6 11
-1 11 15 2 19 -2 23 -16 19 -14 -4 -18 0 -16 19 0 13 5 24 10 23 5 -1 11 4 13
11 3 6 -2 12 -11 12 -9 0 -16 5 -16 11 0 6 7 8 16 5 8 -3 12 -2 9 4 -3 6 -1
10 4 10 6 0 11 4 11 9 0 5 -9 7 -20 4 -15 -4 -19 -2 -14 10 3 9 13 14 22 11 9
-3 6 2 -8 10 -24 15 -17 21 17 17 8 -1 10 5 7 13 -5 12 -11 13 -24 6 -25 -13
-30 -13 -24 4 3 8 17 17 31 21 27 6 23 20 -5 20 -9 0 -17 7 -17 15 0 8 -4 18
-10 22 -6 4 -2 8 7 8 18 0 20 23 5 48 -12 18 13 15 35 -5 11 -10 18 -12 18 -4
0 6 -7 14 -15 17 -8 4 -15 11 -15 16 0 6 7 8 15 4 8 -3 15 -4 15 -2 0 3 3 12
7 22 6 17 5 17 -17 1 -36 -25 -40 -21 -22 21 13 30 21 38 36 34 15 -4 18 -1
13 12 -4 10 -3 15 3 11 6 -3 13 1 16 9 3 9 15 16 25 16 10 0 19 5 19 11 0 6 6
9 13 6 8 -3 20 -1 28 4 10 6 10 9 2 9 -7 0 -13 5 -13 11 0 6 7 8 15 5 9 -3 18
1 21 9 4 8 10 15 15 15 5 0 3 -11 -3 -25 -9 -20 -9 -28 1 -38 10 -9 11 -8 6 6
-4 10 -2 17 4 17 6 0 11 -5 11 -12 0 -6 3 -8 6 -5 4 4 2 13 -5 20 -10 13 -6
47 6 47 3 0 2 -7 -1 -16z m54 6 c18 -12 2 -12 -25 0 -13 6 -15 9 -5 9 8 0 22
-4 30 -9z m-234 -22 c-3 -13 -5 -26 -5 -30 -1 -12 -61 -40 -61 -28 0 5 8 11
18 11 16 1 16 2 0 6 -28 7 -21 21 7 15 14 -2 25 -1 24 4 -2 10 11 44 17 44 2
0 2 -10 0 -22z m-286 2 c0 -5 -2 -10 -4 -10 -3 0 -8 5 -11 10 -3 6 -1 10 4 10
6 0 11 -4 11 -10z m144 -15 c-4 -9 0 -15 10 -15 9 0 16 -4 16 -10 0 -17 -29
-11 -39 9 -10 18 -6 31 10 31 5 0 6 -7 3 -15z m55 -42 c-15 -18 -22 -16 -15 3
4 9 1 24 -6 33 -8 10 -5 9 10 -3 17 -15 19 -22 11 -33z m478 -129 c-3 -3 -12
-4 -19 -1 -8 3 -5 6 6 6 11 1 17 -2 13 -5z m73 -29 c0 -8 -4 -15 -10 -15 -5 0
-7 7 -4 15 4 8 8 15 10 15 2 0 4 -7 4 -15z m230 5 c0 -5 -5 -10 -11 -10 -5 0
-7 5 -4 10 3 6 8 10 11 10 2 0 4 -4 4 -10z m-300 -12 c0 -5 -9 -8 -19 -8 -11
0 -21 -6 -24 -12 -3 -7 -5 -3 -4 8 1 16 7 21 24 20 13 0 23 -4 23 -8z m-900
-19 c0 -5 -4 -9 -10 -9 -5 0 -10 7 -10 16 0 8 5 12 10 9 6 -3 10 -10 10 -16z
m965 -19 c-3 -5 -11 -10 -16 -10 -6 0 -7 5 -4 10 3 6 11 10 16 10 6 0 7 -4 4
-10z m15 -24 c0 -3 -4 -8 -10 -11 -5 -3 -10 -1 -10 4 0 6 5 11 10 11 6 0 10
-2 10 -4z m290 -66 c0 -5 -4 -10 -10 -10 -5 0 -10 5 -10 10 0 6 5 10 10 10 6
0 10 -4 10 -10z m-385 -10 c3 -5 1 -10 -4 -10 -6 0 -11 5 -11 10 0 6 2 10 4
10 3 0 8 -4 11 -10z m-1282 -60 c5 -18 -3 -24 -25 -21 -4 0 -5 -8 -3 -19 2
-12 -2 -20 -10 -20 -7 0 -16 -6 -18 -12 -4 -10 -6 -10 -6 -1 -1 6 4 15 9 18 6
3 10 16 10 29 0 21 17 46 31 46 4 0 9 -9 12 -20z m1711 -16 c8 -21 8 -24 -3
-24 -5 0 -11 9 -14 20 -6 24 8 27 17 4z m-404 -28 c0 -3 -4 -8 -10 -11 -5 -3
-10 -1 -10 4 0 6 5 11 10 11 6 0 10 -2 10 -4z m-460 -190 c0 -3 -4 -8 -10 -11
-5 -3 -10 -1 -10 4 0 6 5 11 10 11 6 0 10 -2 10 -4z m-40 -126 c0 -5 -7 -7
-15 -4 -8 4 -15 8 -15 10 0 2 7 4 15 4 8 0 15 -4 15 -10z m625 -20 c16 -16 26
-32 24 -35 -3 -2 -21 11 -39 30 -19 19 -29 35 -24 35 6 0 23 -13 39 -30z m65
-130 c0 -5 -2 -10 -4 -10 -3 0 -8 5 -11 10 -3 6 -1 10 4 10 6 0 11 -4 11 -10z
m-706 -96 c3 -8 2 -13 -3 -10 -5 3 -11 -4 -14 -16 -4 -12 -9 -19 -13 -15 -6 6
14 57 22 57 1 0 5 -7 8 -16z m-204 -4 c0 -5 -2 -10 -4 -10 -3 0 -8 5 -11 10
-3 6 -1 10 4 10 6 0 11 -4 11 -10z m290 -16 c0 -8 -4 -14 -9 -14 -11 0 -22 26
-14 34 9 9 23 -3 23 -20z m-730 -14 c0 -5 -5 -10 -11 -10 -5 0 -7 5 -4 10 3 6
8 10 11 10 2 0 4 -4 4 -10z m842 -12 c-7 -7 -12 -8 -12 -2 0 14 12 26 19 19 2
-3 -1 -11 -7 -17z m-852 -18 c0 -5 -5 -10 -11 -10 -5 0 -7 5 -4 10 3 6 8 10
11 10 2 0 4 -4 4 -10z m750 -31 c0 -5 -4 -9 -10 -9 -5 0 -10 7 -10 16 0 8 5
12 10 9 6 -3 10 -10 10 -16z m108 -11 c15 -15 16 -32 2 -23 -5 3 -10 1 -10 -6
0 -8 -4 -8 -15 1 -8 7 -12 17 -8 24 4 6 -1 5 -10 -3 -9 -7 -17 -9 -17 -4 0 24
38 31 58 11z m-203 -8 c3 -5 2 -10 -4 -10 -5 0 -13 5 -16 10 -3 6 -2 10 4 10
5 0 13 -4 16 -10z m73 -21 c-2 -6 3 -14 10 -16 6 -3 12 2 12 11 0 9 5 16 10
16 6 0 10 -6 10 -12 0 -10 2 -10 8 0 5 7 16 10 26 6 16 -6 15 -8 -4 -26 -12
-11 -24 -17 -27 -14 -3 3 -19 -4 -34 -15 -21 -15 -29 -17 -30 -7 -3 29 6 68
16 68 3 0 4 -5 3 -11z"/>
<path d="M2305 2550 c3 -5 8 -10 11 -10 2 0 4 5 4 10 0 6 -5 10 -11 10 -5 0
-7 -4 -4 -10z"/>
<path d="M1946 2504 c-4 -11 -2 -15 8 -11 8 3 17 1 20 -6 3 -8 5 -8 5 -1 1 6
-5 17 -13 23 -11 9 -15 8 -20 -5z"/>
<path d="M1800 2473 c0 -8 4 -12 9 -8 6 3 14 -3 20 -12 5 -10 13 -14 18 -10 4
5 0 13 -10 18 -9 6 -15 14 -13 18 3 4 -1 8 -9 8 -8 0 -15 -7 -15 -14z"/>
<path d="M1910 2470 c0 -5 5 -10 10 -10 6 0 10 5 10 10 0 6 -4 10 -10 10 -5 0
-10 -4 -10 -10z"/>
<path d="M1952 2460 c0 -14 2 -19 5 -12 2 6 2 18 0 25 -3 6 -5 1 -5 -13z"/>
<path d="M1774 2438 c0 -19 2 -20 28 -10 15 6 14 8 -5 18 -19 8 -23 7 -23 -8z"/>
<path d="M1920 2441 c0 -6 4 -13 10 -16 6 -3 7 1 4 9 -7 18 -14 21 -14 7z"/>
<path d="M1335 2090 c3 -5 8 -10 11 -10 2 0 4 5 4 10 0 6 -5 10 -11 10 -5 0
-7 -4 -4 -10z"/>
<path d="M1416 2087 c3 -10 9 -15 12 -12 3 3 0 11 -7 18 -10 9 -11 8 -5 -6z"/>
<path d="M1389 2066 c7 -8 8 -16 4 -18 -4 -3 -2 -3 5 -2 6 2 12 -1 12 -7 0 -6
4 -8 10 -4 5 3 1 14 -10 25 -23 23 -38 27 -21 6z"/>
<path d="M1990 1940 c-9 -6 -10 -10 -3 -10 6 0 15 5 18 10 8 12 4 12 -15 0z"/>
<path d="M2005 1910 c3 -5 14 -10 23 -10 15 0 15 2 2 10 -20 13 -33 13 -25 0z"/>
<path d="M2570 2089 c0 -5 5 -7 10 -4 6 3 10 8 10 11 0 2 -4 4 -10 4 -5 0 -10
-5 -10 -11z"/>
<path d="M2499 2043 c-13 -16 -12 -17 4 -4 9 7 17 15 17 17 0 8 -8 3 -21 -13z"/>
<path d="M2421 1994 c0 -11 3 -14 6 -6 3 7 2 16 -1 19 -3 4 -6 -2 -5 -13z"/>
<path d="M1735 2290 c-3 -5 -1 -10 4 -10 6 0 11 5 11 10 0 6 -2 10 -4 10 -3 0
-8 -4 -11 -10z"/>
<path d="M1878 2263 c7 -3 16 -2 19 1 4 3 -2 6 -13 5 -11 0 -14 -3 -6 -6z"/>
<path d="M1866 2184 c-3 -9 -13 -14 -21 -10 -8 3 -16 2 -19 -2 -2 -4 6 -9 20
-10 13 -1 24 3 24 9 0 6 9 8 20 4 15 -5 18 -3 14 9 -8 21 -30 20 -38 0z"/>
<path d="M1706 2173 c-12 -12 -6 -22 9 -17 8 4 22 1 30 -6 9 -7 18 -10 21 -7
3 3 -7 12 -24 21 -16 8 -32 12 -36 9z"/>
<path d="M1625 2139 c-4 -6 -5 -12 -2 -15 2 -3 7 2 10 11 7 17 1 20 -8 4z"/>
<path d="M2115 2270 c-3 -6 1 -7 9 -4 18 7 21 14 7 14 -6 0 -13 -4 -16 -10z"/>
<path d="M1697 1924 c-8 -8 1 -24 14 -24 5 0 9 7 9 15 0 15 -12 20 -23 9z"/>
<path d="M1675 1890 c3 -5 8 -10 11 -10 2 0 4 5 4 10 0 6 -5 10 -11 10 -5 0
-7 -4 -4 -10z"/>
<path d="M1788 1867 c-7 -8 -20 -17 -28 -21 -8 -3 -4 -4 9 -2 14 3 32 0 40 -6
13 -10 14 -10 4 1 -6 7 -9 20 -6 27 7 18 -2 18 -19 1z"/>
<path d="M1825 1850 c3 -5 8 -10 11 -10 2 0 4 5 4 10 0 6 -5 10 -11 10 -5 0
-7 -4 -4 -10z"/>
<path d="M1557 1449 c7 -7 15 -10 18 -7 3 3 -2 9 -12 12 -14 6 -15 5 -6 -5z"/>
<path d="M1890 1415 c0 -8 4 -15 10 -15 5 0 7 7 4 15 -4 8 -8 15 -10 15 -2 0
-4 -7 -4 -15z"/>
<path d="M1570 1130 c0 -5 5 -10 11 -10 5 0 7 5 4 10 -3 6 -8 10 -11 10 -2 0
-4 -4 -4 -10z"/>
<path d="M1834 1086 c-10 -8 -16 -18 -11 -22 4 -4 7 -2 7 4 0 7 6 12 14 12 8
0 18 5 21 10 9 15 -8 12 -31 -4z"/>
<path d="M1865 1000 c3 -5 11 -10 16 -10 6 0 7 5 4 10 -3 6 -11 10 -16 10 -6
0 -7 -4 -4 -10z"/>
<path d="M1544 989 c-3 -6 -14 -13 -25 -17 -14 -5 -16 -11 -8 -22 8 -11 12
-12 16 -2 2 6 9 12 14 12 5 0 4 -9 -3 -19 -6 -11 -18 -17 -26 -13 -10 3 -13 1
-8 -6 4 -7 16 -12 27 -12 10 0 19 -5 19 -11 0 -5 -4 -8 -9 -5 -11 7 -23 -22
-15 -35 3 -5 11 -9 19 -9 10 0 13 15 11 61 -2 43 2 62 12 68 12 7 12 9 -2 14
-8 3 -18 2 -22 -4z"/>
<path d="M1870 960 c0 -5 5 -10 10 -10 6 0 10 5 10 10 0 6 -4 10 -10 10 -5 0
-10 -4 -10 -10z"/>
<path d="M1595 919 c-4 -6 -5 -12 -2 -15 2 -3 7 2 10 11 7 17 1 20 -8 4z"/>
<path d="M1820 900 c0 -5 5 -10 11 -10 5 0 7 5 4 10 -3 6 -8 10 -11 10 -2 0
-4 -4 -4 -10z"/>
<path d="M1580 875 c-1 -5 -2 -13 -2 -16 1 -4 -8 -15 -18 -24 -27 -24 -25 -38
3 -30 14 4 18 3 9 -3 -7 -5 -15 -23 -17 -40 -3 -24 0 -32 15 -37 11 -3 19 -9
19 -13 -3 -19 2 -26 10 -13 5 7 14 10 20 6 9 -5 7 -11 -6 -20 -10 -7 -21 -11
-25 -9 -5 3 -8 0 -8 -5 0 -6 4 -11 9 -11 5 0 18 -3 28 -6 15 -5 15 -4 3 5 -13
9 -12 11 3 11 26 0 19 42 -9 54 -16 7 -20 17 -18 45 1 20 7 35 13 34 6 -2 11
2 11 8 0 6 -7 8 -16 5 -23 -9 -37 3 -24 19 7 8 10 22 7 32 -3 10 -6 14 -7 8z
m10 -89 c0 -3 -4 -8 -10 -11 -5 -3 -10 -1 -10 4 0 6 5 11 10 11 6 0 10 -2 10
-4z"/>
<path d="M1765 750 c-3 -5 -1 -10 4 -10 6 0 11 5 11 10 0 6 -2 10 -4 10 -3 0
-8 -4 -11 -10z"/>
<path d="M1638 733 c7 -3 16 -2 19 1 4 3 -2 6 -13 5 -11 0 -14 -3 -6 -6z"/>
<path d="M1561 704 c0 -11 3 -14 6 -6 3 7 2 16 -1 19 -3 4 -6 -2 -5 -13z"/>
<path d="M1775 660 c3 -5 8 -10 11 -10 2 0 4 5 4 10 0 6 -5 10 -11 10 -5 0 -7
-4 -4 -10z"/>
<path d="M1717 623 c3 -7 9 -13 13 -13 4 0 10 6 13 13 3 7 -3 13 -13 13 -10 0
-16 -6 -13 -13z"/>
<path d="M1770 633 c8 -3 19 -11 23 -17 6 -7 7 -6 4 4 -2 8 -12 16 -23 17 -13
2 -15 1 -4 -4z"/>
<path d="M1761 604 c0 -11 3 -14 6 -6 3 7 2 16 -1 19 -3 4 -6 -2 -5 -13z"/>
<path d="M1785 580 c4 -6 11 -8 16 -5 14 9 11 15 -7 15 -8 0 -12 -5 -9 -10z"/>
<path d="M1835 439 c-4 -6 -4 -13 -1 -16 3 -4 6 -1 6 6 0 7 5 9 10 6 6 -3 10
-1 10 4 0 14 -17 14 -25 0z"/>
<path d="M2221 1565 c1 -19 18 -51 18 -35 0 8 -4 22 -9 30 -5 8 -9 11 -9 5z"/>
<path d="M2253 1500 c1 -20 12 -26 20 -12 3 4 -1 13 -8 19 -11 10 -13 9 -12
-7z"/>
<path d="M2315 1489 c-11 -17 1 -21 15 -4 8 9 8 15 2 15 -6 0 -14 -5 -17 -11z"/>
<path d="M1984 1355 c1 -28 11 -33 19 -11 3 8 0 20 -8 26 -10 8 -13 5 -11 -15z"/>
<path d="M2300 1329 c0 -5 5 -7 10 -4 6 3 10 8 10 11 0 2 -4 4 -10 4 -5 0 -10
-5 -10 -11z"/>
<path d="M2369 1283 c-13 -17 -13 -17 6 -3 11 8 22 16 24 17 2 2 0 3 -6 3 -6
0 -17 -8 -24 -17z"/>
<path d="M2250 1260 c-9 -6 -10 -10 -3 -10 6 0 15 5 18 10 8 12 4 12 -15 0z"/>
<path d="M1996 1181 c-4 -7 -5 -15 -2 -18 9 -9 19 4 14 18 -4 11 -6 11 -12 0z"/>
<path d="M2350 1170 c-13 -8 -12 -10 3 -10 9 0 17 5 17 10 0 12 -1 12 -20 0z"/>
<path d="M2295 1140 c-3 -5 -1 -10 4 -10 6 0 11 5 11 10 0 6 -2 10 -4 10 -3 0
-8 -4 -11 -10z"/>
<path d="M2295 1090 c3 -5 8 -10 11 -10 2 0 4 5 4 10 0 6 -5 10 -11 10 -5 0
-7 -4 -4 -10z"/>
<path d="M2000 1020 c0 -13 18 -22 24 -11 3 5 -1 11 -9 15 -8 3 -15 1 -15 -4z"/>
<path d="M2255 950 c-3 -5 -1 -10 4 -10 6 0 11 5 11 10 0 6 -2 10 -4 10 -3 0
-8 -4 -11 -10z"/>
<path d="M2301 903 c-1 -31 -12 -54 -22 -47 -5 3 -6 -3 -2 -12 4 -11 8 -13 11
-6 2 7 9 9 15 5 6 -4 8 0 4 10 -3 9 -2 17 2 19 4 2 4 14 0 28 -6 23 -7 23 -8
3z"/>
<path d="M2018 893 c6 -3 10 -9 7 -14 -4 -5 1 -6 9 -3 23 9 19 20 -6 21 -13 0
-17 -1 -10 -4z"/>
<path d="M1985 780 c-3 -5 1 -10 10 -10 9 0 13 5 10 10 -3 6 -8 10 -10 10 -2
0 -7 -4 -10 -10z"/>
<path d="M1998 748 c5 -5 16 -8 23 -6 8 3 3 7 -10 11 -17 4 -21 3 -13 -5z"/>
<path d="M2325 730 c-3 -5 1 -10 10 -10 9 0 13 5 10 10 -3 6 -8 10 -10 10 -2
0 -7 -4 -10 -10z"/>
<path d="M2060 701 c-8 -6 -17 -8 -21 -5 -4 2 -9 -5 -12 -16 -6 -25 -6 -25 29
5 29 25 31 33 4 16z"/>
<path d="M2101 694 c0 -11 3 -14 6 -6 3 7 2 16 -1 19 -3 4 -6 -2 -5 -13z"/>
<path d="M2136 651 c-4 -7 -5 -15 -2 -18 9 -9 19 4 14 18 -4 11 -6 11 -12 0z"/>
<path d="M2120 612 c9 -19 30 -23 30 -5 0 4 -3 3 -7 0 -3 -4 -12 1 -20 11 -13
15 -13 15 -3 -6z"/>
<path d="M1892 3210 c0 -14 2 -19 5 -12 2 6 2 18 0 25 -3 6 -5 1 -5 -13z"/>
<path d="M1810 3189 c0 -11 4 -18 10 -14 5 3 7 12 3 20 -7 21 -13 19 -13 -6z"/>
<path d="M879 3098 c-6 -11 -3 -58 3 -58 4 0 8 14 8 30 0 25 -6 38 -11 28z"/>
<path d="M791 3065 c-1 -22 69 -247 79 -255 4 -3 9 -13 13 -22 3 -10 12 -18
18 -18 8 0 9 4 0 13 -6 8 -9 16 -6 19 3 3 -1 21 -10 41 -15 36 -15 72 2 117 4
14 8 33 8 42 0 24 -20 23 -21 -1 -1 -22 -12 -41 -23 -41 -7 0 -42 71 -55 110
-3 10 -5 9 -5 -5z"/>
<path d="M1947 2873 c-4 -3 -7 -11 -7 -17 0 -6 5 -5 12 2 6 6 9 14 7 17 -3 3
-9 2 -12 -2z"/>
<path d="M1939 2838 c-9 -31 -7 -48 6 -48 9 0 15 9 15 25 0 14 -4 25 -10 25
-5 0 -10 -1 -11 -2z"/>
<path d="M1860 2819 c0 -5 5 -7 10 -4 6 3 10 8 10 11 0 2 -4 4 -10 4 -5 0 -10
-5 -10 -11z"/>
<path d="M1260 2790 c0 -5 5 -10 10 -10 6 0 10 5 10 10 0 6 -4 10 -10 10 -5 0
-10 -4 -10 -10z"/>
<path d="M1290 2723 c0 -10 10 -24 70 -95 8 -10 18 -18 23 -18 5 0 4 7 -3 15
-9 10 -9 15 -1 15 6 0 11 5 11 11 0 6 -8 9 -18 7 -16 -5 -42 12 -42 27 0 3 -9
15 -20 27 -11 12 -20 17 -20 11z"/>
<path d="M635 2680 c-3 -5 -2 -10 4 -10 5 0 13 5 16 10 3 6 2 10 -4 10 -5 0
-13 -4 -16 -10z"/>
<path d="M3078 813 c7 -3 16 -2 19 1 4 3 -2 6 -13 5 -11 0 -14 -3 -6 -6z"/>
<path d="M1196 472 c-4 -7 -13 -9 -19 -6 -7 4 -2 -3 11 -16 27 -26 40 -20 25
12 -6 15 -12 18 -17 10z"/>
<path d="M2636 454 c9 -40 24 -54 24 -22 0 14 -7 31 -16 39 -13 11 -14 9 -8
-17z"/>
<path d="M2850 207 c0 -8 8 -22 19 -31 10 -9 21 -35 25 -56 3 -22 10 -40 15
-40 11 0 -6 79 -21 97 -6 8 -8 16 -5 20 8 7 66 -15 89 -35 9 -7 25 -12 35 -9
14 4 14 5 -4 6 -13 0 -23 5 -23 10 0 10 -91 51 -114 51 -9 0 -16 -6 -16 -13z"/>
</g>
</svg>
