<?xml version="1.0" standalone="no"?>
<!DOCTYPE svg PUBLIC "-//W3C//DTD SVG 20010904//EN"
 "http://www.w3.org/TR/2001/REC-SVG-20010904/DTD/svg10.dtd">
<svg version="1.0" xmlns="http://www.w3.org/2000/svg"
 width="400.000000pt" height="400.000000pt" viewBox="0 0 400.000000 400.000000"
 preserveAspectRatio="xMidYMid meet">
<metadata>
Created by potrace 1.11, written by Peter Selinger 2001-2013
</metadata>
<g transform="translate(0.000000,400.000000) scale(0.100000,-0.100000)"
fill="#000000" stroke="none">
<path d="M2518 3813 c-9 -10 -18 -36 -22 -58 -3 -22 -8 -60 -11 -85 -14 -98
-19 -115 -50 -145 -11 -12 -49 -34 -83 -50 -68 -31 -92 -61 -92 -112 l0 -28
33 39 c45 53 129 81 167 56 13 -9 12 -13 -8 -30 -13 -11 -21 -24 -18 -29 9
-14 -20 -21 -33 -8 -10 9 -12 9 -9 -2 2 -7 -6 -15 -16 -17 -11 -1 -28 -12 -40
-23 l-20 -21 25 0 c14 0 29 4 35 10 5 5 35 12 66 15 53 6 60 4 81 -19 30 -32
42 -87 46 -201 7 -239 -100 -383 -279 -374 -99 5 -131 1 -150 -16 -20 -18 -20
-18 -7 21 8 22 13 69 12 109 -3 76 -4 81 -30 140 -9 22 -18 50 -20 63 -1 12
-5 25 -8 28 -7 8 21 74 41 98 14 16 14 18 2 15 -8 -3 -26 -27 -39 -53 -22 -45
-25 -47 -38 -30 -18 24 -17 9 2 -24 42 -77 64 -150 61 -205 -2 -35 1 -58 8
-61 6 -2 3 -5 -6 -5 -10 -1 -24 -13 -32 -28 -14 -26 -15 -26 -16 -6 0 12 -4
24 -9 27 -4 3 -11 19 -15 36 -3 17 -10 29 -15 25 -8 -5 3 -55 27 -115 10 -28
3 -74 -16 -99 -27 -36 -39 -36 -40 0 0 18 -6 54 -13 81 -11 47 -12 48 -30 32
-18 -17 -27 -40 -11 -30 4 2 9 -6 10 -20 1 -15 -3 -24 -13 -24 -8 0 -15 -7
-15 -16 0 -13 3 -14 13 -5 8 6 17 8 20 4 13 -13 7 -23 -14 -23 -15 0 -19 -4
-15 -16 6 -15 4 -15 -10 -3 -9 8 -12 15 -6 17 7 2 8 12 2 27 -7 19 -5 24 13
29 18 5 20 8 7 16 -12 7 -13 13 -3 29 11 18 8 31 -8 31 -3 0 -20 -26 -36 -57
-23 -46 -28 -64 -22 -87 8 -27 7 -28 -8 -13 -21 20 -24 78 -7 133 17 58 4 56
-22 -4 l-21 -47 -17 39 c-9 22 -18 54 -21 70 -2 17 -4 31 -5 31 -1 0 -3 19 -3
43 -1 23 1 42 6 42 4 0 7 9 7 20 0 11 4 20 9 20 5 0 12 14 16 30 4 17 11 30
16 30 5 0 9 7 9 15 0 7 7 18 16 23 14 8 14 10 1 15 -9 3 -16 18 -16 34 -1 15
-3 39 -5 53 -2 14 -5 28 -5 33 -1 4 -5 7 -9 7 -4 0 -3 -30 2 -67 9 -67 8 -69
-30 -143 -21 -41 -39 -85 -39 -97 0 -12 -3 -25 -7 -28 -3 -4 -3 -19 1 -33 4
-15 7 -40 6 -55 -1 -19 3 -26 13 -22 8 3 10 1 5 -8 -10 -16 -11 -28 -2 -53 6
-18 4 -21 -12 -17 -10 3 -19 10 -19 15 0 6 -7 7 -15 4 -9 -3 -18 1 -21 9 -6
14 -17 14 -64 3 -8 -1 -17 -5 -20 -8 -19 -19 -48 -26 -72 -18 -16 6 -28 14
-28 20 0 5 -5 6 -11 3 -9 -6 -109 87 -109 102 0 2 -12 20 -26 39 -15 19 -23
34 -19 34 4 0 3 6 -3 13 -6 7 -19 40 -27 73 -39 141 -40 150 -17 207 7 16 12
31 12 34 0 11 53 55 79 65 14 6 42 12 61 13 47 4 45 4 34 15 -7 7 -25 8 -52 1
-30 -6 -42 -6 -42 3 0 7 -4 6 -9 -3 -6 -9 -11 -10 -15 -2 -9 14 -36 14 -36 0
0 -5 5 -7 12 -3 7 4 8 3 4 -5 -4 -7 -15 -10 -24 -8 -31 7 -70 -21 -77 -54 -5
-22 -10 -28 -15 -19 -17 27 18 74 63 85 19 5 32 18 42 41 14 34 52 60 95 65
29 3 120 -35 120 -50 0 -6 5 -11 10 -11 6 0 10 14 10 30 0 52 -76 106 -155
109 -83 3 -138 49 -175 148 -22 57 -26 75 -29 121 0 12 -6 22 -12 22 -8 0 -10
-14 -6 -42 3 -24 12 -95 20 -158 9 -63 14 -124 13 -135 -10 -80 -19 -141 -32
-208 -19 -109 -10 -351 18 -442 18 -61 73 -143 150 -222 38 -40 67 -76 64 -81
-3 -5 -27 -6 -55 -2 -53 7 -138 5 -186 -5 -16 -3 -42 -7 -58 -9 -15 -2 -30 -6
-34 -10 -12 -12 -22 -6 -17 9 5 11 2 13 -12 8 -11 -4 -15 -3 -10 5 3 6 -2 28
-13 48 -15 28 -18 41 -9 51 13 16 -2 17 -23 0 -9 -7 -14 -18 -11 -26 3 -9 0
-11 -7 -7 -15 10 -55 98 -67 149 -1 4 -3 10 -4 15 -1 4 -2 11 -1 16 1 4 -3 13
-8 20 -5 6 -9 20 -7 30 1 11 -5 36 -15 56 -17 36 -20 74 -6 96 10 17 18 94 9
94 -4 0 -6 16 -4 35 2 19 0 35 -5 35 -5 0 -9 -26 -9 -57 1 -40 -4 -62 -14 -70
-12 -9 -19 -3 -38 35 -13 25 -21 51 -18 59 3 7 0 13 -6 13 -7 0 -8 -13 -4 -37
4 -21 9 -48 11 -61 2 -13 8 -29 15 -36 6 -8 12 -27 14 -42 2 -16 16 -55 30
-86 14 -31 24 -63 21 -70 -3 -8 1 -28 10 -44 8 -16 15 -39 15 -51 0 -13 4 -23
8 -23 11 0 37 -76 35 -102 -1 -14 3 -18 13 -14 9 3 12 2 9 -5 -4 -6 -13 -8
-21 -5 -8 3 -25 1 -38 -5 -24 -11 -26 -10 -80 36 -21 18 -70 46 -109 62 -29
13 -40 24 -44 46 -6 29 -7 29 -21 11 -13 -18 -14 -16 -8 15 5 29 4 32 -9 21
-8 -7 -15 -19 -15 -27 0 -8 -4 -12 -10 -8 -6 4 -6 15 0 31 13 34 13 39 -5 24
-8 -7 -15 -19 -15 -27 0 -8 -4 -12 -9 -8 -6 3 -6 18 0 37 5 17 6 34 3 37 -8 9
-24 -22 -24 -49 -1 -22 -2 -23 -11 -8 -7 13 -5 26 6 48 13 25 13 30 1 30 -36
0 -47 -113 -12 -132 12 -6 22 -11 23 -10 2 1 20 -6 40 -15 21 -9 44 -16 51
-16 6 0 12 -3 12 -7 0 -3 22 -14 50 -24 50 -18 116 -63 180 -123 31 -28 40
-32 76 -28 31 4 47 1 66 -15 15 -11 31 -20 38 -20 6 0 9 -4 5 -9 -3 -6 3 -14
12 -20 16 -9 15 -11 -9 -20 -36 -14 -48 -34 -14 -25 32 8 62 -13 92 -65 l23
-41 -25 -19 c-14 -11 -20 -22 -15 -25 5 -4 12 -2 16 3 10 17 62 -9 88 -42 33
-45 40 -67 22 -73 -8 -4 -13 -10 -10 -15 3 -4 16 -4 28 0 21 8 53 -9 41 -22
-3 -2 8 -9 25 -15 25 -9 29 -15 25 -36 -4 -25 -2 -26 38 -25 52 2 106 -10 115
-24 4 -6 8 -23 9 -37 8 -70 39 -100 104 -100 28 0 30 -2 24 -27 -4 -15 -7 -34
-7 -43 0 -23 -13 -27 -75 -24 -78 4 -121 -25 -151 -102 -11 -31 -21 -62 -21
-70 0 -8 -9 -14 -20 -14 -11 0 -20 6 -20 13 0 9 -2 9 -8 0 -6 -10 -17 -10 -46
-2 -32 9 -40 8 -51 -8 -7 -10 -11 -21 -9 -25 3 -4 -2 -5 -12 -1 -13 5 -15 2
-10 -18 3 -13 3 -19 0 -12 -4 9 -14 7 -37 -8 -18 -10 -40 -19 -49 -19 -10 0
-18 -5 -18 -10 0 -6 3 -9 8 -9 26 4 30 -2 16 -31 -9 -18 -23 -30 -35 -30 -11
0 -19 -7 -19 -16 0 -8 4 -12 10 -9 14 9 12 -8 -3 -29 -8 -11 -27 -19 -44 -20
-24 -1 -29 -4 -21 -13 6 -7 16 -13 22 -13 7 0 21 -7 32 -16 18 -15 18 -15 -3
-9 -14 4 -32 0 -45 -9 -12 -9 -34 -16 -48 -17 l-25 -1 28 -10 c39 -14 34 -39
-18 -87 -42 -39 -56 -61 -37 -61 4 0 14 6 21 13 11 10 11 8 1 -12 -6 -13 -20
-26 -31 -28 -10 -3 -16 -9 -13 -14 3 -5 0 -9 -5 -9 -6 0 -11 5 -11 10 0 6 -5
10 -11 10 -6 0 -9 -7 -5 -15 3 -8 1 -15 -4 -15 -6 0 -10 -7 -10 -15 0 -9 -6
-12 -17 -8 -12 5 -14 3 -9 -8 4 -8 0 -5 -9 6 -17 20 -17 20 -10 -2 4 -16 2
-23 -7 -23 -8 0 -24 -9 -36 -20 -12 -11 -26 -20 -32 -20 -5 0 -10 -4 -10 -9 0
-5 -8 -11 -17 -15 -16 -5 -71 -35 -111 -60 -7 -4 -10 -11 -7 -16 3 -5 24 2 48
16 23 13 45 24 49 24 4 0 6 -34 5 -75 -1 -41 1 -75 6 -75 4 0 8 10 9 23 1 12
3 31 4 42 1 11 2 34 3 51 1 40 56 97 106 110 14 3 25 11 25 16 0 6 6 8 14 5 7
-3 28 8 45 24 18 16 36 29 40 29 5 0 11 9 14 21 3 12 10 18 16 14 6 -3 11 1
11 9 0 9 -5 16 -12 16 -6 0 -9 3 -5 6 6 7 39 -10 38 -19 -1 -4 -1 -16 -1 -27
0 -31 15 -23 17 9 2 34 34 111 46 111 4 0 5 5 2 10 -3 6 -2 10 4 10 5 0 15 16
22 34 7 19 16 33 21 30 4 -3 5 2 2 10 -3 9 -1 16 5 16 6 0 11 7 11 15 0 8 5
15 10 15 6 0 10 7 10 15 0 8 3 15 8 15 4 0 18 25 31 55 13 30 27 55 31 55 4 0
12 12 19 26 9 22 14 24 26 14 10 -8 32 -11 63 -7 l47 5 1 -131 c1 -104 9 -281
15 -325 3 -21 -2 -43 -9 -38 -4 2 -14 1 -22 -5 -12 -7 -11 -9 5 -9 18 -1 17
-2 -5 -15 -30 -17 -44 -19 -35 -4 4 6 -11 1 -34 -10 -22 -12 -48 -21 -57 -21
-13 0 -14 -3 -4 -15 7 -9 9 -22 4 -32 -4 -10 -8 -21 -8 -25 -1 -3 -4 -10 -8
-14 -5 -4 -8 -12 -8 -18 0 -6 5 -4 10 4 7 10 10 11 10 2 0 -7 -11 -18 -25 -24
-19 -9 -22 -14 -14 -25 14 -16 33 -18 23 -1 -4 7 -3 8 4 4 9 -5 9 -13 2 -26
-6 -11 -9 -30 -7 -42 2 -13 2 -17 0 -10 -3 8 -11 11 -20 8 -8 -3 -19 -6 -24
-6 -5 0 -9 -4 -9 -10 0 -5 7 -10 15 -10 8 0 15 -5 15 -11 0 -5 5 -7 11 -3 8 4
9 -1 4 -16 -5 -17 -4 -21 5 -15 9 6 11 4 6 -4 -5 -7 -13 -11 -20 -8 -6 2 -19
-5 -28 -15 -15 -15 -15 -18 -3 -18 8 0 15 -5 15 -11 0 -5 4 -7 10 -4 5 3 10 1
10 -5 0 -7 -7 -10 -15 -7 -8 4 -17 2 -20 -2 -3 -5 2 -12 11 -15 9 -4 12 -11 7
-18 -4 -7 -6 -23 -4 -36 1 -13 -4 -25 -14 -28 -13 -6 -14 -9 -3 -15 11 -8 11
-10 -1 -18 -11 -7 -11 -9 0 -14 11 -4 11 -6 1 -6 -7 -1 -23 -10 -35 -22 -22
-21 -22 -21 -1 -17 21 3 24 0 24 -29 0 -9 -3 -13 -6 -10 -4 4 -19 -3 -35 -13
-15 -11 -30 -16 -33 -11 -3 5 -15 7 -26 4 -11 -3 -27 0 -35 7 -12 10 -16 10
-20 -1 -4 -11 -28 -14 -96 -14 -87 1 -121 -7 -78 -18 11 -3 34 -1 51 4 33 9
78 3 78 -11 0 -5 -16 -23 -35 -41 -19 -19 -35 -38 -35 -44 0 -5 5 -3 10 5 5 8
10 11 10 6 0 -6 12 2 27 16 41 38 81 61 93 53 5 -3 16 -3 22 2 7 4 24 6 38 5
17 -2 39 9 66 32 31 26 44 32 53 23 8 -8 11 -6 12 11 2 35 7 75 12 112 4 19 9
64 13 100 3 36 8 81 9 100 2 19 7 60 11 90 4 30 7 58 6 63 -1 4 3 7 8 7 6 0
27 11 48 24 20 14 49 28 63 31 25 6 27 4 34 -37 17 -103 91 -223 203 -331 56
-54 208 -142 262 -152 23 -4 288 145 310 175 3 4 13 11 23 17 10 5 42 33 71
61 51 50 58 64 93 194 5 19 32 19 56 0 8 -7 23 -9 32 -5 14 5 16 3 10 -7 -6
-10 -4 -12 8 -7 12 5 20 -6 33 -51 16 -55 21 -94 26 -229 2 -35 6 -63 10 -63
4 0 4 -7 1 -17 -4 -10 -2 -14 4 -10 7 5 14 -6 18 -25 10 -44 16 -53 26 -37 7
11 9 11 9 1 0 -25 31 -45 112 -73 93 -33 118 -51 118 -89 0 -14 7 -35 16 -46
15 -19 15 -19 10 1 -3 11 -8 37 -12 58 -3 20 -10 37 -16 37 -5 0 -7 4 -3 9 7
12 62 -5 86 -25 18 -17 53 -19 44 -3 -4 6 -13 8 -21 5 -8 -3 -14 -2 -14 3 0 8
-35 27 -88 47 -28 10 -34 9 -42 -5 -5 -9 -10 -11 -10 -4 0 9 -80 47 -100 48
-13 0 -45 32 -46 45 -1 8 -5 24 -10 34 -6 16 -4 18 19 14 15 -3 27 -1 27 3 0
5 -7 9 -15 9 -9 0 -18 7 -21 15 -8 20 -21 19 -27 -3 -4 -13 -5 -12 -6 5 0 12
-4 23 -8 26 -5 2 -3 3 3 1 15 -3 5 53 -13 67 -12 11 -13 8 -8 -17 4 -23 3 -25
-4 -9 -13 27 -13 58 -1 50 5 -3 7 0 4 8 -5 15 20 47 37 47 5 0 9 5 9 11 0 5
-4 7 -10 4 -10 -6 -46 14 -49 28 0 4 -1 8 -2 10 -7 22 -4 38 7 48 12 10 10 15
-9 33 -13 12 -21 28 -19 35 2 7 -1 17 -8 21 -9 5 -6 13 11 29 l23 21 -25 0
c-15 0 -38 13 -59 35 -26 27 -37 32 -51 24 -14 -7 -17 -6 -13 4 3 8 -2 17 -11
21 -9 3 -14 10 -11 14 3 5 7 22 10 38 2 16 8 49 12 74 4 25 9 54 11 65 8 54
17 275 11 275 -5 0 -8 7 -8 16 0 9 5 12 11 8 8 -5 10 1 7 17 -4 23 -2 24 43
21 26 -2 55 1 66 6 15 9 23 2 51 -43 19 -30 34 -57 34 -62 0 -4 22 -52 49
-105 27 -54 49 -104 49 -113 0 -8 5 -15 11 -15 5 0 8 -4 4 -9 -3 -5 -1 -12 4
-15 11 -7 25 -68 27 -121 2 -67 8 -105 15 -105 9 0 20 60 13 71 -9 15 23 10
36 -6 7 -8 40 -34 74 -56 33 -23 63 -45 66 -48 3 -4 18 -15 34 -25 61 -39 86
-68 80 -92 -4 -15 -2 -24 6 -24 6 0 8 6 5 13 -4 6 3 1 16 -13 l22 -25 -7 35
c-3 20 -17 44 -32 56 -28 23 -20 38 19 33 12 -2 28 1 36 5 9 6 12 5 7 -2 -4
-7 1 -10 14 -7 11 2 20 -1 20 -6 0 -6 5 -7 10 -4 27 17 -49 47 -85 34 -18 -6
-95 11 -95 21 0 6 -7 10 -15 10 -9 0 -20 12 -25 26 -6 14 -16 24 -23 22 -6 -2
-23 6 -36 19 -16 15 -20 23 -10 24 11 0 -12 14 -41 24 -34 12 -40 18 -29 31 6
8 23 14 38 15 l26 1 -28 12 c-15 7 -24 16 -20 20 5 4 2 6 -6 4 -7 -2 -16 3
-18 10 -3 7 4 12 18 12 27 0 20 9 -11 15 -13 3 -27 10 -31 16 -5 8 -8 8 -10 0
-2 -6 -11 2 -21 18 l-16 29 29 -3 c35 -5 48 11 15 19 -14 3 -29 19 -37 37 -11
28 -10 33 4 44 24 17 21 23 -10 19 -22 -2 -31 3 -40 23 -11 22 -10 28 5 39 16
12 16 13 -3 20 -11 4 -28 14 -37 22 -15 13 -18 13 -19 1 -1 -19 -17 21 -18 44
-1 10 3 16 7 13 4 -2 14 -1 22 5 12 7 12 9 2 9 -8 0 -28 15 -45 33 -21 22 -28
26 -23 12 7 -18 6 -18 -13 2 -25 26 -27 35 -6 27 22 -9 18 3 -10 33 -18 20
-21 30 -13 40 14 17 4 16 -33 -2 -16 -9 -27 -20 -24 -25 4 -6 2 -10 -4 -10 -5
0 -12 6 -14 13 -3 7 -6 5 -6 -5 -1 -13 -9 -18 -28 -17 -24 2 -25 2 -5 6 33 7
27 20 -9 19 -21 -1 -33 4 -35 14 -2 8 -6 29 -9 45 -9 46 -39 90 -58 87 -9 -2
-17 2 -17 8 0 7 -6 8 -19 0 -14 -7 -22 -7 -26 1 -5 6 -12 4 -21 -8 -13 -16
-14 -16 -8 0 3 9 1 17 -5 17 -6 0 -11 -6 -11 -12 0 -9 -3 -10 -8 -2 -12 18
-73 26 -90 12 -13 -10 -14 -10 -8 0 4 7 2 12 -8 12 -11 0 -14 10 -13 42 2 40
4 42 53 58 77 27 94 40 94 77 0 17 4 34 8 37 10 6 94 18 145 21 56 3 57 3 57
28 0 13 11 33 25 45 13 12 34 39 45 62 11 22 25 38 30 35 6 -4 10 -2 10 4 0 5
-5 11 -12 13 -10 4 -9 14 1 46 8 23 18 42 23 42 5 0 8 6 7 13 -6 33 43 103 63
91 14 -9 8 13 -7 26 -12 10 -11 15 8 34 12 12 31 26 42 31 17 7 18 9 3 12 -10
2 -15 10 -12 18 6 15 8 14 72 -18 l34 -17 81 53 c130 85 265 147 321 147 9 0
18 12 22 28 3 15 7 32 9 38 5 16 -23 74 -35 74 -8 0 -7 -6 1 -21 11 -22 4 -89
-10 -89 -4 0 -6 14 -3 30 2 17 -1 37 -8 45 -18 22 -33 18 -20 -4 13 -25 13
-61 0 -61 -5 0 -10 9 -10 19 0 11 -5 23 -10 26 -7 4 -9 -6 -7 -29 3 -20 0 -39
-4 -42 -5 -3 -9 2 -9 10 0 27 -27 17 -33 -12 -4 -22 -18 -33 -66 -55 -34 -15
-61 -32 -61 -37 0 -5 -6 -7 -14 -4 -7 3 -20 -1 -27 -8 -8 -8 -33 -25 -56 -38
-24 -13 -43 -27 -43 -32 0 -8 -15 -7 -63 7 -26 7 -26 8 -10 21 17 13 17 13 -1
14 -14 0 -16 3 -7 13 6 8 21 13 33 12 13 -1 28 2 35 7 7 5 17 7 23 3 5 -3 10
-2 10 4 0 11 -36 25 -65 26 -16 0 -19 6 -17 30 2 16 8 35 14 42 5 7 7 21 3 32
-3 11 -2 29 4 39 5 10 6 24 1 32 -5 8 -6 18 -3 24 3 5 7 30 9 55 2 25 5 57 8
71 3 14 8 44 12 68 4 23 10 42 15 42 12 0 39 59 45 100 5 33 -16 100 -31 100
-4 0 0 -37 6 -50 7 -16 2 -78 -6 -77 -5 1 -9 -5 -7 -14 1 -9 -5 -19 -13 -23
-9 -3 -14 -2 -10 3 3 5 -3 17 -12 27 -12 11 -17 31 -16 60 1 24 -3 47 -9 50
-9 6 -8 -20 4 -133 2 -13 6 -23 9 -23 4 0 9 -9 12 -20 3 -11 2 -20 -3 -20 -4
0 -10 -17 -13 -37 -3 -21 -8 -51 -11 -68 -4 -16 -8 -54 -11 -83 -3 -30 -7 -58
-10 -63 -4 -5 0 -9 7 -9 9 0 9 -3 2 -8 -6 -4 -11 -14 -12 -22 -3 -70 -6 -91
-12 -95 -10 -6 -51 31 -43 39 3 3 1 6 -6 6 -8 0 -11 -6 -7 -16 17 -43 18 -67
5 -75 -9 -5 -10 -9 -2 -9 17 0 4 -36 -23 -65 -13 -14 -19 -25 -14 -25 6 0 10
-4 10 -10 0 -5 -7 -7 -15 -4 -15 6 -22 -11 -7 -19 4 -2 2 -2 -5 -1 -7 2 -15
-1 -18 -6 -4 -6 -1 -10 5 -10 17 0 2 -42 -24 -65 -28 -26 -60 -95 -37 -81 18
11 4 -27 -14 -40 -14 -10 -15 -14 -4 -14 12 0 12 -2 0 -9 -8 -5 -10 -14 -6
-21 6 -9 4 -11 -5 -5 -10 6 -12 4 -7 -8 4 -10 2 -16 -6 -14 -7 1 -12 -8 -12
-20 0 -12 -5 -26 -9 -30 -5 -5 -6 -2 -1 6 6 10 4 12 -4 7 -7 -4 -11 -15 -10
-24 3 -38 0 -43 -22 -31 -12 6 -24 7 -28 3 -3 -5 -14 -10 -24 -12 -13 -2 -9 5
15 27 18 17 27 31 21 31 -7 0 -13 -5 -13 -10 0 -6 -11 -15 -24 -22 -14 -6 -27
-20 -29 -32 -3 -20 -4 -20 -15 4 l-12 25 3 -26 4 -27 -38 13 c-20 8 -39 11
-42 9 -2 -3 -7 2 -10 10 -4 11 -1 13 11 10 12 -4 11 -2 -3 8 -22 14 -26 26
-28 75 -1 24 8 42 32 66 l32 34 -25 46 c-43 83 -16 149 75 183 48 18 232 26
261 12 19 -9 58 21 58 44 0 7 -7 3 -16 -8 -15 -18 -23 -19 -93 -11 -42 4 -109
7 -148 5 -40 -2 -73 -3 -73 -2 0 14 41 73 78 110 110 114 176 213 190 288 9
46 8 241 -1 316 -14 109 -44 215 -78 271 -18 30 -36 56 -40 59 -4 3 -16 32
-27 65 -22 68 -28 178 -12 219 13 35 8 42 -12 19z m-3 -303 c-3 -5 -12 -10
-18 -10 -7 0 -6 4 3 10 19 12 23 12 15 0z m20 -31 c-9 -23 -43 -41 -51 -27 -4
6 -3 8 3 5 6 -4 13 0 16 7 3 8 1 17 -6 20 -7 3 -2 3 11 0 14 -3 22 -1 22 7 0
7 2 10 5 7 3 -3 3 -12 0 -19z m-65 7 c0 -3 -4 -8 -10 -11 -5 -3 -10 -1 -10 4
0 6 5 11 10 11 6 0 10 -2 10 -4z m-1166 -33 c13 -24 15 -25 16 -8 l1 20 11
-20 c15 -26 14 -29 -22 -33 -22 -2 -30 1 -30 13 0 9 5 13 10 10 13 -8 13 1 0
26 -6 10 -8 19 -6 19 3 0 12 -12 20 -27z m1232 -22 l-27 -29 45 -6 c34 -5 46
-12 46 -24 0 -14 -2 -15 -10 -2 -9 15 -89 19 -125 6 -18 -7 -18 -6 -3 6 9 7
26 20 37 28 12 8 21 19 21 24 0 11 33 36 39 30 3 -2 -8 -17 -23 -33z m-1176
19 c0 -5 -2 -10 -4 -10 -3 0 -8 5 -11 10 -3 6 -1 10 4 10 6 0 11 -4 11 -10z
m-70 -71 c0 -4 -7 -6 -15 -3 -8 4 -15 10 -15 15 0 4 7 6 15 3 8 -4 15 -10 15
-15z m1340 -24 c11 -13 10 -14 -4 -9 -9 3 -16 10 -16 15 0 13 6 11 20 -6z
m-17 -39 c3 -7 -1 -13 -9 -13 -8 0 -12 3 -9 5 3 3 0 11 -7 19 -8 11 -7 12 5 7
8 -3 18 -11 20 -18z m43 -61 c4 -34 2 -45 -6 -40 -6 4 -9 13 -6 21 3 8 2 14
-2 14 -4 0 -8 19 -8 42 -2 55 14 27 22 -37z m-40 6 c-4 -5 0 -11 6 -14 7 -2
10 -8 5 -12 -10 -12 -31 11 -23 24 4 6 9 11 12 11 3 0 3 -4 0 -9z m14 -51 c0
-5 -5 -10 -11 -10 -5 0 -7 5 -4 10 3 6 8 10 11 10 2 0 4 -4 4 -10z m36 -82 c2
-34 0 -58 -4 -52 -4 6 -14 14 -22 17 -12 4 -11 6 3 6 16 1 17 7 11 54 -4 28
-3 49 1 44 5 -4 10 -35 11 -69z m-39 40 c-3 -8 -6 -5 -6 6 -1 11 2 17 5 13 3
-3 4 -12 1 -19z m-1388 -28 c-12 -33 -24 -42 -14 -10 4 13 2 20 -7 20 -10 0
-9 3 2 10 25 16 29 11 19 -20z m1397 -15 c1 -8 -2 -15 -7 -15 -5 0 -9 10 -9
22 0 23 12 17 16 -7z m9 -85 c1 -40 -17 -33 -20 7 -2 20 2 30 9 27 6 -2 11
-18 11 -34z m-1395 -6 c0 -8 -5 -12 -10 -9 -6 4 -8 11 -5 16 9 14 15 11 15 -7z
m1420 -41 c0 -20 -3 -33 -7 -30 -3 4 -11 -1 -18 -10 -7 -9 -17 -13 -23 -9 -17
10 -15 29 2 23 19 -7 36 12 36 40 0 13 2 23 5 23 3 0 5 -16 5 -37z m-1425 -7
c10 -10 11 -16 2 -25 -17 -17 -22 -14 -25 14 -2 28 3 31 23 11z m-5 -91 c-14
-16 0 -27 17 -14 8 7 13 8 13 1 0 -5 -6 -15 -14 -21 -17 -14 -9 -50 10 -52 29
-3 33 -4 45 -16 10 -10 10 -13 1 -13 -7 0 -12 4 -12 8 0 4 -9 8 -20 9 -11 1
-20 -4 -20 -12 0 -9 6 -12 15 -9 8 4 15 1 15 -6 0 -6 -5 -8 -11 -4 -7 4 -10 1
-7 -7 6 -18 29 -19 49 -2 14 12 17 11 23 -3 4 -12 2 -15 -9 -11 -8 4 -17 2
-20 -3 -4 -6 -1 -10 5 -10 6 0 9 -4 5 -9 -3 -5 -1 -12 4 -15 5 -4 12 2 14 11
3 10 5 5 4 -11 -1 -17 4 -31 12 -34 8 -2 11 0 8 5 -3 5 0 10 8 10 19 0 19 -2
-1 -22 -13 -13 -19 -14 -25 -4 -4 8 -10 11 -13 8 -3 -3 6 -20 21 -37 25 -30
27 -31 45 -16 10 10 18 22 18 27 0 6 -9 2 -19 -7 -13 -12 -21 -14 -26 -6 -4 6
-1 9 7 8 8 -2 12 4 10 15 -3 16 0 17 17 7 12 -6 21 -20 21 -31 0 -11 -4 -18
-9 -14 -20 12 -22 -18 -3 -38 19 -19 22 -19 28 -4 8 23 20 21 20 -2 0 -11 -4
-17 -8 -15 -10 6 -11 -10 -1 -19 3 -4 13 -1 22 5 13 10 14 10 4 -2 -9 -10 -9
-18 -1 -34 14 -26 18 -76 6 -76 -4 0 -8 11 -8 25 0 14 -5 25 -11 25 -5 0 -7 5
-4 10 4 6 -22 39 -57 73 -64 65 -98 103 -98 113 0 3 5 2 10 -1 6 -3 10 1 10 9
0 9 -4 16 -10 16 -5 0 -10 6 -10 14 0 8 -5 18 -11 22 -9 5 -10 -1 -5 -22 9
-34 5 -31 -22 18 -25 44 -40 97 -46 163 -4 45 -3 48 10 31 9 -13 10 -23 4 -31z
m1390 10 c0 -8 -7 -15 -17 -15 -15 0 -15 -2 1 -19 11 -12 14 -21 7 -26 -6 -3
-11 -1 -11 5 0 6 -5 8 -11 4 -8 -4 -7 -9 2 -15 7 -4 10 -11 6 -15 -4 -4 -12
-3 -19 4 -8 8 -8 15 3 28 11 13 11 18 2 21 -7 3 -13 10 -13 16 0 5 3 8 6 4 4
-3 13 0 21 8 18 19 23 19 23 0z m30 -16 c-11 -36 -20 -49 -20 -28 0 25 12 59
20 59 5 0 5 -14 0 -31z m-1360 -55 c0 -2 -9 -4 -20 -4 -11 0 -20 4 -20 9 0 5
9 7 20 4 11 -3 20 -7 20 -9z m1332 -16 c-7 -7 -12 -8 -12 -2 0 6 3 14 7 17 3
4 9 5 12 2 2 -3 -1 -11 -7 -17z m-48 -31 c-8 -21 -34 -22 -34 -1 0 8 5 12 10
9 6 -3 10 1 10 10 0 10 -5 13 -12 9 -7 -5 -8 -3 -3 5 11 19 38 -11 29 -32z
m-1224 7 c0 -8 -19 -13 -24 -6 -3 5 1 9 9 9 8 0 15 -2 15 -3z m1194 -33 c3 -4
-4 -17 -14 -31 l-18 -24 6 29 c4 23 2 27 -11 22 -11 -4 -14 -2 -11 7 5 13 40
11 48 -3z m-74 -41 c0 -7 -13 -7 -38 -1 -2 1 -1 5 3 11 6 10 35 2 35 -10z m93
-8 c-10 -9 -28 -31 -40 -47 -12 -17 -24 -28 -26 -25 -7 6 63 90 75 90 4 0 0
-8 -9 -18z m-77 -17 c-19 -14 -36 -12 -36 5 0 5 6 7 14 4 8 -3 17 0 21 6 4 6
10 8 13 5 4 -4 -2 -13 -12 -20z m-831 -13 c-42 -39 -88 -99 -118 -155 -14 -27
-28 -44 -31 -38 -4 6 0 21 7 33 8 13 20 40 27 61 6 20 16 37 21 37 6 0 8 4 5
9 -8 12 48 64 76 73 41 11 43 8 13 -20z m584 -4 c14 -13 26 -32 26 -43 0 -11
5 -19 12 -18 6 1 14 -4 17 -13 5 -12 2 -13 -15 -3 -16 8 -20 8 -14 -1 4 -6 18
-15 31 -20 15 -6 24 -18 24 -30 0 -12 4 -19 8 -16 5 3 9 0 10 -7 1 -7 4 -24 8
-39 11 -48 -12 -31 -42 30 -16 31 -32 59 -35 62 -3 3 -20 26 -38 53 -17 26
-37 47 -42 47 -6 0 -7 5 -4 10 10 16 25 12 54 -12z m36 4 c-3 -3 -11 0 -18 7
-9 10 -8 11 6 5 10 -3 15 -9 12 -12z m-194 -19 c-8 -15 -10 -15 -11 -2 0 17
10 32 18 25 2 -3 -1 -13 -7 -23z m-235 -58 c23 -21 34 -24 80 -20 29 2 63 9
75 15 17 10 20 9 17 -1 -5 -16 -40 -27 -93 -28 -57 -1 -82 8 -100 35 -20 31
-13 30 21 -1z m212 -4 c1 -38 27 -87 55 -105 25 -16 82 -32 141 -39 69 -9 65
-26 -5 -22 -96 6 -154 35 -188 94 -18 33 -32 82 -25 92 11 18 21 8 22 -20z
m416 4 c-9 -14 -21 -25 -27 -25 -6 0 0 11 13 25 13 14 25 25 27 25 2 0 -4 -11
-13 -25z m-688 -43 c-33 -53 -138 -116 -219 -132 -47 -9 -37 1 18 19 60 19
104 41 133 64 39 33 82 80 82 91 0 5 3 7 6 4 3 -4 -6 -24 -20 -46z m368 33
c-4 -8 -11 -15 -16 -15 -6 0 -5 6 2 15 7 8 14 15 16 15 2 0 1 -7 -2 -15z
m-486 -25 c-7 -11 -16 -20 -20 -20 -5 0 -8 -10 -8 -21 0 -17 -3 -19 -13 -10
-8 6 -17 8 -21 4 -4 -4 -4 0 0 10 3 9 10 14 15 11 5 -3 9 1 9 8 0 18 20 38 37
38 11 0 11 -4 1 -20z m689 14 c-3 -3 -12 -4 -19 -1 -8 3 -5 6 6 6 11 1 17 -2
13 -5z m-147 -19 c0 -1 -9 -10 -19 -19 -18 -17 -19 -16 -17 7 1 17 6 23 19 19
9 -2 17 -5 17 -7z m-526 -27 c-3 -4 -11 -8 -17 -7 -9 0 -9 2 0 5 7 3 9 13 6
22 -4 14 -3 14 5 2 6 -8 8 -18 6 -22z m737 3 c-13 -11 -21 -24 -18 -28 3 -4
-6 -16 -19 -26 -13 -10 -24 -15 -24 -11 0 12 72 95 78 90 3 -3 -5 -15 -17 -25z
m-197 4 c-4 -8 -11 -15 -16 -15 -6 0 -5 6 2 15 7 8 14 15 16 15 2 0 1 -7 -2
-15z m-224 -5 c0 -5 -5 -10 -11 -10 -5 0 -7 5 -4 10 3 6 8 10 11 10 2 0 4 -4
4 -10z m-97 -16 c-3 -9 -13 -14 -24 -11 -15 4 -19 0 -19 -18 0 -13 5 -27 10
-30 6 -3 10 -1 10 6 0 10 3 10 12 1 17 -17 28 -15 28 4 0 8 -4 12 -10 9 -5 -3
-10 -1 -10 4 0 6 5 11 10 11 6 0 10 7 10 15 0 8 4 15 9 15 4 0 7 -20 6 -45 -1
-32 2 -42 10 -35 6 5 10 23 9 40 -3 38 11 39 31 0 15 -29 15 -30 -5 -30 -11 0
-20 -7 -20 -15 0 -12 4 -13 19 -5 25 13 54 13 46 0 -4 -6 -10 -8 -15 -5 -5 3
-11 1 -15 -4 -5 -9 44 -5 54 5 2 2 -1 16 -8 30 -6 15 -9 29 -6 32 3 4 8 -4 12
-16 3 -12 10 -22 15 -22 6 0 7 -7 4 -16 -5 -13 -3 -14 7 -6 20 17 40 -1 32
-29 -7 -23 -7 -24 9 -4 15 20 15 20 17 -5 1 -15 3 -19 6 -9 2 11 11 15 23 12
12 -3 17 -11 13 -21 -4 -16 -4 -16 9 -1 14 17 64 17 81 0 21 -21 -122 -32
-223 -17 -80 11 -200 16 -200 7 0 -4 -46 -6 -102 -5 -112 3 -156 8 -166 20 -4
4 1 4 11 1 9 -4 17 -3 17 2 0 5 10 8 23 7 12 0 21 4 20 10 -1 6 4 11 12 11 8
0 11 -5 8 -10 -3 -5 0 -7 8 -5 8 3 14 13 14 24 0 12 6 18 18 16 9 -2 17 2 17
8 0 5 4 10 10 10 5 0 6 -8 3 -17 -6 -16 -5 -16 10 -4 10 8 21 11 24 7 4 -4 1
-11 -7 -16 -17 -11 -5 -12 28 -4 12 4 22 11 22 16 0 6 -6 8 -13 5 -27 -10 -54
30 -33 50 5 4 7 4 4 -2 -9 -15 14 -31 41 -29 25 2 41 19 41 47 0 14 5 17 19
12 11 -3 22 -1 26 5 10 15 15 12 8 -6z m344 1 c0 -8 -4 -12 -9 -9 -5 3 -6 10
-3 15 9 13 12 11 12 -6z m-1247 1 c0 -3 -4 -8 -10 -11 -5 -3 -10 -1 -10 4 0 6
5 11 10 11 6 0 10 -2 10 -4z m840 -6 c0 -5 -4 -10 -10 -10 -5 0 -10 5 -10 10
0 6 5 10 10 10 6 0 10 -4 10 -10z m178 -36 l0 -27 -13 24 c-13 24 -11 44 4 34
5 -2 9 -17 9 -31z m-208 4 c0 -9 4 -8 10 2 6 9 10 10 10 3 0 -19 -14 -22 -35
-7 -16 12 -17 14 -2 14 9 0 17 -6 17 -12z m-803 -22 c2 -2 -11 -10 -29 -19
-30 -14 -34 -14 -50 0 -10 9 -18 19 -18 23 0 7 90 3 97 -4z m345 -5 c25 -6 59
-16 75 -23 35 -16 83 -64 83 -83 0 -8 4 -15 8 -15 11 0 6 -55 -8 -91 -7 -16
-16 -29 -21 -29 -21 0 -6 -40 27 -70 29 -26 38 -30 46 -19 8 11 9 11 5 -2 -3
-9 0 -22 6 -28 8 -8 8 -11 -1 -11 -7 0 -12 -4 -12 -10 0 -5 6 -7 14 -4 8 3 20
-3 27 -14 20 -28 49 -40 99 -41 45 -1 150 26 160 40 10 15 84 17 105 3 11 -7
31 -15 45 -18 14 -3 37 -8 53 -11 29 -6 30 -5 21 20 -4 10 -9 12 -13 6 -4 -6
-12 -7 -21 -1 -13 8 -12 10 2 10 10 0 22 10 29 22 9 18 9 20 -4 15 -9 -3 -21
1 -27 9 -7 8 -19 14 -26 14 -8 0 -14 5 -14 11 0 6 9 9 20 6 11 -3 23 -1 26 4
3 5 0 8 -8 7 -7 -2 -12 3 -10 10 2 10 -3 10 -20 -2 -12 -9 -28 -16 -35 -16
-21 0 -15 17 10 25 18 6 14 9 -25 17 -44 9 -48 13 -48 38 0 43 10 60 35 60 13
0 26 8 29 17 6 15 8 15 23 0 15 -15 18 -15 34 4 19 22 38 22 56 -1 11 -13 12
-13 7 3 -10 28 25 21 38 -8 9 -19 9 -28 0 -37 -16 -16 -15 -29 1 -25 6 1 12
-5 12 -13 0 -9 -9 -15 -21 -14 -15 0 -21 -6 -20 -20 1 -20 26 -36 26 -16 0 6
4 9 8 6 5 -3 28 1 53 8 24 8 55 13 69 12 14 -1 28 3 32 9 10 14 42 -20 33 -35
-6 -9 -10 -9 -16 1 -7 11 -9 11 -9 1 0 -8 -9 -11 -27 -8 -25 5 -26 4 -10 -8
21 -16 22 -27 2 -20 -8 4 -15 1 -15 -5 0 -6 -5 -11 -11 -11 -5 0 -8 4 -5 8 2
4 -6 9 -20 10 -28 2 -59 -25 -59 -52 0 -30 -22 -30 -29 0 -6 21 -10 24 -19 14
-9 -10 -9 -14 1 -17 14 -5 17 -33 3 -33 -6 0 -13 5 -16 10 -13 21 -24 9 -13
-15 11 -24 15 -25 57 -19 25 3 67 12 94 19 26 8 47 10 47 5 0 -11 -90 -41
-101 -34 -5 3 -9 1 -9 -3 0 -5 -29 -9 -65 -8 -36 0 -65 -3 -65 -7 0 -4 -11 -1
-25 6 -36 19 -69 15 -74 -9 -3 -16 -1 -17 12 -7 13 11 15 10 10 -7 -4 -15 -1
-21 11 -21 9 0 16 8 16 21 0 11 4 18 9 15 5 -3 7 -15 4 -26 -3 -11 0 -20 6
-20 6 0 11 4 11 9 0 5 8 12 17 15 14 6 13 2 -4 -16 -16 -17 -19 -28 -13 -38
17 -26 11 -38 -22 -46 -31 -6 -32 -7 -10 -15 26 -10 27 -15 7 -36 -8 -8 -13
-19 -10 -24 4 -5 1 -9 -4 -9 -6 0 -11 5 -11 10 0 6 -5 10 -11 10 -5 0 -7 -6
-3 -12 5 -9 2 -8 -10 1 -9 8 -15 20 -12 27 3 7 1 14 -4 16 -9 3 -13 33 -11 92
1 33 3 37 16 26 11 -9 15 -9 15 -1 0 6 -7 14 -15 17 -11 5 -12 10 -4 26 15 28
7 31 -50 23 -33 -4 -51 -12 -51 -20 0 -8 -4 -17 -10 -20 -6 -3 -7 1 -4 9 4 10
1 16 -10 16 -10 0 -13 -6 -10 -17 4 -12 3 -14 -3 -6 -6 8 -31 11 -73 9 -73 -3
-110 6 -136 35 -24 27 -42 24 -46 -8 -2 -24 -8 -28 -31 -27 -38 2 -108 25
-102 34 6 10 -33 45 -41 37 -4 -4 1 -9 10 -13 24 -9 20 -19 -8 -19 -13 0 -22
3 -19 8 2 4 -3 7 -11 7 -20 0 -50 46 -40 61 4 7 3 9 -4 6 -10 -7 -61 45 -63
64 -1 5 -2 12 -3 17 -2 12 -36 57 -36 48 0 -5 -7 -3 -15 4 -8 7 -15 18 -14 24
0 7 2 6 6 -1 2 -7 10 -13 16 -13 7 0 -6 16 -28 35 -21 19 -36 37 -32 41 4 4 7
2 7 -4 0 -7 5 -12 10 -12 6 0 5 8 -2 19 -7 11 -15 18 -19 15 -4 -2 -10 0 -14
6 -3 5 -1 10 5 10 6 0 8 5 5 10 -4 6 -10 8 -15 5 -4 -3 -16 8 -25 23 -18 27
-18 27 2 10 24 -22 40 -24 19 -2 -18 18 -11 38 10 30 7 -3 16 -1 19 4 3 5 11
7 18 4 8 -3 24 -1 38 4 29 11 98 8 161 -7z m158 -1 c0 -5 -5 -10 -11 -10 -5 0
-7 5 -4 10 3 6 8 10 11 10 2 0 4 -4 4 -10z m314 -154 c37 -13 52 -14 62 -5 15
12 15 11 20 -39 2 -26 -1 -32 -13 -28 -9 4 -6 -5 9 -23 13 -16 25 -28 28 -27
3 0 5 -3 5 -9 0 -5 -11 -10 -25 -9 -20 0 -24 5 -22 22 2 16 -1 20 -12 16 -9
-3 -14 -15 -13 -26 1 -12 -4 -23 -10 -25 -7 -3 -13 0 -13 7 0 6 5 8 10 5 6 -3
10 -2 10 4 0 5 -4 13 -10 16 -5 3 -10 1 -10 -4 0 -6 -5 -10 -11 -8 -6 1 -14
-4 -17 -12 -2 -8 0 -11 6 -7 6 4 8 -2 5 -14 -3 -11 -9 -18 -13 -15 -5 3 -11 1
-15 -5 -4 -6 -11 -8 -16 -5 -5 4 -9 1 -9 -4 0 -6 10 -11 23 -11 16 0 19 -3 8
-9 -8 -5 -11 -16 -7 -27 5 -15 2 -15 -13 4 -11 12 -23 22 -27 22 -4 0 -5 -3
-1 -6 3 -4 0 -13 -8 -20 -18 -19 -31 -18 -15 0 9 11 9 19 0 33 -11 17 -11 17
-6 -1 5 -14 2 -17 -10 -12 -9 4 -23 1 -30 -5 -11 -9 -14 -9 -14 0 0 7 -5 9
-12 5 -7 -5 -8 -3 -3 6 6 10 3 12 -11 8 -12 -3 -29 5 -44 20 -14 14 -18 21
-10 17 11 -6 12 -5 4 4 -6 7 -20 13 -32 14 -11 0 -19 4 -17 8 3 3 -3 15 -11
25 -13 16 -15 16 -10 2 6 -20 -9 -34 -19 -17 -4 6 -1 18 8 26 13 13 22 13 78
-3 35 -10 67 -22 70 -27 4 -5 12 -6 18 -3 6 4 11 3 11 -1 0 -5 8 -9 18 -9 9
-1 25 -4 35 -9 9 -4 17 -3 17 3 0 8 -24 20 -52 26 -11 2 -22 16 -12 16 5 0 9
11 9 25 0 14 -3 25 -7 25 -5 0 -8 -9 -8 -20 0 -19 -1 -19 -25 2 -14 12 -25 26
-25 32 0 5 7 1 16 -10 14 -18 15 -18 4 5 -10 18 -9 25 1 32 7 4 10 12 5 16 -4
4 -13 0 -20 -10 -7 -9 -17 -17 -21 -17 -4 0 -2 7 5 15 10 12 10 15 -3 15 -9 0
-18 4 -21 8 -2 4 4 8 15 8 10 0 19 -3 19 -7 0 -4 10 -5 21 -2 21 6 21 7 4 19
-16 12 -16 13 4 11 18 -1 21 -6 16 -24 -3 -13 -1 -23 5 -23 5 0 9 3 9 8 -3 18
2 32 12 32 5 0 7 -6 3 -12 -5 -9 -3 -9 9 1 9 7 14 18 10 25 -4 6 4 4 18 -5 14
-9 47 -24 73 -33z m351 13 c5 9 10 9 20 1 8 -7 18 -9 23 -6 5 3 9 -8 9 -25 0
-16 -3 -26 -6 -21 -3 4 -16 9 -29 9 -20 2 -21 0 -7 -14 9 -8 13 -18 9 -22 -4
-3 -9 -1 -11 6 -2 7 -10 10 -16 7 -9 -3 -12 8 -12 35 0 22 2 35 6 29 4 -7 9
-6 14 1z m-558 -65 c-3 -3 -12 -4 -19 -1 -8 3 -5 6 6 6 11 1 17 -2 13 -5z
m-403 -30 c3 -8 2 -12 -4 -9 -6 3 -10 10 -10 16 0 14 7 11 14 -7z m1004 -108
c-1 -14 -6 -23 -10 -20 -4 2 -12 -4 -18 -13 -10 -16 -11 -16 -5 2 4 11 10 28
12 38 8 26 23 21 21 -7z m-335 -133 c-4 -11 -2 -14 5 -9 7 4 12 2 12 -3 0 -6
-5 -11 -10 -11 -7 0 -8 -7 -3 -17 5 -10 8 -25 7 -33 -1 -8 -2 -21 -3 -28 0 -7
-5 -10 -11 -7 -5 3 -10 2 -10 -4 0 -5 8 -15 18 -20 16 -10 16 -10 0 -11 -9 0
-20 -5 -24 -12 -4 -7 -3 -8 4 -4 12 7 17 -6 7 -16 -10 -9 -70 7 -71 20 -1 7
-3 15 -4 20 -1 4 -2 10 -1 14 0 4 -11 19 -26 34 -14 14 -23 19 -20 10 4 -10 1
-16 -7 -16 -9 0 -12 7 -9 19 5 21 34 38 30 18 -1 -7 4 -11 11 -9 6 1 12 -6 12
-15 1 -13 6 -9 17 11 15 28 14 30 -8 49 l-24 19 27 -16 c36 -21 47 -20 41 4
-3 12 0 20 6 20 7 0 9 -4 6 -10 -3 -5 -2 -10 3 -10 16 0 21 27 9 41 -10 11 -9
11 5 0 10 -7 14 -19 11 -28z m217 -7 c0 -3 -4 -8 -10 -11 -5 -3 -10 -1 -10 4
0 6 5 11 10 11 6 0 10 -2 10 -4z m-35 -37 c-4 -5 -12 -9 -18 -8 -9 0 -8 2 1 6
6 2 9 10 6 15 -4 7 -2 8 5 4 6 -4 9 -12 6 -17z m-351 -29 c-3 -2 -9 2 -13 9
-5 8 -11 9 -15 3 -3 -5 1 -15 9 -22 8 -7 15 -9 15 -5 0 5 9 0 21 -11 16 -14
22 -15 28 -5 5 7 11 9 14 4 7 -11 -3 -28 -23 -37 -8 -3 -3 -4 12 -1 15 3 30 1
33 -5 3 -5 1 -10 -4 -10 -6 0 -11 -8 -11 -17 0 -15 -2 -16 -10 -3 -7 11 -10
11 -10 2 0 -9 -13 -12 -44 -10 -29 2 -41 7 -35 13 11 11 12 28 0 21 -8 -5 -21
22 -25 50 0 6 8 23 18 37 18 23 21 24 32 9 7 -9 10 -19 8 -22z m26 36 c0 -3
-4 -8 -10 -11 -5 -3 -10 -1 -10 4 0 6 5 11 10 11 6 0 10 -2 10 -4z m55 -6 c3
-5 1 -10 -4 -10 -6 0 -11 5 -11 10 0 6 2 10 4 10 3 0 8 -4 11 -10z m329 -3
c-2 -7 -13 -13 -24 -13 -22 0 -27 12 -7 19 23 10 36 7 31 -6z m-481 -10 c4 3
7 2 7 -3 -1 -14 -48 -45 -55 -35 -3 5 4 13 15 16 18 6 19 9 8 23 -11 15 -11
15 3 5 9 -7 19 -10 22 -6z m557 -12 c-6 -8 -14 -36 -16 -62 -3 -26 -6 -48 -7
-49 -12 -11 -137 -5 -137 7 0 6 9 8 22 3 21 -6 21 -6 5 10 -9 10 -14 22 -11
27 3 6 -2 9 -11 7 -10 -2 -20 2 -22 9 -4 12 21 12 33 1 3 -4 11 -5 17 -4 7 2
9 1 5 -1 -12 -7 -9 -33 3 -33 5 0 7 5 4 10 -6 10 7 14 32 11 7 -1 9 7 6 20 -5
19 -4 20 16 10 23 -13 28 -2 9 17 -7 7 -8 12 -4 12 5 0 15 -8 23 -17 10 -13
13 -14 10 -3 -4 15 12 39 27 40 5 0 3 -7 -4 -15z m40 -9 c0 -3 -4 -8 -10 -11
-5 -3 -10 -1 -10 4 0 6 5 11 10 11 6 0 10 -2 10 -4z m-160 -16 c0 -5 -2 -10
-4 -10 -3 0 -8 5 -11 10 -3 6 -1 10 4 10 6 0 11 -4 11 -10z m30 0 c0 -5 -2
-10 -4 -10 -3 0 -8 5 -11 10 -3 6 -1 10 4 10 6 0 11 -4 11 -10z m110 -21 c0
-6 7 -9 15 -6 16 7 29 -8 20 -23 -8 -13 -55 9 -55 27 0 7 5 13 10 13 6 0 10
-5 10 -11z m-192 -49 c-7 -11 -15 -15 -17 -9 -2 6 3 15 10 20 20 12 21 11 7
-11z m176 5 c3 -8 1 -15 -4 -15 -6 0 -10 7 -10 15 0 8 2 15 4 15 2 0 6 -7 10
-15z m-385 -87 c11 -10 13 -10 7 0 -4 6 -2 12 3 12 6 0 11 -6 11 -14 0 -8 4
-18 10 -21 5 -3 7 0 4 8 -3 8 0 18 7 23 8 4 10 3 5 -4 -4 -7 -3 -12 3 -12 5 0
13 5 16 10 5 8 11 8 20 0 9 -8 15 -8 20 0 4 7 12 7 26 -1 11 -6 26 -9 32 -6
25 9 32 7 33 -13 1 -16 -2 -18 -12 -9 -11 9 -14 8 -14 -1 0 -10 -3 -10 -15 0
-8 6 -23 9 -33 6 -17 -6 -91 -8 -134 -4 -9 1 -16 9 -15 20 1 21 8 23 26 6z
m251 -28 c0 -5 -5 -10 -11 -10 -5 0 -7 5 -4 10 3 6 8 10 11 10 2 0 4 -4 4 -10z
m-525 -97 c-13 -15 -21 -31 -18 -36 3 -6 1 -7 -5 -3 -7 4 -12 2 -12 -5 0 -7
-3 -9 -6 -6 -12 11 45 89 58 80 4 -2 -3 -16 -17 -30z m135 6 c0 -6 -4 -7 -10
-4 -5 3 -10 11 -10 16 0 6 5 7 10 4 6 -3 10 -11 10 -16z m688 -10 c-3 -8 -7
-3 -11 10 -4 17 -3 21 5 13 5 -5 8 -16 6 -23z m-183 1 c-6 -18 -1 -23 25 -22
3 0 16 3 30 6 24 7 24 6 -2 -9 -33 -19 -35 -34 -8 -67 10 -14 16 -28 13 -32
-3 -3 -1 -6 5 -6 6 0 14 5 17 10 3 6 1 10 -4 10 -6 0 -11 6 -11 13 0 18 18 42
26 34 4 -3 1 -14 -7 -23 -12 -15 -12 -16 8 -10 24 8 36 -5 27 -29 -4 -9 -13
-14 -22 -10 -12 4 -13 3 -2 -10 11 -13 14 -12 31 8 10 12 18 17 19 10 0 -6 -4
-15 -10 -18 -5 -3 -10 -11 -10 -17 0 -6 7 -5 17 3 15 13 15 12 4 -8 -10 -19
-9 -23 3 -23 10 0 12 -7 8 -22 -6 -21 -7 -21 -10 -4 -3 14 -6 15 -12 6 -5 -7
0 -20 12 -32 13 -13 16 -23 10 -31 -5 -7 -6 -21 -1 -32 9 -24 11 -21 13 32 2
44 11 62 23 48 5 -4 2 -10 -4 -12 -7 -3 -13 -9 -13 -15 0 -6 8 -7 17 -4 15 6
15 5 -1 -13 -12 -13 -14 -21 -6 -26 8 -5 4 -15 -11 -31 -13 -14 -17 -24 -10
-24 7 0 9 -5 6 -10 -9 -15 4 -50 18 -47 7 1 18 9 24 17 11 13 12 12 6 -5 -3
-11 -10 -22 -14 -25 -4 -3 -9 -16 -10 -30 -2 -14 -12 -27 -23 -30 -11 -3 -20
-13 -22 -22 -1 -11 3 -15 12 -11 16 6 20 -22 4 -32 -5 -3 -10 -11 -10 -18 0
-6 7 -2 15 10 8 12 24 21 34 20 19 -1 19 -17 0 -17 -5 0 -18 -9 -28 -19 -18
-18 -18 -20 -3 -27 9 -4 20 -7 24 -6 10 2 -7 -51 -18 -55 -6 -2 -9 9 -6 26 3
25 1 30 -16 28 -20 -1 -20 -27 1 -27 5 0 -1 -10 -14 -21 -23 -21 -23 -21 -2
-15 12 4 24 2 28 -4 3 -5 1 -10 -5 -10 -7 0 -8 -6 -2 -17 7 -12 3 -23 -15 -41
-26 -25 -45 -23 -23 3 7 9 8 15 2 15 -6 0 -13 8 -15 18 -3 9 -5 2 -6 -17 -1
-28 -4 -33 -21 -28 -16 4 -18 2 -10 -12 10 -21 2 -63 -11 -55 -5 3 -9 2 -10
-3 0 -4 -2 -18 -5 -30 -4 -26 14 -42 27 -22 13 21 11 29 -8 29 -15 0 -16 2 -3
10 10 6 21 4 34 -8 18 -16 19 -16 13 0 -6 17 9 35 19 25 9 -8 -16 -48 -26 -42
-5 3 -11 1 -15 -5 -3 -5 -1 -10 4 -10 6 0 10 -5 8 -12 -3 -19 -21 -36 -31 -31
-4 3 -2 9 5 14 10 6 10 9 2 9 -6 0 -14 -4 -17 -8 -8 -13 -47 -7 -57 9 -7 11
-9 11 -9 1 0 -8 -5 -10 -12 -5 -19 11 -39 13 -32 2 3 -5 12 -9 21 -9 13 0 13
-3 2 -17 -11 -15 -11 -16 1 -5 12 10 16 8 26 -9 7 -14 14 -18 18 -10 4 6 2 11
-3 11 -6 0 -11 4 -11 8 0 12 35 9 48 -4 8 -9 4 -15 -18 -24 -20 -8 -27 -17
-23 -28 5 -12 1 -14 -16 -9 -15 3 -21 1 -18 -6 6 -18 -12 -49 -25 -41 -20 12
-78 22 -78 13 0 -5 6 -9 13 -10 9 0 9 -2 0 -5 -18 -8 -57 36 -44 49 8 8 11 8
11 -1 0 -7 7 -12 16 -12 10 0 7 8 -13 26 -21 19 -24 27 -14 33 15 10 6 31 -12
31 -7 0 -13 9 -13 21 0 14 5 19 18 16 11 -3 18 0 18 9 0 7 6 12 13 10 6 -1 9
-1 4 1 -4 3 -5 9 -1 14 3 5 1 9 -4 9 -6 0 -12 -7 -16 -15 -7 -20 -73 -17 -81
3 -3 9 -1 18 5 22 6 4 8 14 4 23 -3 9 -10 15 -14 12 -5 -3 -7 3 -5 12 2 10 4
21 4 26 1 11 31 8 31 -4 0 -5 5 -7 12 -3 9 6 9 9 0 12 -7 2 -12 10 -12 18 0
10 -6 11 -26 4 -16 -7 -23 -7 -19 0 3 6 12 10 19 10 7 0 12 14 12 37 0 20 5
38 12 41 7 2 12 9 12 15 0 8 -3 8 -11 0 -6 -6 -17 -9 -25 -6 -10 3 -7 12 11
31 18 19 21 28 12 34 -9 6 -9 10 -1 16 16 10 -8 88 -26 84 -11 -3 -11 0 1 14
11 13 11 18 1 21 -13 5 -7 23 9 23 6 0 8 -4 4 -9 -3 -5 -1 -12 5 -16 22 -14 8
28 -17 50 -16 13 -22 25 -15 25 7 0 10 5 7 10 -3 6 1 11 9 11 45 4 51 11 24
28 -11 7 -17 8 -13 2 3 -6 2 -11 -4 -11 -6 0 -15 9 -21 20 -9 16 -8 22 5 26
18 7 20 44 3 44 -7 0 -2 9 12 20 14 11 20 20 14 20 -12 0 -15 30 -2 30 4 0 7
3 7 8 -1 4 -1 16 0 27 1 14 4 16 9 7 5 -7 16 -10 26 -6 12 5 14 10 6 19 -8 10
-6 13 7 11 10 0 17 5 16 12 -2 6 6 12 17 12 10 0 24 8 29 18 7 11 10 12 11 3
0 -7 6 -11 15 -7 20 7 51 -4 35 -14 -8 -5 -6 -11 5 -20 13 -11 15 -10 10 3 -4
10 1 17 14 22 20 6 20 7 3 30 -17 23 -17 23 -28 3 -8 -14 -13 -17 -18 -9 -4 6
-12 9 -17 6 -5 -4 -9 -1 -9 5 0 7 8 9 19 5 12 -3 21 0 25 10 3 9 10 13 16 10
5 -3 10 -1 10 4 0 6 3 11 6 11 3 0 2 -9 -1 -20z m55 10 c8 -5 11 -10 5 -10 -5
0 -17 5 -25 10 -8 5 -10 10 -5 10 6 0 17 -5 25 -10z m-574 -26 c10 4 22 0 29
-11 13 -17 14 -17 36 2 l22 20 -11 -22 c-9 -17 -9 -22 3 -26 10 -4 12 -1 8 11
-3 11 1 8 11 -6 10 -12 22 -20 27 -16 5 3 8 2 7 -3 -5 -18 26 -50 44 -45 15 4
19 0 16 -14 -2 -13 2 -18 15 -16 9 2 17 -1 17 -7 0 -5 3 -18 7 -28 3 -10 3
-15 -2 -11 -9 8 -28 -10 -38 -36 -5 -13 -3 -17 7 -13 10 4 20 -4 30 -23 14
-28 2 -39 -16 -15 -11 15 -9 -18 2 -35 7 -11 10 -11 10 -2 0 7 5 10 11 7 7 -5
5 -13 -7 -26 -17 -19 -12 -55 6 -44 5 3 10 2 10 -4 0 -5 -9 -9 -20 -8 -11 1
-20 6 -20 11 0 5 -7 1 -15 -10 -8 -10 -14 -23 -15 -29 0 -5 5 -3 10 5 9 13 10
13 10 0 0 -12 2 -12 8 -2 5 7 16 10 25 6 14 -5 14 -8 2 -20 -7 -8 -21 -14 -29
-14 -9 0 -16 -4 -16 -8 0 -5 10 -8 22 -8 14 1 24 -6 26 -16 2 -12 -3 -18 -15
-17 -10 0 -13 3 -5 6 6 2 12 9 12 15 0 6 -18 -9 -41 -32 -31 -32 -38 -45 -29
-54 8 -8 10 -7 5 7 -8 20 20 25 29 5 4 -9 5 -8 5 2 -2 28 1 40 10 40 5 0 8
-19 8 -42 -1 -31 2 -42 11 -40 8 1 11 -2 7 -8 -3 -5 -16 -10 -27 -10 -20 0
-20 -1 -4 -19 17 -18 17 -19 -1 -24 -16 -4 -15 -6 5 -12 25 -8 26 -10 12 -36
-7 -11 -7 -19 -1 -19 5 0 8 -15 5 -34 -2 -22 1 -36 8 -39 7 -2 6 -3 -4 -2 -11
2 -17 -6 -20 -26 -3 -16 -2 -29 1 -29 3 0 11 -12 18 -26 10 -22 10 -25 -3 -20
-13 5 -13 3 1 -16 20 -30 19 -38 -5 -33 -11 2 -20 0 -20 -6 0 -5 -5 -9 -11 -9
-5 0 -7 5 -4 10 3 5 2 10 -3 10 -16 0 -35 -48 -28 -73 8 -33 -4 -42 -19 -14
-6 12 -8 24 -4 27 5 3 0 11 -11 18 -15 9 -21 9 -26 -1 -4 -6 -4 -9 1 -5 4 4
14 -4 22 -18 18 -36 16 -43 -6 -17 -10 12 -21 19 -25 16 -11 -11 -7 -23 8 -23
8 0 17 -7 20 -16 3 -8 11 -12 17 -8 8 4 9 3 5 -4 -4 -7 -3 -12 3 -12 5 0 11 5
13 12 6 17 44 19 58 3 8 -9 8 -15 2 -15 -6 0 -12 6 -15 13 -2 6 -8 8 -13 4 -5
-5 -2 -14 8 -21 14 -10 15 -15 5 -25 -10 -11 -7 -12 13 -6 19 6 22 5 14 -5
-15 -15 -57 -3 -48 13 5 8 2 8 -7 -1 -21 -19 -34 -14 -16 6 24 26 21 32 -7 19
-13 -7 -22 -15 -20 -19 2 -3 -1 -10 -7 -14 -9 -5 -10 0 -7 14 4 12 2 22 -4 22
-5 0 -7 4 -3 9 3 5 1 12 -4 15 -5 3 -11 -4 -15 -17 -3 -12 -1 -23 4 -25 5 -2
7 -9 4 -16 -6 -16 31 -50 45 -41 6 3 9 0 5 -8 -4 -10 4 -14 27 -13 20 1 34 -5
37 -14 5 -13 3 -13 -12 -1 -15 12 -21 11 -47 -8 l-29 -22 -9 23 c-5 13 -7 26
-4 31 2 4 -1 7 -6 7 -6 0 -11 -4 -11 -10 0 -5 -5 -10 -11 -10 -6 0 -9 6 -6 14
4 9 -3 16 -19 20 -13 4 -24 12 -24 20 0 7 -7 20 -17 27 -15 13 -15 12 -3 -11
13 -25 13 -25 -7 -5 -11 11 -18 26 -15 34 3 9 1 12 -6 7 -7 -4 -12 -2 -12 3 0
6 10 11 22 11 17 0 19 3 10 12 -9 9 -16 8 -30 -5 -26 -24 -30 -22 -26 19 2 33
1 34 -13 17 -14 -17 -14 -17 -9 0 3 10 2 16 -3 13 -8 -5 -39 23 -33 31 5 8 1
24 -5 20 -5 -3 -9 5 -9 18 -3 38 -27 83 -41 78 -16 -6 -17 9 -1 25 9 9 9 12
-3 12 -12 0 -12 2 1 10 12 7 12 10 1 10 -8 0 -11 6 -7 16 3 8 2 13 -2 10 -4
-2 -9 14 -10 37 -3 60 -8 96 -15 103 -3 3 -2 17 3 30 6 16 6 24 -1 24 -6 0 -9
6 -6 13 2 6 0 21 -6 31 -11 22 -20 279 -9 272 4 -2 9 -35 10 -73 2 -37 8 -73
14 -80 7 -9 7 -13 0 -13 -13 0 -3 -42 12 -52 8 -5 7 -8 -1 -8 -7 0 -13 -4 -13
-10 0 -5 7 -7 15 -4 8 4 15 1 15 -5 0 -6 -7 -11 -16 -11 -14 0 -14 -3 -4 -15
7 -9 10 -18 6 -22 -3 -3 1 -17 9 -29 11 -17 12 -24 2 -28 -8 -3 -4 -11 12 -24
16 -13 20 -21 12 -26 -16 -10 -14 -29 3 -23 10 4 13 1 9 -9 -4 -11 -9 -12 -18
-4 -8 7 -16 7 -19 2 -5 -9 16 -24 36 -26 3 -1 10 -5 15 -10 4 -5 3 -6 -3 -3
-7 4 -15 -1 -18 -10 -6 -15 -8 -15 -16 -3 -6 10 -10 11 -10 3 0 -7 13 -19 29
-27 26 -14 30 -14 35 1 4 9 9 13 13 9 4 -3 -4 -17 -17 -31 -18 -19 -20 -28
-12 -38 7 -8 9 -17 5 -20 -3 -4 -1 -7 5 -7 7 0 12 5 12 10 0 6 5 10 12 10 9 0
9 -3 1 -11 -6 -6 -9 -18 -6 -25 6 -16 43 -19 43 -4 0 6 -4 10 -9 10 -12 0 -21
39 -10 46 5 3 9 0 9 -6 0 -6 4 -9 9 -5 6 3 14 -3 20 -12 6 -10 11 -13 11 -7 0
5 -13 23 -30 39 -17 16 -30 39 -30 52 0 20 -3 22 -19 13 -28 -15 -38 -12 -16
4 16 12 17 16 6 30 -11 13 -11 19 -1 31 9 11 9 15 1 15 -7 0 -9 5 -6 10 5 8
11 7 21 -1 7 -6 11 -16 7 -22 -3 -6 -1 -7 6 -3 18 12 -20 57 -43 52 -6 -2 -8
-1 -3 1 4 3 7 12 7 21 0 15 -2 15 -11 2 -9 -13 -10 -13 -6 0 2 8 13 15 25 15
11 0 25 5 29 10 4 6 4 7 -1 3 -5 -4 -17 -3 -27 3 -24 12 -25 49 -1 50 16 1 16
2 -1 6 -15 4 -16 7 -5 21 12 15 11 16 -4 3 -16 -12 -18 -11 -18 3 0 9 8 16 21
16 11 0 17 5 14 10 -4 6 -14 9 -23 8 -11 -2 -18 5 -20 21 -2 15 0 21 7 17 18
-11 13 3 -9 26 -21 22 -28 54 -10 43 6 -4 8 -9 6 -13 -2 -4 3 -14 12 -22 14
-13 15 -12 8 5 -5 11 -8 28 -8 37 0 11 -4 15 -15 11 -12 -5 -15 -2 -11 8 19
49 19 59 4 53 -9 -3 -16 -2 -16 4 0 5 9 12 20 15 11 3 20 1 20 -4 0 -5 4 -9 8
-9 5 0 9 7 9 15 0 8 -9 15 -19 15 -10 0 -18 5 -18 10 0 6 5 10 10 10 6 0 10 5
10 11 0 5 -5 7 -12 3 -6 -4 -8 -3 -4 4 3 5 1 12 -4 14 -7 2 -4 11 5 23 16 20
16 20 10 -2 -4 -14 -2 -23 5 -23 6 0 9 4 6 9 -3 5 1 14 9 21 12 10 19 10 33
-1 15 -13 16 -12 3 4 -8 10 -20 16 -27 13 -7 -3 -16 -1 -19 4 -4 6 -1 10 4 10
6 0 11 9 11 20 0 25 29 38 41 19 8 -12 10 -12 8 1 -4 29 12 51 33 44 18 -5 19
-4 8 18 -10 21 -10 22 4 4 9 -11 21 -16 32 -12z m740 -14 c9 -23 21 -37 28
-34 6 3 2 -2 -8 -10 -11 -9 -27 -16 -35 -16 -11 0 -10 4 5 15 12 9 14 14 5 15
-8 0 -11 6 -7 15 4 10 1 15 -9 13 -14 -3 -16 7 -8 30 8 19 12 15 29 -28z
m-686 20 c0 -5 -2 -10 -4 -10 -3 0 -8 5 -11 10 -3 6 -1 10 4 10 6 0 11 -4 11
-10z m500 6 c0 -3 -4 -8 -10 -11 -5 -3 -10 -1 -10 4 0 6 5 11 10 11 6 0 10 -2
10 -4z m-361 -13 c-4 -23 3 -32 19 -26 14 5 15 4 4 -8 -11 -12 -15 -11 -27 5
-8 10 -12 23 -9 27 6 11 14 12 13 2z m146 -3 c3 -5 1 -10 -4 -10 -6 0 -11 5
-11 10 0 6 2 10 4 10 3 0 8 -4 11 -10z m-415 -4 c0 -2 -8 -10 -17 -17 -16 -13
-17 -12 -4 4 13 16 21 21 21 13z m333 -35 c-4 -4 -11 -10 -14 -14 -4 -5 -6 3
-5 16 1 20 4 23 14 15 7 -6 9 -14 5 -17z m65 16 c26 10 11 -7 -20 -22 -18 -8
-25 -10 -16 -3 15 11 15 13 0 26 -15 12 -15 12 3 4 11 -5 26 -7 33 -5z m192 3
c0 -5 -4 -10 -10 -10 -5 0 -10 5 -10 10 0 6 5 10 10 10 6 0 10 -4 10 -10z m64
-17 c4 -9 3 -20 -2 -25 -6 -6 -11 1 -14 16 -6 29 6 35 16 9z m66 -8 c0 -8 -2
-15 -4 -15 -2 0 -6 7 -10 15 -3 8 -1 15 4 15 6 0 10 -7 10 -15z m118 -50 c-3
-14 -2 -28 3 -31 4 -2 5 -12 2 -21 -5 -12 -2 -15 9 -10 10 3 19 0 22 -8 4 -11
-2 -14 -19 -13 -20 2 -25 8 -25 31 0 16 -4 26 -10 22 -14 -9 -12 8 3 24 8 10
8 12 0 7 -6 -3 -14 -2 -17 3 -4 5 2 12 11 14 10 3 20 5 22 6 2 0 1 -10 -1 -24z
m-983 -44 c-3 -17 -1 -32 5 -36 5 -3 7 -12 3 -20 -11 -30 -20 -14 -22 35 0 28
4 50 9 50 6 0 8 -13 5 -29z m915 -11 c0 -5 -5 -10 -11 -10 -5 0 -7 5 -4 10 3
6 8 10 11 10 2 0 4 -4 4 -10z m-1152 -50 c-7 -10 -14 -17 -17 -15 -4 4 18 35
25 35 2 0 -1 -9 -8 -20z m698 0 c0 -14 -4 -15 -17 -7 -19 12 -17 24 3 24 8 0
14 -8 14 -17z m564 -5 c0 -8 -7 -15 -15 -15 -13 0 -14 3 -3 15 16 18 18 18 18
0z m-1296 -53 c-9 -8 -13 -21 -10 -28 3 -8 0 -11 -8 -8 -10 4 -10 12 3 38 9
18 19 29 23 23 3 -6 0 -17 -8 -25z m1286 8 c0 -5 -5 -10 -11 -10 -5 0 -7 5 -4
10 3 6 8 10 11 10 2 0 4 -4 4 -10z m-1310 -70 c0 -11 -7 -20 -15 -20 -8 0 -15
5 -15 10 0 6 5 10 11 10 5 0 7 5 4 10 -3 6 -1 10 4 10 6 0 11 -9 11 -20z
m1231 -3 c-13 -13 -26 -3 -16 12 3 6 11 8 17 5 6 -4 6 -10 -1 -17z m90 8 c2
-25 1 -55 -1 -57 -1 -2 -3 -21 -5 -43 -1 -22 -5 -53 -9 -70 -3 -16 -7 -47 -8
-67 -1 -22 -5 -35 -11 -31 -6 4 -8 -1 -4 -12 4 -9 3 -23 -3 -30 -10 -11 -14
-26 -24 -80 -1 -5 -5 -16 -9 -22 -6 -9 -2 -13 10 -14 17 0 17 -1 0 -8 -10 -4
-19 -11 -19 -16 0 -6 -5 -20 -11 -32 -7 -16 -6 -27 3 -38 11 -13 10 -14 -3
-10 -11 5 -17 -2 -22 -24 -4 -17 -11 -33 -16 -36 -5 -4 -9 -11 -9 -16 0 -6 5
-7 12 -3 7 5 8 3 4 -5 -5 -7 -15 -10 -23 -7 -13 5 -14 0 -9 -26 4 -20 3 -28
-3 -19 -7 10 -12 8 -25 -10 -14 -20 -18 -22 -26 -9 -9 15 6 44 19 35 11 -6 10
28 -1 42 -5 7 -5 14 1 17 5 4 12 2 16 -4 9 -15 25 -12 25 5 0 8 -4 15 -9 15
-14 0 -7 40 8 49 8 5 20 7 28 4 7 -3 13 0 13 6 0 6 -7 11 -15 11 -8 0 -15 5
-15 10 0 6 8 10 18 10 15 0 18 6 14 30 -4 26 -2 29 14 24 16 -6 17 -4 7 6 -10
11 -10 17 3 31 14 16 14 18 -6 29 -20 11 -25 21 -8 17 7 -2 48 47 48 58 0 3
-5 3 -11 -1 -8 -4 -8 0 0 15 7 12 9 26 6 31 -3 6 -2 10 3 10 6 0 9 16 7 35 -2
19 1 35 6 35 6 0 7 9 4 21 -5 15 -4 19 4 15 7 -4 11 1 12 13 3 62 3 66 -14 65
-9 -1 -17 3 -17 8 0 6 10 8 21 5 19 -5 21 -2 15 24 -3 16 -1 29 4 29 6 0 11
-7 11 -15z m289 5 c0 -5 -4 -10 -10 -10 -5 0 -10 5 -10 10 0 6 5 10 10 10 6 0
10 -4 10 -10z m10 -30 c0 -5 -5 -10 -11 -10 -5 0 -7 5 -4 10 3 6 8 10 11 10 2
0 4 -4 4 -10z m-391 -21 c-16 -10 -23 -4 -14 10 3 6 11 8 17 5 6 -4 5 -9 -3
-15z m408 -6 c-4 -3 0 -17 8 -30 9 -13 12 -23 8 -23 -5 0 -16 14 -25 30 -16
27 -16 30 -1 30 9 0 13 -3 10 -7z m-1687 -56 c10 -4 8 -6 -7 -6 -15 -1 -21 -6
-17 -15 3 -8 1 -16 -3 -19 -5 -3 -8 6 -7 21 2 44 4 48 12 36 4 -6 14 -14 22
-17z m1720 -17 c0 -5 -4 -10 -10 -10 -5 0 -10 5 -10 10 0 6 5 10 10 10 6 0 10
-4 10 -10z m-854 -55 c-1 -18 -4 -21 -15 -12 -9 8 -10 12 -2 15 9 3 9 8 0 18
-9 12 -9 13 3 9 9 -4 15 -17 14 -30z m-441 7 c-3 -3 -11 0 -18 7 -9 10 -8 11
6 5 10 -3 15 -9 12 -12z m854 9 c7 -5 9 -11 4 -14 -4 -3 -17 1 -28 9 -21 16 0
20 24 5z m-866 -34 c3 -8 -1 -14 -8 -14 -7 0 -11 6 -8 14 3 7 6 13 8 13 2 0 5
-6 8 -13z m451 -33 c5 -14 4 -15 -9 -4 -17 14 -19 20 -6 20 5 0 12 -7 15 -16z
m926 -52 c0 -15 -2 -15 -10 -2 -13 20 -13 33 0 25 6 -3 10 -14 10 -23z m-1530
-119 c0 -5 -15 -16 -33 -26 l-32 -19 24 26 c24 26 41 33 41 19z m954 -44 c-3
-5 -12 -9 -20 -9 -8 0 -12 -4 -9 -10 3 -5 2 -10 -3 -10 -6 0 -9 10 -8 23 1 18
6 22 23 19 13 -2 20 -8 17 -13z m-724 -8 c0 -11 -31 -24 -38 -16 -3 3 0 5 7 5
7 0 9 5 6 10 -3 6 1 10 9 10 9 0 16 -4 16 -9z m950 -26 c13 -14 21 -27 19 -30
-3 -2 -17 9 -31 25 -32 36 -21 40 12 5z m-640 -15 c0 -5 -2 -10 -4 -10 -3 0
-8 5 -11 10 -3 6 -1 10 4 10 6 0 11 -4 11 -10z m93 -45 c4 -8 2 -17 -3 -20 -6
-4 -10 3 -10 14 0 25 6 27 13 6z m-28 -25 c-2 -11 1 -22 6 -25 5 -4 6 -11 3
-17 -4 -7 -2 -8 4 -4 6 4 9 13 6 21 -4 10 0 12 15 8 16 -4 19 -9 11 -18 -8 -9
-8 -15 0 -20 5 -3 10 -10 10 -15 0 -13 -30 -40 -43 -39 -9 0 -8 2 0 6 10 3 9
11 -2 34 -9 16 -12 29 -8 29 4 0 2 5 -5 12 -14 14 -16 48 -3 48 6 0 8 -9 6
-20z m635 -40 c0 -5 -2 -10 -4 -10 -3 0 -8 5 -11 10 -3 6 -1 10 4 10 6 0 11
-4 11 -10z m-731 -20 c-11 -7 -10 -13 6 -32 15 -17 16 -20 3 -9 -16 12 -22 9
-19 -11 2 -12 -9 -9 -25 7 -22 21 -9 50 22 52 19 1 23 -2 13 -7z m403 -5 c0
-5 -5 -11 -11 -13 -6 -2 -11 4 -11 13 0 9 5 15 11 13 6 -2 11 -8 11 -13z m-24
-37 c0 -7 2 -22 4 -32 2 -10 -3 -21 -10 -23 -7 -3 -10 1 -6 10 3 8 -2 21 -10
30 -14 14 -14 16 2 20 9 3 17 5 18 6 0 0 1 -5 2 -11z m-208 -28 c0 -4 -11 -7
-24 -7 -19 0 -22 2 -13 12 12 13 37 9 37 -5z m178 -20 c-2 -16 0 -32 6 -34 6
-3 4 -5 -4 -5 -31 2 -39 -2 -45 -22 -4 -12 -12 -18 -21 -15 -8 3 -14 -1 -14
-11 0 -12 -3 -13 -13 -4 -16 13 -28 5 -20 -15 4 -10 -2 -11 -25 -4 -33 9 -43
5 -36 -15 5 -11 -49 -40 -68 -36 -5 0 -8 -4 -8 -9 0 -6 -6 -10 -13 -10 -16 0
-11 56 6 67 5 3 7 1 4 -4 -4 -6 0 -16 8 -23 13 -10 15 -9 15 10 0 19 3 20 15
10 12 -10 18 -6 35 22 16 26 20 29 21 13 0 -11 3 -14 6 -7 2 6 9 10 14 6 5 -3
14 -2 20 2 8 4 8 9 1 13 -6 4 2 14 18 23 27 15 28 15 22 0 -5 -15 -3 -15 11
-4 8 8 13 20 10 29 -5 12 -1 14 15 8 17 -5 22 -2 22 13 0 18 8 32 18 32 2 0 2
-13 0 -30z m-238 -7 c0 -13 -3 -13 -15 -3 -8 7 -12 16 -9 21 8 13 24 1 24 -18z
m137 11 c-3 -3 -12 -4 -19 -1 -8 3 -5 6 6 6 11 1 17 -2 13 -5z m-57 -15 c0 6
4 11 9 11 5 0 7 -9 4 -20 -4 -16 -9 -18 -24 -9 -15 7 -19 6 -19 -4 0 -19 -37
-29 -44 -11 -3 7 -1 16 4 19 6 4 10 1 10 -4 0 -19 18 -12 25 10 5 16 10 18 21
8 10 -8 14 -8 14 0z m-76 -64 c3 -8 1 -15 -4 -15 -6 0 -10 7 -10 15 0 8 2 15
4 15 2 0 6 -7 10 -15z m-89 -25 c3 -5 2 -10 -4 -10 -5 0 -13 5 -16 10 -3 6 -2
10 4 10 5 0 13 -4 16 -10z m24 -67 l-13 -38 -6 29 c-5 28 -6 29 -22 13 -20
-20 -29 -22 -25 -4 1 6 -6 11 -15 11 -9 -1 -19 5 -22 13 -3 8 -1 11 4 8 6 -3
10 -1 10 5 0 7 6 8 19 0 28 -14 71 -9 72 10 0 10 2 11 6 3 2 -7 -1 -30 -8 -50z"/>
<path d="M2306 2545 c4 -8 8 -15 10 -15 2 0 4 7 4 15 0 8 -4 15 -10 15 -5 0
-7 -7 -4 -15z"/>
<path d="M2326 2505 c4 -8 10 -15 15 -15 4 0 6 7 3 15 -4 8 -10 15 -15 15 -4
0 -6 -7 -3 -15z"/>
<path d="M1970 2491 c0 -5 5 -13 10 -16 6 -3 10 -2 10 4 0 5 -4 13 -10 16 -5
3 -10 2 -10 -4z"/>
<path d="M1830 2450 c0 -5 5 -10 10 -10 6 0 10 5 10 10 0 6 -4 10 -10 10 -5 0
-10 -4 -10 -10z"/>
<path d="M1920 2441 c0 -10 19 -25 25 -20 1 2 -3 10 -11 17 -8 7 -14 8 -14 3z"/>
<path d="M1896 2427 c3 -10 9 -15 12 -12 3 3 0 11 -7 18 -10 9 -11 8 -5 -6z"/>
<path d="M1715 2420 c3 -5 8 -10 11 -10 2 0 4 5 4 10 0 6 -5 10 -11 10 -5 0
-7 -4 -4 -10z"/>
<path d="M2121 2284 c-13 -30 -14 -54 -2 -54 5 0 7 9 4 20 -3 11 -1 20 5 20
13 0 24 28 13 34 -4 3 -13 -6 -20 -20z"/>
<path d="M1952 2273 c0 -5 -2 -16 -7 -26 -4 -11 -3 -23 3 -29 9 -9 10 -6 7 10
-2 12 0 24 6 27 12 8 12 25 -1 25 -5 0 -9 -3 -8 -7z"/>
<path d="M1268 2184 c10 -20 42 -52 42 -42 0 3 -12 18 -26 34 -17 19 -22 22
-16 8z"/>
<path d="M1330 2095 c0 -8 4 -15 10 -15 5 0 7 7 4 15 -4 8 -8 15 -10 15 -2 0
-4 -7 -4 -15z"/>
<path d="M1434 2065 c21 -19 41 -35 45 -36 38 -5 49 -4 45 3 -3 4 -16 8 -30 8
-13 0 -24 5 -24 10 0 6 -7 10 -15 10 -8 0 -19 9 -25 20 -6 11 -16 20 -22 20
-7 0 5 -16 26 -35z"/>
<path d="M1980 1937 c0 -5 7 -7 15 -4 8 4 17 2 20 -3 4 -6 2 -10 -3 -10 -6 0
-12 -7 -16 -15 -4 -12 -2 -13 13 -6 10 6 22 7 26 3 4 -4 1 5 -5 20 -12 25 -50
36 -50 15z"/>
<path d="M1750 2316 c0 -2 9 -6 20 -9 11 -3 18 -1 14 4 -5 9 -34 13 -34 5z"/>
<path d="M1737 2293 c-10 -9 -9 -23 2 -23 5 0 11 7 15 15 5 15 -5 20 -17 8z"/>
<path d="M1870 2270 c12 -11 27 -17 32 -14 5 3 -3 12 -17 20 -38 19 -42 18
-15 -6z"/>
<path d="M1685 2260 c3 -5 8 -10 11 -10 2 0 4 5 4 10 0 6 -5 10 -11 10 -5 0
-7 -4 -4 -10z"/>
<path d="M1789 2143 c-13 -16 -12 -17 4 -4 16 13 21 21 13 21 -2 0 -10 -8 -17
-17z"/>
<path d="M1621 2136 c-9 -11 -8 -15 5 -20 21 -8 24 -8 24 5 0 5 -5 7 -12 3 -8
-5 -9 -2 -5 9 8 21 3 22 -12 3z"/>
<path d="M1670 2111 c13 -25 26 -27 34 -4 4 10 4 14 0 11 -4 -4 -15 -3 -26 3
-18 9 -18 8 -8 -10z"/>
<path d="M2190 2299 c0 -5 5 -7 10 -4 6 3 10 8 10 11 0 2 -4 4 -10 4 -5 0 -10
-5 -10 -11z"/>
<path d="M1820 1861 c0 -5 5 -13 10 -16 6 -3 10 -2 10 4 0 5 -4 13 -10 16 -5
3 -10 2 -10 -4z"/>
<path d="M1675 1890 c3 -5 8 -10 11 -10 2 0 4 5 4 10 0 6 -5 10 -11 10 -5 0
-7 -4 -4 -10z"/>
<path d="M2080 1481 c0 -6 4 -13 10 -16 6 -3 7 1 4 9 -7 18 -14 21 -14 7z"/>
<path d="M2003 1454 c-6 -13 -7 -26 -2 -29 4 -3 11 6 15 20 9 34 2 40 -13 9z"/>
<path d="M2276 1446 c3 -8 13 -17 21 -20 25 -10 23 -3 -3 17 -18 13 -22 14
-18 3z"/>
<path d="M2060 1416 c0 -2 8 -10 18 -17 15 -13 16 -12 3 4 -13 16 -21 21 -21
13z"/>
<path d="M1980 1400 c0 -5 5 -10 10 -10 6 0 10 -5 10 -11 0 -5 -5 -7 -12 -3
-7 5 -9 2 -5 -8 3 -9 0 -21 -6 -27 -8 -8 -6 -11 7 -11 9 0 14 5 11 10 -3 6 -2
10 2 10 5 0 10 14 11 30 2 21 -2 30 -13 30 -8 0 -15 -4 -15 -10z"/>
<path d="M2051 1344 c0 -11 3 -14 6 -6 3 7 2 16 -1 19 -3 4 -6 -2 -5 -13z"/>
<path d="M2311 1310 c24 -31 34 -34 23 -6 -3 9 -11 16 -18 16 -6 0 -4 5 4 10
12 8 11 10 -8 10 l-23 0 22 -30z"/>
<path d="M1971 1263 c-12 -13 -12 -16 0 -23 8 -5 19 -4 26 2 15 12 18 32 4 24
-5 -4 -11 -2 -13 3 -1 5 -9 2 -17 -6z"/>
<path d="M2290 1270 c0 -5 4 -10 9 -10 6 0 13 5 16 10 3 6 -1 10 -9 10 -9 0
-16 -4 -16 -10z"/>
<path d="M2250 1260 c-13 -8 -12 -10 3 -10 9 0 17 5 17 10 0 12 -1 12 -20 0z"/>
<path d="M2025 1240 c3 -5 8 -10 11 -10 2 0 4 5 4 10 0 6 -5 10 -11 10 -5 0
-7 -4 -4 -10z"/>
<path d="M2060 1229 c0 -5 5 -7 10 -4 6 3 10 8 10 11 0 2 -4 4 -10 4 -5 0 -10
-5 -10 -11z"/>
<path d="M2007 1219 c7 -7 15 -10 18 -7 3 3 -2 9 -12 12 -14 6 -15 5 -6 -5z"/>
<path d="M2294 1217 c-7 -8 -7 -20 0 -41 8 -22 8 -30 -1 -33 -7 -3 -13 -9 -13
-14 0 -4 6 -6 14 -3 16 6 28 54 14 54 -6 0 -7 11 -4 25 7 28 6 29 -10 12z"/>
<path d="M1997 1184 c-4 -4 -7 -14 -7 -23 0 -11 3 -12 11 -4 6 6 10 16 7 23
-2 6 -7 8 -11 4z"/>
<path d="M2360 1181 c0 -5 -8 -12 -17 -14 -14 -4 -13 -5 3 -6 12 0 24 6 28 14
3 8 1 15 -4 15 -6 0 -10 -4 -10 -9z"/>
<path d="M2013 1116 c-9 -11 -8 -15 6 -19 14 -3 17 0 14 14 -6 22 -5 22 -20 5z"/>
<path d="M2321 1114 c0 -11 3 -14 6 -6 3 7 2 16 -1 19 -3 4 -6 -2 -5 -13z"/>
<path d="M2254 1109 c-4 -7 -3 -9 3 -6 5 4 20 -3 31 -14 l22 -20 0 21 c0 12
-4 18 -10 15 -6 -4 -17 -2 -25 5 -10 8 -15 8 -21 -1z"/>
<path d="M2255 1080 c3 -5 8 -10 11 -10 2 0 4 5 4 10 0 6 -5 10 -11 10 -5 0
-7 -4 -4 -10z"/>
<path d="M2288 1053 c6 -2 12 -12 12 -20 0 -13 3 -13 15 -3 8 7 15 18 15 24 0
6 -4 5 -9 -3 -6 -9 -11 -10 -15 -2 -4 6 -13 11 -19 10 -9 0 -9 -2 1 -6z"/>
<path d="M2006 1015 c4 -8 10 -12 15 -9 11 6 2 24 -11 24 -5 0 -7 -7 -4 -15z"/>
<path d="M2283 991 c-9 -14 -7 -20 11 -31 19 -12 20 -12 7 4 -12 14 -12 19 -2
26 7 4 9 10 4 13 -5 3 -14 -2 -20 -12z"/>
<path d="M2220 980 c0 -5 5 -10 11 -10 5 0 7 5 4 10 -3 6 -8 10 -11 10 -2 0
-4 -4 -4 -10z"/>
<path d="M2250 944 c0 -8 5 -12 10 -9 6 4 8 11 5 16 -9 14 -15 11 -15 -7z"/>
<path d="M1990 930 c0 -5 5 -10 11 -10 5 0 7 5 4 10 -3 6 -8 10 -11 10 -2 0
-4 -4 -4 -10z"/>
<path d="M2012 893 c11 -3 15 -10 11 -20 -5 -12 -2 -12 15 3 12 10 22 19 22
20 0 0 -15 1 -32 1 -18 0 -25 -2 -16 -4z"/>
<path d="M2237 889 c7 -7 15 -10 18 -7 3 3 -2 9 -12 12 -14 6 -15 5 -6 -5z"/>
<path d="M1968 855 c-9 -10 14 -45 29 -45 7 0 12 5 11 12 -2 7 2 12 9 13 6 0
14 3 18 7 4 3 0 5 -9 4 -8 -1 -19 -5 -22 -9 -12 -12 -22 -8 -26 9 -2 9 -6 13
-10 9z"/>
<path d="M2210 830 c0 -5 5 -10 11 -10 5 0 7 5 4 10 -3 6 -8 10 -11 10 -2 0
-4 -4 -4 -10z"/>
<path d="M1980 780 c-12 -8 -11 -10 8 -10 12 0 22 5 22 10 0 13 -11 13 -30 0z"/>
<path d="M2195 770 c3 -5 8 -10 11 -10 2 0 4 5 4 10 0 6 -5 10 -11 10 -5 0 -7
-4 -4 -10z"/>
<path d="M2150 750 c0 -5 5 -10 11 -10 5 0 7 5 4 10 -3 6 -8 10 -11 10 -2 0
-4 -4 -4 -10z"/>
<path d="M2050 701 c0 -5 6 -13 13 -19 10 -8 13 -6 13 9 0 10 -6 19 -13 19 -7
0 -13 -4 -13 -9z"/>
<path d="M2097 697 c-3 -8 1 -14 8 -14 7 0 11 6 8 14 -3 7 -6 13 -8 13 -2 0
-5 -6 -8 -13z"/>
<path d="M2100 661 c0 -5 5 -13 10 -16 6 -3 10 -2 10 4 0 5 -4 13 -10 16 -5 3
-10 2 -10 -4z"/>
<path d="M2138 658 c-4 -9 -4 -27 -1 -40 5 -23 5 -23 -10 -3 -10 12 -16 15
-17 7 0 -7 -4 -10 -10 -7 -5 3 -10 1 -10 -5 0 -7 6 -10 14 -7 7 3 18 1 24 -5
15 -15 25 10 20 49 -2 21 -5 24 -10 11z"/>
<path d="M2165 661 c-6 -11 13 -26 22 -17 4 3 0 6 -8 6 -11 0 -11 2 1 10 9 6
10 10 3 10 -6 0 -14 -4 -18 -9z"/>
<path d="M1680 1585 c0 -5 5 -17 10 -25 5 -8 10 -10 10 -5 0 6 -5 17 -10 25
-5 8 -10 11 -10 5z"/>
<path d="M1617 1556 c-4 -10 -1 -13 8 -9 8 3 12 9 9 14 -7 12 -11 11 -17 -5z"/>
<path d="M1723 1535 c0 -8 4 -12 9 -9 4 3 8 9 8 15 0 5 -4 9 -8 9 -5 0 -9 -7
-9 -15z"/>
<path d="M1560 1531 c0 -6 5 -13 10 -16 6 -3 10 1 10 9 0 9 -4 16 -10 16 -5 0
-10 -4 -10 -9z"/>
<path d="M1765 1530 c-3 -5 -1 -10 4 -10 6 0 11 5 11 10 0 6 -2 10 -4 10 -3 0
-8 -4 -11 -10z"/>
<path d="M1593 1498 c-2 -16 1 -18 10 -9 7 7 8 14 1 21 -6 6 -10 2 -11 -12z"/>
<path d="M1775 1500 c3 -5 8 -10 11 -10 2 0 4 5 4 10 0 6 -5 10 -11 10 -5 0
-7 -4 -4 -10z"/>
<path d="M1730 1489 c-13 -9 -13 -10 1 -6 9 3 23 0 30 -6 11 -10 11 -9 0 6 -7
9 -14 17 -15 17 0 0 -8 -5 -16 -11z"/>
<path d="M1557 1449 c7 -7 15 -10 18 -7 3 3 -2 9 -12 12 -14 6 -15 5 -6 -5z"/>
<path d="M1565 1420 c3 -5 8 -10 11 -10 2 0 4 5 4 10 0 6 -5 10 -11 10 -5 0
-7 -4 -4 -10z"/>
<path d="M1580 1391 c0 -5 7 -12 16 -15 14 -5 15 -4 4 9 -14 17 -20 19 -20 6z"/>
<path d="M1564 1360 c0 -13 4 -16 10 -10 7 7 7 13 0 20 -6 6 -10 3 -10 -10z"/>
<path d="M1640 1359 c0 -5 5 -7 10 -4 6 3 10 8 10 11 0 2 -4 4 -10 4 -5 0 -10
-5 -10 -11z"/>
<path d="M1520 1319 c0 -5 5 -7 10 -4 6 3 10 8 10 11 0 2 -4 4 -10 4 -5 0 -10
-5 -10 -11z"/>
<path d="M1580 1319 c0 -5 5 -7 10 -4 6 3 10 8 10 11 0 2 -4 4 -10 4 -5 0 -10
-5 -10 -11z"/>
<path d="M1580 1290 c0 -5 -8 -7 -17 -4 -14 5 -15 4 -4 -4 10 -7 11 -14 1 -33
-11 -24 -11 -24 9 1 19 23 28 50 16 50 -3 0 -5 -4 -5 -10z"/>
<path d="M1625 1280 c4 -6 11 -8 16 -5 14 9 11 15 -7 15 -8 0 -12 -5 -9 -10z"/>
<path d="M1817 1219 c7 -7 15 -10 18 -7 3 3 -2 9 -12 12 -14 6 -15 5 -6 -5z"/>
<path d="M1583 1143 c-15 -5 -17 -23 -4 -23 5 0 11 7 15 15 3 8 4 15 3 14 -1
0 -8 -3 -14 -6z"/>
<path d="M1780 1090 c0 -5 5 -10 11 -10 5 0 7 5 4 10 -3 6 -8 10 -11 10 -2 0
-4 -4 -4 -10z"/>
<path d="M1595 1029 c-11 -17 1 -21 15 -4 8 9 8 15 2 15 -6 0 -14 -5 -17 -11z"/>
<path d="M1590 996 c0 -2 8 -10 18 -17 15 -13 16 -12 3 4 -13 16 -21 21 -21
13z"/>
<path d="M1495 970 c-3 -5 -2 -10 4 -10 5 0 13 5 16 10 3 6 2 10 -4 10 -5 0
-13 -4 -16 -10z"/>
<path d="M1596 924 c-9 -24 -2 -26 12 -4 7 11 8 20 3 20 -5 0 -12 -7 -15 -16z"/>
<path d="M1637 910 c-3 -11 -3 -20 -1 -20 2 0 8 9 14 20 6 11 7 20 2 20 -6 0
-12 -9 -15 -20z"/>
<path d="M1785 910 c3 -5 8 -10 11 -10 2 0 4 5 4 10 0 6 -5 10 -11 10 -5 0 -7
-4 -4 -10z"/>
<path d="M1820 900 c0 -5 5 -10 11 -10 5 0 7 5 4 10 -3 6 -8 10 -11 10 -2 0
-4 -4 -4 -10z"/>
<path d="M1613 883 c4 -6 2 -13 -5 -15 -9 -3 -9 -6 0 -12 7 -4 12 -3 12 3 0 6
8 8 18 4 18 -7 17 -5 -12 17 -11 8 -17 10 -13 3z"/>
<path d="M1520 840 c0 -5 5 -10 11 -10 5 0 7 5 4 10 -3 6 -8 10 -11 10 -2 0
-4 -4 -4 -10z"/>
<path d="M1648 748 c-22 -22 -64 -24 -76 -2 -7 13 -11 14 -17 4 -5 -8 -1 -16
9 -22 9 -5 16 -16 16 -23 0 -18 17 -20 22 -3 2 6 10 8 17 4 9 -6 8 -11 -6 -21
-10 -7 -21 -11 -25 -9 -5 3 -8 1 -8 -4 0 -6 10 -12 23 -15 12 -4 27 -16 32
-29 6 -13 17 -22 25 -21 8 2 20 -9 27 -22 8 -19 8 -24 0 -19 -7 3 -4 -1 6 -9
22 -18 54 -12 54 11 0 25 -16 42 -40 42 -16 0 -18 3 -9 12 8 8 15 8 25 0 8 -7
17 -9 20 -5 16 15 5 22 -29 19 -21 -1 -52 5 -72 16 -20 10 -31 18 -24 18 7 0
26 -7 42 -15 27 -14 30 -14 30 0 0 8 -4 15 -10 15 -5 0 -7 6 -4 14 3 8 0 17
-6 21 -7 4 -10 1 -8 -8 2 -9 -1 -16 -7 -16 -5 -1 -10 3 -10 8 0 5 -3 13 -7 17
-13 12 -9 26 6 21 9 -4 16 3 20 16 7 27 5 28 -16 5z m86 -173 c-4 -8 -7 -15
-9 -15 -2 0 -5 7 -9 15 -3 9 0 15 9 15 9 0 12 -6 9 -15z"/>
<path d="M1766 745 c4 -8 8 -15 10 -15 2 0 4 7 4 15 0 8 -4 15 -10 15 -5 0 -7
-7 -4 -15z"/>
<path d="M1685 720 c3 -5 8 -10 11 -10 2 0 4 5 4 10 0 6 -5 10 -11 10 -5 0 -7
-4 -4 -10z"/>
<path d="M1561 704 c0 -11 3 -14 6 -6 3 7 2 16 -1 19 -3 4 -6 -2 -5 -13z"/>
<path d="M1700 681 c0 -5 7 -14 15 -21 10 -9 15 -9 15 -1 0 6 -5 11 -11 11 -5
0 -7 5 -4 10 3 6 1 10 -4 10 -6 0 -11 -4 -11 -9z"/>
<path d="M1780 660 c19 -13 30 -13 30 0 0 6 -10 10 -22 10 -19 0 -20 -2 -8
-10z"/>
<path d="M1727 499 c7 -7 15 -10 18 -7 3 3 -2 9 -12 12 -14 6 -15 5 -6 -5z"/>
<path d="M2325 730 c-3 -5 1 -10 9 -10 9 0 16 5 16 10 0 6 -4 10 -9 10 -6 0
-13 -4 -16 -10z"/>
<path d="M1996 635 c4 -8 7 -15 9 -15 2 0 5 7 9 15 3 9 0 15 -9 15 -9 0 -12
-6 -9 -15z"/>
<path d="M1847 625 c3 -8 9 -12 14 -9 12 7 11 11 -5 17 -10 4 -13 1 -9 -8z"/>
<path d="M1420 3328 c0 -11 28 -10 35 1 3 6 -4 9 -15 8 -11 -1 -20 -5 -20 -9z"/>
<path d="M1885 3220 c-3 -5 -1 -10 4 -10 6 0 11 5 11 10 0 6 -2 10 -4 10 -3 0
-8 -4 -11 -10z"/>
<path d="M1880 3152 c0 -10 -5 -23 -12 -30 -8 -8 -8 -12 -1 -12 6 0 16 14 22
30 6 18 6 30 0 30 -5 0 -9 -8 -9 -18z"/>
<path d="M2045 3140 c3 -5 8 -10 11 -10 2 0 4 5 4 10 0 6 -5 10 -11 10 -5 0
-7 -4 -4 -10z"/>
<path d="M1940 2900 c0 -5 5 -10 11 -10 5 0 7 5 4 10 -3 6 -8 10 -11 10 -2 0
-4 -4 -4 -10z"/>
<path d="M1939 2858 c0 -13 -2 -33 -5 -46 -3 -18 0 -23 13 -20 10 2 16 11 14
19 -2 8 -3 24 -3 37 -1 30 -18 40 -19 10z"/>
<path d="M1866 2834 c-4 -9 -4 -19 -1 -22 2 -3 7 3 11 12 4 9 4 19 1 22 -2 3
-7 -3 -11 -12z"/>
<path d="M2610 2189 c0 -5 5 -7 10 -4 6 3 10 8 10 11 0 2 -4 4 -10 4 -5 0 -10
-5 -10 -11z"/>
<path d="M2520 2030 c0 -6 7 -10 15 -10 8 0 15 2 15 4 0 2 -7 6 -15 10 -8 3
-15 1 -15 -4z"/>
<path d="M2390 2010 c0 -5 5 -10 11 -10 5 0 7 5 4 10 -3 6 -8 10 -11 10 -2 0
-4 -4 -4 -10z"/>
<path d="M3075 820 c-3 -5 1 -10 10 -10 9 0 13 5 10 10 -3 6 -8 10 -10 10 -2
0 -7 -4 -10 -10z"/>
<path d="M1195 471 c-3 -6 -11 -9 -16 -6 -5 4 -9 1 -9 -4 0 -6 7 -11 15 -11 8
0 15 -4 15 -10 0 -5 4 -10 10 -10 5 0 9 9 7 20 -4 25 -13 34 -22 21z"/>
</g>
</svg>
